<svg width="165" height="117" viewBox="0 0 165 117" fill="none" xmlns="http://www.w3.org/2000/svg">
<path d="M61.1489 83.1055L37.9609 100.168C42.3989 107.981 57.6489 116.293 71.0239 116.293L74.1489 87.8555C74.1489 87.8555 66.4619 86.3555 61.1489 83.1055Z" fill="url(#paint0_linear_3_32)"/>
<path d="M6.9707 42.7765C10.2127 44.3135 13.1297 47.0635 15.7127 51.3135C18.2957 55.5635 24.6287 69.4805 24.6287 69.4805L37.4987 56.6105L25.7127 37.8965H6.9707V42.7765Z" fill="url(#paint1_linear_3_32)"/>
<path d="M11.9916 11.7012C7.42159 12.6992 1.8436 19.5142 9.7166 24.8222L15.4906 27.3572L20.6896 15.5202L11.9916 11.7012Z" fill="url(#paint2_linear_3_32)"/>
<path d="M52.2179 30.5119C50.1919 35.1239 44.8129 37.2199 40.2019 35.1949C35.5899 33.1719 33.4929 27.7919 35.5179 23.1789C37.5419 18.5689 42.9219 16.4719 47.5339 18.4959C52.1459 20.5209 54.2409 25.9009 52.2179 30.5119Z" fill="url(#paint3_linear_3_32)"/>
<path d="M36.6768 34.0059C38.5198 23.0869 32.4948 18.5319 27.3508 15.8119C20.8448 12.3759 13.2048 13.7159 9.53077 18.6419C7.08277 21.9279 6.03277 24.7779 5.74177 25.1769C5.44977 25.5769 1.91877 27.4029 1.42277 28.0109C0.924774 28.6179 1.36777 29.7559 2.00677 30.4469C2.64277 31.1389 2.93277 31.6339 2.87977 32.1169C2.82877 32.5989 1.17677 37.5679 0.899775 38.4589C0.625775 39.3489 1.15677 40.2249 2.34877 40.7479C4.58277 41.7289 6.71277 42.6629 8.59977 43.4909C10.5698 44.3569 17.0608 43.7269 20.9958 41.1489C20.9958 41.1489 23.2658 43.8929 26.4508 46.0849C26.4518 46.0829 26.4518 46.0809 26.4528 46.0789C29.4738 45.0259 35.3268 41.9889 36.6768 34.0059Z" fill="url(#paint4_linear_3_32)"/>
<path d="M10.4937 26.2466C10.1957 26.9276 9.54473 27.2976 9.04073 27.0756C8.53973 26.8556 8.37072 26.1256 8.67072 25.4446C8.96972 24.7626 9.62073 24.3906 10.1227 24.6116C10.6267 24.8336 10.7927 25.5636 10.4937 26.2466Z" fill="#633433"/>
<path d="M8.81259 24.2509C8.81659 24.2549 8.85659 24.2219 8.96359 24.1979C9.07259 24.1689 9.22359 24.1479 9.39459 24.1499C9.57359 24.1399 9.77459 24.1809 9.98859 24.2349C10.1946 24.3129 10.4266 24.3829 10.6146 24.5379C10.7086 24.6109 10.8036 24.6839 10.8976 24.7529C10.9916 24.8229 11.0496 24.9309 11.1226 25.0119C11.1926 25.0989 11.2506 25.1899 11.3056 25.2719C11.3716 25.3489 11.3946 25.4469 11.4266 25.5289C11.5446 25.8609 11.5616 26.0859 11.5616 26.0859C11.5686 26.1799 11.4986 26.2599 11.4066 26.2659C11.3716 26.2689 11.3406 26.2609 11.3106 26.2449L11.2826 26.2269C11.2826 26.2269 11.0816 26.1109 10.8706 25.9289C10.7776 25.8279 10.6256 25.7569 10.4966 25.6619C10.4286 25.6179 10.3736 25.5539 10.2936 25.5229L10.0746 25.3949C10.0056 25.3509 9.93659 25.3039 9.85659 25.2739C9.77959 25.2409 9.70959 25.1989 9.63959 25.1539C9.49259 25.0989 9.35859 25.0129 9.23459 24.9569C9.10859 24.8969 9.00659 24.8399 8.93859 24.8019C8.87059 24.7599 8.80559 24.7349 8.80959 24.7349C8.67859 24.6829 8.61559 24.5369 8.66659 24.4049C8.68759 24.3579 8.71759 24.3189 8.75759 24.2919L8.81259 24.2509Z" fill="#633433"/>
<path d="M9.74999 22.0064C9.75499 22.0074 9.78599 21.9694 9.89099 21.9294C9.99199 21.8834 10.135 21.8364 10.306 21.8114C10.481 21.7744 10.686 21.7824 10.907 21.7994C11.122 21.8454 11.361 21.8774 11.573 21.9984C11.677 22.0534 11.783 22.1094 11.887 22.1664C11.99 22.2184 12.065 22.3154 12.15 22.3824C12.235 22.4574 12.304 22.5384 12.374 22.6114C12.45 22.6754 12.488 22.7684 12.533 22.8434C12.702 23.1534 12.756 23.3734 12.756 23.3734C12.778 23.4634 12.723 23.5534 12.633 23.5754C12.598 23.5834 12.565 23.5824 12.535 23.5684L12.502 23.5564C12.502 23.5564 12.286 23.4744 12.05 23.3284C11.939 23.2454 11.778 23.1984 11.636 23.1254C11.562 23.0924 11.497 23.0384 11.412 23.0214L11.177 22.9314C11.101 22.8974 11.027 22.8624 10.943 22.8434C10.863 22.8254 10.786 22.7954 10.711 22.7634C10.556 22.7304 10.41 22.6674 10.277 22.6324C10.144 22.5944 10.034 22.5524 9.96199 22.5284C9.88599 22.4954 9.81799 22.4824 9.82399 22.4834C9.68599 22.4534 9.59999 22.3144 9.62999 22.1804C9.64299 22.1294 9.66699 22.0844 9.70099 22.0524L9.74999 22.0064Z" fill="#633433"/>
<path d="M5.05072 35.0672C5.06472 35.0682 5.28073 35.1312 5.66373 35.1832C6.04173 35.2412 6.55672 35.2822 7.06972 35.2602C7.32672 35.2402 7.58772 35.2422 7.82372 35.1932C8.05972 35.1462 8.29272 35.1382 8.47372 35.0732C8.84772 34.9682 9.09373 34.8982 9.09373 34.8982L9.12872 34.8882C9.26272 34.8512 9.40173 34.9282 9.43973 35.0632C9.47573 35.1892 9.40773 35.3212 9.28873 35.3682C9.28873 35.3682 9.02672 35.4692 8.63672 35.6212C8.44372 35.7132 8.19872 35.7502 7.94572 35.8232C7.69072 35.9022 7.41173 35.9302 7.13573 35.9772C6.57673 36.0562 6.00872 36.0652 5.58472 36.0472C5.16072 36.0292 4.85272 35.9742 4.86372 35.9782C4.61172 35.9282 4.44972 35.6812 4.50272 35.4302C4.55172 35.1792 4.79772 35.0162 5.05072 35.0672Z" fill="#9D4746"/>
<path d="M44.7706 35.9191C44.9346 30.4501 42.8756 24.3981 37.5736 20.2441C36.7236 21.0521 36.0186 22.0381 35.5186 23.1781C33.4936 27.7901 35.5896 33.1701 40.2026 35.1941C41.6886 35.8481 43.2586 36.0701 44.7706 35.9191Z" fill="#BEA99A"/>
<path d="M11.9917 11.7015C11.4317 19.7795 14.1587 26.8645 20.5467 33.6315C18.7057 35.1155 18.0127 35.8435 17.5607 36.6805C17.1087 37.5145 17.6327 39.7845 17.7477 39.7195C17.8617 39.6555 20.2037 36.0896 21.4657 34.5186C23.1447 33.5056 24.8547 34.9746 24.9987 35.9556C25.1407 36.9366 24.8387 40.1726 20.9957 41.1496C20.3227 42.3956 20.7067 44.8946 22.6857 46.5306C26.7267 45.7106 33.6057 47.3586 37.3227 42.1406C41.6077 36.1315 42.9617 25.9576 35.9407 18.1796C30.3937 12.0296 21.4887 9.68955 11.9917 11.7015Z" fill="url(#paint5_linear_3_32)"/>
<path d="M15.1677 17.918C15.1677 17.918 15.3247 18.641 15.5967 19.689C15.6687 19.951 15.7447 20.232 15.8257 20.531C15.9117 20.828 16.0047 21.139 16.0967 21.462C16.3067 22.1 16.5087 22.784 16.7777 23.444C16.8917 23.782 17.0267 24.111 17.1647 24.432C17.2967 24.758 17.4367 25.076 17.5757 25.379C17.7077 25.686 17.8547 25.972 17.9887 26.25C18.1227 26.529 18.2527 26.789 18.3857 27.025C18.5107 27.264 18.6278 27.484 18.7308 27.678C18.8468 27.866 18.9387 28.036 19.0177 28.177C19.1757 28.457 19.2587 28.622 19.2587 28.622C19.2587 28.622 19.1197 28.501 18.8867 28.279C18.7727 28.167 18.6277 28.03 18.4707 27.868C18.3167 27.704 18.1557 27.505 17.9827 27.288C17.8947 27.181 17.8027 27.065 17.7087 26.95C17.6197 26.828 17.5367 26.697 17.4477 26.565C17.2717 26.3 17.0707 26.026 16.9167 25.714C16.7527 25.405 16.5597 25.097 16.4207 24.758C16.2707 24.423 16.1187 24.085 15.9907 23.737C15.8587 23.386 15.7457 23.032 15.6417 22.683C15.5267 22.335 15.4658 21.978 15.3828 21.642C15.2418 20.961 15.1517 20.317 15.1237 19.763C15.0807 19.208 15.0967 18.743 15.1137 18.421C15.1367 18.103 15.1677 17.918 15.1677 17.918Z" fill="#935048"/>
<path d="M17.298 19.9463C17.298 19.9463 17.45 20.4773 17.681 21.2743C17.796 21.6663 17.937 22.1183 18.087 22.5983C18.249 23.0733 18.415 23.5823 18.609 24.0803C18.695 24.3313 18.8 24.5783 18.898 24.8213C18.992 25.0663 19.095 25.3023 19.195 25.5343C19.292 25.7643 19.398 25.9833 19.494 26.1933C19.59 26.4063 19.682 26.6053 19.776 26.7843C19.867 26.9703 19.946 27.1393 20.019 27.2903C20.101 27.4363 20.165 27.5663 20.221 27.6753C20.329 27.8943 20.385 28.0273 20.385 28.0273C20.385 28.0273 20.275 27.9393 20.089 27.7793C19.9 27.6203 19.639 27.3803 19.37 27.0513C19.303 26.9713 19.23 26.8873 19.155 26.8003C19.086 26.7093 19.022 26.6123 18.952 26.5133C18.813 26.3123 18.655 26.1083 18.535 25.8713C18.408 25.6423 18.26 25.4073 18.149 25.1503C18.03 24.8983 17.917 24.6403 17.821 24.3743C17.718 24.1113 17.632 23.8423 17.559 23.5733C17.473 23.3103 17.432 23.0363 17.37 22.7793C17.27 22.2603 17.215 21.7713 17.204 21.3473C17.17 20.5033 17.298 19.9463 17.298 19.9463Z" fill="#935048"/>
<path d="M19.3158 21.9268C19.3158 21.9268 19.3518 22.0158 19.4168 22.1748C19.4728 22.3308 19.5638 22.5488 19.6518 22.8098C19.7458 23.0688 19.8668 23.3658 19.9668 23.6848C20.1028 23.9948 20.1898 24.3398 20.3348 24.6638C20.3978 24.8298 20.4638 24.9938 20.5198 25.1608C20.5738 25.3278 20.6518 25.4828 20.7158 25.6348C20.7808 25.7888 20.8388 25.9418 20.8928 26.0878C20.9428 26.2368 20.9988 26.3718 21.0608 26.4928C21.2908 26.9848 21.3998 27.3788 21.3998 27.3788C21.3998 27.3788 21.0758 27.1698 20.6558 26.7608C20.6028 26.7088 20.5478 26.6548 20.4918 26.5988C20.4428 26.5398 20.3968 26.4728 20.3478 26.4078C20.2498 26.2738 20.1498 26.1298 20.0518 25.9758C19.9538 25.8238 19.8428 25.6688 19.7768 25.4908C19.6948 25.3198 19.6208 25.1378 19.5468 24.9608C19.4738 24.7828 19.4148 24.5968 19.3708 24.4108C19.3248 24.2278 19.2828 24.0478 19.2488 23.8688C19.2188 23.6918 19.2068 23.5148 19.1908 23.3508C19.1768 23.1878 19.1698 23.0308 19.1788 22.8838C19.1828 22.5968 19.2128 22.3538 19.2498 22.1838C19.2808 22.0188 19.3158 21.9268 19.3158 21.9268Z" fill="#935048"/>
<path d="M22.6859 46.529C21.6399 47.623 21.2119 68.979 21.6499 77.104C22.0879 85.229 24.7129 88.667 28.7129 92.042C32.7129 95.417 38.0879 100.98 38.0879 100.98C43.3379 100.23 57.3379 91.042 62.3379 83.605C62.3379 83.605 55.7129 72.792 54.2129 65.917C52.7129 59.042 50.7129 52.229 46.7129 47.667C42.7129 43.105 30.3469 38.517 22.6859 46.529Z" fill="url(#paint6_linear_3_32)"/>
<path d="M164.774 92.2922C164.587 90.6112 154.848 66.9682 149.096 53.2822C146.452 54.7452 142.435 56.4282 136.775 57.5652C136.941 59.0252 137.083 60.5372 137.182 62.1042C137.836 72.3542 137.586 80.7292 141.399 85.3542C131.524 85.9172 112.649 85.6672 108.899 85.4172C100.586 84.4172 90.7106 75.1672 72.0516 87.3692C69.3986 94.9792 67.5876 109.327 68.7746 116.216C68.7746 116.216 69.1486 116.292 71.0236 116.292C72.8986 116.292 114.024 116.292 119.399 116.292C124.774 116.292 146.649 107.854 154.274 104.104C161.899 100.354 165.024 94.5422 164.774 92.2922Z" fill="url(#paint7_linear_3_32)"/>
<path d="M145.148 44.0425C143.148 39.6675 140.46 34.1675 140.085 32.7925C139.71 31.4175 136.939 22.7495 135.543 19.3955C134.148 16.0415 128.544 8.98048 127.711 7.73048C126.878 6.48048 125.71 3.68848 124.794 2.56348C123.878 1.43848 122.544 0.438477 121.669 0.438477C120.794 0.438477 120.045 1.85548 120.003 3.56348C119.961 5.27148 121.294 6.64648 121.294 6.64648C121.294 6.64648 120.336 8.56348 120.211 10.8135C120.086 13.0635 120.295 15.1055 121.878 17.1885C123.461 19.2715 124.46 22.2315 124.294 25.3975C124.128 28.5635 121.252 31.3975 122.877 34.1055C124.502 36.8135 126.586 36.7295 128.169 37.0635C129.752 37.3975 131.523 37.6675 132.898 40.6675C134.063 43.2085 135.855 49.4785 136.774 57.5655C142.434 56.4285 146.452 54.7455 149.095 53.2825C147.146 48.6455 145.654 45.1495 145.148 44.0425Z" fill="url(#paint8_linear_3_32)"/>
<path d="M136.917 23.0728C136.284 23.0878 136.114 23.2308 135.67 23.2308C135.087 23.2308 133.087 22.8768 133.087 22.8768L135.729 19.8538C135.666 19.6968 135.603 19.5358 135.545 19.3968C134.758 17.5048 132.636 14.4408 130.783 11.8988C129.665 10.3638 128.656 9.03577 128.089 8.25977C126.702 8.70077 122.365 11.2598 120.206 12.5588C120.298 14.1468 120.715 15.6578 121.88 17.1898C121.972 17.3108 122.054 17.4438 122.142 17.5708C123.568 19.6268 124.453 22.4168 124.296 25.3988C124.253 26.2248 124.023 27.0288 123.739 27.8128C125.419 28.0018 126.983 28.3148 128.108 28.4398C130.358 28.6898 131.794 28.1068 132.753 27.7518C133.712 27.3968 134.836 27.2928 135.066 27.2098C135.296 27.1268 136.358 26.7098 137.171 26.5848C137.369 26.5548 137.697 26.5148 138.075 26.4658C137.695 25.3258 137.3 24.1638 136.917 23.0728Z" fill="url(#paint9_linear_3_32)"/>
<path d="M33.8368 42.8551C29.0888 44.4761 25.7119 46.8551 24.5239 50.4181C23.3359 53.9811 23.8358 65.1061 25.9618 72.1681C28.0878 79.2301 35.3999 79.0432 40.3999 76.8562C45.3999 74.6692 50.3999 67.7931 50.3999 56.2931C58.0879 52.4181 77.2748 44.0431 79.5248 43.1681C81.7748 42.2931 89.8378 40.4182 93.3378 38.5431C96.8378 36.6681 113.901 27.5862 117.088 26.8462C120.276 26.1062 124.276 27.1062 126.526 27.3562C128.776 27.6062 130.212 27.0231 131.171 26.6681C132.13 26.3132 133.254 26.2092 133.484 26.1262C133.714 26.0431 134.776 25.6262 135.589 25.5012C136.402 25.3762 136.672 24.8552 136.484 24.3552C136.296 23.8552 135.589 23.2722 134.276 23.1472C132.963 23.0222 132.859 23.2722 132.276 23.2722C131.693 23.2722 129.693 22.9181 129.693 22.9181L134.381 18.5011L135.547 19.3972C135.547 19.3972 136.88 18.0012 137.11 17.5222C137.34 17.0432 137.006 14.6881 136.59 14.3341C136.173 13.9801 135.381 14.1051 134.735 13.7511C134.09 13.3971 130.006 9.20915 129.568 8.89715C129.13 8.58515 128.61 8.06515 128.172 8.23115C127.734 8.39715 117.547 16.3141 116.589 17.1271C115.631 17.9401 98.2758 24.4192 94.0889 25.6062C89.9019 26.7932 86.7138 28.9192 84.2758 29.6062C81.8378 30.2932 54.2759 38.7312 50.2759 40.2312C46.2759 41.7312 38.9618 41.1051 33.8368 42.8551Z" fill="url(#paint10_linear_3_32)"/>
<path d="M38.5869 62.793C38.3079 63.184 47.2649 59.837 48.8989 66.269C49.8319 63.459 50.3999 60.141 50.3999 56.293C43.8369 58.106 38.8989 62.356 38.5869 62.793Z" fill="url(#paint11_linear_3_32)"/>
<defs>
<linearGradient id="paint0_linear_3_32" x1="56.5228" y1="109.035" x2="55.8285" y2="86.7112" gradientUnits="userSpaceOnUse">
<stop stop-color="#F2997E"/>
<stop offset="1" stop-color="#F27E66"/>
</linearGradient>
<linearGradient id="paint1_linear_3_32" x1="22.6219" y1="62.1481" x2="21.9558" y2="40.7318" gradientUnits="userSpaceOnUse">
<stop stop-color="#F2997E"/>
<stop offset="1" stop-color="#F27E66"/>
</linearGradient>
<linearGradient id="paint2_linear_3_32" x1="2.07606" y1="11.8395" x2="13.4199" y2="19.0397" gradientUnits="userSpaceOnUse">
<stop stop-color="#844840"/>
<stop offset="1" stop-color="#572F2A"/>
</linearGradient>
<linearGradient id="paint3_linear_3_32" x1="48.4969" y1="18.21" x2="42.4683" y2="29.4563" gradientUnits="userSpaceOnUse">
<stop stop-color="#844840"/>
<stop offset="1" stop-color="#572F2A"/>
</linearGradient>
<linearGradient id="paint4_linear_3_32" x1="20.5973" y1="19.5906" x2="16.7407" y2="46.9362" gradientUnits="userSpaceOnUse">
<stop stop-color="#F2997E"/>
<stop offset="1" stop-color="#F27E66"/>
</linearGradient>
<linearGradient id="paint5_linear_3_32" x1="18.4852" y1="10.5035" x2="32.7508" y2="40.3931" gradientUnits="userSpaceOnUse">
<stop stop-color="#844840"/>
<stop offset="1" stop-color="#572F2A"/>
</linearGradient>
<linearGradient id="paint6_linear_3_32" x1="40.3546" y1="75.8898" x2="86.4005" y2="239.959" gradientUnits="userSpaceOnUse">
<stop stop-color="#343F4D"/>
<stop offset="0.5808" stop-color="#2B3440"/>
<stop offset="1" stop-color="#222A33"/>
</linearGradient>
<linearGradient id="paint7_linear_3_32" x1="108.107" y1="73.3385" x2="195.644" y2="385.247" gradientUnits="userSpaceOnUse">
<stop stop-color="#343F4D"/>
<stop offset="0.5808" stop-color="#2B3440"/>
<stop offset="1" stop-color="#222A33"/>
</linearGradient>
<linearGradient id="paint8_linear_3_32" x1="129.895" y1="28.9789" x2="160.562" y2="66.3947" gradientUnits="userSpaceOnUse">
<stop stop-color="#F2997E"/>
<stop offset="1" stop-color="#F27E66"/>
</linearGradient>
<linearGradient id="paint9_linear_3_32" x1="121.78" y1="35.4068" x2="128.623" y2="20.6291" gradientUnits="userSpaceOnUse">
<stop stop-color="#F2997E"/>
<stop offset="1" stop-color="#E26C54"/>
</linearGradient>
<linearGradient id="paint10_linear_3_32" x1="80.1058" y1="34.7819" x2="87.1057" y2="92.9469" gradientUnits="userSpaceOnUse">
<stop stop-color="#F2997E"/>
<stop offset="1" stop-color="#F27E66"/>
</linearGradient>
<linearGradient id="paint11_linear_3_32" x1="31.1392" y1="75.7434" x2="44.241" y2="64.0671" gradientUnits="userSpaceOnUse">
<stop stop-color="#F2997E"/>
<stop offset="1" stop-color="#E26C54"/>
</linearGradient>
</defs>
</svg>
