<svg width="155" height="124" viewBox="0 0 155 124" fill="none" xmlns="http://www.w3.org/2000/svg">
<path d="M68.3247 2.81354L70.0307 1.96054C74.1167 0.938539 92.4497 -2.18646 107.283 4.81354V30.5156L80.5327 34.8975C80.5327 34.8975 69.8667 8.14654 68.3247 2.81354Z" fill="url(#paint0_linear_3_79)"/>
<path d="M33.6577 57.6615C35.0347 54.6195 40.3447 48.2925 44.4697 46.4795L37.9077 34.3545L25.2827 42.8345L33.6577 57.6615Z" fill="url(#paint1_linear_3_79)"/>
<path d="M3.1665 59.0229C5.0225 63.3179 12.7825 67.4849 16.4805 58.7419L17.8605 52.5869L5.24751 49.7539L3.1665 59.0229Z" fill="url(#paint2_linear_3_79)"/>
<path d="M13.9157 15.9395C18.8317 17.0425 21.9197 21.9195 20.8147 26.8325C19.7117 31.7475 14.8357 34.8375 9.92074 33.7335C5.00674 32.6305 1.91774 27.7515 3.02074 22.8375C4.12374 17.9255 9.00374 14.8355 13.9157 15.9395Z" fill="url(#paint3_linear_3_79)"/>
<path d="M20.326 30.5216C9.25395 30.8066 5.93995 37.5916 4.25595 43.1646C2.13195 50.2066 4.91196 57.4496 10.449 60.1116C14.145 61.8826 17.14 62.3676 17.591 62.5766C18.039 62.7866 20.507 65.9016 21.198 66.2716C21.89 66.6436 22.923 65.9906 23.479 65.2326C24.037 64.4746 24.465 64.0956 24.95 64.0546C25.434 64.0116 30.628 64.6796 31.554 64.7806C32.48 64.8816 33.24 64.1916 33.524 62.9216C34.058 60.5406 34.566 58.2716 35.018 56.2606C35.491 54.1606 33.626 47.9116 30.342 44.5436C30.342 44.5436 32.6 41.7906 34.142 38.2426C34.139 38.2426 34.137 38.2426 34.135 38.2436C32.523 35.4786 28.419 30.3156 20.326 30.5216Z" fill="url(#paint4_linear_3_79)"/>
<path d="M17.7288 57.705C18.4568 57.867 18.9438 58.434 18.8228 58.973C18.7028 59.508 18.0188 59.812 17.2918 59.649C16.5668 59.487 16.0758 58.92 16.1978 58.383C16.3168 57.846 17.0018 57.545 17.7288 57.705Z" fill="#633433"/>
<path d="M16.0939 59.7386C16.0959 59.7326 16.0559 59.6996 16.0119 59.6006C15.9629 59.4976 15.9139 59.3546 15.8819 59.1866C15.8399 59.0126 15.8398 58.8056 15.8528 58.5866C15.8908 58.3676 15.9158 58.1296 16.0298 57.9126C16.0828 57.8076 16.1338 57.7006 16.1868 57.5946C16.2378 57.4896 16.3329 57.4116 16.3969 57.3246C16.4699 57.2386 16.5458 57.1656 16.6178 57.0956C16.6808 57.0146 16.7718 56.9746 16.8468 56.9266C17.1508 56.7486 17.3658 56.6906 17.3658 56.6906C17.4568 56.6636 17.5498 56.7176 17.5718 56.8076C17.5838 56.8406 17.5808 56.8726 17.5708 56.9056L17.5588 56.9386C17.5588 56.9386 17.4828 57.1566 17.3458 57.3976C17.2638 57.5086 17.2248 57.6716 17.1568 57.8166C17.1258 57.8916 17.0718 57.9576 17.0568 58.0426L16.9738 58.2816C16.9438 58.3586 16.9109 58.4326 16.8969 58.5176C16.8789 58.5986 16.8518 58.6776 16.8208 58.7526C16.7948 58.9076 16.7369 59.0576 16.7059 59.1886C16.6719 59.3256 16.6348 59.4366 16.6108 59.5086C16.5818 59.5836 16.5688 59.6556 16.5688 59.6516C16.5408 59.7876 16.4099 59.8786 16.2709 59.8526C16.2199 59.8406 16.1768 59.8176 16.1418 59.7846L16.0939 59.7386Z" fill="#633433"/>
<path d="M13.7097 59.2481C13.7107 59.2431 13.6677 59.2201 13.6077 59.1231C13.5447 59.0341 13.4687 58.9031 13.4117 58.7411C13.3417 58.5751 13.3107 58.3721 13.2847 58.1511C13.2887 57.9341 13.2747 57.6921 13.3517 57.4611C13.3867 57.3471 13.4207 57.2341 13.4577 57.1201C13.4887 57.0091 13.5697 56.9171 13.6187 56.8211C13.6767 56.7231 13.7397 56.6381 13.7997 56.5571C13.8487 56.4691 13.9317 56.4151 13.9967 56.3571C14.2677 56.1311 14.4757 56.0371 14.4757 56.0371C14.5587 55.9961 14.6587 56.0341 14.6967 56.1191C14.7127 56.1511 14.7167 56.1841 14.7107 56.2161L14.7057 56.2511C14.7057 56.2511 14.6657 56.4781 14.5677 56.7381C14.5087 56.8631 14.4927 57.0301 14.4477 57.1831C14.4307 57.2621 14.3887 57.3361 14.3887 57.4221L14.3457 57.6701C14.3257 57.7501 14.3067 57.8311 14.3057 57.9181C14.3017 58.0001 14.2877 58.0821 14.2717 58.1601C14.2687 58.3181 14.2347 58.4741 14.2247 58.6101C14.2127 58.7491 14.1937 58.8651 14.1837 58.9411C14.1657 59.0221 14.1657 59.0891 14.1657 59.0841C14.1617 59.2271 14.0427 59.3361 13.9047 59.3341C13.8537 59.3301 13.8037 59.3161 13.7667 59.2871L13.7097 59.2481Z" fill="#633433"/>
<path d="M27.4317 61.3569C27.4297 61.3419 27.4497 61.1179 27.4257 60.7339C27.4117 60.3509 27.3537 59.8359 27.2347 59.3379C27.1657 59.0889 27.1177 58.8329 27.0227 58.6109C26.9317 58.3869 26.8797 58.1599 26.7807 57.9939C26.6047 57.6479 26.4897 57.4189 26.4897 57.4189L26.4737 57.3869C26.4107 57.2639 26.4597 57.1119 26.5857 57.0499C26.7037 56.9899 26.8457 57.0319 26.9137 57.1399C26.9137 57.1399 27.0617 57.3759 27.2857 57.7309C27.4137 57.9049 27.4967 58.1369 27.6167 58.3719C27.7457 58.6079 27.8247 58.8759 27.9237 59.1379C28.1087 59.6709 28.2267 60.2279 28.2897 60.6479C28.3547 61.0669 28.3597 61.3799 28.3607 61.3669C28.3607 61.6229 28.1477 61.8299 27.8917 61.8279C27.6357 61.8239 27.4277 61.6139 27.4317 61.3569Z" fill="#9D4746"/>
<path d="M20.6509 22.2109C15.2519 23.0979 9.70695 26.279 6.64795 32.279C7.60295 32.959 8.70594 33.4619 9.92094 33.7339C14.8349 34.8379 19.7119 31.7479 20.8149 26.8329C21.1719 25.2479 21.0899 23.6659 20.6509 22.2109Z" fill="#BEA99A"/>
<path d="M3.16674 59.0229C11.2017 58.0249 17.6327 53.9889 23.0487 46.4239C24.8597 47.9449 25.7067 48.4849 26.6147 48.7679C27.5187 49.0539 29.6477 48.1029 29.5607 48.0049C29.4757 47.9039 25.5277 46.2879 23.7437 45.3519C22.4287 43.8989 23.5407 41.9389 24.4757 41.6099C25.4137 41.2829 28.6457 40.9579 30.3407 44.5429C31.6947 44.9639 34.0717 44.1069 35.2977 41.8529C33.7187 38.0429 34.0187 30.9769 28.1847 28.3279C21.4657 25.2729 11.2217 25.8949 4.93274 34.2769C-0.0382633 40.9009 -0.628262 50.0889 3.16674 59.0229Z" fill="url(#paint5_linear_3_79)"/>
<path d="M8.65869 54.7164C8.65869 54.7164 9.3367 54.4214 10.3137 53.9534C10.5567 53.8324 10.8187 53.7034 11.0967 53.5654C11.3717 53.4264 11.6597 53.2744 11.9557 53.1214C12.5417 52.7934 13.1747 52.4644 13.7717 52.0754C14.0827 51.8974 14.3777 51.7014 14.6677 51.5054C14.9617 51.3144 15.2457 51.1144 15.5197 50.9214C15.7947 50.7324 16.0467 50.5334 16.2947 50.3484C16.5427 50.1634 16.7737 49.9864 16.9797 49.8084C17.1897 49.6434 17.3827 49.4844 17.5547 49.3464C17.7187 49.1964 17.8667 49.0734 17.9907 48.9694C18.2347 48.7594 18.3797 48.6484 18.3797 48.6484C18.3797 48.6484 18.2877 48.8064 18.1147 49.0774C18.0267 49.2134 17.9207 49.3794 17.7917 49.5644C17.6607 49.7484 17.4947 49.9434 17.3167 50.1554C17.2257 50.2624 17.1307 50.3744 17.0377 50.4884C16.9337 50.5994 16.8207 50.7074 16.7097 50.8194C16.4817 51.0434 16.2517 51.2934 15.9777 51.5044C15.7067 51.7254 15.4407 51.9724 15.1337 52.1744C14.8337 52.3854 14.5317 52.6004 14.2137 52.7904C13.8957 52.9874 13.5687 53.1674 13.2447 53.3344C12.9287 53.5164 12.5897 53.6434 12.2737 53.7894C11.6347 54.0594 11.0187 54.2694 10.4807 54.4024C9.9437 54.5504 9.4847 54.6244 9.1657 54.6704C8.8447 54.7104 8.65869 54.7164 8.65869 54.7164Z" fill="#935048"/>
<path d="M10.2407 52.2353C10.2407 52.2353 10.7327 51.9833 11.4717 51.6043C11.8317 51.4163 12.2507 51.1913 12.6927 50.9513C13.1297 50.7023 13.5947 50.4423 14.0467 50.1553C14.2767 50.0223 14.4997 49.8713 14.7207 49.7303C14.9437 49.5903 15.1557 49.4423 15.3637 49.3013C15.5707 49.1623 15.7657 49.0153 15.9537 48.8813C16.1427 48.7463 16.3207 48.6173 16.4787 48.4893C16.6417 48.3653 16.7927 48.2553 16.9267 48.1553C17.0547 48.0473 17.1707 47.9593 17.2667 47.8823C17.4617 47.7333 17.5817 47.6543 17.5817 47.6543C17.5817 47.6543 17.5157 47.7803 17.3937 47.9923C17.2717 48.2093 17.0857 48.5103 16.8167 48.8383C16.7517 48.9183 16.6817 49.0063 16.6117 49.0983C16.5347 49.1823 16.4517 49.2623 16.3687 49.3513C16.1977 49.5263 16.0277 49.7203 15.8197 49.8833C15.6187 50.0513 15.4177 50.2423 15.1847 50.3993C14.9617 50.5673 14.7307 50.7273 14.4857 50.8723C14.2497 51.0223 14.0017 51.1583 13.7507 51.2823C13.5097 51.4163 13.2497 51.5103 13.0087 51.6203C12.5197 51.8173 12.0497 51.9663 11.6357 52.0573C10.8117 52.2543 10.2407 52.2353 10.2407 52.2353Z" fill="#935048"/>
<path d="M11.7979 49.8752C11.7979 49.8752 11.8789 49.8212 12.0219 49.7262C12.1659 49.6442 12.3609 49.5132 12.6009 49.3742C12.8369 49.2342 13.1059 49.0602 13.3989 48.8982C13.6759 48.7052 14.0009 48.5542 14.2899 48.3472C14.4399 48.2542 14.5899 48.1592 14.7419 48.0722C14.8949 47.9892 15.0329 47.8822 15.1689 47.7902C15.3089 47.6962 15.4479 47.6092 15.5809 47.5272C15.7199 47.4512 15.8389 47.3702 15.9469 47.2862C16.3849 46.9642 16.7489 46.7842 16.7489 46.7842C16.7489 46.7842 16.6079 47.1422 16.2879 47.6322C16.2459 47.6942 16.2029 47.7582 16.1589 47.8252C16.1099 47.8832 16.0519 47.9422 15.9999 48.0022C15.8859 48.1242 15.7639 48.2512 15.6319 48.3762C15.5009 48.5002 15.3689 48.6402 15.2079 48.7382C15.0559 48.8522 14.8919 48.9602 14.7309 49.0672C14.5699 49.1722 14.3989 49.2642 14.2269 49.3442C14.0539 49.4242 13.8859 49.5002 13.7169 49.5682C13.5499 49.6312 13.3789 49.6762 13.2199 49.7242C13.0619 49.7702 12.9099 49.8062 12.7639 49.8252C12.4819 49.8762 12.2379 49.8922 12.0629 49.8892C11.8939 49.8922 11.7979 49.8752 11.7979 49.8752Z" fill="#935048"/>
<path d="M35.2989 41.8524C40.0959 43.9174 41.8459 46.2925 44.4709 46.4805C47.0959 46.6685 68.4089 46.1675 72.0339 45.6055C75.6589 45.0435 80.1589 39.2925 81.4089 34.8555C80.3459 20.9805 69.9089 1.73047 69.9089 1.73047C64.6589 2.60547 54.2209 7.04346 46.5959 13.4185C38.9709 19.7935 35.0959 29.7935 34.2839 30.9185C33.4719 32.0435 32.5339 32.5835 32.7209 33.2935C32.9079 34.0025 33.8139 40.0994 35.2989 41.8524Z" fill="url(#paint6_linear_3_79)"/>
<path opacity="0.4" d="M72.0325 45.6042C75.6575 45.0412 80.1575 39.2912 81.4075 34.8542C81.2335 32.5792 80.8035 30.1581 80.2125 27.7021C70.0445 31.6851 61.0975 36.7182 55.8785 40.8842C51.8455 44.1042 50.3975 45.5461 49.7905 46.4951C57.1185 46.3981 69.3645 46.0192 72.0325 45.6042Z" fill="url(#paint7_linear_3_79)"/>
<path opacity="0.4" d="M100.783 18.9175C100.73 18.7075 93.7897 18.8955 88.7567 20.3335C87.8357 21.9935 86.9747 23.7255 86.1577 25.5425C89.2827 24.1045 100.846 19.1675 100.783 18.9175Z" fill="url(#paint8_linear_3_79)"/>
<path d="M109.022 61.3042C103.906 58.5932 97.1228 54.7922 94.6588 53.8132C105.034 51.1052 117.45 45.5642 123.367 41.7722C129.284 37.9802 133.658 27.4802 129.72 16.9802C125.806 6.54222 111.283 1.7302 103.986 3.4382C95.4078 9.4172 90.2448 16.4402 86.1578 25.5422C74.6578 32.1052 64.5948 40.4352 59.4698 46.5202C54.3448 52.6052 54.4068 53.3552 54.3448 54.6052C54.2828 55.8552 54.7828 61.6052 56.7198 63.5432C58.6568 65.4812 62.4078 67.9812 64.2198 68.4182C65.8458 68.8112 92.2678 72.6232 106.215 74.6212C108.595 69.2082 109.06 64.4052 109.022 61.3042Z" fill="url(#paint9_linear_3_79)"/>
<path d="M153.596 71.7611C151.94 70.4481 149.721 70.7611 149.721 70.7611C149.033 69.8861 147.158 68.7301 145.315 68.4801C143.471 68.2301 141.19 68.8551 137.971 67.4491C134.752 66.0431 133.596 61.6681 132.69 60.7611C131.784 59.8551 129.69 57.9801 126.471 59.5111C123.252 61.0421 121.596 64.1361 120.596 64.5421C119.596 64.9481 117.69 65.1051 114.627 64.0421C113.622 63.6931 111.52 62.6281 109.022 61.3041C109.059 64.4061 108.594 69.2081 106.215 74.6201C107.813 74.8501 109.256 75.0561 110.47 75.2291C122.282 76.9171 133.532 76.6041 140.345 76.7291C147.158 76.8541 147.658 76.1661 149.47 76.1041C151.282 76.0421 154.47 76.4791 154.72 75.8541C154.97 75.2291 155.252 73.0731 153.596 71.7611Z" fill="url(#paint10_linear_3_79)"/>
<path opacity="0.4" d="M95.0087 53.7206C87.2837 54.3976 77.6167 55.0656 77.3667 54.9816C77.1167 54.8976 84.9497 52.1486 89.6997 51.4816C94.4497 50.8146 101.307 51.8006 101.307 51.8006L95.0087 53.7206Z" fill="url(#paint11_linear_3_79)"/>
<path d="M54.6579 15.9796C52.1459 14.0566 47.9699 13.4166 44.4699 17.2926C40.9699 21.1686 36.9699 27.2926 37.2829 35.5426C37.5959 43.7926 43.6579 48.6446 47.2199 51.2496C50.7829 53.8546 76.7199 75.6676 76.7199 75.6676L83.5949 113.293C83.5949 113.293 77.0949 113.293 76.5319 113.293C75.9689 113.293 74.6569 114.293 73.1569 115.168C71.6569 116.043 67.9689 118.606 66.1569 119.293C64.3439 119.981 61.6569 120.293 61.5939 120.981C61.5309 121.669 61.8439 123.231 63.5319 123.231C65.2199 123.231 67.4069 123.231 68.9069 123.231C70.4069 123.231 73.4069 122.293 74.6569 122.293C75.9069 122.293 78.2819 123.231 80.4699 123.231C82.6579 123.231 85.5329 123.231 87.4699 123.231C89.4069 123.231 92.0949 122.293 92.4699 119.418C92.8449 116.543 92.4699 112.98 92.4699 112.48C92.4699 110.73 92.1569 82.7296 92.1569 79.1046C92.1569 75.4796 91.5939 70.9796 91.1569 69.7296C90.7199 68.4796 61.2189 40.1046 61.2189 40.1046C62.1579 35.1046 62.6579 22.1046 54.6579 15.9796Z" fill="url(#paint12_linear_3_79)"/>
<path d="M61.221 40.1043C61.571 38.2373 61.86 35.2523 61.667 31.9283C58.703 31.6863 55.759 29.4263 55.471 29.6663C55.096 29.9793 56.7 36.8973 61.221 40.1043Z" fill="url(#paint13_linear_3_79)"/>
<defs>
<linearGradient id="paint0_linear_3_79" x1="87.989" y1="5.84224" x2="87.322" y2="44.8426" gradientUnits="userSpaceOnUse">
<stop stop-color="#F2997E"/>
<stop offset="1" stop-color="#F27E66"/>
</linearGradient>
<linearGradient id="paint1_linear_3_79" x1="53.2277" y1="59.0727" x2="39.0407" y2="48.4481" gradientUnits="userSpaceOnUse">
<stop stop-color="#F2997E"/>
<stop offset="1" stop-color="#F27E66"/>
</linearGradient>
<linearGradient id="paint2_linear_3_79" x1="5.20357" y1="68.7289" x2="10.0953" y2="56.2147" gradientUnits="userSpaceOnUse">
<stop stop-color="#844840"/>
<stop offset="1" stop-color="#572F2A"/>
</linearGradient>
<linearGradient id="paint3_linear_3_79" x1="2.55564" y1="21.9488" x2="14.7488" y2="25.7092" gradientUnits="userSpaceOnUse">
<stop stop-color="#844840"/>
<stop offset="1" stop-color="#572F2A"/>
</linearGradient>
<linearGradient id="paint4_linear_3_79" x1="9.25999" y1="49.0656" x2="36.8376" y2="47.6078" gradientUnits="userSpaceOnUse">
<stop stop-color="#F2997E"/>
<stop offset="1" stop-color="#F27E66"/>
</linearGradient>
<linearGradient id="paint5_linear_3_79" x1="0.746386" y1="52.8814" x2="27.3467" y2="33.1495" gradientUnits="userSpaceOnUse">
<stop stop-color="#844840"/>
<stop offset="1" stop-color="#572F2A"/>
</linearGradient>
<linearGradient id="paint6_linear_3_79" x1="51.6075" y1="13.6592" x2="122.423" y2="265.988" gradientUnits="userSpaceOnUse">
<stop stop-color="#343F4D"/>
<stop offset="0.5808" stop-color="#2B3440"/>
<stop offset="1" stop-color="#222A33"/>
</linearGradient>
<linearGradient id="paint7_linear_3_79" x1="64.2982" y1="34.593" x2="89.1132" y2="123.013" gradientUnits="userSpaceOnUse">
<stop stop-color="#343F4D"/>
<stop offset="0.5808" stop-color="#2B3440"/>
<stop offset="1" stop-color="#222A33"/>
</linearGradient>
<linearGradient id="paint8_linear_3_79" x1="92.8135" y1="19.8892" x2="99.9221" y2="45.2187" gradientUnits="userSpaceOnUse">
<stop stop-color="#343F4D"/>
<stop offset="0.5808" stop-color="#2B3440"/>
<stop offset="1" stop-color="#222A33"/>
</linearGradient>
<linearGradient id="paint9_linear_3_79" x1="87.654" y1="21.4769" x2="225.367" y2="512.172" gradientUnits="userSpaceOnUse">
<stop stop-color="#343F4D"/>
<stop offset="0.5808" stop-color="#2B3440"/>
<stop offset="1" stop-color="#222A33"/>
</linearGradient>
<linearGradient id="paint10_linear_3_79" x1="124.043" y1="77.4546" x2="104.543" y2="99.5389" gradientUnits="userSpaceOnUse">
<stop stop-color="#F2997E"/>
<stop offset="1" stop-color="#F27E66"/>
</linearGradient>
<linearGradient id="paint11_linear_3_79" x1="88.9445" y1="51.9995" x2="95.3718" y2="74.9014" gradientUnits="userSpaceOnUse">
<stop stop-color="#343F4D"/>
<stop offset="0.5808" stop-color="#2B3440"/>
<stop offset="1" stop-color="#222A33"/>
</linearGradient>
<linearGradient id="paint12_linear_3_79" x1="60.933" y1="45.9031" x2="97.2655" y2="162.903" gradientUnits="userSpaceOnUse">
<stop stop-color="#F2997E"/>
<stop offset="1" stop-color="#F27E66"/>
</linearGradient>
<linearGradient id="paint13_linear_3_79" x1="52.3008" y1="40.2731" x2="58.3166" y2="34.9119" gradientUnits="userSpaceOnUse">
<stop stop-color="#F2997E"/>
<stop offset="1" stop-color="#E26C54"/>
</linearGradient>
</defs>
</svg>
