<svg width="236" height="151" viewBox="0 0 236 151" fill="none" xmlns="http://www.w3.org/2000/svg">
<path d="M56.849 87.1045L27.082 95.1045C27.082 95.1045 34.457 116.354 47.082 125.729H61.5251L66.582 101.479C66.582 101.479 59.24 93.4795 56.849 87.1045Z" fill="url(#paint0_linear_3_142)"/>
<path d="M49.1657 108.555C49.3317 105.97 51.0517 93.4806 51.7487 88.4766L30.2497 94.2535L30.0407 100.19C30.0407 100.19 29.9227 100.686 29.7197 101.534C32.1607 106.915 36.2347 114.661 41.6837 120.731C45.8127 114.773 49.0677 110.084 49.1657 108.555Z" fill="url(#paint1_linear_3_142)"/>
<path d="M37.0869 22.7686C38.8639 25.4846 39.7899 32.5526 39.0399 37.9336C38.2899 43.3146 34.3159 53.3976 34.3159 53.3976H56.8479L51.0189 22.7686H37.0869Z" fill="url(#paint2_linear_3_142)"/>
<path d="M59.5586 0.894311C55.2666 -0.962689 46.7576 1.3103 50.0486 10.2153L53.2546 15.6473L64.3876 9.07531L59.5586 0.894311Z" fill="url(#paint3_linear_3_142)"/>
<path d="M81.2268 39.6538C76.8878 42.2148 71.2978 40.7728 68.7388 36.4368C66.1738 32.1008 67.6158 26.5088 71.9538 23.9468C76.2898 21.3888 81.8808 22.8288 84.4418 27.1658C87.0028 31.5018 85.5608 37.0938 81.2268 39.6538Z" fill="url(#paint4_linear_3_142)"/>
<path d="M66.5697 33.4142C74.4437 25.6272 72.2126 18.4122 69.6256 13.1992C66.3496 6.6112 59.3666 3.2352 53.5066 5.0902C49.6016 6.3262 47.0826 8.02819 46.6146 8.18019C46.1446 8.33619 42.2117 7.75621 41.4537 7.95921C40.6957 8.16021 40.3897 9.3432 40.5057 10.2762C40.6167 11.2092 40.5636 11.7812 40.2366 12.1422C39.9176 12.5042 35.6727 15.5732 34.9277 16.1342C34.1847 16.6952 34.1046 17.7162 34.7666 18.8382C36.0076 20.9402 37.1907 22.9412 38.2377 24.7152C39.3317 26.5702 44.9697 29.8502 49.6697 30.0542C49.6697 30.0542 49.9097 33.6082 51.2157 37.2462C51.2177 37.2452 51.2186 37.2452 51.2196 37.2422C54.2866 38.1522 60.8127 39.1072 66.5697 33.4142Z" fill="url(#paint5_linear_3_142)"/>
<path d="M49.8479 11.8239C49.2089 12.2029 48.4639 12.1229 48.1839 11.6499C47.9079 11.1769 48.1949 10.4869 48.8369 10.1089C49.4769 9.72894 50.2219 9.80794 50.5019 10.2809C50.7809 10.7559 50.4899 11.4439 49.8479 11.8239Z" fill="#633433"/>
<path d="M49.6477 9.22472C49.6477 9.22972 49.7007 9.22573 49.8007 9.26973C49.9067 9.30973 50.0397 9.37971 50.1797 9.48171C50.3287 9.57871 50.4687 9.72972 50.6117 9.89772C50.7317 10.0817 50.8807 10.2757 50.9417 10.5087C50.9767 10.6237 51.0107 10.7367 51.0477 10.8487C51.0817 10.9617 51.0677 11.0817 51.0767 11.1907C51.0847 11.3007 51.0767 11.4097 51.0737 11.5077C51.0827 11.6087 51.0447 11.7017 51.0217 11.7877C50.9237 12.1267 50.8067 12.3167 50.8067 12.3167C50.7577 12.3957 50.6547 12.4217 50.5767 12.3717C50.5457 12.3537 50.5237 12.3297 50.5097 12.3007L50.4977 12.2687C50.4977 12.2687 50.4027 12.0567 50.3367 11.7867C50.3207 11.6497 50.2367 11.5037 50.1897 11.3517C50.1607 11.2737 50.1517 11.1907 50.1057 11.1197L50.0017 10.8887C49.9728 10.8117 49.9427 10.7347 49.8967 10.6627C49.8527 10.5897 49.8197 10.5147 49.7917 10.4377C49.7037 10.3067 49.6447 10.1607 49.5767 10.0407C49.5087 9.91873 49.4607 9.81372 49.4287 9.74172C49.3967 9.66772 49.3587 9.60871 49.3627 9.61071C49.2877 9.49171 49.3207 9.33772 49.4407 9.25972C49.4857 9.23472 49.5307 9.22073 49.5807 9.22173L49.6477 9.22472Z" fill="#633433"/>
<path d="M51.7198 7.94962C51.7248 7.95262 51.7718 7.9396 51.8798 7.9686C51.9878 7.9906 52.1318 8.03563 52.2848 8.11463C52.4488 8.18663 52.6108 8.3136 52.7788 8.4556C52.9268 8.6186 53.1018 8.78361 53.2028 9.00861C53.2568 9.11161 53.3098 9.2206 53.3608 9.3266C53.4148 9.4296 53.4178 9.55362 53.4468 9.65662C53.4718 9.76562 53.4808 9.87362 53.4978 9.97162C53.5208 10.0676 53.4978 10.1646 53.4898 10.2526C53.4458 10.6036 53.3608 10.8126 53.3608 10.8126C53.3258 10.9006 53.2288 10.9406 53.1418 10.9066C53.1088 10.8906 53.0828 10.8726 53.0678 10.8426L53.0468 10.8146C53.0468 10.8146 52.9188 10.6206 52.8138 10.3666C52.7708 10.2346 52.6678 10.1016 52.5948 9.96061C52.5538 9.88961 52.5348 9.80763 52.4738 9.74363L52.3348 9.5336C52.2938 9.4616 52.2548 9.38863 52.1968 9.32563C52.1418 9.26463 52.0968 9.1946 52.0548 9.1236C51.9478 9.0066 51.8668 8.87062 51.7808 8.76462C51.6948 8.65762 51.6298 8.55861 51.5858 8.49561C51.5428 8.42461 51.4958 8.37563 51.4998 8.37763C51.4048 8.27363 51.4168 8.11063 51.5198 8.01963C51.5578 7.98463 51.6038 7.96261 51.6518 7.95661L51.7198 7.94962Z" fill="#633433"/>
<path d="M40.2767 15.8069C40.2877 15.8169 40.4267 15.9928 40.7087 16.2608C40.9797 16.5278 41.3747 16.8619 41.8027 17.1429C42.0257 17.2779 42.2347 17.4309 42.4547 17.5289C42.6747 17.6299 42.8667 17.7589 43.0547 17.8109C43.4187 17.9449 43.6597 18.0319 43.6597 18.0319L43.6927 18.0459C43.8217 18.0949 43.8907 18.2369 43.8417 18.3699C43.7977 18.4919 43.6657 18.5589 43.5407 18.5269C43.5407 18.5269 43.2697 18.4559 42.8637 18.3509C42.6517 18.3129 42.4327 18.1999 42.1837 18.1119C41.9307 18.0269 41.6877 17.8869 41.4357 17.7629C40.9357 17.4999 40.4697 17.1769 40.1357 16.9139C39.8017 16.6519 39.5847 16.4269 39.5907 16.4369C39.4147 16.2479 39.4297 15.9539 39.6177 15.7809C39.8077 15.6049 40.1027 15.6169 40.2767 15.8069Z" fill="#9D4746"/>
<path d="M72.0209 39.6956C75.3489 35.3516 77.2129 29.2376 75.3339 22.7676C74.1719 22.9286 73.0249 23.3166 71.9529 23.9476C67.6149 26.5106 66.1739 32.1016 68.7379 36.4376C69.5629 37.8386 70.7059 38.9356 72.0209 39.6956Z" fill="#BEA99A"/>
<path d="M59.5586 0.894531C54.3846 7.12453 52.4616 14.4675 53.6956 23.6925C51.3356 23.8215 50.3466 24.0065 49.4916 24.4215C48.6376 24.8355 47.7356 26.9825 47.8676 26.9975C47.9976 27.0135 51.9816 25.4865 53.9226 24.9475C55.8776 25.1055 56.4076 27.2955 55.9526 28.1765C55.4936 29.0575 53.3586 31.5045 49.6696 30.0555C48.3966 30.6735 47.2486 32.9265 47.8986 35.4095C51.6586 37.1055 56.2786 42.4605 62.3436 40.3955C69.3296 38.0205 76.3706 30.5525 75.2146 20.1375C74.3046 11.9065 68.4416 4.80853 59.5586 0.894531Z" fill="url(#paint6_linear_3_142)"/>
<path d="M58.5056 7.79395C58.5056 7.79395 58.2116 8.47293 57.8186 9.48193C57.7236 9.73693 57.6226 10.01 57.5136 10.299C57.4096 10.589 57.3036 10.899 57.1916 11.213C56.9876 11.854 56.7516 12.5269 56.5846 13.2209C56.4806 13.5629 56.3986 13.9069 56.3226 14.2499C56.2386 14.5899 56.1666 14.9299 56.1026 15.2579C56.0276 15.5829 55.9806 15.9019 55.9266 16.2049C55.8726 16.5109 55.8276 16.7969 55.7976 17.0679C55.7596 17.3339 55.7256 17.5809 55.6956 17.7979C55.6786 18.0199 55.6546 18.2109 55.6366 18.3719C55.6016 18.6899 55.5726 18.8729 55.5726 18.8729C55.5726 18.8729 55.5316 18.6939 55.4706 18.3779C55.4436 18.2209 55.4076 18.0239 55.3746 17.8019C55.3446 17.5769 55.3306 17.3219 55.3156 17.0439C55.3056 16.9049 55.2986 16.7589 55.2916 16.6099C55.2906 16.4599 55.2986 16.3039 55.3036 16.1449C55.3166 15.8279 55.3126 15.4879 55.3676 15.1459C55.4156 14.7979 55.4386 14.4369 55.5246 14.0799C55.5976 13.7209 55.6726 13.3579 55.7716 13.0009C55.8686 12.6409 55.9836 12.2859 56.1026 11.9409C56.2126 11.5919 56.3726 11.266 56.5016 10.946C56.7836 10.31 57.0886 9.73495 57.3886 9.26895C57.6786 8.79195 57.9626 8.42494 58.1646 8.17294C58.3726 7.92494 58.5056 7.79395 58.5056 7.79395Z" fill="#935048"/>
<path d="M59.0505 10.6836C59.0505 10.6836 58.8625 11.2036 58.5855 11.9856C58.4495 12.3706 58.3005 12.8206 58.1425 13.2966C57.9965 13.7776 57.8325 14.2886 57.7015 14.8056C57.6245 15.0616 57.5645 15.3236 57.5025 15.5766C57.4355 15.8316 57.3825 16.0836 57.3265 16.3296C57.2705 16.5716 57.2305 16.8116 57.1835 17.0396C57.1365 17.2686 57.0965 17.4836 57.0675 17.6846C57.0335 17.8886 56.9985 18.0716 56.9705 18.2376C56.9505 18.4036 56.9255 18.5466 56.9085 18.6686C56.8695 18.9076 56.8365 19.0496 56.8365 19.0496C56.8365 19.0496 56.7985 18.9126 56.7405 18.6746C56.6805 18.4356 56.6095 18.0876 56.5835 17.6636C56.5755 17.5596 56.5645 17.4486 56.5555 17.3356C56.5525 17.2226 56.5585 17.1046 56.5585 16.9836C56.5635 16.7386 56.5545 16.4806 56.5955 16.2186C56.6245 15.9576 56.6425 15.6806 56.7025 15.4076C56.7535 15.1346 56.8095 14.8596 56.8895 14.5876C56.9595 14.3136 57.0475 14.0446 57.1445 13.7846C57.2275 13.5186 57.3555 13.2736 57.4545 13.0296C57.6775 12.5506 57.9185 12.1206 58.1555 11.7686C58.6205 11.0606 59.0505 10.6836 59.0505 10.6836Z" fill="#935048"/>
<path d="M59.5326 13.4717C59.5326 13.4717 59.5096 13.5647 59.4686 13.7317C59.4236 13.8897 59.3696 14.1217 59.2886 14.3847C59.2146 14.6497 59.1396 14.9587 59.0336 15.2777C58.9626 15.6067 58.8316 15.9387 58.7606 16.2877C58.7166 16.4587 58.6716 16.6307 58.6196 16.7997C58.5656 16.9657 58.5396 17.1387 58.5026 17.2967C58.4656 17.4617 58.4246 17.6187 58.3826 17.7687C58.3356 17.9197 58.3026 18.0637 58.2816 18.1967C58.1806 18.7307 58.0386 19.1137 58.0386 19.1137C58.0386 19.1137 57.8976 18.7547 57.7966 18.1757C57.7836 18.1057 57.7706 18.0287 57.7566 17.9497C57.7526 17.8727 57.7556 17.7917 57.7536 17.7097C57.7526 17.5447 57.7556 17.3677 57.7656 17.1887C57.7746 17.0067 57.7746 16.8167 57.8246 16.6327C57.8596 16.4447 57.9055 16.2547 57.9485 16.0677C57.9925 15.8797 58.0556 15.6947 58.1276 15.5177C58.1956 15.3437 58.2685 15.1737 58.3445 15.0067C58.4225 14.8457 58.5166 14.6957 58.6006 14.5537C58.6846 14.4137 58.7706 14.2807 58.8636 14.1667C59.0346 13.9377 59.2005 13.7557 59.3315 13.6417C59.4495 13.5247 59.5326 13.4717 59.5326 13.4717Z" fill="#935048"/>
<path d="M54.6101 41.6381C52.9201 40.4641 44.2221 43.0541 35.9021 49.1111C27.5821 55.1681 20.7691 68.9801 19.9571 74.4801C19.1451 79.9801 26.8951 96.9181 26.8951 96.9181C26.8951 96.9181 42.7081 100.168 59.1451 90.9181L58.6451 88.6681C58.6451 88.6681 62.7701 70.4181 63.2701 63.1051C63.7701 55.7921 58.8891 44.6081 54.6101 41.6381Z" fill="url(#paint7_linear_3_142)"/>
<path opacity="0.4" d="M50.905 94.6162C51.749 90.2922 52.938 81.3582 53.327 73.8662L30.5021 76.9992C29.3321 82.2292 29.076 91.5442 30.142 97.3232C34.325 97.6572 42.117 97.6562 50.905 94.6162Z" fill="url(#paint8_linear_3_142)"/>
<path d="M173.454 134.17C173.049 134.046 172.651 133.92 172.269 133.792C164.456 131.167 155.519 127.917 149.769 127.542C144.019 127.167 138.894 129.917 136.081 129.605C133.268 129.293 108.288 118.48 103.622 116.064C97.4556 109.231 86.0156 96.9982 65.2766 99.9902C57.7886 104.813 50.9506 113.749 45.8696 124.781C45.8696 124.781 46.5376 126.729 47.6216 127.313C48.7056 127.897 73.2876 144.314 77.8716 146.647C82.4556 148.98 86.8247 150.23 90.6577 150.23C95.6927 150.23 143.292 150.23 172.829 150.23C174.217 143.034 173.947 137.558 173.454 134.17Z" fill="url(#paint9_linear_3_142)"/>
<path d="M235.644 148.104C234.956 146.541 233.456 145.729 231.706 145.666C229.768 143.853 229.581 142.353 225.456 141.416C221.331 140.479 217.581 142.041 215.581 140.791C213.581 139.541 210.706 136.353 208.518 134.478C206.33 132.603 203.018 130.915 200.518 132.29C198.018 133.665 197.83 137.415 195.518 137.79C193.319 138.146 181.34 136.58 173.453 134.168C173.946 137.556 174.216 143.032 172.829 150.228C184.846 150.228 193.879 150.228 195.831 150.228C207.206 150.228 229.956 150.228 232.831 150.228C235.706 150.228 236.332 149.667 235.644 148.104Z" fill="url(#paint10_linear_3_142)"/>
<path d="M52.6448 45.542C47.6098 44.011 42.1658 44.3701 33.5198 53.3971C24.8728 62.423 26.9568 71.1051 28.0818 73.7301C29.2068 76.3551 33.0818 79.293 33.0818 79.293L32.3318 100.606C32.3318 100.606 23.4578 137.814 22.6238 139.314C19.0398 139.981 15.1238 139.982 14.3738 140.148C13.6238 140.314 8.03986 144.564 7.03986 145.064C6.03986 145.564 0.873849 147.315 0.706849 148.148C0.539849 148.981 0.289849 150.231 2.45685 150.231C4.62385 150.231 10.2068 149.48 11.7068 149.564C13.2068 149.648 19.9578 150.231 23.3738 150.231C26.7898 150.231 28.7898 149.815 29.9568 143.398C36.7898 129.731 46.6238 103.814 46.8318 100.564C47.0398 97.314 49.7068 78.3981 49.7068 78.3981C49.7068 78.3981 54.3228 74.314 56.8488 66.231C59.3738 58.147 58.3318 47.272 52.6448 45.542Z" fill="url(#paint11_linear_3_142)"/>
<path d="M33.0819 79.2927C33.0819 79.2927 34.0819 69.9157 33.8319 69.4167C33.5819 68.9177 30.502 76.9997 30.502 76.9997C30.502 76.9997 31.7699 78.2927 33.0819 79.2927Z" fill="url(#paint12_linear_3_142)"/>
<path d="M53.3271 73.8659C52.5831 70.6989 51.6021 66.8749 51.3941 66.6669C51.0811 66.3539 50.0191 74.6049 49.7061 78.3969C49.7061 78.3969 51.4191 76.8739 53.3271 73.8659Z" fill="url(#paint13_linear_3_142)"/>
<defs>
<linearGradient id="paint0_linear_3_142" x1="36.8386" y1="112.9" x2="87.2139" y2="96.1496" gradientUnits="userSpaceOnUse">
<stop stop-color="#F2997E"/>
<stop offset="1" stop-color="#F27E66"/>
</linearGradient>
<linearGradient id="paint1_linear_3_142" x1="77.2029" y1="43.2696" x2="47.453" y2="89.7694" gradientUnits="userSpaceOnUse">
<stop stop-color="#F2997E"/>
<stop offset="1" stop-color="#E26C54"/>
</linearGradient>
<linearGradient id="paint2_linear_3_142" x1="38.8674" y1="47.8954" x2="48.1155" y2="36.692" gradientUnits="userSpaceOnUse">
<stop stop-color="#F2997E"/>
<stop offset="1" stop-color="#F27E66"/>
</linearGradient>
<linearGradient id="paint3_linear_3_142" x1="51.4284" y1="-4.78383" x2="56.4316" y2="7.68538" gradientUnits="userSpaceOnUse">
<stop stop-color="#844840"/>
<stop offset="1" stop-color="#572F2A"/>
</linearGradient>
<linearGradient id="paint4_linear_3_142" x1="85.3892" y1="27.4948" x2="73.9283" y2="33.103" gradientUnits="userSpaceOnUse">
<stop stop-color="#844840"/>
<stop offset="1" stop-color="#572F2A"/>
</linearGradient>
<linearGradient id="paint5_linear_3_142" x1="61.9358" y1="12.323" x2="42.8352" y2="32.2685" gradientUnits="userSpaceOnUse">
<stop stop-color="#F2997E"/>
<stop offset="1" stop-color="#F27E66"/>
</linearGradient>
<linearGradient id="paint6_linear_3_142" x1="65.528" y1="3.7133" x2="59.6523" y2="36.3071" gradientUnits="userSpaceOnUse">
<stop stop-color="#844840"/>
<stop offset="1" stop-color="#572F2A"/>
</linearGradient>
<linearGradient id="paint7_linear_3_142" x1="37.9679" y1="55.2445" x2="139.691" y2="417.702" gradientUnits="userSpaceOnUse">
<stop stop-color="#343F4D"/>
<stop offset="0.5808" stop-color="#2B3440"/>
<stop offset="1" stop-color="#222A33"/>
</linearGradient>
<linearGradient id="paint8_linear_3_142" x1="77.4155" y1="28.4262" x2="47.9754" y2="74.4419" gradientUnits="userSpaceOnUse">
<stop stop-color="#343F4D"/>
<stop offset="0.5808" stop-color="#2B3440"/>
<stop offset="1" stop-color="#222A33"/>
</linearGradient>
<linearGradient id="paint9_linear_3_142" x1="103.512" y1="107.56" x2="290.815" y2="774.955" gradientUnits="userSpaceOnUse">
<stop stop-color="#343F4D"/>
<stop offset="0.5808" stop-color="#2B3440"/>
<stop offset="1" stop-color="#222A33"/>
</linearGradient>
<linearGradient id="paint10_linear_3_142" x1="202.551" y1="146.055" x2="227.926" y2="192.68" gradientUnits="userSpaceOnUse">
<stop stop-color="#F2997E"/>
<stop offset="1" stop-color="#F27E66"/>
</linearGradient>
<linearGradient id="paint11_linear_3_142" x1="37.5553" y1="106.479" x2="112.057" y2="169.313" gradientUnits="userSpaceOnUse">
<stop stop-color="#F2997E"/>
<stop offset="1" stop-color="#F27E66"/>
</linearGradient>
<linearGradient id="paint12_linear_3_142" x1="43.2537" y1="58.9654" x2="35.285" y2="71.4205" gradientUnits="userSpaceOnUse">
<stop stop-color="#F2997E"/>
<stop offset="1" stop-color="#E26C54"/>
</linearGradient>
<linearGradient id="paint13_linear_3_142" x1="62.9415" y1="53.6955" x2="53.0923" y2="69.09" gradientUnits="userSpaceOnUse">
<stop stop-color="#F2997E"/>
<stop offset="1" stop-color="#E26C54"/>
</linearGradient>
</defs>
</svg>
