<svg width="183" height="148" viewBox="0 0 183 148" fill="none" xmlns="http://www.w3.org/2000/svg">
<path d="M28.3369 115.229C30.4279 119.395 31.0619 122.014 31.9279 123.062C32.7939 124.111 36.7879 128.395 36.7879 128.395L45.4349 119.697L37.8059 114.229L28.3369 115.229Z" fill="url(#paint0_linear_3_105)"/>
<path d="M29.468 129.061C27.646 131.765 21.718 133.812 19.385 134.979C17.052 136.146 5.30202 141.437 5.30202 141.437C5.30202 141.437 2.67702 142.146 1.88502 142.312C1.09302 142.478 0.177023 143.978 0.010023 145.186C-0.156977 146.394 1.80201 147.229 2.96901 147.229C4.13601 147.229 6.239 146.436 6.239 146.436C6.239 146.436 10.427 147.229 12.844 147.229C15.261 147.229 20.76 146.312 22.26 146.312C23.76 146.312 29.927 147.228 31.51 147.228C33.093 147.228 37.594 147.312 39.49 145.978C41.387 144.644 39.594 138.062 39.513 136.312C39.433 134.562 39.509 133.645 40.569 132.145C41.103 131.388 45.727 126.328 50.968 120.771C44.944 119.792 40.637 117.872 37.985 116.327C34.811 121.111 31.776 125.636 29.468 129.061Z" fill="url(#paint1_linear_3_105)"/>
<path d="M82.654 31C82.654 31 64.567 71.5 62.317 76.17C60.067 80.84 56.117 86.123 54.297 90.375C53.014 93.374 44.599 106.316 37 117.765C39.652 119.311 43.959 121.231 49.983 122.209C55.135 116.748 60.884 110.808 63.941 107.999C70.108 102.332 76.607 91.833 78.941 89.555C81.275 87.277 112.191 50.25 112.191 50.25L120.607 45.666V31H82.654Z" fill="url(#paint2_linear_3_105)"/>
<path opacity="0.4" d="M121.593 44.2285V39.5625H103.606C106.76 42.6755 108.929 48.0405 110.195 52.3795C112.041 50.1735 113.177 48.8125 113.177 48.8125L121.593 44.2285Z" fill="url(#paint3_linear_3_105)"/>
<path opacity="0.4" d="M82.4139 85.3255C85.5619 81.6855 91.1099 75.1215 96.6479 68.5365C91.2229 65.4065 86.2239 62.4675 84.2849 61.2815C84.5679 61.0655 84.8209 60.8715 84.9989 60.7285C87.3859 58.8225 90.4549 50.0485 89.5439 40.9605C89.5099 40.9255 89.4759 40.8905 89.4409 40.8555L96.3639 35.4375C96.6359 35.1285 97.0959 32.8505 97.3829 29.5625H83.6389C83.6389 29.5625 77.1919 43.9985 71.5169 56.6275C71.9759 56.9495 72.3859 57.3045 72.7299 57.6735C71.9709 58.1465 71.1799 58.6515 70.3739 59.1705C67.0139 66.6415 64.1179 73.0395 63.3029 74.7315C63.0579 75.2395 62.7849 75.7575 62.5059 76.2785C63.7609 76.7035 64.9429 77.1095 65.9719 77.5325C68.1279 78.4205 75.1029 81.7845 82.4139 85.3255Z" fill="url(#paint4_linear_3_105)"/>
<path d="M144.428 113.313C148.614 117.126 150.052 118.813 150.864 119.126C151.676 119.439 158.302 121.376 158.302 121.376C158.302 121.376 159.24 117.501 157.364 115.751C155.488 114.001 146.676 110.188 146.676 110.188L144.428 113.313Z" fill="url(#paint5_linear_3_105)"/>
<path d="M99.2387 1.31348C92.0507 1.68848 77.0107 3.6475 65.5938 10.9805L87.6137 39.5635L96.3637 35.4385C97.4887 34.6255 105.677 12.5005 99.2387 1.31348Z" fill="url(#paint6_linear_3_105)"/>
<path d="M58.2601 69.8665C57.4691 68.3125 57.0331 66.3545 57.5641 65.5625C58.0941 64.7705 68.2011 60.6855 69.5521 57.8725C71.8441 53.1045 66.8411 46.8125 62.5911 46.3955C58.3411 45.9785 43.9681 53.5215 39.7181 57.1875C35.4681 60.8535 37.0941 69.8665 37.0941 69.8665H58.2601Z" fill="url(#paint7_linear_3_105)"/>
<path d="M65.5942 10.9795C58.0942 13.3965 49.0112 20.4795 49.0112 20.4795L35.6782 57.8725L39.2522 58.3135C39.2522 58.3135 54.8022 49.4995 59.3642 48.1875C63.9262 46.8755 67.6142 49.9375 68.7392 52.5625C69.8642 55.1875 68.8432 58.5635 65.5102 60.8965C63.0152 62.6435 59.2822 64.5465 57.5632 65.3935L57.5642 65.5625C57.3902 65.8225 57.3282 66.2165 57.3412 66.6725C64.6492 64.1255 77.1162 58.8195 79.6772 57.5805C82.4272 56.2495 87.3652 48.3745 88.4902 39.3115C80.4892 25.8755 70.5102 14.4795 65.5942 10.9795Z" fill="url(#paint8_linear_3_105)"/>
<path d="M38.8761 95.1493C43.3141 96.6263 51.592 93.6193 47.537 85.0343L43.8701 79.9033L33.3521 87.4213L38.8761 95.1493Z" fill="url(#paint9_linear_3_105)"/>
<path d="M13.913 58.424C18.012 55.496 23.706 56.444 26.634 60.54C29.566 64.637 28.617 70.333 24.52 73.263C20.423 76.19 14.728 75.242 11.799 71.146C8.86805 67.049 9.81703 61.353 13.913 58.424Z" fill="url(#paint10_linear_3_105)"/>
<path d="M29.0581 63.3631C21.8921 71.8061 24.7431 78.7991 27.7751 83.7671C31.6131 90.0451 38.8642 92.7991 44.5402 90.4421C48.3232 88.8691 50.6831 86.9561 51.1371 86.7621C51.5921 86.5661 55.5612 86.8011 56.2982 86.5331C57.0352 86.2651 57.2362 85.0611 57.0402 84.1401C56.8482 83.2211 56.8511 82.6471 57.1441 82.2581C57.4321 81.8691 61.3931 78.4441 62.0851 77.8191C62.7761 77.1951 62.7672 76.1721 62.0102 75.1111C60.5912 73.1261 59.2382 71.2351 58.0402 69.5591C56.7892 67.8071 50.8872 65.0311 46.1862 65.2371C46.1862 65.2371 45.6371 61.7171 44.0201 58.2071C44.0181 58.2081 44.0171 58.2091 44.0151 58.2111C40.8811 57.5721 34.2971 57.1901 29.0581 63.3631Z" fill="url(#paint11_linear_3_105)"/>
<path d="M47.5981 83.4134C48.2021 82.9804 48.9511 82.9954 49.2711 83.4424C49.5871 83.8874 49.3611 84.6014 48.7541 85.0344C48.1501 85.4684 47.4001 85.4544 47.0801 85.0084C46.7611 84.5604 46.9911 83.8484 47.5981 83.4134Z" fill="#633433"/>
<path d="M48.023 85.9877C48.022 85.9827 47.9699 85.9917 47.8659 85.9567C47.7569 85.9257 47.618 85.8667 47.471 85.7777C47.313 85.6947 47.1599 85.5567 47.0029 85.4007C46.8669 85.2287 46.703 85.0487 46.621 84.8207C46.576 84.7097 46.5319 84.5987 46.4859 84.4917C46.4419 84.3827 46.4459 84.2617 46.4259 84.1537C46.4089 84.0447 46.406 83.9357 46.402 83.8377C46.384 83.7377 46.4149 83.6417 46.4289 83.5547C46.4959 83.2087 46.5969 83.0077 46.5969 83.0077C46.6389 82.9247 46.7399 82.8907 46.8219 82.9337C46.8549 82.9487 46.8779 82.9707 46.8949 82.9987L46.9089 83.0287C46.9089 83.0287 47.0229 83.2317 47.1119 83.4947C47.1389 83.6297 47.2349 83.7677 47.2969 83.9157C47.3319 83.9897 47.3489 84.0727 47.3999 84.1397L47.5239 84.3617C47.5599 84.4357 47.5949 84.5097 47.6489 84.5777C47.6989 84.6457 47.7379 84.7177 47.7739 84.7917C47.8729 84.9147 47.9439 85.0557 48.0209 85.1677C48.0999 85.2837 48.1579 85.3857 48.1959 85.4537C48.2339 85.5237 48.277 85.5787 48.273 85.5767C48.359 85.6887 48.3379 85.8467 48.2259 85.9327C48.1839 85.9627 48.1389 85.9807 48.0899 85.9837L48.023 85.9877Z" fill="#633433"/>
<path d="M46.0691 87.4388C46.0651 87.4358 46.0191 87.4528 45.9091 87.4338C45.8001 87.4208 45.6521 87.3888 45.4921 87.3238C45.3231 87.2658 45.1501 87.1538 44.9711 87.0268C44.8091 86.8778 44.6201 86.7278 44.5001 86.5138C44.4371 86.4148 44.3761 86.3118 44.3141 86.2098C44.2511 86.1118 44.2381 85.9888 44.2001 85.8888C44.1651 85.7828 44.1471 85.6758 44.1231 85.5778C44.0911 85.4848 44.1051 85.3858 44.1051 85.2978C44.1181 84.9448 44.1851 84.7288 44.1851 84.7288C44.2121 84.6388 44.3051 84.5898 44.3951 84.6168C44.4281 84.6298 44.4561 84.6458 44.4751 84.6738L44.4981 84.6998C44.4981 84.6998 44.6421 84.8828 44.7691 85.1268C44.8231 85.2548 44.9381 85.3778 45.0221 85.5128C45.0691 85.5798 45.0961 85.6588 45.1611 85.7178L45.3171 85.9148C45.3651 85.9828 45.4111 86.0518 45.4731 86.1098C45.5341 86.1658 45.5841 86.2308 45.6331 86.2988C45.7491 86.4068 45.8421 86.5338 45.9381 86.6328C46.0331 86.7318 46.1061 86.8248 46.1561 86.8838C46.2051 86.9498 46.2571 86.9958 46.2521 86.9928C46.3551 87.0888 46.3571 87.2518 46.2631 87.3508C46.2281 87.3888 46.1841 87.4138 46.1371 87.4248L46.0691 87.4388Z" fill="#633433"/>
<path d="M56.7841 78.6127C56.7721 78.6047 56.6181 78.4407 56.3151 78.1987C56.0201 77.9567 55.5981 77.6577 55.1471 77.4147C54.9151 77.3007 54.6931 77.1657 54.4641 77.0877C54.2361 77.0067 54.0331 76.8947 53.8431 76.8587C53.4681 76.7567 53.2201 76.6907 53.2201 76.6907L53.1861 76.6817C53.0521 76.6437 52.9721 76.5077 53.0081 76.3707C53.0411 76.2447 53.1671 76.1667 53.2941 76.1867C53.2941 76.1867 53.5691 76.2347 53.9831 76.3027C54.1971 76.3227 54.4251 76.4157 54.6811 76.4827C54.9401 76.5437 55.1951 76.6637 55.4561 76.7637C55.9771 76.9817 56.4701 77.2637 56.8251 77.4967C57.1801 77.7277 57.4161 77.9347 57.4091 77.9247C57.6001 78.0967 57.6121 78.3917 57.4391 78.5797C57.2701 78.7727 56.9751 78.7867 56.7841 78.6127Z" fill="#9D4746"/>
<path d="M23.0788 57.5811C20.1408 62.1981 18.8178 68.4521 21.2538 74.7321C22.3968 74.4711 23.5068 73.9851 24.5198 73.2621C28.6178 70.3321 29.5658 64.6361 26.6338 60.5391C25.6908 59.2171 24.4548 58.2251 23.0788 57.5811Z" fill="#BEA99A"/>
<path d="M38.8762 95.1494C43.4862 88.4924 44.7632 81.0085 42.7302 71.9275C45.0702 71.5925 46.0382 71.3225 46.8542 70.8335C47.6692 70.3475 48.3792 68.1285 48.2482 68.1255C48.1172 68.1215 44.2812 69.9895 42.3952 70.6955C40.4332 70.7085 39.7142 68.5725 40.0902 67.6555C40.4712 66.7385 42.3842 64.1135 46.1862 65.2365C47.4012 64.5085 48.3482 62.1654 47.4832 59.7484C43.5902 58.3874 38.5202 53.4555 32.6592 56.0405C25.9062 59.0155 19.5432 67.0685 21.6022 77.3425C23.2272 85.4645 29.6852 92.0244 38.8762 95.1494Z" fill="url(#paint12_linear_3_105)"/>
<path d="M39.3232 88.1846C39.3232 88.1846 39.5572 87.4836 39.8602 86.4436C39.9312 86.1806 40.0093 85.9006 40.0923 85.6016C40.1703 85.3036 40.2493 84.9876 40.3333 84.6636C40.4803 84.0086 40.6562 83.3166 40.7622 82.6116C40.8372 82.2616 40.8892 81.9116 40.9342 81.5636C40.9882 81.2166 41.0302 80.8726 41.0652 80.5396C41.1112 80.2096 41.1292 79.8886 41.1572 79.5806C41.1842 79.2716 41.2052 78.9826 41.2112 78.7096C41.2262 78.4416 41.2382 78.1926 41.2492 77.9736C41.2462 77.7516 41.2532 77.5586 41.2572 77.3976C41.2652 77.0766 41.2782 76.8916 41.2782 76.8916C41.2782 76.8916 41.3352 77.0666 41.4232 77.3766C41.4652 77.5306 41.5182 77.7236 41.5692 77.9416C41.6192 78.1626 41.6552 78.4166 41.6932 78.6906C41.7152 78.8276 41.7342 78.9736 41.7562 79.1216C41.7712 79.2706 41.7762 79.4266 41.7842 79.5856C41.8002 79.9026 41.8332 80.2416 41.8062 80.5876C41.7882 80.9376 41.7972 81.3006 41.7422 81.6636C41.7012 82.0276 41.6592 82.3946 41.5912 82.7596C41.5252 83.1276 41.4422 83.4906 41.3532 83.8446C41.2742 84.2006 41.1442 84.5396 41.0422 84.8696C40.8152 85.5276 40.5642 86.1276 40.3052 86.6176C40.0582 87.1166 39.8072 87.5086 39.6272 87.7756C39.4442 88.0416 39.3232 88.1846 39.3232 88.1846Z" fill="#935048"/>
<path d="M38.5293 85.3522C38.5293 85.3522 38.6713 84.8182 38.8793 84.0152C38.9813 83.6202 39.0903 83.1592 39.2063 82.6692C39.3103 82.1772 39.4283 81.6542 39.5143 81.1282C39.5693 80.8672 39.6063 80.6012 39.6453 80.3432C39.6903 80.0832 39.7213 79.8282 39.7543 79.5782C39.7893 79.3312 39.8093 79.0892 39.8353 78.8582C39.8613 78.6272 39.8833 78.4082 39.8953 78.2062C39.9113 78.0002 39.9303 77.8142 39.9433 77.6472C39.9483 77.4792 39.9613 77.3352 39.9683 77.2122C39.9853 76.9702 40.0063 76.8262 40.0063 76.8262C40.0063 76.8262 40.0573 76.9582 40.1343 77.1912C40.2153 77.4242 40.3173 77.7632 40.3793 78.1842C40.3963 78.2872 40.4163 78.3962 40.4363 78.5082C40.4493 78.6202 40.4543 78.7372 40.4643 78.8592C40.4803 79.1032 40.5123 79.3602 40.4933 79.6242C40.4863 79.8872 40.4933 80.1642 40.4573 80.4412C40.4313 80.7182 40.3973 80.9972 40.3433 81.2752C40.2963 81.5542 40.2333 81.8302 40.1583 82.0972C40.0983 82.3682 39.9923 82.6242 39.9163 82.8762C39.7353 83.3722 39.5333 83.8212 39.3273 84.1912C38.9233 84.9392 38.5293 85.3522 38.5293 85.3522Z" fill="#935048"/>
<path d="M37.8062 82.6172C37.8062 82.6172 37.8211 82.5222 37.8471 82.3522C37.8781 82.1902 37.9111 81.9562 37.9691 81.6862C38.0201 81.4152 38.0691 81.1002 38.1451 80.7732C38.1871 80.4392 38.2881 80.0962 38.3301 79.7442C38.3591 79.5692 38.3891 79.3942 38.4261 79.2222C38.4651 79.0522 38.4771 78.8772 38.4991 78.7162C38.5211 78.5492 38.5492 78.3892 38.5782 78.2362C38.6112 78.0822 38.6311 77.9362 38.6411 77.8012C38.6951 77.2602 38.8032 76.8662 38.8032 76.8662C38.8032 76.8662 38.9752 77.2122 39.1262 77.7782C39.1442 77.8482 39.1642 77.9232 39.1852 78.0012C39.1972 78.0762 39.2011 78.1582 39.2101 78.2392C39.2251 78.4032 39.2372 78.5802 39.2432 78.7602C39.2502 78.9412 39.2661 79.1312 39.2321 79.3182C39.2141 79.5072 39.1851 79.7022 39.1591 79.8922C39.1311 80.0822 39.0861 80.2732 39.0281 80.4552C38.9751 80.6352 38.9191 80.8102 38.8571 80.9822C38.7921 81.1502 38.7122 81.3072 38.6422 81.4572C38.5702 81.6032 38.4961 81.7432 38.4131 81.8642C38.2631 82.1082 38.1122 82.3032 37.9932 82.4282C37.8842 82.5562 37.8062 82.6172 37.8062 82.6172Z" fill="#935048"/>
<path d="M58.427 57.1045C57.677 57.1885 56.7599 64.1455 57.3809 67.1935L57.385 67.1915C57.29 66.5095 57.326 65.9175 57.564 65.5625C57.752 65.2815 59.179 64.5915 60.988 63.6915C59.393 61.0495 59.087 57.0305 58.427 57.1045Z" fill="url(#paint13_linear_3_105)"/>
<path d="M49.0108 20.4795C42.7388 23.6255 29.4268 37.8125 27.3638 41.0625C25.3008 44.3125 14.8008 68.1875 11.4258 75.7505C8.05078 83.3135 6.23779 89.1255 6.23779 89.8755C6.23779 90.6255 12.8628 98.4705 19.4608 106.423C26.0588 114.374 30.2918 117.578 30.2918 117.578C30.2918 117.578 32.8138 118.424 34.8568 118.118C36.8998 117.812 37.8638 117.351 39.1288 118.181C40.3938 119.01 40.9438 119.547 41.9868 119.999C43.0298 120.452 45.2418 120.382 45.4318 119.697C45.6218 119.01 45.1358 118.719 44.1498 117.968C43.1638 117.217 42.3488 116.035 41.8518 115.618C41.3548 115.202 40.7178 114.631 39.9858 113.899C39.2538 113.169 38.4808 112.485 36.5868 111.857C34.6898 111.229 32.7168 110.189 32.7168 110.189C32.7168 110.189 28.3348 103.373 24.5688 95.5075C23.3338 92.9275 19.6848 88.3945 19.6848 88.3945C19.6848 88.3945 38.3648 58.5565 39.0398 57.8705C40.1718 56.1535 47.5088 48.2275 50.5088 40.2275C53.5088 32.2275 52.5938 24.2295 49.0108 20.4795Z" fill="url(#paint14_linear_3_105)"/>
<path d="M165.844 115.403C163.544 105.988 160.265 92.8816 158.344 88.3136C155.261 80.9806 149.844 70.5326 148.761 66.6726C147.678 62.8136 142.594 38.7296 140.511 31.3966C138.428 24.0636 135.178 9.73061 122.011 3.81361C108.844 -2.10339 101.594 0.394637 98.7608 1.31264C98.7608 1.31264 102.718 20.3116 96.3638 35.4376C96.3638 35.4376 103.593 39.4806 107.261 41.7306C110.928 43.9806 114.345 46.3786 114.345 46.3786C114.345 46.3786 127.428 71.7306 129.928 76.8136C132.428 81.8966 146.845 105.481 150.428 113.314C150.946 114.445 151.477 115.592 152.008 116.734C155.442 116.989 160.317 116.889 165.844 115.403Z" fill="url(#paint15_linear_3_105)"/>
<path d="M181.928 144.147C180.928 142.73 171.011 131.98 170.428 130.647C169.845 129.314 168.845 126.48 168.428 125.73C168.271 125.448 167.237 121.1 165.844 115.403C160.317 116.888 155.443 116.989 152.008 116.734C155.157 123.495 158.31 129.995 158.595 131.064C158.928 132.314 157.345 136.23 157.595 137.397C157.845 138.564 160.178 141.063 160.178 141.98C160.178 142.897 160.511 144.73 161.011 145.48C161.511 146.23 162.594 147.23 164.761 147.23C166.928 147.23 175.762 147.23 178.595 147.23C181.428 147.23 182.928 145.564 181.928 144.147Z" fill="url(#paint16_linear_3_105)"/>
<path d="M57.5641 65.5635C57.4811 65.6865 57.4291 65.8465 57.3921 66.0205C57.4271 65.8445 57.4821 65.6855 57.5641 65.5635Z" fill="url(#paint17_linear_3_105)"/>
<path d="M158.636 115.229C157.511 114.104 155.637 113.521 154.928 113.104C154.219 112.687 151.51 111.103 150.219 109.77C148.928 108.437 147.159 106.994 147.159 106.994L146.165 105.199C146.165 105.199 144.22 104.728 143.512 104.27C142.804 103.812 124.263 89.2282 121.429 86.8532C118.595 84.4782 114.011 81.9372 111.095 81.3122C103.262 77.1872 82.6792 65.1452 82.3042 64.7702C81.2352 63.7312 77.9993 60.6492 76.3463 59.0752C71.4483 61.2012 62.9033 64.7342 57.3423 66.6732C57.3363 66.4652 57.3512 66.2732 57.3792 66.0992C57.2112 67.0502 57.6102 68.5902 58.2612 69.8672C58.4382 70.1142 58.6152 70.3632 58.7972 70.6182C62.4812 72.3782 66.0222 73.3832 68.9292 74.5772C73.7622 76.5632 102.763 90.9792 105.596 91.9792C111.679 95.0632 142.929 112.647 144.429 113.313C145.929 113.979 151.679 115.979 152.679 116.521C153.679 117.063 156.304 117.313 157.762 117.813C159.219 118.313 159.761 116.354 158.636 115.229Z" fill="url(#paint18_linear_3_105)"/>
<path d="M57.3412 66.6736C57.3472 66.6716 57.3551 66.6676 57.3601 66.6656C57.3571 66.4686 57.3481 66.2656 57.3781 66.0996C57.3501 66.2736 57.3352 66.4656 57.3412 66.6736Z" fill="url(#paint19_linear_3_105)"/>
<path d="M58.9351 64.7031C59.2381 64.5491 59.5581 64.3831 59.8951 64.2051C59.5451 64.3841 59.2221 64.5521 58.9351 64.7031Z" fill="url(#paint20_linear_3_105)"/>
<path d="M77.4688 60.1472C77.0568 59.7532 76.6658 59.3812 76.3448 59.0762C71.4518 61.2002 62.9218 64.7262 57.3608 66.6672C57.3788 67.6002 57.7239 68.8152 58.2599 69.8672H58.2589C58.4359 70.1142 58.6138 70.3632 58.7958 70.6182C61.3708 71.8482 63.8718 72.7092 66.1398 73.5232C67.9318 67.2362 72.9158 63.1022 77.4688 60.1472Z" fill="url(#paint21_linear_3_105)"/>
<defs>
<linearGradient id="paint0_linear_3_105" x1="9.54172" y1="129.675" x2="33.2089" y2="121.592" gradientUnits="userSpaceOnUse">
<stop stop-color="#F2997E"/>
<stop offset="1" stop-color="#F27E66"/>
</linearGradient>
<linearGradient id="paint1_linear_3_105" x1="28.0704" y1="137.861" x2="59.0719" y2="193.864" gradientUnits="userSpaceOnUse">
<stop stop-color="#F2997E"/>
<stop offset="1" stop-color="#F27E66"/>
</linearGradient>
<linearGradient id="paint2_linear_3_105" x1="74.2459" y1="58.1398" x2="327.846" y2="961.761" gradientUnits="userSpaceOnUse">
<stop stop-color="#343F4D"/>
<stop offset="0.5808" stop-color="#2B3440"/>
<stop offset="1" stop-color="#222A33"/>
</linearGradient>
<linearGradient id="paint3_linear_3_105" x1="113.766" y1="45.0371" x2="100.916" y2="39.3914" gradientUnits="userSpaceOnUse">
<stop stop-color="#343F4D"/>
<stop offset="0.5808" stop-color="#2B3440"/>
<stop offset="1" stop-color="#222A33"/>
</linearGradient>
<linearGradient id="paint4_linear_3_105" x1="90.0327" y1="57.5033" x2="70.317" y2="48.8415" gradientUnits="userSpaceOnUse">
<stop stop-color="#343F4D"/>
<stop offset="0.5808" stop-color="#2B3440"/>
<stop offset="1" stop-color="#222A33"/>
</linearGradient>
<linearGradient id="paint5_linear_3_105" x1="140.952" y1="126.598" x2="147.952" y2="120.036" gradientUnits="userSpaceOnUse">
<stop stop-color="#F2997E"/>
<stop offset="1" stop-color="#F27E66"/>
</linearGradient>
<linearGradient id="paint6_linear_3_105" x1="85.7611" y1="13.1453" x2="102.639" y2="48.7236" gradientUnits="userSpaceOnUse">
<stop stop-color="#F2997E"/>
<stop offset="1" stop-color="#F27E66"/>
</linearGradient>
<linearGradient id="paint7_linear_3_105" x1="64.9726" y1="45.2557" x2="52.4257" y2="60.157" gradientUnits="userSpaceOnUse">
<stop stop-color="#F2997E"/>
<stop offset="1" stop-color="#F27E66"/>
</linearGradient>
<linearGradient id="paint8_linear_3_105" x1="55.1569" y1="23.9112" x2="157.523" y2="388.659" gradientUnits="userSpaceOnUse">
<stop stop-color="#343F4D"/>
<stop offset="0.5808" stop-color="#2B3440"/>
<stop offset="1" stop-color="#222A33"/>
</linearGradient>
<linearGradient id="paint9_linear_3_105" x1="47.4699" y1="100.097" x2="41.3992" y2="88.1114" gradientUnits="userSpaceOnUse">
<stop stop-color="#844840"/>
<stop offset="1" stop-color="#572F2A"/>
</linearGradient>
<linearGradient id="paint10_linear_3_105" x1="10.8255" y1="70.8996" x2="21.7541" y2="64.3141" gradientUnits="userSpaceOnUse">
<stop stop-color="#844840"/>
<stop offset="1" stop-color="#572F2A"/>
</linearGradient>
<linearGradient id="paint11_linear_3_105" x1="35.5118" y1="83.9709" x2="52.8017" y2="62.4366" gradientUnits="userSpaceOnUse">
<stop stop-color="#F2997E"/>
<stop offset="1" stop-color="#F27E66"/>
</linearGradient>
<linearGradient id="paint12_linear_3_105" x1="32.6833" y1="92.8615" x2="35.6963" y2="59.8794" gradientUnits="userSpaceOnUse">
<stop stop-color="#844840"/>
<stop offset="1" stop-color="#572F2A"/>
</linearGradient>
<linearGradient id="paint13_linear_3_105" x1="49.017" y1="70.0506" x2="56.554" y2="63.3337" gradientUnits="userSpaceOnUse">
<stop stop-color="#F2997E"/>
<stop offset="1" stop-color="#E26C54"/>
</linearGradient>
<linearGradient id="paint14_linear_3_105" x1="29.9643" y1="59.5849" x2="71.7432" y2="147.654" gradientUnits="userSpaceOnUse">
<stop stop-color="#F2997E"/>
<stop offset="1" stop-color="#F27E66"/>
</linearGradient>
<linearGradient id="paint15_linear_3_105" x1="117.876" y1="27.5015" x2="441.236" y2="1179.69" gradientUnits="userSpaceOnUse">
<stop stop-color="#343F4D"/>
<stop offset="0.5808" stop-color="#2B3440"/>
<stop offset="1" stop-color="#222A33"/>
</linearGradient>
<linearGradient id="paint16_linear_3_105" x1="167.088" y1="134.265" x2="201.089" y2="169.391" gradientUnits="userSpaceOnUse">
<stop stop-color="#F2997E"/>
<stop offset="1" stop-color="#F27E66"/>
</linearGradient>
<linearGradient id="paint17_linear_3_105" x1="57.4498" y1="65.7326" x2="57.6104" y2="66.0711" gradientUnits="userSpaceOnUse">
<stop stop-color="#F2997E"/>
<stop offset="1" stop-color="#F27E66"/>
</linearGradient>
<linearGradient id="paint18_linear_3_105" x1="123.85" y1="92.1092" x2="44.185" y2="57.1094" gradientUnits="userSpaceOnUse">
<stop stop-color="#F2997E"/>
<stop offset="1" stop-color="#F27E66"/>
</linearGradient>
<linearGradient id="paint19_linear_3_105" x1="57.391" y1="66.4001" x2="57.2428" y2="66.335" gradientUnits="userSpaceOnUse">
<stop stop-color="#F2997E"/>
<stop offset="1" stop-color="#F27E66"/>
</linearGradient>
<linearGradient id="paint20_linear_3_105" x1="59.4116" y1="64.4475" x2="59.4298" y2="64.4859" gradientUnits="userSpaceOnUse">
<stop stop-color="#F2997E"/>
<stop offset="1" stop-color="#F27E66"/>
</linearGradient>
<linearGradient id="paint21_linear_3_105" x1="43.0531" y1="86.7569" x2="63.8657" y2="68.209" gradientUnits="userSpaceOnUse">
<stop stop-color="#F2997E"/>
<stop offset="1" stop-color="#E26C54"/>
</linearGradient>
</defs>
</svg>
