<svg width="183" height="148" viewBox="0 0 183 148" fill="none" xmlns="http://www.w3.org/2000/svg">
<path d="M153.901 115.229C151.81 119.395 151.176 122.014 150.31 123.062C149.444 124.111 145.45 128.395 145.45 128.395L136.803 119.697L144.432 114.229L153.901 115.229Z" fill="url(#paint0_linear_3_168)"/>
<path d="M152.77 129.061C154.592 131.765 160.52 133.812 162.853 134.979C165.186 136.146 176.936 141.437 176.936 141.437C176.936 141.437 179.561 142.146 180.353 142.312C181.145 142.478 182.061 143.978 182.228 145.186C182.395 146.394 180.436 147.229 179.269 147.229C178.102 147.229 175.999 146.436 175.999 146.436C175.999 146.436 171.811 147.229 169.394 147.229C166.977 147.229 161.478 146.312 159.978 146.312C158.478 146.312 152.311 147.228 150.728 147.228C149.145 147.228 144.644 147.312 142.748 145.978C140.851 144.644 142.644 138.062 142.725 136.312C142.805 134.562 142.729 133.645 141.669 132.145C141.135 131.388 136.511 126.328 131.27 120.771C137.294 119.792 141.601 117.872 144.253 116.327C147.427 121.111 150.462 125.636 152.77 129.061Z" fill="url(#paint1_linear_3_168)"/>
<path d="M99.5843 31C99.5843 31 117.671 71.5 119.921 76.17C122.171 80.84 126.121 86.123 127.941 90.375C129.224 93.374 137.639 106.316 145.238 117.765C142.586 119.311 138.279 121.231 132.255 122.209C127.103 116.748 121.354 110.808 118.297 107.999C112.13 102.332 105.631 91.833 103.297 89.555C100.963 87.277 70.0473 50.25 70.0473 50.25L61.6313 45.666V31H99.5843Z" fill="url(#paint2_linear_3_168)"/>
<path opacity="0.4" d="M60.6453 44.2285V39.5625H78.6323C75.4783 42.6755 73.3093 48.0405 72.0433 52.3795C70.1973 50.1735 69.0613 48.8125 69.0613 48.8125L60.6453 44.2285Z" fill="url(#paint3_linear_3_168)"/>
<path opacity="0.4" d="M99.8244 85.3255C96.6764 81.6855 91.1284 75.1215 85.5904 68.5365C91.0154 65.4065 96.0144 62.4675 97.9534 61.2815C97.6704 61.0655 97.4174 60.8715 97.2394 60.7285C94.8524 58.8225 91.7834 50.0485 92.6944 40.9605C92.7284 40.9255 92.7624 40.8905 92.7974 40.8555L85.8744 35.4375C85.6024 35.1285 85.1424 32.8505 84.8554 29.5625H98.5994C98.5994 29.5625 105.046 43.9985 110.721 56.6275C110.262 56.9495 109.852 57.3045 109.508 57.6735C110.267 58.1465 111.058 58.6515 111.864 59.1705C115.224 66.6415 118.12 73.0395 118.935 74.7315C119.18 75.2395 119.453 75.7575 119.732 76.2785C118.477 76.7035 117.295 77.1095 116.266 77.5325C114.11 78.4205 107.135 81.7845 99.8244 85.3255Z" fill="url(#paint4_linear_3_168)"/>
<path d="M37.8101 113.313C33.6241 117.126 32.1861 118.813 31.3741 119.126C30.5621 119.439 23.9361 121.376 23.9361 121.376C23.9361 121.376 22.9981 117.501 24.8741 115.751C26.7501 114.001 35.5621 110.188 35.5621 110.188L37.8101 113.313Z" fill="url(#paint5_linear_3_168)"/>
<path d="M82.9995 1.31348C90.1875 1.68848 105.228 3.6475 116.645 10.9805L94.6245 39.5635L85.8745 35.4385C84.7495 34.6255 76.5615 12.5005 82.9995 1.31348Z" fill="url(#paint6_linear_3_168)"/>
<path d="M123.978 69.8665C124.769 68.3125 125.205 66.3545 124.674 65.5625C124.144 64.7705 114.037 60.6855 112.686 57.8725C110.394 53.1045 115.397 46.8125 119.647 46.3955C123.897 45.9785 138.27 53.5215 142.52 57.1875C146.77 60.8535 145.144 69.8665 145.144 69.8665H123.978Z" fill="url(#paint7_linear_3_168)"/>
<path d="M116.644 10.9795C124.144 13.3965 133.227 20.4795 133.227 20.4795L146.56 57.8725L142.986 58.3135C142.986 58.3135 127.436 49.4995 122.874 48.1875C118.312 46.8755 114.624 49.9375 113.499 52.5625C112.374 55.1875 113.395 58.5635 116.728 60.8965C119.223 62.6435 122.956 64.5465 124.675 65.3935L124.674 65.5625C124.848 65.8225 124.91 66.2165 124.897 66.6725C117.589 64.1255 105.122 58.8195 102.561 57.5805C99.8111 56.2495 94.8731 48.3745 93.7481 39.3115C101.749 25.8755 111.728 14.4795 116.644 10.9795Z" fill="url(#paint8_linear_3_168)"/>
<path d="M143.362 95.1493C138.924 96.6263 130.646 93.6193 134.701 85.0343L138.368 79.9033L148.886 87.4213L143.362 95.1493Z" fill="url(#paint9_linear_3_168)"/>
<path d="M168.325 58.424C164.226 55.496 158.532 56.444 155.604 60.54C152.672 64.637 153.621 70.333 157.718 73.263C161.815 76.19 167.51 75.242 170.439 71.146C173.37 67.049 172.421 61.353 168.325 58.424Z" fill="url(#paint10_linear_3_168)"/>
<path d="M153.18 63.3631C160.346 71.8061 157.495 78.7991 154.463 83.7671C150.625 90.0451 143.374 92.7991 137.698 90.4421C133.915 88.8691 131.555 86.9561 131.101 86.7621C130.646 86.5661 126.677 86.8011 125.94 86.5331C125.203 86.2651 125.002 85.0611 125.198 84.1401C125.39 83.2211 125.387 82.6471 125.094 82.2581C124.806 81.8691 120.845 78.4441 120.153 77.8191C119.462 77.1951 119.471 76.1721 120.228 75.1111C121.647 73.1261 123 71.2351 124.198 69.5591C125.449 67.8071 131.351 65.0311 136.052 65.2371C136.052 65.2371 136.601 61.7171 138.218 58.2071C138.22 58.2081 138.221 58.2091 138.223 58.2111C141.357 57.5721 147.941 57.1901 153.18 63.3631Z" fill="url(#paint11_linear_3_168)"/>
<path d="M134.64 83.4134C134.036 82.9804 133.287 82.9954 132.967 83.4424C132.651 83.8874 132.877 84.6014 133.484 85.0344C134.088 85.4684 134.838 85.4544 135.158 85.0084C135.477 84.5604 135.247 83.8484 134.64 83.4134Z" fill="#633433"/>
<path d="M134.215 85.9877C134.216 85.9827 134.268 85.9917 134.372 85.9567C134.481 85.9257 134.62 85.8667 134.767 85.7777C134.925 85.6947 135.078 85.5567 135.235 85.4007C135.371 85.2287 135.535 85.0487 135.617 84.8207C135.662 84.7097 135.706 84.5987 135.752 84.4917C135.796 84.3827 135.792 84.2617 135.812 84.1537C135.829 84.0447 135.832 83.9357 135.836 83.8377C135.854 83.7377 135.823 83.6417 135.809 83.5547C135.742 83.2087 135.641 83.0077 135.641 83.0077C135.599 82.9247 135.498 82.8907 135.416 82.9337C135.383 82.9487 135.36 82.9707 135.343 82.9987L135.329 83.0287C135.329 83.0287 135.215 83.2317 135.126 83.4947C135.099 83.6297 135.003 83.7677 134.941 83.9157C134.906 83.9897 134.889 84.0727 134.838 84.1397L134.714 84.3617C134.678 84.4357 134.643 84.5097 134.589 84.5777C134.539 84.6457 134.5 84.7177 134.464 84.7917C134.365 84.9147 134.294 85.0557 134.217 85.1677C134.138 85.2837 134.08 85.3857 134.042 85.4537C134.004 85.5237 133.961 85.5787 133.965 85.5767C133.879 85.6887 133.9 85.8467 134.012 85.9327C134.054 85.9627 134.099 85.9807 134.148 85.9837L134.215 85.9877Z" fill="#633433"/>
<path d="M136.169 87.4388C136.173 87.4358 136.219 87.4528 136.329 87.4338C136.438 87.4208 136.586 87.3888 136.746 87.3238C136.915 87.2658 137.088 87.1538 137.267 87.0268C137.429 86.8778 137.618 86.7278 137.738 86.5138C137.801 86.4148 137.862 86.3118 137.924 86.2098C137.987 86.1118 138 85.9888 138.038 85.8888C138.073 85.7828 138.091 85.6758 138.115 85.5778C138.147 85.4848 138.133 85.3858 138.133 85.2978C138.12 84.9448 138.053 84.7288 138.053 84.7288C138.026 84.6388 137.933 84.5898 137.843 84.6168C137.81 84.6298 137.782 84.6458 137.763 84.6738L137.74 84.6998C137.74 84.6998 137.596 84.8828 137.469 85.1268C137.415 85.2548 137.3 85.3778 137.216 85.5128C137.169 85.5798 137.142 85.6588 137.077 85.7178L136.921 85.9148C136.873 85.9828 136.827 86.0518 136.765 86.1098C136.704 86.1658 136.654 86.2308 136.605 86.2988C136.489 86.4068 136.396 86.5338 136.3 86.6328C136.205 86.7318 136.132 86.8248 136.082 86.8838C136.033 86.9498 135.981 86.9958 135.986 86.9928C135.883 87.0888 135.881 87.2518 135.975 87.3508C136.01 87.3888 136.054 87.4138 136.101 87.4248L136.169 87.4388Z" fill="#633433"/>
<path d="M125.454 78.6127C125.466 78.6047 125.62 78.4407 125.923 78.1987C126.218 77.9567 126.64 77.6577 127.091 77.4147C127.323 77.3007 127.545 77.1657 127.774 77.0877C128.002 77.0067 128.205 76.8947 128.395 76.8587C128.77 76.7567 129.018 76.6907 129.018 76.6907L129.052 76.6817C129.186 76.6437 129.266 76.5077 129.23 76.3707C129.197 76.2447 129.071 76.1667 128.944 76.1867C128.944 76.1867 128.669 76.2347 128.255 76.3027C128.041 76.3227 127.813 76.4157 127.557 76.4827C127.298 76.5437 127.043 76.6637 126.782 76.7637C126.261 76.9817 125.768 77.2637 125.413 77.4967C125.058 77.7277 124.822 77.9347 124.829 77.9247C124.638 78.0967 124.626 78.3917 124.799 78.5797C124.968 78.7727 125.263 78.7867 125.454 78.6127Z" fill="#9D4746"/>
<path d="M159.159 57.5811C162.097 62.1981 163.42 68.4521 160.984 74.7321C159.841 74.4711 158.731 73.9851 157.718 73.2621C153.62 70.3321 152.672 64.6361 155.604 60.5391C156.547 59.2171 157.783 58.2251 159.159 57.5811Z" fill="#BEA99A"/>
<path d="M143.362 95.1494C138.752 88.4924 137.475 81.0085 139.508 71.9275C137.168 71.5925 136.2 71.3225 135.384 70.8335C134.569 70.3475 133.859 68.1285 133.99 68.1255C134.121 68.1215 137.957 69.9895 139.843 70.6955C141.805 70.7085 142.524 68.5725 142.148 67.6555C141.767 66.7385 139.854 64.1135 136.052 65.2365C134.837 64.5085 133.89 62.1654 134.755 59.7484C138.648 58.3874 143.718 53.4555 149.579 56.0405C156.332 59.0155 162.695 67.0685 160.636 77.3425C159.011 85.4645 152.553 92.0244 143.362 95.1494Z" fill="url(#paint12_linear_3_168)"/>
<path d="M142.915 88.1846C142.915 88.1846 142.681 87.4836 142.378 86.4436C142.307 86.1806 142.229 85.9006 142.146 85.6016C142.068 85.3036 141.989 84.9876 141.905 84.6636C141.758 84.0086 141.582 83.3166 141.476 82.6116C141.401 82.2616 141.349 81.9116 141.304 81.5636C141.25 81.2166 141.208 80.8726 141.173 80.5396C141.127 80.2096 141.109 79.8886 141.081 79.5806C141.054 79.2716 141.033 78.9826 141.027 78.7096C141.012 78.4416 141 78.1926 140.989 77.9736C140.992 77.7516 140.985 77.5586 140.981 77.3976C140.973 77.0766 140.96 76.8916 140.96 76.8916C140.96 76.8916 140.903 77.0666 140.815 77.3766C140.773 77.5306 140.72 77.7236 140.669 77.9416C140.619 78.1626 140.583 78.4166 140.545 78.6906C140.523 78.8276 140.504 78.9736 140.482 79.1216C140.467 79.2706 140.462 79.4266 140.454 79.5856C140.438 79.9026 140.405 80.2416 140.432 80.5876C140.45 80.9376 140.441 81.3006 140.496 81.6636C140.537 82.0276 140.579 82.3946 140.647 82.7596C140.713 83.1276 140.796 83.4906 140.885 83.8446C140.964 84.2006 141.094 84.5396 141.196 84.8696C141.423 85.5276 141.674 86.1276 141.933 86.6176C142.18 87.1166 142.431 87.5086 142.611 87.7756C142.794 88.0416 142.915 88.1846 142.915 88.1846Z" fill="#935048"/>
<path d="M143.709 85.3522C143.709 85.3522 143.567 84.8182 143.359 84.0152C143.257 83.6202 143.148 83.1592 143.032 82.6692C142.928 82.1772 142.81 81.6542 142.724 81.1282C142.669 80.8672 142.632 80.6012 142.593 80.3432C142.548 80.0832 142.517 79.8282 142.484 79.5782C142.449 79.3312 142.429 79.0892 142.403 78.8582C142.377 78.6272 142.355 78.4082 142.343 78.2062C142.327 78.0002 142.308 77.8142 142.295 77.6472C142.29 77.4792 142.277 77.3352 142.27 77.2122C142.253 76.9702 142.232 76.8262 142.232 76.8262C142.232 76.8262 142.181 76.9582 142.104 77.1912C142.023 77.4242 141.921 77.7632 141.859 78.1842C141.842 78.2872 141.822 78.3962 141.802 78.5082C141.789 78.6202 141.784 78.7372 141.774 78.8592C141.758 79.1032 141.726 79.3602 141.745 79.6242C141.752 79.8872 141.745 80.1642 141.781 80.4412C141.807 80.7182 141.841 80.9972 141.895 81.2752C141.942 81.5542 142.005 81.8302 142.08 82.0972C142.14 82.3682 142.246 82.6242 142.322 82.8762C142.503 83.3722 142.705 83.8212 142.911 84.1912C143.315 84.9392 143.709 85.3522 143.709 85.3522Z" fill="#935048"/>
<path d="M144.432 82.6172C144.432 82.6172 144.417 82.5222 144.391 82.3522C144.36 82.1902 144.327 81.9562 144.269 81.6862C144.218 81.4152 144.169 81.1002 144.093 80.7732C144.051 80.4392 143.95 80.0962 143.908 79.7442C143.879 79.5692 143.849 79.3942 143.812 79.2222C143.773 79.0522 143.761 78.8772 143.739 78.7162C143.717 78.5492 143.689 78.3892 143.66 78.2362C143.627 78.0822 143.607 77.9362 143.597 77.8012C143.543 77.2602 143.435 76.8662 143.435 76.8662C143.435 76.8662 143.263 77.2122 143.112 77.7782C143.094 77.8482 143.074 77.9232 143.053 78.0012C143.041 78.0762 143.037 78.1582 143.028 78.2392C143.013 78.4032 143.001 78.5802 142.995 78.7602C142.988 78.9412 142.972 79.1312 143.006 79.3182C143.024 79.5072 143.053 79.7022 143.079 79.8922C143.107 80.0822 143.152 80.2732 143.21 80.4552C143.263 80.6352 143.319 80.8102 143.381 80.9822C143.446 81.1502 143.526 81.3072 143.596 81.4572C143.668 81.6032 143.742 81.7432 143.825 81.8642C143.975 82.1082 144.126 82.3032 144.245 82.4282C144.354 82.5562 144.432 82.6172 144.432 82.6172Z" fill="#935048"/>
<path d="M123.811 57.1045C124.561 57.1885 125.478 64.1455 124.857 67.1935L124.853 67.1915C124.948 66.5095 124.912 65.9175 124.674 65.5625C124.486 65.2815 123.059 64.5915 121.25 63.6915C122.845 61.0495 123.151 57.0305 123.811 57.1045Z" fill="url(#paint13_linear_3_168)"/>
<path d="M133.228 20.4795C139.5 23.6255 152.812 37.8125 154.875 41.0625C156.938 44.3125 167.438 68.1875 170.812 75.7505C174.188 83.3135 176 89.1255 176 89.8755C176 90.6255 169.375 98.4705 162.777 106.423C156.179 114.374 151.947 117.578 151.947 117.578C151.947 117.578 149.424 118.424 147.382 118.118C145.339 117.812 144.374 117.351 143.109 118.181C141.844 119.01 141.294 119.547 140.251 119.999C139.208 120.452 136.996 120.382 136.806 119.697C136.616 119.01 137.103 118.719 138.089 117.968C139.075 117.217 139.89 116.035 140.387 115.618C140.884 115.202 141.521 114.631 142.253 113.899C142.985 113.169 143.757 112.485 145.651 111.857C147.548 111.229 149.521 110.189 149.521 110.189C149.521 110.189 153.903 103.373 157.669 95.5075C158.904 92.9275 162.553 88.3945 162.553 88.3945C162.553 88.3945 143.873 58.5565 143.198 57.8705C142.066 56.1535 134.729 48.2275 131.729 40.2275C128.729 32.2275 129.645 24.2295 133.228 20.4795Z" fill="url(#paint14_linear_3_168)"/>
<path d="M16.3945 115.403C18.6945 105.988 21.9735 92.8816 23.8945 88.3136C26.9775 80.9806 32.3945 70.5326 33.4775 66.6726C34.5605 62.8136 39.6445 38.7296 41.7275 31.3966C43.8105 24.0636 47.0605 9.73061 60.2275 3.81361C73.3945 -2.10339 80.6445 0.394637 83.4775 1.31264C83.4775 1.31264 79.5205 20.3116 85.8745 35.4376C85.8745 35.4376 78.6455 39.4806 74.9775 41.7306C71.3105 43.9806 67.8935 46.3786 67.8935 46.3786C67.8935 46.3786 54.8105 71.7306 52.3105 76.8136C49.8105 81.8966 35.3935 105.481 31.8105 113.314C31.2925 114.445 30.7615 115.592 30.2305 116.734C26.7965 116.989 21.9215 116.889 16.3945 115.403Z" fill="url(#paint15_linear_3_168)"/>
<path d="M0.310455 144.147C1.31046 142.73 11.2275 131.98 11.8105 130.647C12.3935 129.314 13.3935 126.48 13.8105 125.73C13.9675 125.448 15.0015 121.1 16.3945 115.403C21.9215 116.888 26.7955 116.989 30.2305 116.734C27.0815 123.495 23.9285 129.995 23.6435 131.064C23.3105 132.314 24.8935 136.23 24.6435 137.397C24.3935 138.564 22.0605 141.063 22.0605 141.98C22.0605 142.897 21.7275 144.73 21.2275 145.48C20.7275 146.23 19.6445 147.23 17.4775 147.23C15.3105 147.23 6.47646 147.23 3.64346 147.23C0.810463 147.23 -0.689545 145.564 0.310455 144.147Z" fill="url(#paint16_linear_3_168)"/>
<path d="M124.674 65.5635C124.757 65.6865 124.809 65.8465 124.846 66.0205C124.811 65.8445 124.756 65.6855 124.674 65.5635Z" fill="url(#paint17_linear_3_168)"/>
<path d="M23.602 115.229C24.727 114.104 26.601 113.521 27.31 113.104C28.019 112.687 30.728 111.103 32.019 109.77C33.31 108.437 35.079 106.994 35.079 106.994L36.073 105.199C36.073 105.199 38.018 104.728 38.726 104.27C39.434 103.812 57.975 89.2282 60.809 86.8532C63.643 84.4782 68.227 81.9372 71.143 81.3122C78.976 77.1872 99.559 65.1452 99.934 64.7702C101.003 63.7312 104.239 60.6492 105.892 59.0752C110.79 61.2012 119.335 64.7342 124.896 66.6732C124.902 66.4652 124.887 66.2732 124.859 66.0992C125.027 67.0502 124.628 68.5902 123.977 69.8672C123.8 70.1142 123.623 70.3632 123.441 70.6182C119.757 72.3782 116.216 73.3832 113.309 74.5772C108.476 76.5632 79.475 90.9792 76.642 91.9792C70.559 95.0632 39.309 112.647 37.809 113.313C36.309 113.979 30.559 115.979 29.559 116.521C28.559 117.063 25.934 117.313 24.476 117.813C23.019 118.313 22.477 116.354 23.602 115.229Z" fill="url(#paint18_linear_3_168)"/>
<path d="M124.897 66.6736C124.891 66.6716 124.883 66.6676 124.878 66.6656C124.881 66.4686 124.89 66.2656 124.86 66.0996C124.888 66.2736 124.903 66.4656 124.897 66.6736Z" fill="url(#paint19_linear_3_168)"/>
<path d="M123.303 64.7031C123 64.5491 122.68 64.3831 122.343 64.2051C122.693 64.3841 123.016 64.5521 123.303 64.7031Z" fill="url(#paint20_linear_3_168)"/>
<path d="M104.769 60.1472C105.181 59.7532 105.572 59.3812 105.893 59.0762C110.786 61.2002 119.316 64.7262 124.877 66.6672C124.859 67.6002 124.514 68.8152 123.978 69.8672H123.979C123.802 70.1142 123.624 70.3632 123.442 70.6182C120.867 71.8482 118.366 72.7092 116.098 73.5232C114.306 67.2362 109.322 63.1022 104.769 60.1472Z" fill="url(#paint21_linear_3_168)"/>
<defs>
<linearGradient id="paint0_linear_3_168" x1="172.697" y1="129.675" x2="149.029" y2="121.592" gradientUnits="userSpaceOnUse">
<stop stop-color="#F2997E"/>
<stop offset="1" stop-color="#F27E66"/>
</linearGradient>
<linearGradient id="paint1_linear_3_168" x1="154.168" y1="137.861" x2="123.166" y2="193.864" gradientUnits="userSpaceOnUse">
<stop stop-color="#F2997E"/>
<stop offset="1" stop-color="#F27E66"/>
</linearGradient>
<linearGradient id="paint2_linear_3_168" x1="107.992" y1="58.1398" x2="-145.608" y2="961.761" gradientUnits="userSpaceOnUse">
<stop stop-color="#343F4D"/>
<stop offset="0.5808" stop-color="#2B3440"/>
<stop offset="1" stop-color="#222A33"/>
</linearGradient>
<linearGradient id="paint3_linear_3_168" x1="68.472" y1="45.0371" x2="81.3226" y2="39.3914" gradientUnits="userSpaceOnUse">
<stop stop-color="#343F4D"/>
<stop offset="0.5808" stop-color="#2B3440"/>
<stop offset="1" stop-color="#222A33"/>
</linearGradient>
<linearGradient id="paint4_linear_3_168" x1="92.2056" y1="57.5033" x2="111.921" y2="48.8415" gradientUnits="userSpaceOnUse">
<stop stop-color="#343F4D"/>
<stop offset="0.5808" stop-color="#2B3440"/>
<stop offset="1" stop-color="#222A33"/>
</linearGradient>
<linearGradient id="paint5_linear_3_168" x1="41.2862" y1="126.598" x2="34.286" y2="120.036" gradientUnits="userSpaceOnUse">
<stop stop-color="#F2997E"/>
<stop offset="1" stop-color="#F27E66"/>
</linearGradient>
<linearGradient id="paint6_linear_3_168" x1="96.4771" y1="13.1453" x2="79.5992" y2="48.7236" gradientUnits="userSpaceOnUse">
<stop stop-color="#F2997E"/>
<stop offset="1" stop-color="#F27E66"/>
</linearGradient>
<linearGradient id="paint7_linear_3_168" x1="117.266" y1="45.2557" x2="129.813" y2="60.157" gradientUnits="userSpaceOnUse">
<stop stop-color="#F2997E"/>
<stop offset="1" stop-color="#F27E66"/>
</linearGradient>
<linearGradient id="paint8_linear_3_168" x1="127.081" y1="23.9112" x2="24.7155" y2="388.659" gradientUnits="userSpaceOnUse">
<stop stop-color="#343F4D"/>
<stop offset="0.5808" stop-color="#2B3440"/>
<stop offset="1" stop-color="#222A33"/>
</linearGradient>
<linearGradient id="paint9_linear_3_168" x1="134.768" y1="100.097" x2="140.839" y2="88.1114" gradientUnits="userSpaceOnUse">
<stop stop-color="#844840"/>
<stop offset="1" stop-color="#572F2A"/>
</linearGradient>
<linearGradient id="paint10_linear_3_168" x1="171.413" y1="70.8996" x2="160.484" y2="64.3141" gradientUnits="userSpaceOnUse">
<stop stop-color="#844840"/>
<stop offset="1" stop-color="#572F2A"/>
</linearGradient>
<linearGradient id="paint11_linear_3_168" x1="146.726" y1="83.9709" x2="129.437" y2="62.4366" gradientUnits="userSpaceOnUse">
<stop stop-color="#F2997E"/>
<stop offset="1" stop-color="#F27E66"/>
</linearGradient>
<linearGradient id="paint12_linear_3_168" x1="149.555" y1="92.8615" x2="146.542" y2="59.8794" gradientUnits="userSpaceOnUse">
<stop stop-color="#844840"/>
<stop offset="1" stop-color="#572F2A"/>
</linearGradient>
<linearGradient id="paint13_linear_3_168" x1="133.221" y1="70.0506" x2="125.684" y2="63.3337" gradientUnits="userSpaceOnUse">
<stop stop-color="#F2997E"/>
<stop offset="1" stop-color="#E26C54"/>
</linearGradient>
<linearGradient id="paint14_linear_3_168" x1="152.274" y1="59.5849" x2="110.495" y2="147.654" gradientUnits="userSpaceOnUse">
<stop stop-color="#F2997E"/>
<stop offset="1" stop-color="#F27E66"/>
</linearGradient>
<linearGradient id="paint15_linear_3_168" x1="64.3621" y1="27.5015" x2="-258.997" y2="1179.69" gradientUnits="userSpaceOnUse">
<stop stop-color="#343F4D"/>
<stop offset="0.5808" stop-color="#2B3440"/>
<stop offset="1" stop-color="#222A33"/>
</linearGradient>
<linearGradient id="paint16_linear_3_168" x1="15.1505" y1="134.265" x2="-18.8508" y2="169.391" gradientUnits="userSpaceOnUse">
<stop stop-color="#F2997E"/>
<stop offset="1" stop-color="#F27E66"/>
</linearGradient>
<linearGradient id="paint17_linear_3_168" x1="124.788" y1="65.7326" x2="124.628" y2="66.0711" gradientUnits="userSpaceOnUse">
<stop stop-color="#F2997E"/>
<stop offset="1" stop-color="#F27E66"/>
</linearGradient>
<linearGradient id="paint18_linear_3_168" x1="58.3878" y1="92.1092" x2="138.053" y2="57.1094" gradientUnits="userSpaceOnUse">
<stop stop-color="#F2997E"/>
<stop offset="1" stop-color="#F27E66"/>
</linearGradient>
<linearGradient id="paint19_linear_3_168" x1="124.847" y1="66.4001" x2="124.996" y2="66.335" gradientUnits="userSpaceOnUse">
<stop stop-color="#F2997E"/>
<stop offset="1" stop-color="#F27E66"/>
</linearGradient>
<linearGradient id="paint20_linear_3_168" x1="122.827" y1="64.4475" x2="122.809" y2="64.4859" gradientUnits="userSpaceOnUse">
<stop stop-color="#F2997E"/>
<stop offset="1" stop-color="#F27E66"/>
</linearGradient>
<linearGradient id="paint21_linear_3_168" x1="139.185" y1="86.7569" x2="118.373" y2="68.209" gradientUnits="userSpaceOnUse">
<stop stop-color="#F2997E"/>
<stop offset="1" stop-color="#E26C54"/>
</linearGradient>
</defs>
</svg>
