<svg width="235" height="99" viewBox="0 0 235 99" fill="none" xmlns="http://www.w3.org/2000/svg">
<path d="M114.775 57.9795H151.379C151.129 49.7295 148.462 37.9795 144.295 29.2295C143.545 27.3955 138.795 17.8135 138.795 17.8135H113.88C114.797 21.4805 114.776 50.8965 114.776 50.8965L114.775 57.9795Z" fill="url(#paint0_linear_3_56)"/>
<path d="M103.965 65.582C104.733 67.105 105.688 68.023 108.638 66.303H114.526V83.708H97.0029V65.582H103.965Z" fill="url(#paint1_linear_3_56)"/>
<path d="M73.5269 72.9068C74.2779 68.2888 80.7839 62.3518 86.5059 69.9278L89.3469 75.5588L77.8089 81.3878L73.5269 72.9068Z" fill="url(#paint2_linear_3_56)"/>
<path d="M97.1288 96.3551C86.3228 98.7831 81.4518 93.0111 78.4568 88.0201C74.6758 81.7101 75.6038 74.0071 80.3228 70.0741C83.4728 67.4531 86.2608 66.2521 86.6458 65.9391C87.0288 65.6261 88.6618 62.0011 89.2418 61.4741C89.8218 60.9441 90.9828 61.3241 91.7088 61.9251C92.4328 62.5231 92.9418 62.7851 93.4218 62.7071C93.9018 62.6301 98.7758 60.7141 99.6488 60.3901C100.522 60.0671 101.426 60.5501 102.013 61.7121C103.114 63.8921 104.159 65.9671 105.088 67.8071C106.06 69.7281 105.778 76.2431 103.416 80.3111C103.416 80.3111 106.279 82.4301 108.638 85.4941C108.638 85.4941 108.635 85.4951 108.632 85.4951C107.746 88.5701 105.026 94.5771 97.1288 96.3551Z" fill="url(#paint3_linear_3_56)"/>
<path d="M87.9698 70.6292C88.6348 70.2942 88.9688 69.6232 88.7218 69.1322C88.4758 68.6452 87.7358 68.5152 87.0718 68.8512C86.4078 69.1872 86.0708 69.8572 86.3198 70.3452C86.5668 70.8372 87.3048 70.9622 87.9698 70.6292Z" fill="#633433"/>
<path d="M85.8882 69.0566C85.8912 69.0616 85.8612 69.1036 85.8422 69.2096C85.8192 69.3216 85.8072 69.4716 85.8192 69.6446C85.8202 69.8226 85.8722 70.0216 85.9352 70.2326C86.0262 70.4336 86.1082 70.6626 86.2712 70.8426C86.3502 70.9316 86.4252 71.0226 86.5032 71.1126C86.5772 71.2026 86.6872 71.2556 86.7722 71.3236C86.8632 71.3866 86.9562 71.4406 87.0422 71.4916C87.1222 71.5536 87.2212 71.5716 87.3052 71.5986C87.6422 71.6976 87.8662 71.7026 87.8662 71.7026C87.9622 71.7056 88.0372 71.6316 88.0372 71.5396C88.0402 71.5026 88.0302 71.4746 88.0142 71.4436L87.9932 71.4146C87.9932 71.4146 87.8662 71.2226 87.6742 71.0216C87.5672 70.9336 87.4892 70.7846 87.3882 70.6616C87.3392 70.5956 87.2732 70.5456 87.2382 70.4676L87.0992 70.2546C87.0512 70.1886 86.9992 70.1236 86.9652 70.0456C86.9292 69.9706 86.8822 69.9006 86.8332 69.8356C86.7702 69.6906 86.6792 69.5606 86.6162 69.4406C86.5492 69.3156 86.4852 69.2186 86.4442 69.1526C86.3972 69.0866 86.3692 69.0226 86.3702 69.0266C86.3102 68.8996 86.1612 68.8446 86.0322 68.9036C85.9862 68.9266 85.9492 68.9596 85.9242 68.9996L85.8882 69.0566Z" fill="#633433"/>
<path d="M83.6958 70.1127C83.6968 70.1157 83.6618 70.1517 83.6258 70.2587C83.5888 70.3607 83.5468 70.5067 83.5308 70.6777C83.5028 70.8557 83.5218 71.0607 83.5508 71.2797C83.6088 71.4907 83.6538 71.7267 83.7848 71.9337C83.8468 72.0367 83.9078 72.1357 83.9708 72.2387C84.0298 72.3387 84.1288 72.4077 84.1998 72.4897C84.2788 72.5707 84.3628 72.6347 84.4388 72.6997C84.5068 72.7747 84.6028 72.8057 84.6788 72.8457C84.9978 72.9967 85.2218 73.0397 85.2218 73.0397C85.3128 73.0577 85.3988 72.9967 85.4158 72.9067C85.4228 72.8717 85.4198 72.8367 85.4038 72.8087L85.3908 72.7747C85.3908 72.7747 85.2968 72.5647 85.1388 72.3357C85.0508 72.2307 84.9948 72.0697 84.9138 71.9337C84.8768 71.8627 84.8188 71.8007 84.7978 71.7167L84.6948 71.4867C84.6558 71.4137 84.6188 71.3407 84.5948 71.2567C84.5708 71.1787 84.5378 71.1027 84.5008 71.0307C84.4588 70.8767 84.3888 70.7337 84.3458 70.6037C84.3008 70.4727 84.2538 70.3637 84.2268 70.2937C84.1888 70.2187 84.1728 70.1517 84.1748 70.1587C84.1358 70.0227 83.9928 69.9427 83.8608 69.9797C83.8098 69.9957 83.7668 70.0217 83.7358 70.0587L83.6958 70.1127Z" fill="#633433"/>
<path d="M96.4873 64.7186C96.4883 64.7326 96.5613 64.9456 96.6333 65.3236C96.7123 65.6986 96.7822 66.2126 96.7872 66.7236C96.7812 66.9816 96.7982 67.2426 96.7612 67.4806C96.7262 67.7196 96.7323 67.9526 96.6773 68.1376C96.5893 68.5146 96.5343 68.7656 96.5343 68.7656L96.5263 68.8006C96.4963 68.9366 96.5823 69.0706 96.7183 69.1006C96.8473 69.1296 96.9743 69.0566 97.0153 68.9346C97.0153 68.9346 97.1013 68.6676 97.2323 68.2706C97.3143 68.0716 97.3372 67.8266 97.3972 67.5676C97.4612 67.3076 97.4753 67.0286 97.5073 66.7496C97.5553 66.1886 97.5323 65.6206 97.4923 65.1976C97.4523 64.7746 97.3813 64.4696 97.3853 64.4816C97.3223 64.2346 97.0672 64.0856 96.8192 64.1496C96.5712 64.2146 96.4213 64.4686 96.4873 64.7186Z" fill="#9D4746"/>
<path d="M85.813 97.3335C89.778 97.3335 96.947 97.3335 100.879 97.3335C103.128 97.3335 105.62 95.0815 105.879 94.8145C109.796 90.7635 109.98 84.8075 110.545 80.9805C108.804 79.0925 104.624 79.5735 103.415 80.3125C102.645 84.2045 99.432 84.6775 98.444 84.5885C97.457 84.4975 95.898 82.8695 96.819 81.1375C98.32 79.7955 101.754 77.2635 101.813 77.1465C101.873 77.0295 99.576 76.6265 98.768 77.1255C97.958 77.6215 97.266 78.3545 95.883 80.2705C88.783 74.2575 81.562 71.9155 73.526 72.9095C72.141 81.7745 73.818 89.2965 79.258 94.5955C79.706 95.0265 82.788 97.3335 85.813 97.3335Z" fill="url(#paint4_linear_3_56)"/>
<path d="M79.9062 75.7425C79.9062 75.7425 80.6343 75.8615 81.6953 76.0765C81.9633 76.1355 82.2483 76.1955 82.5493 76.2605C82.8513 76.3285 83.1662 76.4065 83.4922 76.4825C84.1402 76.6565 84.8352 76.8215 85.5092 77.0545C85.8532 77.1485 86.1892 77.2665 86.5182 77.3875C86.8512 77.5015 87.1742 77.6235 87.4872 77.7445C87.8002 77.8615 88.0923 77.9935 88.3793 78.1115C88.6643 78.2295 88.9313 78.3445 89.1743 78.4665C89.4183 78.5755 89.6452 78.6835 89.8442 78.7755C90.0392 78.8805 90.2132 78.9645 90.3602 79.0335C90.6472 79.1785 90.8152 79.2515 90.8152 79.2515C90.8152 79.2515 90.6883 79.1185 90.4553 78.8995C90.3363 78.7905 90.1922 78.6545 90.0222 78.5065C89.8502 78.3595 89.6412 78.2115 89.4172 78.0495C89.3042 77.9665 89.1863 77.8825 89.0643 77.7945C88.9363 77.7115 88.8023 77.6355 88.6663 77.5535C88.3913 77.3925 88.1073 77.2055 87.7883 77.0695C87.4723 76.9225 87.1533 76.7455 86.8073 76.6255C86.4653 76.4945 86.1192 76.3605 85.7642 76.2515C85.4082 76.1395 85.0472 76.0435 84.6942 75.9605C84.3422 75.8635 83.9813 75.8205 83.6403 75.7585C82.9543 75.6535 82.3052 75.5975 81.7502 75.6025C81.1932 75.5885 80.7302 75.6285 80.4092 75.6635C80.0862 75.7025 79.9062 75.7425 79.9062 75.7425Z" fill="#935048"/>
<path d="M82.0454 77.7611C82.0454 77.7611 82.5854 77.8841 83.3934 78.0721C83.7894 78.1661 84.2494 78.2831 84.7374 78.4061C85.2204 78.5431 85.7364 78.6801 86.2454 78.8491C86.5004 78.9201 86.7534 79.0141 87.0024 79.0971C87.2514 79.1761 87.4934 79.2691 87.7304 79.3551C87.9654 79.4391 88.1894 79.5341 88.4044 79.6191C88.6234 79.7031 88.8264 79.7841 89.0104 79.8701C89.1994 79.9501 89.3734 80.0201 89.5284 80.0831C89.6784 80.1581 89.8124 80.2151 89.9244 80.2671C90.1504 80.3621 90.2844 80.4111 90.2844 80.4111C90.2844 80.4111 90.1894 80.3061 90.0214 80.1301C89.8504 79.9491 89.5964 79.7031 89.2534 79.4491C89.1704 79.3871 89.0835 79.3211 88.9915 79.2491C88.8965 79.1851 88.7954 79.1281 88.6934 79.0611C88.4864 78.9351 88.2734 78.7881 88.0314 78.6791C87.7954 78.5651 87.5534 78.4301 87.2904 78.3341C87.0324 78.2271 86.7694 78.1281 86.4984 78.0471C86.2304 77.9571 85.9564 77.8881 85.6834 77.8281C85.4164 77.7581 85.1425 77.7301 84.8795 77.6821C84.3575 77.6111 83.8654 77.5821 83.4434 77.5931C82.5944 77.6021 82.0454 77.7611 82.0454 77.7611Z" fill="#935048"/>
<path d="M84.1304 79.6704C84.1304 79.6704 84.2234 79.7004 84.3864 79.7594C84.5444 79.8064 84.7663 79.8844 85.0323 79.9584C85.2973 80.0374 85.5993 80.1434 85.9233 80.2264C86.2393 80.3454 86.5904 80.4124 86.9214 80.5424C87.0904 80.5954 87.2584 80.6514 87.4274 80.6994C87.5954 80.7424 87.7564 80.8124 87.9094 80.8684C88.0684 80.9254 88.2234 80.9764 88.3724 81.0204C88.5254 81.0624 88.6614 81.1114 88.7874 81.1674C89.2904 81.3714 89.6884 81.4574 89.6884 81.4574C89.6884 81.4574 89.4623 81.1454 89.0323 80.7484C88.9783 80.6974 88.9194 80.6484 88.8614 80.5924C88.7984 80.5494 88.7294 80.5054 88.6634 80.4594C88.5234 80.3704 88.3744 80.2774 88.2154 80.1864C88.0584 80.0974 87.8984 79.9964 87.7164 79.9384C87.5404 79.8664 87.3554 79.8004 87.1744 79.7374C86.9914 79.6734 86.8044 79.6264 86.6164 79.5914C86.4314 79.5554 86.2484 79.5234 86.0684 79.4984C85.8904 79.4774 85.7134 79.4764 85.5474 79.4684C85.3844 79.4634 85.2283 79.4644 85.0823 79.4824C84.7953 79.5024 84.5544 79.5464 84.3864 79.5914C84.2224 79.6294 84.1304 79.6704 84.1304 79.6704Z" fill="#935048"/>
<path d="M108.743 90.1718H110.546C110.546 90.1718 139.9 90.1718 142.025 90.1718C144.15 90.1718 145.588 87.3738 146.775 85.0098C147.963 82.6458 154.15 72.7078 151.838 56.3958C144.525 52.6458 134.15 49.4578 125.713 49.0208C117.276 48.5838 114.775 50.8958 114.775 50.8958C114.775 50.8958 107.587 62.2708 106.837 64.8958C106.087 67.5208 108.65 73.8958 109.337 75.2708C110.024 76.6458 109.023 81.3228 108.743 90.1718Z" fill="url(#paint5_linear_3_56)"/>
<path opacity="0.4" d="M121.803 49.0205C116.483 49.3285 114.776 50.8955 114.776 50.8955C114.776 50.8955 107.588 62.2705 106.838 64.8955C106.088 67.5205 108.651 73.8955 109.338 75.2705C109.513 75.6205 109.577 76.1845 109.573 76.9755C113.284 69.6345 118.669 58.0545 121.803 49.0205Z" fill="url(#paint6_linear_3_56)"/>
<path d="M122.464 97.3331C119.464 97.3331 113.63 95.3131 112.047 91.7301C110.464 88.1471 113.214 82.6941 115.297 79.2531C117.38 75.8131 123.047 67.7781 132.047 68.8791C141.047 69.9801 145.713 76.7291 147.13 80.8131C158.214 82.1471 171.881 83.3531 176.214 83.7081C180.547 84.0641 212.63 87.2301 212.88 87.2301C213.38 87.0631 221.38 80.2291 222.047 80.0211C222.714 79.8131 223.756 79.9801 224.339 80.0631C224.922 80.1461 226.089 81.2301 226.089 81.2301C226.089 81.2301 227.921 82.0621 228.88 82.6461C229.839 83.2301 230.547 84.9381 230.547 84.9381C230.547 84.9381 231.923 85.2291 232.339 85.5211C232.755 85.8131 234.13 87.2291 234.172 87.6461C234.214 88.0631 232.631 90.7711 232.464 91.0211C232.297 91.2711 231.505 92.0631 231.505 92.0631L231.005 92.9801C231.005 92.9801 233.048 92.7721 233.464 93.2301C233.88 93.6881 233.631 95.2291 233.214 95.6461C232.797 96.0631 229.838 96.7091 228.776 97.3341C227.714 97.9591 223.213 98.5841 221.213 98.1471C219.213 97.7101 217.047 97.3341 211.963 97.3341C206.879 97.3341 122.464 97.3331 122.464 97.3331Z" fill="url(#paint7_linear_3_56)"/>
<path d="M133.15 74.6448C134.15 75.4578 138.338 78.3948 139.9 78.9998C141.462 79.6048 144.838 80.5828 147.129 80.8128C146.251 78.2828 144.122 74.7308 140.491 72.1318C138.425 74.1448 134.9 74.0678 134.024 73.8458C132.838 73.5458 132.15 73.8328 133.15 74.6448Z" fill="url(#paint8_linear_3_56)"/>
<path opacity="0.4" d="M123.588 31.3333C123.088 32.3333 119.464 42.4803 119.464 42.4803C120.822 41.9043 122.102 41.2793 123.315 40.6223C124.205 36.0193 124.01 30.4883 123.588 31.3333Z" fill="url(#paint9_linear_3_56)"/>
<path d="M49.5368 71.7697C46.1398 72.2967 43.1298 72.7307 41.1708 72.9367C34.8378 73.6037 32.4629 72.6027 30.2129 71.4367C27.9629 70.2707 26.0458 68.3947 22.4208 68.1447C18.7958 67.8947 17.5038 71.9777 17.2958 75.1867C17.0878 78.3957 16.2958 82.2697 14.0048 85.2697C11.7138 88.2697 9.83785 88.8117 7.58785 89.6447C5.33785 90.4777 4.79585 92.4367 3.87985 93.8117C2.58885 93.5207 1.33783 94.2697 0.670832 95.4367C0.00383189 96.6037 0.295855 97.3317 1.71285 97.3317C3.12985 97.3317 11.1298 97.3317 13.1298 97.3317C15.1298 97.3317 18.7138 95.3117 20.2968 94.3117C21.8798 93.3117 32.4639 86.4787 33.3809 86.3117C34.2979 86.1447 37.5468 85.3117 43.2968 85.4787C44.3248 85.5077 46.2659 85.6007 48.7779 85.7307C49.9169 80.3977 49.8298 75.2487 49.5368 71.7697Z" fill="url(#paint10_linear_3_56)"/>
<path d="M115.213 0.708193C101.386 0.468193 96.9628 14.1452 94.4628 25.6452C91.9628 37.1452 85.2128 67.2702 84.4688 67.8002C83.7248 68.3302 82.4208 67.5202 80.3378 67.5202C78.2548 67.5202 76.6708 67.4782 70.7378 68.3532C66.6398 68.9572 57.1208 70.5952 49.5368 71.7702C49.8298 75.2492 49.9168 80.3982 48.7778 85.7312C60.3188 86.3312 84.1658 87.7582 89.6868 87.8962C96.4108 88.0632 98.6298 83.9792 100.63 81.3872C102.63 78.7952 115.38 55.4792 119.463 42.4792C135.38 35.7292 141.147 22.5932 141.147 22.5932C137.707 11.6042 129.588 0.958193 115.213 0.708193Z" fill="url(#paint11_linear_3_56)"/>
<defs>
<linearGradient id="paint0_linear_3_56" x1="142.233" y1="29.7607" x2="107.9" y2="58.8449" gradientUnits="userSpaceOnUse">
<stop stop-color="#F2997E"/>
<stop offset="1" stop-color="#F27E66"/>
</linearGradient>
<linearGradient id="paint1_linear_3_56" x1="119.812" y1="57.3014" x2="108.624" y2="71.1141" gradientUnits="userSpaceOnUse">
<stop stop-color="#F2997E"/>
<stop offset="1" stop-color="#F27E66"/>
</linearGradient>
<linearGradient id="paint2_linear_3_56" x1="73.1321" y1="62.998" x2="80.9317" y2="73.9375" gradientUnits="userSpaceOnUse">
<stop stop-color="#844840"/>
<stop offset="1" stop-color="#572F2A"/>
</linearGradient>
<linearGradient id="paint3_linear_3_56" x1="81.8671" y1="81.0752" x2="108.966" y2="75.753" gradientUnits="userSpaceOnUse">
<stop stop-color="#F2997E"/>
<stop offset="1" stop-color="#F27E66"/>
</linearGradient>
<linearGradient id="paint4_linear_3_56" x1="76.5712" y1="71.9626" x2="101.242" y2="93.2443" gradientUnits="userSpaceOnUse">
<stop stop-color="#844840"/>
<stop offset="1" stop-color="#572F2A"/>
</linearGradient>
<linearGradient id="paint5_linear_3_56" x1="125.128" y1="54.8899" x2="200.463" y2="323.322" gradientUnits="userSpaceOnUse">
<stop stop-color="#343F4D"/>
<stop offset="0.5808" stop-color="#2B3440"/>
<stop offset="1" stop-color="#222A33"/>
</linearGradient>
<linearGradient id="paint6_linear_3_56" x1="113.26" y1="54.7528" x2="153.05" y2="196.532" gradientUnits="userSpaceOnUse">
<stop stop-color="#343F4D"/>
<stop offset="0.5808" stop-color="#2B3440"/>
<stop offset="1" stop-color="#222A33"/>
</linearGradient>
<linearGradient id="paint7_linear_3_56" x1="144.255" y1="77.1366" x2="257.087" y2="123.636" gradientUnits="userSpaceOnUse">
<stop stop-color="#F2997E"/>
<stop offset="1" stop-color="#F27E66"/>
</linearGradient>
<linearGradient id="paint8_linear_3_56" x1="131.323" y1="85.0063" x2="138.931" y2="78.2262" gradientUnits="userSpaceOnUse">
<stop stop-color="#F2997E"/>
<stop offset="1" stop-color="#E26C54"/>
</linearGradient>
<linearGradient id="paint9_linear_3_56" x1="120.693" y1="33.6402" x2="136.645" y2="90.4808" gradientUnits="userSpaceOnUse">
<stop stop-color="#343F4D"/>
<stop offset="0.5808" stop-color="#2B3440"/>
<stop offset="1" stop-color="#222A33"/>
</linearGradient>
<linearGradient id="paint10_linear_3_56" x1="25.7325" y1="76.9032" x2="23.1075" y2="115.278" gradientUnits="userSpaceOnUse">
<stop stop-color="#F2997E"/>
<stop offset="1" stop-color="#F27E66"/>
</linearGradient>
<linearGradient id="paint11_linear_3_56" x1="85.6095" y1="20.8357" x2="214.871" y2="481.417" gradientUnits="userSpaceOnUse">
<stop stop-color="#343F4D"/>
<stop offset="0.5808" stop-color="#2B3440"/>
<stop offset="1" stop-color="#222A33"/>
</linearGradient>
</defs>
</svg>
