<svg width="123" height="136" viewBox="0 0 123 136" fill="none" xmlns="http://www.w3.org/2000/svg">
<path d="M92.6406 5.25293C89.7476 7.04193 85.5756 8.68693 78.7546 8.05193C77.0826 7.89693 74.8136 7.46193 72.2866 6.89293C81.1536 15.3939 80.7776 16.7029 83.7256 21.3469L90.6226 18.9369L92.6406 5.25293Z" fill="url(#paint0_linear_3_7)"/>
<path d="M4.55957 42.256C4.55957 42.256 10.5596 43.98 19.1226 44.917C27.6856 45.854 34.1226 45.73 34.1226 45.73L43.2576 40.569C37.7476 30.918 32.2476 20.105 29.2396 14.499C21.5016 20.136 11.5996 29.317 4.55957 42.256Z" fill="url(#paint1_linear_3_7)"/>
<path d="M72.2867 6.89343C64.5067 5.14043 54.2798 2.09143 51.4968 1.85543C47.8088 1.54243 42.9338 2.04343 37.8718 9.04343C35.7278 10.1634 32.6988 11.9794 29.2388 14.4994C30.4348 20.1554 33.8247 30.7294 43.2567 40.5694L43.7468 40.2934C51.2498 39.7014 59.6718 38.3304 64.0268 37.2864L82.8087 21.6684L83.7248 21.3484C83.6448 19.1834 82.5957 11.5314 72.2867 6.89343Z" fill="url(#paint2_linear_3_7)"/>
<path d="M118.481 23.8115C119.799 19.3225 116.497 11.1575 108.063 15.5165L103.068 19.3675L110.956 29.6095L118.481 23.8115Z" fill="url(#paint3_linear_3_7)"/>
<path d="M82.6736 50.0711C79.5996 46.0801 80.3426 40.3551 84.3326 37.2831C88.3216 34.2071 94.0475 34.9501 97.1205 38.9401C100.195 42.9291 99.4506 48.6551 95.4616 51.7291C91.4736 54.8041 85.7466 54.0601 82.6736 50.0711Z" fill="url(#paint4_linear_3_7)"/>
<path d="M87.0655 34.7601C95.7605 41.6181 102.648 38.5181 107.506 35.3111C113.642 31.2531 116.134 23.9071 113.577 18.3201C111.868 14.5951 109.872 12.3071 109.661 11.8591C109.45 11.4111 109.544 7.4371 109.249 6.7111C108.955 5.9821 107.744 5.82411 106.83 6.05311C105.918 6.27811 105.346 6.2961 104.947 6.0181C104.547 5.7421 100.98 1.9081 100.333 1.2381C99.6845 0.570103 98.6605 0.615108 97.6295 1.41011C95.6955 2.89911 93.8555 4.31911 92.2225 5.57711C90.5165 6.89011 87.9545 12.8871 88.3275 17.5761C88.3275 17.5761 84.8305 18.2501 81.3785 19.9931C81.3785 19.9931 81.3815 19.9961 81.3835 19.9971C80.8545 23.1511 80.7115 29.7441 87.0655 34.7601Z" fill="url(#paint5_linear_3_7)"/>
<path d="M106.441 15.5163C105.986 14.9273 105.973 14.1783 106.41 13.8423C106.844 13.5083 107.565 13.7113 108.019 14.3013C108.473 14.8903 108.488 15.6403 108.052 15.9743C107.616 16.3113 106.897 16.1043 106.441 15.5163Z" fill="#633433"/>
<path d="M108.999 14.9968C108.994 14.9998 109.003 15.0508 108.974 15.1548C108.946 15.2648 108.892 15.4058 108.809 15.5558C108.731 15.7158 108.598 15.8738 108.449 16.0348C108.281 16.1788 108.108 16.3478 107.883 16.4398C107.775 16.4868 107.666 16.5358 107.558 16.5848C107.453 16.6328 107.331 16.6328 107.225 16.6578C107.115 16.6758 107.008 16.6838 106.909 16.6928C106.809 16.7138 106.713 16.6868 106.625 16.6758C106.278 16.6188 106.074 16.5258 106.074 16.5258C105.987 16.4888 105.951 16.3878 105.99 16.3048C106.004 16.2708 106.025 16.2488 106.054 16.2298L106.084 16.2118C106.084 16.2118 106.282 16.0928 106.542 15.9948C106.676 15.9618 106.811 15.8608 106.956 15.7938C107.028 15.7558 107.11 15.7388 107.176 15.6838L107.393 15.5518C107.465 15.5128 107.539 15.4768 107.604 15.4208C107.669 15.3688 107.741 15.3258 107.813 15.2878C107.932 15.1838 108.072 15.1068 108.18 15.0258C108.293 14.9428 108.393 14.8828 108.458 14.8398C108.528 14.8008 108.582 14.7548 108.58 14.7588C108.688 14.6708 108.848 14.6848 108.937 14.7928C108.969 14.8348 108.988 14.8798 108.993 14.9268L108.999 14.9968Z" fill="#633433"/>
<path d="M110.519 16.8975C110.516 16.9005 110.533 16.9465 110.518 17.0585C110.509 17.1675 110.483 17.3165 110.423 17.4775C110.372 17.6505 110.266 17.8265 110.145 18.0115C110.003 18.1765 109.859 18.3705 109.651 18.4995C109.551 18.5645 109.453 18.6295 109.353 18.6935C109.256 18.7595 109.136 18.7775 109.037 18.8215C108.931 18.8595 108.827 18.8815 108.73 18.9075C108.636 18.9445 108.537 18.9325 108.45 18.9355C108.097 18.9345 107.877 18.8755 107.877 18.8755C107.787 18.8535 107.735 18.7605 107.76 18.6715C107.769 18.6365 107.786 18.6075 107.812 18.5885L107.838 18.5645C107.838 18.5645 108.014 18.4155 108.255 18.2775C108.38 18.2195 108.499 18.1005 108.632 18.0115C108.695 17.9625 108.774 17.9315 108.83 17.8655L109.022 17.7015C109.088 17.6525 109.155 17.6025 109.211 17.5375C109.266 17.4765 109.328 17.4235 109.393 17.3735C109.497 17.2535 109.622 17.1545 109.716 17.0565C109.814 16.9575 109.902 16.8795 109.959 16.8285C110.024 16.7775 110.067 16.7245 110.063 16.7295C110.157 16.6235 110.319 16.6135 110.423 16.7045C110.46 16.7395 110.488 16.7825 110.5 16.8285L110.519 16.8975Z" fill="#633433"/>
<path d="M101.314 6.50558C101.306 6.51758 101.148 6.67758 100.919 6.98858C100.686 7.29158 100.401 7.72458 100.175 8.18458C100.069 8.41858 99.9419 8.64658 99.8719 8.87758C99.7999 9.10758 99.6939 9.31558 99.6639 9.50658C99.5789 9.88458 99.5199 10.1346 99.5199 10.1346L99.5109 10.1696C99.4809 10.3046 99.3449 10.3896 99.2089 10.3576C99.0809 10.3286 98.9979 10.2076 99.0149 10.0796C99.0149 10.0796 99.0509 9.80258 99.1059 9.38758C99.1189 9.17258 99.2039 8.94158 99.2609 8.68258C99.3139 8.42058 99.4229 8.16258 99.5149 7.89758C99.7129 7.37058 99.9789 6.86758 100.198 6.50258C100.417 6.13958 100.613 5.89558 100.604 5.90358C100.767 5.70758 101.063 5.68358 101.258 5.84958C101.456 6.01458 101.481 6.30958 101.314 6.50558Z" fill="#9D4746"/>
<path d="M81.5039 40.9421C86.2219 43.7121 92.5209 44.8091 98.7079 42.1511C98.4079 41.0181 97.8819 39.9261 97.1209 38.9401C94.0479 34.9501 88.3219 34.2071 84.3329 37.2831C83.0449 38.2731 82.0969 39.5431 81.5039 40.9421Z" fill="#BEA99A"/>
<path d="M118.481 23.8111C111.664 19.4431 104.139 18.4351 95.1378 20.7901C94.7178 18.4641 94.4108 17.5061 93.8948 16.7081C93.3808 15.9101 91.1368 15.2801 91.1398 15.4121C91.1418 15.5431 93.1448 19.3091 93.9178 21.1701C93.9998 23.1291 91.8918 23.9251 90.9618 23.5801C90.0328 23.2321 87.3388 21.4161 88.3268 17.5751C87.5548 16.3861 85.1798 15.5241 82.7938 16.4751C81.5738 20.4141 76.8258 25.6571 79.6198 31.4221C82.8338 38.0671 91.1088 44.1361 101.304 41.7111C109.362 39.7961 115.688 33.1071 118.481 23.8111Z" fill="url(#paint6_linear_3_7)"/>
<path d="M111.505 23.6121C111.505 23.6121 110.796 23.4041 109.745 23.1391C109.48 23.0761 109.197 23.0081 108.895 22.9361C108.594 22.8681 108.276 22.8011 107.949 22.7281C107.289 22.6061 106.592 22.4551 105.884 22.3731C105.532 22.3101 105.179 22.2711 104.83 22.2381C104.481 22.1971 104.136 22.1681 103.802 22.1421C103.47 22.1131 103.149 22.1041 102.839 22.0871C102.53 22.0701 102.24 22.0601 101.969 22.0651C101.7 22.0581 101.45 22.0571 101.231 22.0531C101.009 22.0641 100.817 22.0641 100.655 22.0651C100.334 22.0701 100.15 22.0631 100.15 22.0631C100.15 22.0631 100.322 22.0001 100.629 21.9021C100.782 21.8541 100.971 21.7951 101.189 21.7341C101.407 21.6761 101.66 21.6321 101.932 21.5841C102.07 21.5601 102.213 21.5341 102.36 21.5061C102.511 21.4871 102.666 21.4771 102.824 21.4621C103.141 21.4351 103.478 21.3901 103.825 21.4041C104.175 21.4071 104.537 21.3861 104.902 21.4271C105.267 21.4561 105.636 21.4851 106.004 21.5401C106.374 21.5931 106.74 21.6631 107.096 21.7401C107.455 21.8041 107.798 21.9231 108.133 22.0121C108.797 22.2131 109.406 22.4441 109.905 22.6871C110.412 22.9161 110.812 23.1521 111.087 23.3221C111.358 23.4971 111.505 23.6121 111.505 23.6121Z" fill="#935048"/>
<path d="M108.703 24.5078C108.703 24.5078 108.163 24.3858 107.353 24.2058C106.955 24.1188 106.49 24.0248 105.997 23.9268C105.502 23.8398 104.977 23.7418 104.446 23.6738C104.184 23.6288 103.917 23.6038 103.657 23.5698C103.397 23.5348 103.139 23.5128 102.889 23.4898C102.641 23.4638 102.398 23.4518 102.167 23.4348C101.935 23.4168 101.716 23.4028 101.513 23.3998C101.308 23.3908 101.121 23.3788 100.954 23.3698C100.786 23.3718 100.64 23.3648 100.518 23.3628C100.273 23.3518 100.13 23.3378 100.13 23.3378C100.13 23.3378 100.261 23.2828 100.489 23.1968C100.72 23.1078 101.056 22.9948 101.473 22.9158C101.576 22.8948 101.684 22.8728 101.797 22.8478C101.909 22.8308 102.025 22.8228 102.146 22.8078C102.388 22.7838 102.644 22.7428 102.909 22.7488C103.171 22.7478 103.448 22.7298 103.726 22.7578C104.004 22.7728 104.285 22.7978 104.565 22.8418C104.844 22.8768 105.122 22.9318 105.393 22.9968C105.664 23.0478 105.924 23.1428 106.18 23.2118C106.683 23.3728 107.138 23.5598 107.515 23.7538C108.276 24.1278 108.703 24.5078 108.703 24.5078Z" fill="#935048"/>
<path d="M105.997 25.3284C105.997 25.3284 105.9 25.3164 105.729 25.2984C105.566 25.2724 105.332 25.2474 105.06 25.1994C104.789 25.1564 104.469 25.1204 104.141 25.0554C103.804 25.0264 103.459 24.9354 103.105 24.9094C102.929 24.8854 102.753 24.8634 102.581 24.8324C102.41 24.7994 102.235 24.7934 102.072 24.7764C101.905 24.7594 101.742 24.7374 101.589 24.7144C101.434 24.6854 101.289 24.6704 101.152 24.6664C100.61 24.6334 100.214 24.5384 100.214 24.5384C100.214 24.5384 100.553 24.3544 101.111 24.1834C101.182 24.1624 101.257 24.1404 101.334 24.1164C101.408 24.1034 101.49 24.0954 101.569 24.0834C101.734 24.0624 101.91 24.0434 102.091 24.0304C102.271 24.0184 102.46 23.9954 102.649 24.0224C102.839 24.0324 103.034 24.0534 103.224 24.0744C103.416 24.0954 103.607 24.1344 103.79 24.1834C103.973 24.2314 104.151 24.2814 104.324 24.3364C104.493 24.3954 104.654 24.4694 104.806 24.5334C104.956 24.5994 105.097 24.6684 105.221 24.7474C105.47 24.8894 105.669 25.0324 105.801 25.1464C105.934 25.2534 105.997 25.3284 105.997 25.3284Z" fill="#935048"/>
<path d="M68.8387 122.539C61.5247 120.25 53.1947 117.309 50.1847 116.292C45.3717 114.667 39.0597 114.917 33.5597 116.917C33.4347 107.042 34.3097 88.2295 35.1227 84.9795C37.8107 76.9165 39.9358 67.8545 38.9358 60.2295C37.9358 52.6045 34.5887 45.4665 34.5887 45.4665L4.89575 41.6475C4.89575 41.6475 4.10176 41.8535 3.89376 42.4375C3.68576 43.0215 0.0607542 56.4795 1.18575 77.8545C2.31075 99.2295 9.68574 121.354 12.2487 126.479C14.8117 131.604 16.7488 133.229 17.3118 133.854C17.8748 134.479 19.6038 135.292 21.2498 135.292C23.5947 135.292 46.0757 135.292 69.0197 135.292C69.8507 129.367 69.4527 125.201 68.8387 122.539Z" fill="url(#paint7_linear_3_7)"/>
<path d="M122.81 133.021C122.622 131.708 120.435 130.729 118.185 130.604C117.29 129.971 117.643 129.02 114.518 127.395C111.393 125.77 107.143 127.52 104.393 126.395C101.643 125.27 97.3929 121.457 95.1429 120.457C92.8929 119.457 91.7679 120.457 89.6429 122.145C87.5179 123.833 85.6429 126.333 79.5179 125.395C77.2249 125.044 73.2129 123.908 68.8379 122.539C69.4519 125.201 69.8499 129.367 69.0159 135.292C93.7799 135.292 119.08 135.292 120.184 135.292C122.31 135.292 122.998 134.334 122.81 133.021Z" fill="url(#paint8_linear_3_7)"/>
<path d="M83.4539 125.51C82.3689 125.648 81.0839 125.635 79.5179 125.396C77.2249 125.045 73.2129 123.909 68.8379 122.54C69.0499 123.459 69.2309 124.57 69.3499 125.857C69.4759 125.835 69.6089 125.802 69.7219 125.798C70.5029 125.767 72.3779 126.548 73.5349 128.236C73.8249 128.659 74.0609 128.965 74.2649 129.187C75.3259 130.345 76.6349 132.763 77.2899 133.7C77.6619 134.231 78.0469 134.809 78.4899 135.294C83.0309 135.294 87.4819 135.294 91.6849 135.294C90.4739 133.966 84.2939 126.931 84.0869 126.726C83.9809 126.481 83.7489 126.045 83.4539 125.51Z" fill="url(#paint9_linear_3_7)"/>
<path d="M89.0817 127.224C88.6937 126.801 88.0798 126.404 87.6388 125.975C87.2508 125.597 86.3368 124.696 86.1138 124.475C85.6138 123.344 82.4527 118.098 82.2787 117.173C82.0907 116.173 81.0178 91.3146 81.2678 82.8146C81.5178 74.3146 80.1227 68.1056 79.9977 64.7936C79.8727 61.4816 81.1227 40.9186 81.9977 35.7306C82.8727 30.5426 82.8108 21.6676 82.8108 21.6676C81.8528 12.1466 72.8108 8.06356 62.1858 10.6466C51.5608 13.2296 48.8938 27.1056 51.8108 32.2726C53.9908 36.1336 60.4957 37.2016 64.0287 37.2866C65.1877 37.0096 66.0748 36.7536 66.5608 36.5436C66.5608 36.5436 67.1237 38.0706 67.1237 38.8696C67.1237 39.6686 67.8737 62.3556 68.1237 66.7936C68.3737 71.2316 69.2487 80.7316 70.8737 89.1066C72.4987 97.4816 73.6867 110.799 73.6237 113.174C73.5607 115.549 72.9358 118.112 71.6858 119.049C70.4358 119.986 69.3107 120.08 68.8727 120.268C68.4347 120.456 67.4668 121.299 66.2168 121.518C64.9668 121.737 64.3417 122.018 64.8727 123.081C65.4037 124.144 67.0288 124.362 68.4668 124.237C69.9048 124.112 70.9667 123.581 71.7477 123.549C72.5287 123.518 74.4038 124.299 75.5608 125.987C75.8508 126.41 76.0867 126.716 76.2907 126.938C77.3527 128.096 78.6608 130.514 79.3158 131.451C79.9718 132.389 80.6598 133.482 81.6598 133.92C82.6598 134.358 83.6908 134.233 83.6908 133.92C83.6908 133.607 82.3777 131.826 82.0967 131.17C81.8157 130.514 81.2527 129.795 80.9087 129.107C80.8147 128.92 80.6818 128.651 80.5388 128.361C81.2968 129.297 81.9307 130.359 82.4737 130.995C83.2157 131.866 84.0047 132.89 85.0417 133.229C86.0787 133.57 87.0937 133.347 87.0627 133.036C87.0337 132.725 85.5567 131.077 85.2147 130.45C84.8717 129.824 84.2427 129.162 83.8357 128.511C83.7627 128.395 83.6667 128.24 83.5637 128.073C84.1427 128.726 84.6587 129.388 85.0977 129.813C85.8677 130.559 86.6927 131.443 87.6898 131.668C88.6868 131.894 89.6138 131.597 89.5578 131.309C89.5028 131.022 87.9797 129.617 87.6057 129.063C87.2697 128.568 86.7277 128.066 86.3018 127.558C86.5698 127.794 86.8247 128.013 87.0467 128.173C87.7907 128.709 88.5997 129.358 89.4737 129.426C90.3467 129.493 91.0957 129.127 91.0127 128.889C90.9327 128.651 89.4667 127.647 89.0817 127.224Z" fill="url(#paint10_linear_3_7)"/>
<path d="M59.9769 26.1885C58.8109 25.2725 59.8519 27.0215 59.9769 27.8135C60.0679 28.3855 60.9669 32.9765 58.7339 36.5685C60.6639 37.0495 62.5909 37.2525 64.0279 37.2865C65.1869 37.0095 66.0739 36.7535 66.5599 36.5435C65.2269 33.2295 61.1429 27.1045 59.9769 26.1885Z" fill="url(#paint11_linear_3_7)"/>
<defs>
<linearGradient id="paint0_linear_3_7" x1="69.7064" y1="8.33683" x2="89.0195" y2="13.5245" gradientUnits="userSpaceOnUse">
<stop stop-color="#F2997E"/>
<stop offset="1" stop-color="#F27E66"/>
</linearGradient>
<linearGradient id="paint1_linear_3_7" x1="21.5772" y1="33.1079" x2="51.7932" y2="140.773" gradientUnits="userSpaceOnUse">
<stop stop-color="#F2997E"/>
<stop offset="1" stop-color="#F27E66"/>
</linearGradient>
<linearGradient id="paint2_linear_3_7" x1="57.9952" y1="22.8876" x2="88.212" y2="130.555" gradientUnits="userSpaceOnUse">
<stop stop-color="#343F4D"/>
<stop offset="0.5808" stop-color="#2B3440"/>
<stop offset="1" stop-color="#222A33"/>
</linearGradient>
<linearGradient id="paint3_linear_3_7" x1="123.12" y1="15.0462" x2="111.358" y2="21.5415" gradientUnits="userSpaceOnUse">
<stop stop-color="#844840"/>
<stop offset="1" stop-color="#572F2A"/>
</linearGradient>
<linearGradient id="paint4_linear_3_7" x1="95.2503" y1="52.7113" x2="88.2784" y2="42.025" gradientUnits="userSpaceOnUse">
<stop stop-color="#844840"/>
<stop offset="1" stop-color="#572F2A"/>
</linearGradient>
<linearGradient id="paint5_linear_3_7" x1="107.43" y1="27.5735" x2="85.2918" y2="11.0641" gradientUnits="userSpaceOnUse">
<stop stop-color="#F2997E"/>
<stop offset="1" stop-color="#F27E66"/>
</linearGradient>
<linearGradient id="paint6_linear_3_7" x1="116.415" y1="30.0826" x2="83.3471" y2="28.2501" gradientUnits="userSpaceOnUse">
<stop stop-color="#844840"/>
<stop offset="1" stop-color="#572F2A"/>
</linearGradient>
<linearGradient id="paint7_linear_3_7" x1="35.5334" y1="108.425" x2="130.985" y2="448.534" gradientUnits="userSpaceOnUse">
<stop stop-color="#343F4D"/>
<stop offset="0.5808" stop-color="#2B3440"/>
<stop offset="1" stop-color="#222A33"/>
</linearGradient>
<linearGradient id="paint8_linear_3_7" x1="104.58" y1="124.54" x2="76.4551" y2="137.415" gradientUnits="userSpaceOnUse">
<stop stop-color="#F2997E"/>
<stop offset="1" stop-color="#F27E66"/>
</linearGradient>
<linearGradient id="paint9_linear_3_7" x1="51.3447" y1="141.39" x2="73.6569" y2="131.765" gradientUnits="userSpaceOnUse">
<stop stop-color="#F2997E"/>
<stop offset="1" stop-color="#E26C54"/>
</linearGradient>
<linearGradient id="paint10_linear_3_7" x1="106.777" y1="62.1594" x2="5.99076" y2="92.7522" gradientUnits="userSpaceOnUse">
<stop stop-color="#F2997E"/>
<stop offset="1" stop-color="#F27E66"/>
</linearGradient>
<linearGradient id="paint11_linear_3_7" x1="51.6584" y1="41.3624" x2="59.4979" y2="34.3759" gradientUnits="userSpaceOnUse">
<stop stop-color="#F2997E"/>
<stop offset="1" stop-color="#E26C54"/>
</linearGradient>
</defs>
</svg>
