<svg width="454" height="388" viewBox="0 0 454 388" fill="none" xmlns="http://www.w3.org/2000/svg">
<path d="M402.896 353.802C402.896 353.802 422.788 293.745 404.604 268.771C386.42 243.797 372.006 232.776 381.116 212.639C390.227 192.502 386.171 159.585 362.094 149.7C338.017 139.815 349.195 102.598 322.538 81.2293C295.881 59.8603 274.147 69.5253 261.367 43.1663C250.142 20.0163 226.856 -1.80569 203.552 20.6293C198.443 25.5473 195.014 31.9603 193.233 38.8983C191.369 46.1543 184.86 58.7183 162.878 71.2823C129.059 90.6123 142.468 103.07 128.885 125.396C115.301 147.722 71.755 136.488 55.416 179.318C39.078 222.148 74.34 236.525 71.479 262.129C68.618 287.733 51.679 301.695 61.998 353.096" stroke="#E5C2A5" stroke-miterlimit="10"/>
<path d="M412.509 354.453C412.509 354.453 435.778 288.007 416.159 262.771C396.54 237.535 380.988 226.398 390.817 206.049C400.647 185.701 396.271 152.438 370.293 142.449C344.315 132.46 356.376 94.8534 327.615 73.2594C298.854 51.6664 279.603 53.7304 265.814 27.0954C253.703 3.7024 224.381 -10.6466 199.238 12.0234C193.726 16.9934 190.026 23.4734 188.104 30.4844C186.093 37.8164 179.071 50.5124 155.353 63.2084C118.865 82.7414 133.332 95.3304 118.676 117.89C104.02 140.45 63.5068 132.713 45.3888 170.5C25.1848 212.637 56.5668 229.576 53.4808 255.449C50.3938 281.322 42.6368 301.861 53.7708 353.802" stroke="#E5C2A5" stroke-miterlimit="10"/>
<path d="M206.74 34.0252C201.75 38.9432 198.401 45.3562 196.661 52.2942C194.841 59.5502 188.483 72.1142 167.013 84.6782C133.981 104.008 147.078 116.466 133.811 138.792C120.543 161.118 82.7477 143.991 66.7897 186.821C50.8317 229.651 87.6247 248.984 84.8307 274.588C82.0367 300.192 60.0707 301.694 70.1497 353.095H403.116C403.116 353.095 420.877 307.141 403.116 282.167C385.355 257.193 371.276 246.172 380.175 226.035C389.073 205.898 385.112 172.981 361.595 163.096C338.078 153.211 348.996 115.994 322.96 94.6252C296.923 73.2562 275.695 82.9212 263.212 56.5622C252.246 33.4132 229.502 11.5912 206.74 34.0252Z" fill="#F7E4D2"/>
<path d="M208.052 46.0643C203.279 50.7683 200.076 56.9033 198.411 63.5383C196.67 70.4783 190.589 82.4963 170.052 94.5133C138.457 113.002 150.985 124.918 138.294 146.273C125.603 167.628 89.4518 151.246 74.1888 192.212C58.9248 233.178 94.1168 251.67 91.4448 276.161C88.7718 300.651 67.7618 302.088 77.4028 351.252H395.882C395.882 351.252 412.87 307.297 395.882 283.41C378.894 259.523 365.428 248.981 373.939 229.72C382.45 210.459 378.662 178.974 356.168 169.519C333.674 160.064 344.118 124.467 319.214 104.027C294.31 83.5883 274.006 92.8323 262.066 67.6203C251.578 45.4793 229.823 24.6063 208.052 46.0643Z" stroke="white" stroke-miterlimit="10"/>
<path d="M330.945 167.442C328.98 166.301 326.401 167.127 325.982 166.487C325.563 165.848 328.097 163.873 328.912 161.801C329.727 159.729 328.81 154.359 325.472 156.888C322.133 159.417 321.982 163.727 321.982 163.727C321.982 163.727 321.928 163.964 321.884 164.359C320.751 161.694 321.36 158.015 321.366 157.974C321.4 157.774 321.267 157.584 321.067 157.549C320.858 157.514 320.676 157.649 320.643 157.849C320.615 158.006 320.129 160.954 320.851 163.61C319.096 161.586 316.537 160.355 316.396 160.289C316.214 160.203 315.994 160.28 315.907 160.464C315.82 160.647 315.898 160.867 316.082 160.953C316.121 160.972 319.762 162.724 321.185 165.358C320.746 165.04 320.439 164.876 320.439 164.876C320.439 164.876 317.08 162.175 312.985 163.053C308.89 163.931 312.355 168.133 314.455 168.869C316.555 169.605 319.704 168.974 319.914 169.71C320.124 170.445 317.814 171.86 317.394 174.095C316.974 176.329 319.599 178.647 321.069 178.749C322.401 178.842 324.414 174.37 324.392 171.028C326.969 173.061 331.302 174.29 332.066 173.268C332.948 172.086 332.91 168.583 330.945 167.442Z" fill="#DBA291"/>
<path d="M113.597 202.057C113.229 200.226 111.318 199.088 111.483 198.481C111.648 197.875 114.241 198.36 115.958 197.735C117.675 197.109 120.478 193.622 117.106 192.943C113.734 192.264 111.002 194.516 111.002 194.516C111.002 194.516 110.827 194.612 110.56 194.799C111.582 192.651 114.175 191.024 114.204 191.005C114.346 190.917 114.39 190.731 114.302 190.589C114.21 190.442 114.028 190.403 113.887 190.491C113.775 190.56 111.698 191.864 110.458 193.754C110.747 191.572 110.111 189.327 110.075 189.204C110.029 189.045 109.861 188.952 109.701 188.998C109.541 189.044 109.449 189.212 109.496 189.372C109.506 189.406 110.41 192.601 109.565 194.911C109.521 194.467 109.455 194.189 109.455 194.189C109.455 194.189 109.287 190.651 106.519 188.607C103.751 186.564 103.053 190.984 103.744 192.677C104.435 194.37 106.536 195.966 106.198 196.496C105.86 197.026 103.733 196.373 102.131 197.331C100.529 198.288 100.533 201.166 101.27 202.126C101.938 202.996 105.782 201.803 107.825 199.97C107.978 202.663 109.58 205.999 110.625 205.914C111.833 205.817 113.965 203.888 113.597 202.057Z" fill="#DBA291"/>
<path d="M226.027 73.5382C225.659 71.7072 223.748 70.5692 223.913 69.9622C224.078 69.3562 226.671 69.8412 228.388 69.2162C230.105 68.5912 232.908 65.1032 229.536 64.4242C226.164 63.7452 223.432 65.9982 223.432 65.9982C223.432 65.9982 223.257 66.0942 222.99 66.2812C224.012 64.1332 226.605 62.5062 226.634 62.4872C226.776 62.3992 226.82 62.2132 226.732 62.0712C226.64 61.9242 226.458 61.8852 226.317 61.9732C226.205 62.0422 224.128 63.3462 222.888 65.2362C223.177 63.0542 222.541 60.8082 222.505 60.6862C222.459 60.5272 222.291 60.4342 222.131 60.4802C221.971 60.5262 221.879 60.6942 221.926 60.8542C221.936 60.8882 222.84 64.0832 221.995 66.3932C221.951 65.9502 221.885 65.6712 221.885 65.6712C221.885 65.6712 221.717 62.1332 218.949 60.0892C216.181 58.0462 215.483 62.4662 216.174 64.1592C216.865 65.8522 218.966 67.4482 218.628 67.9782C218.29 68.5072 216.163 67.8552 214.561 68.8132C212.959 69.7702 212.963 72.6472 213.7 73.6082C214.368 74.4782 218.212 73.2852 220.255 71.4522C220.408 74.1452 222.01 77.4812 223.055 77.3962C224.263 77.2992 226.395 75.3692 226.027 73.5382Z" fill="#DBA291"/>
<path d="M174.989 123.191C174.635 123.668 173.962 123.768 173.485 123.414C173.008 123.06 172.908 122.386 173.262 121.909C173.616 121.432 174.289 121.332 174.766 121.686C175.243 122.039 175.343 122.713 174.989 123.191Z" fill="white"/>
<path d="M177.763 118.607C177.409 119.084 176.736 119.184 176.259 118.83C175.782 118.476 175.682 117.802 176.036 117.325C176.39 116.848 177.063 116.748 177.54 117.102C178.017 117.456 178.117 118.13 177.763 118.607Z" fill="white"/>
<path d="M180.988 125.838C180.634 126.315 179.961 126.415 179.484 126.061C179.007 125.707 178.907 125.033 179.261 124.556C179.615 124.079 180.288 123.979 180.765 124.333C181.243 124.687 181.342 125.361 180.988 125.838Z" fill="white"/>
<path d="M319.712 135.8C319.358 136.277 318.685 136.377 318.208 136.023C317.731 135.669 317.631 134.995 317.985 134.518C318.339 134.041 319.012 133.941 319.489 134.295C319.966 134.649 320.066 135.322 319.712 135.8Z" fill="white"/>
<path d="M322.486 131.216C322.132 131.693 321.459 131.793 320.982 131.439C320.505 131.085 320.405 130.411 320.759 129.934C321.113 129.457 321.786 129.357 322.263 129.711C322.74 130.065 322.84 130.739 322.486 131.216Z" fill="white"/>
<path d="M325.711 138.446C325.357 138.923 324.684 139.023 324.207 138.669C323.73 138.315 323.63 137.641 323.984 137.164C324.338 136.687 325.011 136.587 325.488 136.941C325.965 137.295 326.065 137.969 325.711 138.446Z" fill="white"/>
<path d="M268.668 92.1602C268.314 92.6372 267.641 92.7372 267.164 92.3832C266.687 92.0292 266.587 91.3552 266.941 90.8782C267.295 90.4012 267.968 90.3012 268.445 90.6552C268.922 91.0082 269.022 91.6822 268.668 92.1602Z" fill="white"/>
<path d="M271.442 87.5762C271.088 88.0532 270.415 88.1532 269.938 87.7992C269.461 87.4452 269.361 86.7712 269.715 86.2942C270.069 85.8172 270.742 85.7172 271.219 86.0712C271.696 86.4252 271.796 87.0992 271.442 87.5762Z" fill="white"/>
<path d="M274.667 94.8077C274.313 95.2847 273.64 95.3846 273.163 95.0306C272.686 94.6766 272.586 94.0026 272.94 93.5256C273.294 93.0486 273.967 92.9486 274.444 93.3026C274.921 93.6556 275.021 94.3297 274.667 94.8077Z" fill="white"/>
<path d="M282.573 154.789C282.115 154.41 282.051 153.732 282.429 153.274C282.807 152.816 283.485 152.751 283.943 153.13C284.401 153.508 284.465 154.187 284.087 154.645C283.709 155.102 283.031 155.167 282.573 154.789Z" fill="white"/>
<path d="M287.003 157.798C286.545 157.42 286.481 156.741 286.859 156.283C287.237 155.825 287.915 155.76 288.373 156.139C288.831 156.517 288.895 157.196 288.517 157.654C288.138 158.112 287.461 158.176 287.003 157.798Z" fill="white"/>
<path d="M279.62 160.646C279.162 160.268 279.098 159.589 279.476 159.131C279.854 158.673 280.532 158.608 280.99 158.987C281.448 159.365 281.512 160.044 281.134 160.502C280.755 160.96 280.078 161.025 279.62 160.646Z" fill="white"/>
<path d="M127.755 177.383C127.755 178.139 127.143 178.751 126.388 178.751C125.633 178.751 125.021 178.139 125.021 177.383C125.021 176.628 125.633 176.015 126.388 176.015C127.143 176.015 127.755 176.627 127.755 177.383Z" fill="white"/>
<path d="M310.955 106.864C310.955 107.802 310.195 108.563 309.257 108.563C308.319 108.563 307.559 107.802 307.559 106.864C307.559 105.926 308.319 105.165 309.257 105.165C310.195 105.165 310.955 105.926 310.955 106.864Z" fill="white"/>
<path d="M193.631 159.816C193.631 160.754 192.871 161.515 191.934 161.515C190.996 161.515 190.236 160.754 190.236 159.816C190.236 158.878 190.996 158.117 191.934 158.117C192.871 158.117 193.631 158.878 193.631 159.816Z" fill="white"/>
<path d="M226.083 48.87C226.083 49.442 225.619 49.906 225.047 49.906C224.475 49.906 224.011 49.442 224.011 48.87C224.011 48.298 224.475 47.834 225.047 47.834C225.619 47.834 226.083 48.298 226.083 48.87Z" fill="white"/>
<path d="M305.32 201.085C305.32 201.936 304.631 202.626 303.78 202.626C302.93 202.626 302.24 201.936 302.24 201.085C302.24 200.234 302.929 199.544 303.78 199.544C304.631 199.544 305.32 200.234 305.32 201.085Z" fill="white"/>
<path d="M204.326 83.8916C204.326 84.7426 203.637 85.4326 202.786 85.4326C201.936 85.4326 201.246 84.7426 201.246 83.8916C201.246 83.0406 201.935 82.3506 202.786 82.3506C203.637 82.3506 204.326 83.0406 204.326 83.8916Z" fill="white"/>
<path d="M34.585 341.928H445.66C448.687 341.928 449.519 346.097 446.719 347.248C419.224 358.543 346.31 384.132 244.122 387.054C149.097 389.771 69.704 365.041 32.906 351.081C27.988 349.216 29.326 341.928 34.585 341.928Z" fill="#F7E4D2"/>
<path d="M171.601 255.82C170.692 239.582 153.675 236.318 151.973 232.277C150.272 228.236 147.524 219.971 135.271 216.073C123.018 212.175 115.394 219.38 108.528 214.968C101.662 210.556 95.5522 206.908 87.3682 212.457C79.1842 218.006 73.3852 215.966 61.5702 214.628C49.7552 213.29 40.3722 224.685 40.3722 224.685C35.7512 228.924 40.2092 234.292 51.1032 236.925C66.4862 240.643 62.0932 250.634 70.2932 254.683C78.4932 258.732 88.2382 254.72 94.4182 259.62C100.597 264.52 100.131 273.406 107.779 275.492C115.427 277.578 124.449 272.499 128.825 275.505C133.201 278.511 135.585 287.418 140.807 290.494C146.03 293.57 160.81 294.331 160.81 294.331L164.38 293.468C164.38 293.468 172.51 272.058 171.601 255.82Z" fill="#B9BC7E"/>
<path d="M161.955 288.359C161.955 288.359 158.098 255.213 135.303 240.115C112.508 225.017 75.124 224.657 63.791 224.031C52.458 223.405 52.458 223.405 52.458 223.405C52.458 223.405 98.207 220.495 120.891 229.721C152.045 242.391 160.921 263.089 161.955 288.359Z" fill="#FFFBF4"/>
<path d="M145.228 253.467C145.228 253.467 126.167 236.439 123.296 222.266C120.425 208.094 128.85 202.8 123.178 195.625C117.506 188.45 120.041 175.574 126.147 172.306C132.253 169.039 134.754 161.907 135.352 152.048C135.95 142.189 143.465 138.521 145.793 141.256C152.203 148.787 149.016 156.488 158.821 161.278C168.626 166.069 172.103 175.99 169.643 184.113C167.183 192.237 177.995 194.829 185.155 207.23C192.315 219.631 187.128 229.999 184.091 237.777C181.053 245.555 189.472 254.926 186.415 263.892C183.359 272.858 162.265 287.618 162.265 287.618C162.265 287.618 152.059 283.847 145.228 253.467Z" fill="#CFC293"/>
<path d="M145.036 154.982C145.036 154.982 151.33 179.252 158.91 210.54C166.489 241.828 167.765 280.417 167.765 280.417C167.765 280.417 172.153 252.412 166.468 226.131C160.783 199.851 145.516 159.027 145.036 154.982Z" fill="#FFFBF4"/>
<path d="M147.786 266.134C145.187 252.799 158.294 246.661 158.842 243.04C159.389 239.419 159.917 232.162 169.037 226.489C178.157 220.816 185.81 225.083 190.463 220.101C195.116 215.118 199.314 210.909 207.08 213.721C214.846 216.533 219.122 213.69 228.414 210.179C237.705 206.669 247.643 213.968 247.643 213.968C252.255 216.451 249.749 221.713 241.469 226.083C229.778 232.253 235.387 239.44 229.579 244.403C223.772 249.366 215.057 248.119 211.06 253.356C207.063 258.592 209.266 265.692 203.503 268.952C197.739 272.212 189.391 269.953 186.466 273.285C183.541 276.617 183.44 284.319 179.843 287.883C176.246 291.446 164.435 295.098 164.435 295.098L161.367 295.133C161.367 295.133 150.386 279.468 147.786 266.134Z" fill="#B9BC7E"/>
<path d="M162.281 290.499C162.281 290.499 158.595 262.869 173.95 245.962C189.305 229.055 219.5 221.084 228.547 218.249C237.594 215.414 237.594 215.414 237.594 215.414C237.594 215.414 199.954 222.456 183.483 234.585C160.862 251.244 157.927 269.826 162.281 290.499Z" fill="#FFFBF4"/>
<path d="M153.267 290.452C153.267 290.452 128.153 283.576 114.967 289.607C101.781 295.638 99.3481 303.926 99.3481 303.926C99.3481 303.926 104.995 305.901 115.734 304.397C126.474 302.892 128.083 296.53 135.571 299.556C143.059 302.582 145.517 305.497 151.821 303.691C158.125 301.885 161.365 295.135 161.365 295.135L153.267 290.452Z" fill="#9A9B82"/>
<path d="M165.632 291.351C165.632 291.351 172.385 283.567 182.18 284.085C191.975 284.603 193.696 288.018 198.495 288.236C203.294 288.454 205.945 286.94 212.496 289.177C218.979 291.391 222.812 294.424 222.812 294.424C222.812 294.424 216.152 304.064 205.783 301.568C195.414 299.072 187.569 297.462 184.177 300.937C180.785 304.412 159.481 298.079 159.481 298.079L165.632 291.351Z" fill="#9A9B82"/>
<path d="M310.997 260.439C310.997 260.439 325.115 269.496 354.15 274.557C383.185 279.618 395.439 271.36 397.037 267.498C398.635 263.635 393.84 261.505 374.928 258.042C356.015 254.579 350.954 250.317 360.277 249.252C369.6 248.187 382.653 256.444 393.841 256.444C405.029 256.444 412.754 250.495 413.02 246.41C413.286 242.326 379.456 241.26 375.194 235.4C370.932 229.54 397.126 235.666 408.403 237.265C419.68 238.863 424.208 230.073 423.409 227.143C422.61 224.213 395.173 223.263 392.509 219.209C389.845 215.156 403.963 216.603 416.217 219.209C428.47 221.815 434.597 212.758 432.999 210.627C431.401 208.496 408.759 206.898 406.361 202.902C403.963 198.906 418.614 199.972 426.073 201.57C433.532 203.168 441.523 195.976 438.859 193.579C436.195 191.182 419.413 190.382 418.881 186.919C418.348 183.456 441.239 185.321 439.383 180.26C437.527 175.199 431.134 170.463 421.278 170.3C411.422 170.138 402.365 180.526 397.038 177.33C391.71 174.133 410.09 166.408 405.296 163.478C400.501 160.548 389.846 162.146 386.117 167.207C382.388 172.268 382.121 180.792 378.126 180.526C374.13 180.26 381.056 168.273 377.593 165.609C374.13 162.945 365.073 168.539 363.209 173.867C361.344 179.194 363.475 189.85 359.746 190.382C356.017 190.915 360.643 173.334 357.397 171.736C354.152 170.138 343.763 180.526 343.497 186.92C343.231 193.313 346.694 203.384 341.1 205.008C335.506 206.632 336.572 186.653 332.31 184.789C328.048 182.924 319.524 195.143 320.856 205.149C322.188 215.156 325.118 223.343 321.122 223.378C317.126 223.413 314.196 210.627 311 208.496C307.803 206.365 304.924 211.693 304.1 225.278C303.272 238.863 309.681 257.109 310.997 260.439Z" fill="#D1C795"/>
<path d="M306.44 282.323C306.44 282.323 321.403 243.939 338.809 222.67C356.215 201.401 389.805 188.575 405.99 187.659C405.99 187.659 367.701 194.777 343.084 225.219C318.467 255.661 309.188 297.286 309.188 297.286L302.47 295.965L306.44 282.323Z" fill="#FFFBF4"/>
<path d="M35.3271 338.699C35.3271 338.699 37.4641 330.736 47.9521 327.045C58.4401 323.355 59.9941 333.26 66.5981 332.872C73.2021 332.484 76.2691 345.303 76.2691 345.303H32.9961L35.3271 338.699Z" fill="#9A9B82"/>
<path d="M60.686 344.842C60.078 341.822 59.146 338.418 57.987 334.779C59.886 331.091 65.262 319.379 65.133 305.203C64.976 287.997 53.051 269.952 53.051 269.952C53.051 269.952 49.919 299.392 55.109 326.473C51.518 316.781 46.914 306.268 42.649 297.08C44.464 293.28 47.728 285.102 47.703 275.404C47.668 261.99 38.463 247.863 38.463 247.863C38.463 247.863 35.992 269.711 39.508 290.412C36.365 283.836 33.653 278.43 32.012 275.209C31.723 270.668 30.601 262.707 26.474 254.896C20.207 243.036 5.48996 234.807 5.48996 234.807C5.48996 234.807 14.756 258.634 29.272 275.832C30.585 278.41 32.791 282.8 35.433 288.263C33.417 285.306 30.841 282.16 27.599 279.304C17.535 270.436 0.855957 267.958 0.855957 267.958C0.855957 267.958 19.812 288.998 40.757 299.537C42.932 304.257 45.175 309.282 47.313 314.337C44.894 311.05 41.928 307.651 38.341 304.532C25.358 293.24 3.94296 290.201 3.94296 290.201C3.94296 290.201 27.133 315.609 53.217 329.273C55.375 335.236 57.094 340.794 58.018 345.38L60.686 344.842Z" fill="#B9BC7E"/>
<path d="M402.914 336.718H416.088C416.088 336.718 422.048 325.74 436.476 318.212C450.904 310.684 452.472 301.604 453.1 297.362C453.727 293.12 447.454 295.315 438.044 300.961C428.634 306.607 426.125 319.973 422.047 319.72C417.97 319.467 420.479 304.102 429.261 299.081C438.043 294.061 444.944 281.828 447.139 273.987C449.335 266.146 431.456 271.791 422.987 281.201C414.518 290.611 415.773 313.591 409.5 316.529C403.227 319.467 414.205 300.177 401.502 292.308C396.408 289.153 395.07 298.176 396.639 309.606C398.21 321.035 406.051 326.367 402.914 336.718Z" fill="#9A9B82"/>
<path d="M380.727 343.539C380.727 343.539 403.859 346.058 421.723 346.058C439.587 346.058 446.458 344.455 446.458 344.455C446.458 344.455 442.565 337.126 431.113 334.378C419.662 331.63 418.517 338.5 413.478 334.378C408.439 330.256 399.278 327.278 391.263 329.568C383.246 331.858 380.727 343.539 380.727 343.539Z" fill="#D7CA8C"/>
<path d="M233.444 364.594C309.832 364.594 371.757 359.52 371.757 353.261C371.757 347.002 309.832 341.928 233.444 341.928C157.056 341.928 95.1309 347.002 95.1309 353.261C95.1309 359.52 157.056 364.594 233.444 364.594Z" fill="#E2C9B5"/>
<path d="M362.133 290.728L351.627 301.805C351.627 301.805 351.627 301.816 351.616 301.838L349.64 303.913C349.629 303.924 349.618 303.924 349.618 303.924L349.497 304.056C349.486 304.045 349.464 304.034 349.453 304.023C326.772 289.993 304.893 269.091 299.382 263.701C296.55 261.154 293.893 258.102 291.829 254.458C286.988 245.884 280.445 229.878 275.889 218.154L275.285 220.701L267.073 255.49C270.586 260.88 275.394 269.136 279.511 279.323C281.597 284.494 283.507 290.169 284.978 296.207L237.784 323.97L237.795 324.673L237.158 324.333L236.532 324.695L236.521 323.992L188.294 298.062C189.853 290.421 192.125 283.34 194.585 277.094C194.629 276.995 194.662 276.886 194.706 276.787C198.065 268.356 201.787 261.451 204.63 256.686L194.937 221.688L193.631 216.978L192.928 214.442C188.317 225.892 179.82 246.3 173.892 256.334C171.762 259.935 169.062 262.932 166.163 265.424C160.564 270.704 138.246 291.211 115.302 304.824L113.205 302.53L102.919 291.256L155.218 242.085L172.893 191.553C183.07 169.718 190.699 169.41 190.699 169.41V169.421C192.104 168.235 193.707 167.236 195.507 166.534C196.089 166.303 196.682 166.073 197.285 165.82L197.296 165.809C200.743 164.393 204.607 162.582 208.472 160.309C213.028 157.619 217.595 154.271 221.503 150.132C222.074 146.246 222.282 140.713 222.359 137.123C222.403 134.982 222.403 133.522 222.403 133.522L233.524 134.664L244.59 133.094C244.59 133.094 244.689 135.981 244.952 139.604C245.205 142.864 245.567 146.729 246.116 149.66C247.927 151.438 249.87 153.063 251.879 154.512C258.85 159.639 266.622 162.932 272.726 165.051C274.307 165.6 275.745 166.368 277.051 167.291C278.643 167.686 285.537 170.453 294.067 189.719L310.776 240.569L362.133 290.728Z" fill="#5E4453"/>
<path d="M251.881 154.513C250.092 156.522 244.614 160.836 229.091 164.404C208.101 169.223 197.288 165.82 197.288 165.82L197.299 165.809C200.746 164.393 204.61 162.582 208.475 160.309C213.031 157.619 217.598 154.271 221.506 150.132C222.077 146.246 222.285 140.713 222.362 137.123L244.955 139.604C245.208 142.864 245.57 146.729 246.119 149.66C247.929 151.439 249.872 153.064 251.881 154.513Z" fill="#3F2935"/>
<path d="M263.7 229.565C256.334 232.825 243.461 226.507 232.527 230.031C221.593 233.566 216.181 243.677 214.062 256.62C211.943 269.552 217.355 288.357 217.355 288.357C217.355 288.357 207.585 291.069 194.707 276.786C198.066 268.355 201.788 261.45 204.631 256.685L193.631 216.978L192.928 214.442C192.928 214.442 190.304 200.862 196.891 190.51C196.891 190.51 194.838 201.576 198.692 211.687C202.534 221.798 211.602 221.798 221.065 221.567C230.528 221.336 230.396 218.09 241.089 220.392C258.925 224.233 265.895 222.508 270.055 216.65C272.799 212.787 271.055 226.304 263.7 229.565Z" fill="#3F2935"/>
<path d="M212.943 121.508C212.943 121.508 210.41 116.341 207.076 116.544C203.742 116.747 202.627 123.862 207.323 129.404C212.019 134.947 216.285 132.57 216.285 132.57L212.943 121.508Z" fill="#EA8D78"/>
<path d="M254.755 120.705C254.755 120.705 257.088 115.445 260.427 115.52C263.766 115.595 265.154 122.662 260.674 128.38C256.194 134.099 251.84 131.888 251.84 131.888L254.755 120.705Z" fill="#EA8D78"/>
<path d="M256.255 110.037C256.651 130.683 244.349 149.139 234.548 149.327C222.661 149.555 211.162 130.166 210.793 110.91C210.52 96.6667 219.064 84.9517 233.307 84.6777C247.55 84.4047 255.981 95.7937 256.255 110.037Z" fill="#FFA488"/>
<path d="M215.888 111.941C215.888 111.941 219.232 110.987 222.85 110.723C227.385 110.391 229.057 110.864 229.057 110.864C229.057 110.864 228.184 108.321 224.367 108.394C220.551 108.468 215.888 111.941 215.888 111.941Z" fill="#2F2A00"/>
<path d="M228.826 117.517C228.826 117.517 226.149 113.917 222.706 113.879C219.263 113.841 216.209 117.759 216.209 117.759C216.209 117.759 217.149 118.792 222.04 119.003C227.05 119.22 228.826 117.517 228.826 117.517Z" fill="#EA8D78"/>
<path d="M222.613 118.715C219.368 118.746 216.729 117.93 216.283 117.784L216.235 117.759C216.232 117.761 216.228 117.763 216.224 117.765C216.219 117.763 216.208 117.76 216.208 117.76C216.211 117.762 216.216 117.766 216.219 117.768C215.649 118.135 214.478 118.233 214.478 118.233C215.685 118.609 216.642 118.484 217.07 118.39C218.006 119.026 219.664 119.86 222.633 119.827C226.897 119.78 228.824 117.518 228.824 117.518C228.824 117.518 226.175 118.681 222.613 118.715Z" fill="#2F2A00"/>
<path d="M250.979 111.269C250.979 111.269 247.601 110.444 243.976 110.319C239.431 110.162 237.779 110.698 237.779 110.698C237.779 110.698 238.554 108.123 242.37 108.05C246.186 107.976 250.979 111.269 250.979 111.269Z" fill="#2F2A00"/>
<path d="M238.265 117.337C238.265 117.337 240.802 113.637 244.241 113.467C247.68 113.296 250.882 117.095 250.882 117.095C250.882 117.095 249.982 118.163 245.103 118.562C240.104 118.97 238.265 117.337 238.265 117.337Z" fill="#EA8D78"/>
<path d="M252.628 117.5C252.628 117.5 251.454 117.447 250.871 117.102C250.874 117.1 250.878 117.096 250.882 117.094C250.882 117.094 250.872 117.098 250.867 117.1C250.864 117.098 250.859 117.097 250.856 117.095L250.809 117.122C250.368 117.285 247.762 118.201 244.519 118.295C240.958 118.398 238.265 117.337 238.265 117.337C238.265 117.337 240.278 119.524 244.541 119.407C247.509 119.326 249.134 118.428 250.045 117.757C250.475 117.834 251.436 117.923 252.628 117.5Z" fill="#2F2A00"/>
<path d="M230.593 129.897C230.593 129.897 232.422 131.009 233.919 131.085C235.416 131.161 237.197 129.77 237.197 129.77C237.197 129.77 235.803 129.624 234.134 129.586C232.464 129.548 230.593 129.897 230.593 129.897Z" fill="#EA8D78"/>
<path d="M234.716 136.296C238.412 136.073 240.759 134.91 240.759 134.91C240.759 134.91 236.804 134.486 235.791 134.684C235.162 134.807 234.723 135.408 234.481 135.846C234.222 135.417 233.761 134.833 233.128 134.735C232.108 134.576 228.173 135.152 228.173 135.152C228.173 135.152 230.564 136.224 234.265 136.305C234.264 136.308 234.258 136.322 234.258 136.322C234.337 136.319 234.412 136.313 234.49 136.309C234.568 136.31 234.643 136.313 234.722 136.313C234.722 136.313 234.718 136.299 234.716 136.296Z" fill="#743F3D"/>
<path d="M229.307 136.728C229.307 136.728 230.085 137.834 232.967 138.535C235.849 139.236 237.938 138.048 239.665 136.946C239.665 136.946 238.105 139.923 234.853 140.324C231.601 140.726 229.42 137.169 229.307 136.728Z" fill="#EA8D78"/>
<path d="M242.443 96.9158C242.443 96.9158 237.49 94.2988 230.821 94.6358C224.152 94.9728 218.971 100.183 217.04 103.871C215.109 107.559 213.148 108.611 213.148 108.611C213.148 108.611 213.759 117.553 212.048 121.364C212.048 121.364 209.738 117.502 207.077 116.545C207.077 116.545 204.799 108.383 206.197 99.6978C207.595 91.0128 216.803 81.6568 229.192 80.3758C241.58 79.0948 247.851 85.1288 247.851 85.1288C247.851 85.1288 256.076 89.7688 258.522 97.6498C260.968 105.531 258.87 115.76 258.87 115.76C258.87 115.76 256.753 116.832 255.389 120.531C255.389 120.531 251.426 114.551 252.445 107.856C252.443 107.856 250.821 97.2068 242.443 96.9158Z" fill="#743F3D"/>
<path d="M249.809 89.5736C247.326 90.3596 231.299 81.6856 231.299 81.6856C231.299 81.6856 231.215 80.2816 231.666 78.4696C232.295 75.9656 233.929 72.6666 238.192 71.1266C238.925 70.8646 239.648 70.6766 240.35 70.5506C246.771 69.4616 252.103 73.8606 253.633 78.3446C255.329 83.3206 252.302 88.7986 249.809 89.5736Z" fill="#743F3D"/>
<path d="M229.057 110.865C229.057 110.865 230.611 113.775 231.485 118.193C232.359 122.612 231.631 125.781 231.631 125.781C231.631 125.781 230.776 113.283 224.415 110.634C224.415 110.634 227.903 110.559 229.057 110.865Z" fill="#EA8D78"/>
<path d="M242.443 96.9159C242.443 96.9159 234.531 94.2679 227.795 97.1969C221.059 100.126 221.22 104.401 216.541 104.763L215.938 103.644C215.938 103.644 217.185 103.883 220.035 101.637C222.884 99.3899 228.895 91.3079 242.443 96.9159Z" fill="#743F3D"/>
<path d="M210.26 333.098C210.26 333.098 203.789 333.923 201.533 334.361C201.533 334.361 192.495 333.066 188.698 333.227C184.9 333.388 182.824 337.908 180.679 342.813C178.534 347.718 170.222 352.944 167.285 355.999C164.349 359.053 164.27 363.534 164.334 364.482C164.398 365.43 162.485 368.13 163.491 370.347C164.497 372.564 165.59 371.824 166.525 371.571C167.46 371.318 168.116 369.75 168.116 369.75C168.116 369.75 170.505 369.875 171.522 369.425C172.539 368.976 171.667 368.749 173.942 368.595C176.217 368.442 177.436 368.169 178.826 367.599C180.216 367.029 189.738 357.151 194.893 354.519C200.048 351.886 207.995 352.494 207.995 352.494L210.26 333.098Z" fill="#FFA488"/>
<path d="M356.381 339.81C341.012 348.406 315.554 351.787 286.089 353.576C282.499 353.796 278.855 353.993 275.155 354.169L275.66 366.947C275.66 366.947 273.42 366.925 269.457 366.87C257.304 366.727 228.97 366.365 199.428 365.772C151.652 364.828 113.646 352.972 102.668 342.4C97.3767 337.295 94.2367 329.16 95.3567 321.564C96.2457 315.548 99.8137 309.872 107.092 306.283C108.827 305.427 111.856 304.34 115.951 303.176C128.795 299.498 152.036 295.052 177.669 294.811C178.075 294.778 178.459 294.756 178.833 294.723C182.214 289.651 194.707 276.785 194.707 276.785C194.707 276.785 203.489 284.173 215.499 288.564C221.844 290.88 229.101 292.373 236.434 291.484C257.644 288.926 278.952 277.103 278.952 277.103C283.266 281.396 287.394 291.473 287.394 291.473C308.626 291.671 343.788 298.115 351.352 301.902C351.407 301.935 351.451 301.968 351.495 301.99C356.633 303.373 360.914 306.359 363.845 310.158C370.641 318.951 370.191 332.103 356.381 339.81Z" fill="#E9835B"/>
<path d="M102.915 291.254C102.915 291.254 97.5708 290.438 95.4288 290.479C93.2858 290.52 88.9638 291.889 86.5228 292.303C84.0808 292.717 82.8578 292.802 82.9258 293.168C82.9938 293.534 83.8078 294.437 86.5098 294.814C89.2118 295.191 91.5228 294.473 92.9628 294.445C94.4028 294.417 94.7248 295.269 94.7248 295.269C94.7248 295.269 93.2688 299.155 88.5688 299.98C83.8688 300.805 82.0188 300.106 81.6998 299.438C81.3808 298.771 83.3748 294.2 82.8528 292.496C82.3298 290.791 81.5368 290.929 80.5478 293.643C79.5588 296.357 77.8328 298.962 77.8668 300.737C77.9008 302.512 80.9308 304.047 80.9308 304.047C80.9308 304.047 75.0998 303.363 73.3548 304.988C71.6098 306.614 75.1018 306.669 77.8628 306.923C80.6238 307.176 83.2108 307.984 84.8608 307.768C84.8608 307.768 77.4488 307.665 76.0018 308.857C74.5548 310.048 77.5098 310.849 80.3258 310.795C83.1418 310.741 86.9498 311.342 87.5628 311.33C87.5628 311.33 80.9638 312.13 81.1798 313.78C81.3948 315.429 82.5988 314.304 86.2188 314.663C89.8388 315.022 92.8388 314.965 96.2478 313.919C99.6568 312.874 113.208 302.527 113.208 302.527L102.915 291.254Z" fill="#FFA488"/>
<path d="M331.219 307.424C302.984 311.431 223.942 331.664 223.942 331.664C223.942 331.664 182.302 312.606 154.385 308.138C127.873 303.901 112.405 306.008 115.951 303.176C128.795 299.498 152.036 295.052 177.669 294.811C178.075 294.778 178.459 294.756 178.833 294.723C182.214 289.651 194.707 276.785 194.707 276.785C194.707 276.785 203.489 284.173 215.499 288.564C216.465 293.219 233.119 316.13 245.118 312.364C257.117 308.609 272.87 303.428 280.401 306.019C287.932 308.61 303.224 307.194 313.763 304.822C324.292 302.451 331.219 307.424 331.219 307.424Z" fill="#CC6A4C"/>
<path d="M351.628 301.804C351.628 301.804 351.628 301.815 351.617 301.837C351.518 302.046 351.013 303.067 349.641 303.912C349.63 303.923 349.619 303.923 349.619 303.923C349.564 303.956 349.509 303.989 349.454 304.022C326.773 289.992 304.894 269.09 299.383 263.7C296.551 261.153 293.894 258.101 291.83 254.457C286.989 245.883 280.446 229.877 275.89 218.153L278.514 196.318C278.514 196.318 288.317 238.572 298.67 252.185C309.022 265.796 351.628 301.804 351.628 301.804Z" fill="#3F2935"/>
<path d="M194.938 221.686L193.632 216.976L192.929 214.44C188.318 225.89 179.821 246.298 173.893 256.332C171.763 259.933 169.063 262.93 166.164 265.422C160.565 270.702 138.247 291.209 115.303 304.822L113.206 302.528C113.206 302.528 158.402 263.929 171.675 248.747C184.936 233.564 193.093 200.455 193.093 200.455L194.938 221.686Z" fill="#3F2935"/>
<path d="M356.381 339.81C341.012 348.406 315.554 351.787 286.089 353.576C273.772 351.556 264.978 346.759 264.978 346.759V345.299L223.975 331.675C224.323 331.761 231.061 329.861 231.061 329.861C249.731 334.02 295.737 346.559 319.692 341.072C350.507 334.013 351.682 321.048 357.325 314.593C359.532 312.068 361.848 310.784 363.846 310.158C370.641 318.951 370.191 332.103 356.381 339.81Z" fill="#CC6A4C"/>
<path d="M264.982 346.756C264.982 346.756 271.436 347.707 273.683 348.189C273.683 348.189 282.744 347.071 286.538 347.306C290.332 347.541 292.319 352.101 294.367 357.047C296.416 361.993 304.624 367.381 307.5 370.492C310.376 373.603 310.367 378.084 310.285 379.031C310.203 379.977 312.062 382.714 311.013 384.911C309.963 387.108 308.885 386.347 307.955 386.075C307.025 385.803 306.4 384.223 306.4 384.223C306.4 384.223 304.009 384.301 303.001 383.832C301.993 383.363 302.869 383.153 300.598 382.955C298.327 382.757 297.113 382.461 295.734 381.864C294.356 381.267 285.028 371.205 279.926 368.472C274.824 365.739 266.866 366.191 266.866 366.191L264.982 346.756Z" fill="#FFA488"/>
<path d="M362.135 290.73C362.135 290.73 367.493 290.016 369.635 290.098C371.777 290.18 376.071 291.631 378.505 292.092C380.938 292.553 382.16 292.661 382.084 293.026C382.009 293.391 381.178 294.278 378.47 294.603C375.762 294.928 373.464 294.166 372.026 294.111C370.587 294.056 370.248 294.901 370.248 294.901C370.248 294.901 371.63 298.814 376.313 299.729C380.996 300.644 382.86 299.98 383.192 299.318C383.524 298.657 381.617 294.049 382.172 292.355C382.727 290.661 383.518 290.813 384.455 293.545C385.392 296.277 387.068 298.915 387 300.689C386.932 302.463 383.873 303.939 383.873 303.939C383.873 303.939 389.716 303.366 391.429 305.025C393.143 306.684 389.65 306.673 386.885 306.873C384.12 307.073 381.517 307.832 379.872 307.585C379.872 307.585 387.285 307.624 388.709 308.843C390.133 310.062 387.163 310.806 384.349 310.698C381.534 310.59 377.715 311.118 377.103 311.094C377.103 311.094 383.685 312.02 383.439 313.665C383.192 315.31 382.011 314.162 378.384 314.452C374.758 314.742 371.76 314.627 368.371 313.517C364.982 312.407 351.631 301.804 351.631 301.804L362.135 290.73Z" fill="#FFA488"/>
<path d="M269.457 366.87C257.304 366.727 228.97 366.365 199.428 365.772C151.652 364.828 113.646 352.972 102.668 342.4C97.3767 337.295 94.2367 329.16 95.3567 321.564C99.3967 324.704 107.202 330.171 122.088 337.614C146.547 349.855 191.711 356.441 227.477 359.889C263.232 363.336 266.449 361.821 266.449 361.821L269.457 366.87Z" fill="#CC6A4C"/>
<path d="M244.383 84.0118C239.554 81.6548 231.918 80.2088 231.918 80.2088C231.792 79.6008 231.708 79.0148 231.667 78.4698C232.296 75.9658 233.93 72.6668 238.193 71.1268C238.926 70.8648 239.649 70.6768 240.351 70.5508C239.545 71.3788 238.706 72.9178 239.44 75.4848C240.685 79.8428 249.201 86.3688 244.383 84.0118Z" fill="#603030"/>
<path d="M239.886 92.9919C239.886 92.9919 230.986 89.6249 222.473 92.9919C213.96 96.3589 212.775 105.45 210.786 106.348C210.786 106.348 212.51 94.1519 221.653 91.4959C230.795 88.8399 239.886 92.9919 239.886 92.9919Z" fill="#603030"/>
<path d="M246.62 87.3809L243.253 94.9718C243.253 94.9718 247.854 92.8799 246.62 87.3809Z" fill="#603030"/>
</svg>
