<svg width="93" height="74" viewBox="0 0 93 74" fill="none" xmlns="http://www.w3.org/2000/svg">
<path d="M76.898 62.0479L78.877 64.6839C79.028 64.8849 80.214 65.0599 80.422 65.2009L84.588 68.6909L89.936 70.1719L92.528 70.1469C92.528 70.1469 93.026 72.9699 90.67 72.9929C89.374 73.0049 89.548 72.6499 89.548 72.6499C89.548 72.6499 87.117 73.0269 85.3 73.0439C83.483 73.0609 80.059 72.3869 78.056 72.4059C76.053 72.4249 76.901 73.1239 74.721 73.1449C72.541 73.1659 71.641 71.4069 71.742 69.6969C71.843 67.9869 72.742 65.0479 72.742 65.0479L76.898 62.0479Z" fill="#E5BD9F"/>
<path d="M73.953 22.0833L71.861 26.6533C71.861 26.6533 68.524 35.8223 70.361 43.1483C71.207 49.4643 73.104 57.3313 72.679 65.3533H80.7131C81.3731 55.3463 81.681 37.1323 79.326 26.6133C79.326 26.6133 76.016 21.4943 73.953 22.0833Z" fill="#433F4B"/>
<path d="M79.7851 28.4672C79.4751 26.2002 78.5511 24.0662 77.1171 22.2832C74.1591 18.6062 68.7021 11.2042 63.6931 7.39819C59.0441 3.86619 53.6191 0.873172 48.1561 0.339172C45.5761 0.0871716 42.5051 0.203158 40.3901 0.350158L41.3801 15.5492C46.7471 21.4972 53.2871 19.4672 53.2871 19.4672C53.2871 19.4672 67.8421 25.2312 73.6301 38.0302L80.1311 31.0012L79.7851 28.4672Z" fill="#433F4B"/>
<path d="M74.4234 62.0479L76.4024 64.6839C76.5534 64.8849 77.7394 65.0599 77.9474 65.2009L82.1134 68.6909L87.4614 70.1719L90.0534 70.1469C90.0534 70.1469 90.5514 72.9699 88.1954 72.9929C86.8994 73.0049 87.0734 72.6499 87.0734 72.6499C87.0734 72.6499 84.6424 73.0269 82.8254 73.0439C81.0084 73.0609 77.5844 72.3869 75.5814 72.4059C73.5784 72.4249 74.4264 73.1239 72.2464 73.1449C70.0664 73.1659 69.1664 71.4069 69.2674 69.6969C69.3694 67.9869 70.2674 65.0479 70.2674 65.0479L74.4234 62.0479Z" fill="#FDCFAD"/>
<path d="M71.4789 22.0833L69.3869 26.6533C69.3869 26.6533 66.0499 35.8223 67.8869 43.1483C68.7339 49.4643 70.6299 57.3313 70.2049 65.3533H78.2389C78.8989 55.3463 79.2079 37.1323 76.8519 26.6133C76.8519 26.6133 73.5409 21.4943 71.4789 22.0833Z" fill="#4C4854"/>
<path d="M15.4292 46.3204C15.4292 46.3204 14.4982 53.5214 17.3222 68.4524C17.5212 69.5024 21.3342 68.8294 21.2022 67.5424C20.7342 62.9684 21.9582 54.9434 20.6172 46.6894C20.3652 45.1344 15.4292 46.3204 15.4292 46.3204Z" fill="#E5BD9F"/>
<path d="M20.4065 67.1982L26.6255 69.8782L31.8375 71.0443C31.8375 71.0443 32.0235 72.5662 30.4325 72.5812C28.8415 72.5962 27.1815 72.6122 25.8555 72.6252C24.9735 72.6332 24.9655 72.3203 23.8095 72.1223C23.1785 72.0143 22.5465 72.1212 21.9235 72.2662C17.8785 73.2022 16.1485 70.9212 17.4395 67.3152L20.4065 67.1982Z" fill="#E5BD9F"/>
<path d="M21.2933 44.0031L23.2793 23.0571C23.4793 21.1531 22.1953 19.3081 20.2953 19.0691C18.2853 18.8151 16.5113 20.3151 16.3973 22.3051L15.2912 43.4901C15.2312 44.5361 15.1503 46.6491 15.5753 47.6011C16.1893 48.9761 17.6713 50.0662 20.0143 48.8692C20.7863 47.4312 21.1663 45.8341 21.2763 44.2061C21.2803 44.1381 21.2863 44.0711 21.2933 44.0031Z" fill="#E5BD9F"/>
<path d="M7.17017 31.7515L9.98615 33.4346C9.98615 33.4346 14.9111 31.1095 18.2221 29.4445C21.5341 27.7805 25.7652 24.0496 28.6182 17.3806C31.1652 11.4256 35.2462 13.8115 35.2462 13.8115L26.7762 5.14258L16.0761 7.56152C16.0761 7.56152 11.4521 9.33056 11.3871 12.6486C11.3431 14.9196 11.4422 20.9366 11.2782 24.8336C11.2552 25.3926 8.92914 27.7296 6.84814 28.3126L7.17017 31.7515Z" fill="#FDCFAD"/>
<path d="M16.826 42.6283C19.407 42.0483 22.123 46.5383 18.561 49.1883C15.587 51.4013 11.933 48.4743 12.856 45.6253C13.456 43.7703 16.085 42.7943 16.826 42.6283Z" fill="#7F562D"/>
<path d="M15.9799 41.7607L16.8259 42.6277C16.8259 42.6277 16.0059 45.6258 12.8559 45.6248L12.3149 44.6978L15.9799 41.7607Z" fill="#F05587"/>
<path d="M2.38816 37.4628C0.785158 38.7808 0.700146 40.0438 2.20115 42.3508C3.60815 44.5148 10.3912 47.9368 15.0492 43.5078C19.4822 39.2918 17.5042 32.9448 14.2632 30.5128C12.4452 29.1488 10.6852 31.0018 10.6852 31.0018C10.6852 31.0018 4.26416 35.9208 2.38816 37.4628Z" fill="#7F562D"/>
<path d="M2.50513 40.1586C2.50513 40.1586 1.77111 39.6206 1.69311 38.4626C1.65411 37.8876 1.65913 37.6886 1.63913 36.9986C1.60013 35.6956 2.51012 34.8926 1.81412 33.7736C1.11812 32.6556 0.287108 32.0636 0.287108 32.0636C0.287108 32.0636 0.167131 31.6866 0.592131 31.3636C1.01713 31.0406 1.95113 31.2616 2.08813 31.0666C2.22513 30.8716 2.02112 30.0336 2.02112 30.0336C2.02112 30.0336 1.92711 29.5276 2.56811 29.2336C2.16111 28.9416 2.28211 28.4166 2.73611 28.2156C3.19011 28.0156 3.16514 27.6096 3.02814 26.9686C2.89014 26.3276 3.13113 25.5676 4.88513 26.0136C6.64013 26.4596 9.79311 27.3436 11.5071 30.9926C11.5071 30.9926 13.2071 31.4786 13.1381 34.2706C13.0691 37.0626 10.6021 36.2046 10.7391 34.8416C10.8981 33.2716 9.80813 32.3556 9.80813 32.3556C9.80813 32.3556 9.70512 33.3726 9.48712 35.5306C9.48712 35.5306 4.04012 37.0486 2.50513 40.1586Z" fill="#FDCFAD"/>
<path d="M35.2461 13.8116C35.2461 13.8116 31.1661 11.4266 28.6181 17.3806C25.7651 24.0496 21.5331 27.7806 18.2221 29.4446C15.5001 28.8486 14.4821 25.8086 14.5271 21.9386C14.5721 18.0686 11.3771 17.0426 11.3771 17.0426C11.3751 15.2136 11.3691 13.5966 11.3871 12.6476C11.4521 9.32958 16.4821 6.54462 16.4821 6.54462C21.9091 3.36462 30.4511 1.52359 37.9141 0.350586L38.9041 15.5496L35.2461 13.8116Z" fill="#F05587"/>
<path d="M77.311 28.4672C77.001 26.2002 76.077 24.0662 74.643 22.2832C71.685 18.6062 66.228 11.2042 61.219 7.39819C56.57 3.86619 51.145 0.873172 45.682 0.339172C43.102 0.0871716 40.031 0.203158 37.916 0.350158L38.906 15.5492C44.273 21.4972 50.813 19.4672 50.813 19.4672C50.813 19.4672 65.368 25.2312 71.156 38.0302L77.657 31.0012L77.311 28.4672Z" fill="#4C4854"/>
<path d="M18.0398 44.2436L22.0668 23.6247C22.4718 21.7537 21.3948 19.7806 19.5328 19.3366C17.5618 18.8666 15.6368 20.1656 15.3068 22.1316L12.1288 43.0837C11.9558 44.1177 11.6458 46.2096 11.9648 47.2016C12.4258 48.6346 13.7818 49.8796 16.2398 48.9436C17.1628 47.5976 17.7138 46.0506 17.9998 44.4446C18.0118 44.3776 18.0258 44.3106 18.0398 44.2436Z" fill="#FDCFAD"/>
<path d="M11.959 45.9114C11.959 45.9114 10.47 52.9814 11.661 68.1294C11.745 69.1954 15.608 68.9384 15.617 67.6454C15.647 63.0474 17.516 55.1914 17.078 46.8404C16.995 45.2684 11.959 45.9114 11.959 45.9114Z" fill="#FDCFAD"/>
<path d="M14.697 67.2539L20.916 69.9339L26.128 71.0999C26.128 71.0999 26.314 72.6219 24.723 72.6369C23.132 72.6519 21.472 72.6679 20.146 72.6809C19.264 72.6889 19.256 72.3759 18.1 72.1779C17.469 72.0699 16.837 72.1769 16.214 72.3219C12.169 73.2579 10.439 70.9769 11.731 67.3709L14.697 67.2539Z" fill="#FDCFAD"/>
</svg>
