<svg width="176" height="115" viewBox="0 0 176 115" fill="none" xmlns="http://www.w3.org/2000/svg">
<path d="M80.4782 89.554C88.6752 86.642 94.8482 87.369 98.7312 88.602C101.366 89.439 102.512 92.523 101.039 94.863C101.001 94.938 100.964 95.012 100.926 95.086C97.7842 101.226 91.5162 105.138 84.6252 105.428H44.5552C44.5552 105.428 70.8322 92.981 80.4782 89.554Z" fill="#433F4B"/>
<path d="M57.5173 106.665L79.6313 89.8604L23.1113 105.247L24.4223 111.5C35.5933 109.159 46.9083 113.223 57.5173 106.665Z" fill="#433F4B"/>
<path d="M24.4232 111.5C23.4882 113.392 21.0642 115.704 16.3682 112.812C14.2362 111.499 12.1372 113.592 8.49722 112.593C6.72122 112.105 4.9382 111.265 4.9382 111.265C1.1092 113.242 0.429199 110.002 0.429199 110.002L23.1122 105.247L24.4232 111.5Z" fill="#FDCFAD"/>
<path d="M94.245 37.7313L96.412 58.6573C96.63 60.5593 95.364 62.4163 93.466 62.6743C91.458 62.9473 89.671 61.4643 89.537 59.4753L88.248 38.3014C88.178 37.2554 88.076 35.1433 88.492 34.1873C89.093 32.8073 90.565 31.7023 92.918 32.8763C93.703 34.3073 94.099 35.9003 94.225 37.5273C94.23 37.5963 94.237 37.6643 94.245 37.7313Z" fill="#E5BD9F"/>
<path d="M88.2422 35.3456C88.2422 35.3456 87.0322 27.2377 88.3212 12.0967C88.4122 11.0317 92.2732 11.3127 92.2732 12.6067C92.2732 17.2047 93.8581 26.1026 93.3651 34.4496C93.2731 36.0216 88.2422 35.3456 88.2422 35.3456Z" fill="#E5BD9F"/>
<path d="M87.1841 7.44843C87.1841 10.6634 88.5951 12.5305 88.5951 12.5305H92.2631C92.2631 11.6195 93.9021 10.0045 93.9021 8.03845V7.25043V3.8454H93.7881C93.3121 3.8454 92.9111 4.20343 92.8591 4.67743L92.7681 6.22644L92.4881 7.20245C92.4881 7.20245 92.2051 5.94443 92.1611 5.44043L92.2341 1.56244C92.2391 1.31344 92.0551 1.10044 91.8081 1.06744C91.5281 1.03044 91.2751 1.23643 91.2551 1.51843L90.9871 5.24841L90.9761 0.947449C90.9661 0.665449 90.7341 0.441406 90.4511 0.441406C90.1711 0.441406 89.9411 0.66043 89.9271 0.94043L89.6041 5.28046L89.6521 1.43146C89.6341 1.12646 89.3411 0.913455 89.0461 0.991455C88.8371 1.04646 88.6901 1.23444 88.6871 1.45044L88.3471 5.78241L88.3811 2.60242C88.3621 2.33542 88.1281 2.1364 87.8621 2.1604C87.6161 2.1824 87.4281 2.38941 87.4281 2.63641C87.4281 2.63641 87.1841 6.27243 87.1841 7.44843Z" fill="#E5BD9F"/>
<path d="M98.3444 45.6328L101.098 47.4158C101.098 47.4158 101.187 52.8608 101.156 56.5668C101.125 60.2728 99.6474 65.7168 94.9234 71.2218C90.7064 76.1368 90.7894 81.9398 90.7894 81.9398L79.2704 78.1688C79.2704 78.1688 78.7714 68.2498 80.5744 64.3048C80.5744 64.3048 80.1194 59.3748 83.0674 57.8518C85.0854 56.8088 90.5274 54.2408 93.9524 52.3728C94.4434 52.1048 95.5134 48.9858 95.1174 46.8618L98.3444 45.6328Z" fill="#FDCFAD"/>
<path d="M112.697 48.4904C113.224 51.0824 118.433 51.7234 119.394 47.3894C120.197 43.7704 116.03 41.6344 113.809 43.6414C112.362 44.9484 112.546 47.7464 112.697 48.4904Z" fill="#7F562D"/>
<path d="M111.56 48.0734L112.698 48.4904C112.698 48.4904 115.098 46.5154 113.809 43.6414L112.741 43.5273L111.56 48.0734Z" fill="#F05587"/>
<path d="M102.077 37.4305C102.624 35.4285 103.741 34.8345 106.46 35.2595C109.011 35.6585 114.909 40.4475 112.773 46.5095C110.74 52.2795 104.14 53.0715 100.595 51.1095C98.6063 50.0085 99.5783 47.6455 99.5783 47.6455C99.5783 47.6455 101.437 39.7725 102.077 37.4305Z" fill="#7F562D"/>
<path d="M104.584 36.434C104.584 36.434 103.793 35.985 102.704 36.387C102.164 36.587 101.984 36.673 101.346 36.936C100.141 37.433 99.7803 38.592 98.4753 38.415C97.1703 38.238 96.2903 37.722 96.2903 37.722C96.2903 37.722 95.8963 37.766 95.7763 38.286C95.6553 38.806 96.2403 39.568 96.1173 39.772C95.9953 39.977 95.1473 40.133 95.1473 40.133C95.1473 40.133 94.6473 40.254 94.6413 40.959C94.2083 40.707 93.7783 41.033 93.7813 41.529C93.7843 42.025 93.4033 42.169 92.7623 42.306C92.1213 42.443 91.5263 42.973 92.6513 44.391C93.7763 45.81 95.8733 48.325 99.9033 48.396C99.9033 48.396 101.042 49.748 103.561 48.543C106.08 47.338 104.288 45.438 103.1 46.121C101.733 46.908 100.451 46.289 100.451 46.289C100.451 46.289 101.337 45.779 103.216 44.697C103.219 44.699 102.375 39.107 104.584 36.434Z" fill="#FDCFAD"/>
<path d="M90.7882 81.9402C90.7882 81.9402 90.7052 76.1372 94.9232 71.2222C99.6472 65.7172 101.125 60.2732 101.156 56.5672C99.4192 54.3892 96.2422 54.8172 92.7902 56.5672C89.3382 58.3172 87.0062 55.9032 87.0062 55.9032C85.3642 56.7092 83.9102 57.4182 83.0672 57.8532C80.1192 59.3762 80.5742 64.3062 80.5742 64.3062C78.7722 68.2512 77.6472 83.0662 79.8912 90.2802L93.9652 84.4562L90.7882 81.9402Z" fill="#F05587"/>
<path d="M95.0111 37.7313L97.1781 58.6573C97.3961 60.5593 96.1301 62.4163 94.2321 62.6743C92.2241 62.9473 90.4371 61.4643 90.3031 59.4753L89.0141 38.3014C88.9441 37.2554 88.8421 35.1433 89.2581 34.1873C89.8591 32.8073 91.3311 31.7023 93.6841 32.8763C94.4691 34.3073 94.8651 35.9003 94.9911 37.5273C94.9971 37.5963 95.0031 37.6643 95.0111 37.7313Z" fill="#FDCFAD"/>
<path d="M89.0092 35.3456C89.0092 35.3456 87.7993 27.2377 89.0883 12.0967C89.1793 11.0317 93.0403 11.3127 93.0403 12.6067C93.0403 17.2047 94.6252 26.1026 94.1322 34.4496C94.0402 36.0216 89.0092 35.3456 89.0092 35.3456Z" fill="#FDCFAD"/>
<path d="M87.9502 7.44843C87.9502 10.6634 89.3612 12.5305 89.3612 12.5305H93.0292C93.0292 11.6195 94.6682 10.0045 94.6682 8.03845V7.25043V3.8454H94.5542C94.0772 3.8454 93.6772 4.20343 93.6252 4.67743L93.5342 6.22644L93.2542 7.20245C93.2542 7.20245 92.9712 5.94443 92.9272 5.44043L93.0002 1.56244C93.0052 1.31344 92.8212 1.10044 92.5742 1.06744C92.2942 1.03044 92.0412 1.23643 92.0212 1.51843L91.7532 5.24841L91.7422 0.947449C91.7322 0.665449 91.5002 0.441406 91.2172 0.441406C90.9372 0.441406 90.7072 0.66043 90.6932 0.94043L90.3702 5.28046L90.4182 1.43146C90.4012 1.12646 90.1072 0.913455 89.8122 0.991455C89.6032 1.04646 89.4562 1.23444 89.4532 1.45044L89.1132 5.78241L89.1472 2.60242C89.1282 2.33542 88.8942 2.1364 88.6282 2.1604C88.3822 2.1824 88.1942 2.38941 88.1942 2.63641C88.1942 2.63641 87.9502 6.27243 87.9502 7.44843Z" fill="#FDCFAD"/>
<path d="M120.425 105.103C115.043 102.693 108.344 98.3741 103.93 94.4651L102.738 93.4091C102.738 93.4091 101.671 86.6441 93.9641 84.4561L79.8901 90.2801C80.6921 92.2421 81.9441 95.0491 83.3091 97.2521C86.2161 101.941 91.3341 105.5 96.5831 108.114C104.778 112.196 113.859 114.179 123.014 114.179H126.534L120.425 105.103Z" fill="#4C4854"/>
<path d="M120.827 114.179H152.762V107.79C139.806 107.79 133.24 101.015 119.925 105.257L120.827 114.179Z" fill="#4C4854"/>
<path d="M152.762 107.789C154.065 106.129 156.912 104.364 160.915 108.158C162.733 109.881 165.216 108.262 168.574 109.988C170.212 110.829 171.785 112.017 171.785 112.017C175.939 110.868 175.939 114.178 175.939 114.178H152.763V107.789H152.762Z" fill="#FDCFAD"/>
</svg>
