<svg width="70" height="167" viewBox="0 0 70 167" fill="none" xmlns="http://www.w3.org/2000/svg">
<path d="M24.5461 59.8251L25.6111 58.0791C31.0531 46.8561 25.8561 36.0151 27.0461 24.6631L20.6921 23.9971L8.74609 103.998C9.84709 106.534 16.1311 104.281 18.3081 102.577C18.3791 102.532 18.4491 102.487 18.5191 102.442C24.3071 98.69 27.5591 92.0561 27.1451 85.1711L24.5461 59.8251Z" fill="#433F4B"/>
<path d="M27.0459 24.6642C28.8329 23.5412 30.8849 20.8942 27.5289 16.5172C26.0049 14.5302 27.8739 12.2293 26.5079 8.70926C25.8419 6.99226 24.8239 5.30423 24.8239 5.30423C26.3999 1.29323 23.1079 0.948242 23.1079 0.948242L20.6909 23.9982L27.0459 24.6642Z" fill="#FDCFAD"/>
<path d="M37.5382 163.272L39.2632 164.037L44.4632 165.257C44.4632 165.257 44.6332 166.781 43.0422 166.779C41.4512 166.778 41.6912 166.778 40.3652 166.777C39.4702 166.776 37.5782 166.453 36.3742 166.242C35.8552 166.151 35.3212 166.19 34.8082 166.313C32.0762 166.968 29.3382 166.367 29.3382 166.367C28.9942 165.657 29.2592 163.644 29.7412 162.342C33.5352 161.556 35.4812 162.36 37.5382 163.272Z" fill="#E5BD9F"/>
<path d="M14.453 157.914L16.62 136.988C16.838 135.086 15.571 133.229 13.674 132.971C11.666 132.698 9.87898 134.181 9.74498 136.17L8.45598 157.344C8.38598 158.39 8.284 160.502 8.7 161.458C9.301 162.838 10.773 163.943 13.126 162.769C13.911 161.338 14.307 159.745 14.433 158.118C14.439 158.05 14.445 157.982 14.453 157.914Z" fill="#E5BD9F"/>
<path d="M8.50609 163.7C8.86709 165.078 10.0251 166.099 11.4391 166.273C14.6301 166.668 21.1171 167.125 31.2351 166.296C32.3001 166.209 32.0311 162.346 30.7381 162.342C26.1401 162.327 17.3741 159.1 8.39608 159.1L8.39309 162.814C8.39209 163.113 8.43009 163.411 8.50609 163.7Z" fill="#E5BD9F"/>
<path d="M38.9283 163.272L40.6533 164.037L45.8533 165.257C45.8533 165.257 46.0233 166.781 44.4323 166.779C42.8413 166.778 43.0813 166.778 41.7553 166.777C40.8603 166.776 38.9683 166.453 37.7643 166.242C37.2453 166.151 36.7103 166.19 36.1983 166.313C33.4663 166.968 30.7283 166.367 30.7283 166.367C30.3843 165.657 30.6493 163.644 31.1313 162.342C34.9253 161.556 36.8713 162.36 38.9283 163.272Z" fill="#FDCFAD"/>
<path d="M12.0982 147.449L15.2872 146.679C15.2872 146.679 17.1752 141.571 18.3742 138.064C19.5732 134.557 19.9822 128.931 17.3502 122.171C15.0002 116.136 17.0012 110.688 17.0012 110.688L4.88424 110.429C4.88424 110.429 1.12723 119.622 1.52023 123.941C1.52023 123.941 -0.54175 128.441 1.73425 130.856C3.29225 132.508 7.57623 136.735 10.1882 139.632C10.5622 140.047 10.5382 143.344 9.46124 145.218L12.0982 147.449Z" fill="#FDCFAD"/>
<path d="M26.5884 149.509C27.9444 147.238 33.0704 148.359 32.5414 152.767C32.0994 156.448 27.4604 157.082 26.0294 154.452C25.0974 152.739 26.1994 150.16 26.5884 149.509Z" fill="#7F562D"/>
<path d="M25.3764 149.526L26.5874 149.51C26.5874 149.51 28.1974 152.169 26.0284 154.453L24.9834 154.207L25.3764 149.526Z" fill="#F05587"/>
<path d="M12.9021 156.425C12.7551 158.495 13.612 159.426 16.318 159.926C18.857 160.395 26.0081 157.831 26.0021 151.403C25.9961 145.285 20.0311 142.351 16.0361 143.027C13.7951 143.407 13.9281 145.959 13.9281 145.959C13.9281 145.959 13.0751 154.003 12.9021 156.425Z" fill="#7F562D"/>
<path d="M14.9382 158.196C14.9382 158.196 14.0432 158.358 13.1492 157.617C12.7062 157.25 12.5652 157.109 12.0502 156.649C11.0782 155.78 11.1222 154.568 9.83125 154.302C8.54125 154.037 7.54026 154.232 7.54026 154.232C7.54026 154.232 7.18326 154.06 7.24226 153.529C7.30026 152.999 8.10426 152.473 8.05626 152.24C8.00926 152.007 7.26027 151.577 7.26027 151.577C7.26027 151.577 6.82826 151.297 7.05726 150.63C6.56526 150.724 6.26725 150.275 6.43525 149.807C6.60225 149.34 6.29124 149.078 5.73124 148.737C5.17124 148.395 4.78624 147.698 6.31724 146.733C7.84924 145.767 10.6603 144.089 14.4873 145.357C14.4873 145.357 16.0103 144.459 17.9883 146.43C19.9653 148.402 17.6443 149.601 16.7513 148.563C15.7223 147.367 14.3073 147.527 14.3073 147.527C14.3073 147.527 14.9743 148.302 16.3893 149.945C16.3893 149.945 13.7382 154.942 14.9382 158.196Z" fill="#FDCFAD"/>
<path d="M17.0022 110.689C17.0022 110.689 15.0012 116.137 17.3512 122.172C19.9832 128.931 19.5742 134.557 18.3752 138.064C16.0142 139.544 13.1592 138.086 10.4822 135.292C7.80418 132.497 4.80518 134.002 4.80518 134.002C3.52218 132.697 2.38617 131.547 1.73517 130.856C-0.541827 128.442 1.52118 123.942 1.52118 123.942C1.12818 119.623 4.9762 105.272 9.4842 99.209L20.8332 109.367L17.0022 110.689Z" fill="#F05587"/>
<path d="M63.0254 134.884C61.3984 136.106 59.7004 138.566 63.4534 142.034C65.1534 143.631 63.4984 145.812 65.0784 148.806C65.8494 150.273 66.9434 151.715 66.9434 151.715C65.5454 155.373 68.8154 155.523 68.8224 155.526C69.4094 148.566 69.6044 141.599 69.4094 134.649C67.2824 134.727 65.1534 134.805 63.0254 134.884Z" fill="#FDCFAD"/>
<path d="M15.8441 157.914L18.0111 136.988C18.2291 135.086 16.9631 133.229 15.0651 132.971C13.0571 132.698 11.2701 134.181 11.1361 136.17L9.84709 157.344C9.77709 158.39 9.67511 160.502 10.0911 161.458C10.6921 162.838 12.1641 163.943 14.5171 162.769C15.3021 161.338 15.6981 159.745 15.8241 158.118C15.8291 158.05 15.8361 157.982 15.8441 157.914Z" fill="#FDCFAD"/>
<path d="M9.89721 163.7C10.2582 165.078 11.4162 166.099 12.8302 166.273C16.0212 166.668 22.5082 167.125 32.6262 166.296C33.6912 166.209 33.4222 162.346 32.1292 162.342C27.5312 162.327 18.7642 159.1 9.78719 159.1L9.7842 162.814C9.7832 163.113 9.82121 163.411 9.89721 163.7Z" fill="#FDCFAD"/>
<path d="M62.4794 92.6202L58.1734 90.9803C49.4804 87.9273 40.1964 86.7692 31.0554 87.9252C25.2634 88.6582 19.2944 90.3203 15.0194 93.7643C13.0004 95.3903 10.8894 97.6243 9.48242 99.2093L20.8314 109.367C28.8284 109.856 32.0764 103.827 32.0764 103.827L33.5514 103.226C39.0124 101 52.4764 103.215 59.7824 104.156L65.5924 96.5972C65.5924 96.5972 64.8474 93.5112 62.4794 92.6202Z" fill="#4C4854"/>
<path d="M57.9104 102.704C57.9104 102.704 57.2223 111.328 58.4773 115.39C59.9133 121.598 62.6964 126.858 63.0254 134.884C65.1533 134.806 67.2824 134.728 69.4104 134.65C69.1284 124.625 70.2874 108.351 65.1014 95.3017C64.8104 94.5687 63.8804 93.6887 63.2894 93.2637L57.9104 102.704Z" fill="#4C4854"/>
</svg>
