<svg width="125" height="119" viewBox="0 0 125 119" fill="none" xmlns="http://www.w3.org/2000/svg">
<path d="M35.9239 107.91L34.6009 110.871L28.2979 114.626L22.9639 116.158H20.3719C20.3719 116.158 19.9009 118.986 22.2569 118.986C23.5529 118.986 23.3759 118.632 23.3759 118.632C23.3759 118.632 25.8099 118.986 27.6269 118.986C29.4439 118.986 32.8619 118.279 34.8649 118.279C36.8679 118.279 36.0269 118.986 38.2069 118.986C40.3869 118.986 41.2709 117.218 41.1529 115.51C41.0349 113.801 40.1079 110.871 40.1079 110.871L35.9239 107.91Z" fill="#FDCFAD"/>
<path d="M75.2061 72.0431V63.5191L67.1231 54.4561L39.6861 68.4771C37.0501 70.0161 33.4141 71.2201 33.4141 75.7171V111.617H40.3301C41.1411 100.582 46.9901 89.2741 43.9411 80.8631L75.2061 72.0431Z" fill="#433F4B"/>
<path d="M38.18 28.1679L59.106 26.0009C61.008 25.7829 62.865 27.0489 63.123 28.9469C63.396 30.9549 61.913 32.7419 59.924 32.8759L38.75 34.1659C37.704 34.2359 35.592 34.3379 34.636 33.9219C33.256 33.3209 32.151 31.8489 33.325 29.4959C34.756 28.7109 36.349 28.3149 37.976 28.1889C38.044 28.1819 38.112 28.1759 38.18 28.1679Z" fill="#E5BD9F"/>
<path d="M35.7929 34.1702C35.7929 34.1702 27.6849 35.3802 12.5439 34.0912C11.4789 34.0002 11.7599 30.1392 13.0539 30.1392C17.6519 30.1392 26.5489 28.5542 34.8969 29.0472C36.4699 29.1392 35.7929 34.1702 35.7929 34.1702Z" fill="#E5BD9F"/>
<path d="M7.89714 35.2287C11.1121 35.2287 12.9791 33.8177 12.9791 33.8177V30.1497C12.0681 30.1497 10.4531 28.5107 8.48714 28.5107H7.69914H4.29414V28.6247C4.29414 29.1007 4.65214 29.5017 5.12614 29.5537L6.67514 29.6447L7.65114 29.9247C7.65114 29.9247 6.39315 30.2077 5.88914 30.2517L2.01114 30.1787C1.76214 30.1737 1.54914 30.3567 1.51614 30.6047C1.47914 30.8847 1.68513 31.1377 1.96713 31.1577L5.69714 31.4257L1.39613 31.4367C1.11413 31.4467 0.890137 31.6787 0.890137 31.9617C0.890137 32.2417 1.10914 32.4717 1.38914 32.4857L5.72914 32.8087L1.88014 32.7607C1.57514 32.7787 1.36214 33.0717 1.44014 33.3667C1.49514 33.5757 1.68314 33.7227 1.89914 33.7257L6.23114 34.0657L3.05113 34.0317C2.78413 34.0507 2.58513 34.2847 2.60913 34.5507C2.63113 34.7967 2.83814 34.9847 3.08514 34.9847C3.08514 34.9847 6.72114 35.2287 7.89714 35.2287Z" fill="#E5BD9F"/>
<path d="M58.6333 15.4795L61.9003 15.7785C61.9003 15.7785 65.4383 20.1825 67.1333 23.4785C68.8283 26.7745 70.0483 32.2815 68.4243 39.3515C66.9743 45.6635 69.7443 50.7635 69.7443 50.7635L57.7923 52.7775C57.7923 52.7775 53.6703 43.8505 53.4323 39.5195C53.4323 39.5195 49.8103 35.7425 51.7133 33.0235C53.0153 31.1625 56.6413 26.3595 58.8053 23.1145C59.1153 22.6495 58.1693 20.5635 56.8313 18.8655L58.6333 15.4795Z" fill="#FDCFAD"/>
<path d="M69.9603 7.48786C72.2183 8.86586 76.2323 5.48586 73.7103 1.83186C71.6043 -1.21914 67.2043 0.379858 67.1633 3.37386C67.1373 5.32286 69.3133 7.09186 69.9603 7.48786Z" fill="#7F562D"/>
<path d="M68.88 8.03705L69.96 7.48705C69.96 7.48705 70.146 4.38405 67.163 3.37305L66.353 4.07705L68.88 8.03705Z" fill="#F05587"/>
<path d="M54.6291 7.74302C53.5351 5.98002 53.8601 4.75702 56.0211 3.05402C58.0491 1.45602 65.5721 0.394021 68.5601 6.08502C71.4041 11.501 67.4931 16.877 63.6431 18.139C61.4831 18.847 60.4121 16.527 60.4121 16.527C60.4121 16.527 55.9101 9.80602 54.6291 7.74302Z" fill="#7F562D"/>
<path d="M55.6051 5.22656C55.6051 5.22656 54.7381 5.50056 54.2921 6.57156C54.0711 7.10356 54.0121 7.29356 53.7711 7.93956C53.3151 9.16056 53.9191 10.2136 52.9011 11.0496C51.8831 11.8856 50.9061 12.1786 50.9061 12.1786C50.9061 12.1786 50.6711 12.4976 50.9701 12.9396C51.2691 13.3816 52.2251 13.4726 52.2911 13.7006C52.3581 13.9296 51.8961 14.6576 51.8961 14.6576C51.8961 14.6576 51.6441 15.1066 52.1571 15.5906C51.6781 15.7366 51.6241 16.2726 51.9901 16.6086C52.3561 16.9446 52.2021 17.3206 51.8661 17.8836C51.5301 18.4466 51.5131 19.2436 53.3181 19.3846C55.1231 19.5256 58.3931 19.7016 61.1881 16.7966C61.1881 16.7966 62.9541 16.8816 63.7861 14.2166C64.6171 11.5506 62.0051 11.5706 61.6981 12.9056C61.3441 14.4426 60.0181 14.9616 60.0181 14.9616C60.0181 14.9616 60.2471 13.9656 60.7341 11.8516C60.7321 11.8526 56.0601 8.66456 55.6051 5.22656Z" fill="#FDCFAD"/>
<path d="M69.7443 50.7637C69.7443 50.7637 66.9743 45.6637 68.4243 39.3517C70.0483 32.2817 68.8283 26.7747 67.1333 23.4787C64.5833 22.3567 61.9693 24.2127 59.7253 27.3667C57.4813 30.5207 54.2953 29.4657 54.2953 29.4657C53.2153 30.9427 52.2583 32.2457 51.7143 33.0227C49.8113 35.7417 53.4333 39.5187 53.4333 39.5187C53.6713 43.8497 56.4213 54.2767 60.4533 59.6927L74.1723 52.4617L69.7443 50.7637Z" fill="#F05587"/>
<path d="M87.0194 27.4023L66.0934 25.2353C64.1914 25.0173 62.3344 26.2843 62.0764 28.1813C61.8034 30.1893 63.2864 31.9763 65.2754 32.1103L86.4494 33.3993C87.4954 33.4693 89.6074 33.5713 90.5634 33.1553C91.9434 32.5543 93.0484 31.0823 91.8744 28.7293C90.4434 27.9443 88.8504 27.5483 87.2234 27.4223C87.1554 27.4163 87.0874 27.4093 87.0194 27.4023Z" fill="#FDCFAD"/>
<path d="M89.4053 33.4046C89.4053 33.4046 97.5133 34.6146 112.654 33.3256C113.719 33.2346 113.438 29.3736 112.144 29.3736C107.546 29.3736 98.6493 27.7886 90.3013 28.2816C88.7293 28.3736 89.4053 33.4046 89.4053 33.4046Z" fill="#FDCFAD"/>
<path d="M117.302 34.4622C114.087 34.4622 112.22 33.0502 112.22 33.0502V29.3822C113.131 29.3822 114.746 27.7432 116.711 27.7432H117.499H120.904V27.8572C120.904 28.3332 120.546 28.7342 120.072 28.7862L118.523 28.8762L117.547 29.1572C117.547 29.1572 118.805 29.4402 119.309 29.4842L123.187 29.4112C123.436 29.4062 123.649 29.5902 123.682 29.8372C123.719 30.1172 123.513 30.3702 123.231 30.3902L119.501 30.6582L123.802 30.6692C124.084 30.6792 124.308 30.9112 124.308 31.1942C124.308 31.4742 124.089 31.7042 123.809 31.7182L119.469 32.0412L123.318 31.9932C123.623 32.0112 123.836 32.3042 123.758 32.5992C123.703 32.8082 123.515 32.9552 123.299 32.9582L118.967 33.2982L122.147 33.2642C122.414 33.2832 122.613 33.5172 122.589 33.7832C122.567 34.0292 122.36 34.2172 122.113 34.2172C122.113 34.2172 118.478 34.4622 117.302 34.4622Z" fill="#FDCFAD"/>
<path d="M120.52 103.001C118.993 102.225 117.177 101.602 117.177 101.602L112.14 104.287L114.002 106.943L113.988 113.92C113.862 114.797 113.329 115.562 112.55 115.985L112.365 116.085L109.787 116.358C109.787 116.358 109.616 119.22 111.96 118.972C112.328 118.933 112.574 118.878 112.737 118.819C113.254 118.632 113.784 118.49 114.333 118.462C114.88 118.435 115.563 118.388 116.303 118.31C116.949 118.241 118.013 117.779 118.249 115.316C118.92 113.789 118.831 111.624 119.492 110.52C120.521 108.801 120.736 108.761 121.581 107.48C122.78 105.659 122.047 103.777 120.52 103.001Z" fill="#FDCFAD"/>
<path d="M92.3681 83.7627L82.3751 62.5197C82.3751 62.5197 81.8421 54.8138 74.1811 52.4688L60.4531 59.6937C60.4531 59.6937 62.1701 63.6237 63.4911 65.8547C70.9481 78.4497 88.7411 91.9157 88.7411 91.9157L114.014 106.919L117.178 101.603C105.271 96.4918 106.086 86.4457 92.3681 83.7627Z" fill="#4C4854"/>
</svg>
