<svg width="132" height="123" viewBox="0 0 132 123" fill="none" xmlns="http://www.w3.org/2000/svg">
<path d="M16.4532 111.909L15.1302 114.87L8.82721 118.625L3.49323 120.157H0.901217C0.901217 120.157 0.430227 122.985 2.78623 122.985C4.08223 122.985 3.90521 122.631 3.90521 122.631C3.90521 122.631 6.33923 122.985 8.15723 122.985C9.97423 122.985 13.3922 122.278 15.3952 122.278C17.3982 122.278 16.5572 122.985 18.7372 122.985C20.9172 122.985 21.8012 121.217 21.6832 119.509C21.5652 117.8 20.6382 114.87 20.6382 114.87L16.4532 111.909Z" fill="#FDCFAD"/>
<path d="M50.4253 82.6374C49.2883 83.7464 31.5173 75.5414 20.3753 74.5114C17.3363 74.2304 13.9443 76.2204 13.9443 80.7174V115.615H20.8603C21.6083 105.436 25.9133 94.9184 24.0663 88.4204L39.2473 94.8744C41.8493 96.0674 44.5463 97.2334 47.1563 98.2364L47.1573 98.2374C51.4703 99.8954 55.5373 101.114 58.5083 101.296V91.7004L50.4253 82.6374Z" fill="#433F4B"/>
<path d="M48.0531 38.1456L50.2201 59.0716C50.4381 60.9736 49.1721 62.8306 47.2741 63.0886C45.2661 63.3616 43.4791 61.8786 43.3451 59.8896L42.0561 38.7156C41.9861 37.6696 41.8841 35.5576 42.3001 34.6016C42.9011 33.2206 44.3731 32.1166 46.7261 33.2906C47.5111 34.7216 47.9071 36.3146 48.0331 37.9416C48.0391 38.0106 48.0461 38.0776 48.0531 38.1456Z" fill="#E5BD9F"/>
<path d="M42.0512 35.7597C42.0512 35.7597 40.8412 27.6517 42.1302 12.5107C42.2212 11.4457 46.0822 11.7267 46.0822 13.0207C46.0822 17.6187 47.6673 26.5167 47.1743 34.8637C47.0823 36.4357 42.0512 35.7597 42.0512 35.7597Z" fill="#E5BD9F"/>
<path d="M40.9922 7.86245C40.9922 11.0774 42.4032 12.9444 42.4032 12.9444H46.0712C46.0712 12.0324 47.7102 10.4184 47.7102 8.45245V7.66445V4.26044H47.5962C47.1202 4.26044 46.7192 4.61845 46.6672 5.09245L46.5762 6.64145L46.2962 7.61745C46.2962 7.61745 46.0132 6.35945 45.9692 5.85545L46.0422 1.97745C46.0472 1.72845 45.8632 1.51544 45.6162 1.48244C45.3362 1.44544 45.0832 1.65144 45.0632 1.93344L44.7952 5.66344L44.7842 1.36245C44.7742 1.08045 44.5422 0.856445 44.2592 0.856445C43.9792 0.856445 43.7492 1.07545 43.7352 1.35545L43.4122 5.69545L43.4602 1.84745C43.4422 1.54245 43.1492 1.32945 42.8542 1.40745C42.6452 1.46245 42.4982 1.65045 42.4942 1.86645L42.1542 6.19845L42.1882 3.01744C42.1692 2.75044 41.9352 2.55145 41.6692 2.57645C41.4232 2.59845 41.2352 2.80544 41.2352 3.05145C41.2352 3.05145 40.9922 6.68645 40.9922 7.86245Z" fill="#E5BD9F"/>
<path d="M41.8433 45.4756L45.1103 45.7746C45.1103 45.7746 48.6483 50.1786 50.3433 53.4746C52.0383 56.7706 53.2583 62.2786 51.6343 69.3476C50.1843 75.6596 52.9543 80.7596 52.9543 80.7596L41.0023 82.7736C41.0023 82.7736 36.8803 73.8466 36.6423 69.5156C36.6423 69.5156 33.0203 65.7386 34.9223 63.0196C36.2243 61.1586 39.8503 56.3556 42.0143 53.1096C42.3243 52.6446 41.3783 50.5586 40.0403 48.8606L41.8433 45.4756Z" fill="#FDCFAD"/>
<path d="M53.1703 37.483C55.4283 38.861 59.4423 35.481 56.9203 31.827C54.8143 28.776 50.4143 30.375 50.3733 33.369C50.3463 35.32 52.5223 37.088 53.1703 37.483Z" fill="#7F562D"/>
<path d="M52.09 38.0331L53.17 37.4831C53.17 37.4831 53.356 34.3801 50.373 33.3701L49.563 34.0741L52.09 38.0331Z" fill="#F05587"/>
<path d="M37.839 37.7391C36.745 35.9761 37.07 34.7531 39.231 33.0501C41.259 31.4521 48.782 30.3901 51.77 36.0811C54.615 41.4971 50.703 46.8721 46.853 48.1351C44.693 48.8431 43.6221 46.5231 43.6221 46.5231C43.6221 46.5231 39.119 39.8021 37.839 37.7391Z" fill="#7F562D"/>
<path d="M38.8151 35.2227C38.8151 35.2227 37.9472 35.4967 37.5022 36.5677C37.2812 37.0997 37.2222 37.2897 36.9802 37.9357C36.5252 39.1567 37.1281 40.2097 36.1101 41.0457C35.0921 41.8817 34.1151 42.1747 34.1151 42.1747C34.1151 42.1747 33.8801 42.4937 34.1791 42.9357C34.4781 43.3777 35.4341 43.4687 35.5001 43.6967C35.5671 43.9257 35.1052 44.6537 35.1052 44.6537C35.1052 44.6537 34.8531 45.1027 35.3661 45.5867C34.8871 45.7327 34.8331 46.2687 35.1991 46.6047C35.5651 46.9407 35.4112 47.3167 35.0752 47.8797C34.7392 48.4427 34.7221 49.2397 36.5271 49.3807C38.3321 49.5217 41.6021 49.6977 44.3971 46.7927C44.3971 46.7927 46.1631 46.8777 46.9951 44.2127C47.8261 41.5467 45.2142 41.5667 44.9072 42.9017C44.5532 44.4387 43.2271 44.9567 43.2271 44.9567C43.2271 44.9567 43.4561 43.9607 43.9431 41.8477C43.9431 41.8477 39.2691 38.6607 38.8151 35.2227Z" fill="#FDCFAD"/>
<path d="M75.4154 113.061L68.8754 93.128C67.7554 89.371 65.6934 82.459 57.3814 82.459L46.5254 92.14C46.5254 92.14 60.1664 114.633 67.4064 120.609C69.2684 122.145 71.6054 122.985 74.0194 122.985H108.252V115.594C95.2964 115.594 88.7304 108.819 75.4154 113.061Z" fill="#4C4854"/>
<path d="M52.9533 80.7598C52.9533 80.7598 50.1833 75.6598 51.6333 69.3478C53.2573 62.2778 52.0373 56.7708 50.3423 53.4748C47.7923 52.3528 45.1783 54.2088 42.9343 57.3628C40.6903 60.5168 37.5043 59.4618 37.5043 59.4618C36.4243 60.9388 35.4673 62.2418 34.9233 63.0188C33.0203 65.7378 36.6423 69.5148 36.6423 69.5148C36.8803 73.8458 41.1853 86.7938 46.5253 92.1398L57.3813 82.4588L52.9533 80.7598Z" fill="#F05587"/>
<path d="M108.252 115.594C109.555 113.934 112.402 113.171 116.405 116.965C118.223 118.688 120.706 117.069 124.064 118.795C125.702 119.637 127.275 120.824 127.275 120.824C131.429 119.675 131.429 122.985 131.429 122.985H108.253L108.252 115.594Z" fill="#FDCFAD"/>
<path d="M48.8202 38.1456L50.9872 59.0716C51.2052 60.9736 49.9392 62.8306 48.0412 63.0886C46.0332 63.3616 44.2462 61.8786 44.1122 59.8896L42.8222 38.7156C42.7522 37.6696 42.6502 35.5576 43.0662 34.6016C43.6672 33.2206 45.1392 32.1166 47.4922 33.2906C48.2772 34.7216 48.6732 36.3146 48.7992 37.9416C48.8052 38.0106 48.8122 38.0776 48.8202 38.1456Z" fill="#FDCFAD"/>
<path d="M42.8174 35.7597C42.8174 35.7597 41.6074 27.6517 42.8964 12.5107C42.9874 11.4457 46.8484 11.7267 46.8484 13.0207C46.8484 17.6187 48.4334 26.5167 47.9404 34.8637C47.8484 36.4357 42.8174 35.7597 42.8174 35.7597Z" fill="#FDCFAD"/>
<path d="M41.7593 7.86245C41.7593 11.0774 43.1703 12.9444 43.1703 12.9444H46.8383C46.8383 12.0324 48.4773 10.4184 48.4773 8.45245V7.66445V4.26044H48.3633C47.8873 4.26044 47.4863 4.61845 47.4343 5.09245L47.3443 6.64145L47.0643 7.61745C47.0643 7.61745 46.7813 6.35945 46.7373 5.85545L46.8103 1.97745C46.8153 1.72845 46.6323 1.51544 46.3843 1.48244C46.1043 1.44544 45.8513 1.65144 45.8313 1.93344L45.5633 5.66344L45.5523 1.36245C45.5423 1.08045 45.3103 0.856445 45.0273 0.856445C44.7473 0.856445 44.5173 1.07545 44.5033 1.35545L44.1803 5.69545L44.2283 1.84745C44.2113 1.54245 43.9173 1.32945 43.6223 1.40745C43.4133 1.46245 43.2663 1.65045 43.2633 1.86645L42.9233 6.19845L42.9573 3.01744C42.9383 2.75044 42.7043 2.55145 42.4383 2.57645C42.1923 2.59845 42.0043 2.80544 42.0043 3.05145C42.0043 3.05145 41.7593 6.68645 41.7593 7.86245Z" fill="#FDCFAD"/>
</svg>
