<svg width="80" height="147" viewBox="0 0 80 147" fill="none" xmlns="http://www.w3.org/2000/svg">
<path d="M28.898 135.704L27.575 138.665L21.2721 142.42L15.9381 143.952H13.346C13.346 143.952 12.8751 146.78 15.2311 146.78C16.5271 146.78 16.3501 146.427 16.3501 146.427C16.3501 146.427 18.784 146.78 20.601 146.78C22.418 146.78 25.8361 146.073 27.8391 146.073C29.8421 146.073 29.001 146.78 31.181 146.78C33.361 146.78 34.245 145.013 34.127 143.304C34.009 141.595 33.082 138.665 33.082 138.665L28.898 135.704Z" fill="#FDCFAD"/>
<path d="M34.8911 103.781L35.7421 105.64C39.8221 117.427 33.3821 127.636 33.2251 139.049H26.8381L24.4111 58.053C25.8031 55.665 31.7781 58.643 33.7391 60.591C33.8041 60.644 33.8681 60.697 33.9321 60.75C39.2371 65.158 41.6841 72.129 40.4601 78.917L34.8911 103.781Z" fill="#433F4B"/>
<path d="M38.2608 1.65483L40.0038 2.37684L45.2318 3.46983C45.2318 3.46983 45.4388 4.98884 43.8488 5.02684C42.2588 5.06484 42.4978 5.05882 41.1728 5.08982C40.2778 5.11082 38.3788 4.83384 37.1698 4.65284C36.6488 4.57484 36.1158 4.62682 35.6068 4.76182C32.8918 5.48282 30.1398 4.94883 30.1398 4.94883C29.7788 4.24683 29.9948 2.22884 30.4438 0.914837C34.2168 0.0378371 36.1818 0.793827 38.2608 1.65483Z" fill="#E5BD9F"/>
<path d="M16.7318 14.1823L17.3048 35.2123C17.3778 37.1253 15.9738 38.8803 14.0628 38.9943C12.0398 39.1143 10.3698 37.5003 10.3878 35.5063L10.7088 14.2953C10.7178 13.2473 10.7768 11.1333 11.2648 10.2123C11.9688 8.88132 13.5198 7.89231 15.7778 9.24131C16.4528 10.7273 16.7258 12.3463 16.7278 13.9783C16.7278 14.0463 16.7288 14.1143 16.7318 14.1823Z" fill="#E5BD9F"/>
<path d="M10.9489 11.9246C10.8969 10.5016 11.4168 9.65358 12.5268 8.76058C14.6228 7.07258 21.0368 2.92557 30.9648 0.801569C32.0098 0.577569 32.8658 4.35359 31.6288 4.73059C27.2298 6.07059 20.5139 12.9376 11.9179 15.5256L11.0958 12.8046C11.0088 12.5186 10.9599 12.2236 10.9489 11.9246Z" fill="#E5BD9F"/>
<path d="M7.89519 25.4655L11.1252 24.8936C11.1252 24.8936 14.9012 28.8175 17.4052 31.5505C19.9092 34.2835 22.5372 39.2746 22.8322 46.5226C23.0962 52.9936 27.1122 57.1836 27.1122 57.1836L16.1132 62.2745C16.1132 62.2745 8.98818 55.3565 7.61818 51.2405C7.61818 51.2405 3.92619 47.9436 5.04519 44.8195C5.81119 42.6815 8.04319 37.0925 9.27619 33.3915C9.45319 32.8605 8.11018 29.8495 6.37218 28.5645L7.89519 25.4655Z" fill="#FDCFAD"/>
<path d="M20.346 17.7737C22.498 19.3117 26.746 16.2307 24.495 12.4037C22.615 9.20866 18.111 10.4846 17.854 13.4686C17.686 15.4106 19.729 17.3327 20.346 17.7737Z" fill="#7F562D"/>
<path d="M19.2291 18.2438L20.3461 17.7738C20.3461 17.7738 20.7561 14.6927 17.8541 13.4688L16.9951 14.1128L19.2291 18.2438Z" fill="#F05587"/>
<path d="M5.03722 16.9186C4.07322 15.0806 4.48621 13.8846 6.76521 12.3426C8.90321 10.8956 16.4832 10.3806 19.0522 16.2726C21.4972 21.8806 17.2072 26.9586 13.2752 27.9386C11.0702 28.4886 10.1692 26.0966 10.1692 26.0966C10.1692 26.0966 6.16522 19.0696 5.03722 16.9186Z" fill="#7F562D"/>
<path d="M6.192 14.4805C6.192 14.4805 5.307 14.6904 4.785 15.7274C4.526 16.2414 4.453 16.4274 4.166 17.0544C3.623 18.2394 4.149 19.3334 3.073 20.0934C1.997 20.8534 1.00101 21.0755 1.00101 21.0755C1.00101 21.0755 0.743003 21.3765 1.009 21.8385C1.275 22.3005 2.222 22.4605 2.272 22.6935C2.322 22.9265 1.808 23.6194 1.808 23.6194C1.808 23.6194 1.52401 24.0495 2.00101 24.5685C1.51301 24.6795 1.42 25.2105 1.76 25.5715C2.1 25.9325 1.92001 26.2975 1.54401 26.8345C1.16801 27.3715 1.094 28.1645 2.884 28.4365C4.674 28.7075 7.92301 29.1195 10.921 26.4245C10.921 26.4245 12.676 26.6375 13.698 24.0385C14.72 21.4395 12.113 21.2704 11.71 22.5804C11.246 24.0884 9.886 24.5095 9.886 24.5095C9.886 24.5095 10.187 23.5325 10.825 21.4595C10.825 21.4595 6.397 17.9425 6.192 14.4805Z" fill="#FDCFAD"/>
<path d="M27.1122 57.1832C27.1122 57.1832 23.0962 52.9932 22.8332 46.5222C22.5372 39.2742 19.9092 34.2831 17.4062 31.5501C14.6502 31.1401 12.6182 33.6192 11.2842 37.2522C9.95015 40.8852 6.59916 40.7082 6.59916 40.7082C5.94716 42.4172 5.36616 43.9262 5.04616 44.8202C3.92716 47.9442 7.61916 51.2411 7.61916 51.2411C8.98916 55.3561 18.2632 66.9642 24.8222 70.7132L31.1512 56.8601L27.1122 57.1832Z" fill="#F05587"/>
<path d="M40.8511 1.76159L42.5941 2.48361L47.8221 3.5766C47.8221 3.5766 48.0291 5.0956 46.4391 5.1336C44.8491 5.1716 45.0881 5.16562 43.7631 5.19662C42.8681 5.21762 40.9691 4.94061 39.7601 4.75961C39.2391 4.68161 38.7061 4.73362 38.1971 4.86862C35.4821 5.59062 32.7301 5.05661 32.7301 5.05661C32.3691 4.35461 32.5851 2.33661 33.0341 1.02261C36.8071 0.14361 38.7721 0.899593 40.8511 1.76159Z" fill="#FDCFAD"/>
<path d="M19.3222 14.2892L19.8952 35.3192C19.9682 37.2322 18.5652 38.9872 16.6532 39.1012C14.6302 39.2212 12.9602 37.6072 12.9782 35.6132L13.2992 14.4022C13.3082 13.3542 13.3672 11.2402 13.8542 10.3192C14.5582 8.98821 16.1092 7.9982 18.3672 9.3482C19.0412 10.8342 19.3152 12.4532 19.3172 14.0852C19.3182 14.1532 19.3202 14.2212 19.3222 14.2892Z" fill="#FDCFAD"/>
<path d="M13.5392 12.0309C13.4872 10.6079 14.0082 9.75992 15.1172 8.86692C17.2132 7.17892 23.6272 3.03193 33.5552 0.907931C34.6002 0.684931 35.4562 4.46092 34.2192 4.83692C29.8212 6.17692 23.1042 13.0439 14.5082 15.6319L13.6862 12.9109C13.5992 12.6259 13.5502 12.3299 13.5392 12.0309Z" fill="#FDCFAD"/>
<path d="M75.1888 60.8131C68.3918 67.0331 59.8718 70.2441 51.0338 72.8451C45.4328 74.4931 37.3718 74.9281 32.0758 73.4861C29.5748 72.8051 26.7448 71.6041 24.8218 70.7151L31.1508 56.8611C38.2818 53.2101 43.6728 57.4331 43.6728 57.4331L45.2648 57.3931C51.1598 57.2451 65.3368 52.9501 71.6538 49.1621L78.9598 52.8121C78.9598 52.8121 80.2168 56.2111 75.1888 60.8131Z" fill="#4C4854"/>
<path d="M55.1631 22.8918C53.1281 22.8498 50.3141 21.8438 51.3361 16.8368C51.7831 14.5478 49.1671 13.7438 48.7011 10.3908C48.4711 8.74984 48.5161 7.78284 48.5161 7.78284C45.2461 5.62884 47.8121 3.59782 47.8161 3.59082C52.3561 8.89782 54.0971 8.82483 60.4831 19.3548C60.4831 19.3548 56.9361 21.7128 55.1631 22.8918Z" fill="#FDCFAD"/>
<path d="M68.7991 51.0005C68.7991 51.0005 64.2071 46.4045 62.8541 42.3745C60.3941 36.4965 59.5831 29.5995 55.1631 22.8915C56.9361 21.7125 58.7101 20.5325 60.4831 19.3535C66.1081 27.6565 75.5491 39.1895 78.9591 52.8105C79.1501 53.5755 78.9101 54.8335 78.6781 55.5235L68.7991 51.0005Z" fill="#4C4854"/>
</svg>
