<svg width="79" height="68" viewBox="0 0 79 68" fill="none" xmlns="http://www.w3.org/2000/svg">
<path d="M75.5008 57.4607C71.8028 60.2467 55.4238 66.8257 43.5888 66.8257C37.7508 66.8257 34.7068 66.5007 29.4108 65.0577C26.9098 64.3767 43.0118 49.7377 43.0118 49.7377C43.0118 49.7377 60.6948 51.5077 67.9798 48.0977L75.2928 48.3907L75.5008 57.4607Z" fill="#433F4B"/>
<path d="M38.4241 31.7205C38.4241 31.7205 44.1471 32.2975 58.6271 27.6885C59.6461 27.3645 58.5161 23.6605 57.2551 23.9475C52.7711 24.9655 43.7431 23.5745 35.7121 25.9035C34.2001 26.3425 38.4241 31.7205 38.4241 31.7205Z" fill="#E5BD9F"/>
<path d="M59.745 20.8405C57.769 20.3535 55.244 18.7545 57.34 14.0935C58.279 11.9585 55.902 10.6005 56.183 7.22546C56.318 5.57346 56.575 4.63947 56.575 4.63947C53.857 1.82147 56.806 0.402461 56.812 0.397461C60.077 6.57146 61.792 6.88146 65.712 18.5565C65.712 18.5565 61.734 20.0795 59.745 20.8405Z" fill="#E5BD9F"/>
<path d="M66.8821 51.2567C66.8821 51.2567 63.4101 45.7657 62.9741 41.5367C61.8641 35.2617 62.5851 28.3556 59.7451 20.8406C61.7341 20.0796 63.7231 19.3176 65.7121 18.5566C69.3781 27.8916 76.0591 41.2157 76.3971 55.2527C76.4161 56.0407 76.3441 57.2246 75.5011 57.8196L66.8821 51.2567Z" fill="#433F4B"/>
<path d="M65.8219 19.7065L64.4848 20.6615C64.1168 20.9155 64.0289 21.4225 64.2899 21.7855C64.5209 22.1085 64.9539 22.2125 65.3069 22.0294L66.7879 21.3145C67.3079 21.0465 67.4589 20.3734 67.1029 19.9084C66.7979 19.5094 66.2339 19.4205 65.8219 19.7065Z" fill="#E5BD9F"/>
<path d="M66.9327 21.153L65.3177 22.038C64.9267 22.255 64.7907 22.751 65.0147 23.138C65.2137 23.482 65.6347 23.627 66.0037 23.48L67.7397 22.847C68.2827 22.63 68.4987 21.975 68.1897 21.478C67.9237 21.052 67.3717 20.909 66.9327 21.153Z" fill="#E5BD9F"/>
<path d="M67.8188 22.6774L66.3798 23.3024C65.9858 23.4664 65.8028 23.9214 65.9738 24.3134C66.1258 24.6614 66.5088 24.8444 66.8748 24.7444L68.4008 24.3724C68.9398 24.2254 69.2148 23.6264 68.9758 23.1214C68.7708 22.6894 68.2618 22.4934 67.8188 22.6774Z" fill="#E5BD9F"/>
<path d="M68.4968 24.2444L67.2028 24.6614C66.8488 24.7694 66.6528 25.1464 66.7668 25.4984C66.8678 25.8114 67.1838 26.0014 67.5078 25.9464L68.8548 25.7554C69.3318 25.6744 69.6198 25.1814 69.4568 24.7254C69.3168 24.3344 68.8938 24.1224 68.4968 24.2444Z" fill="#E5BD9F"/>
<path d="M35.6019 25.8046L14.6759 23.6376C12.7739 23.4196 10.9169 24.6857 10.6589 26.5837C10.3859 28.5917 11.8689 30.3786 13.8579 30.5126L35.0319 31.8027C36.0779 31.8727 38.0379 31.9677 38.9939 31.5527C40.3739 30.9517 41.6309 29.4856 40.4569 27.1326C39.0259 26.3476 37.4329 25.9517 35.8059 25.8257C35.7379 25.8187 35.6699 25.8126 35.6019 25.8046Z" fill="#E5BD9F"/>
<path d="M63.412 27.7709C60.277 28.4829 58.144 27.5199 58.144 27.5199L57.332 23.9429C58.221 23.7409 59.433 21.7849 61.349 21.3499L62.117 21.1759L65.437 20.4219L65.462 20.5339C65.567 20.9989 65.307 21.4679 64.857 21.6239L63.367 22.0549L62.478 22.5449C62.478 22.5449 63.768 22.5419 64.269 22.4729L66.08 21.9869C66.322 21.9269 66.57 22.0589 66.657 22.2929C66.755 22.5569 66.61 22.8499 66.34 22.9319L64.716 23.5759L66.959 23.0779C67.237 23.0249 67.506 23.2019 67.569 23.4779C67.631 23.7509 67.468 24.0239 67.199 24.0999L64.993 24.9319L66.781 24.4769C67.083 24.4259 67.355 24.6649 67.344 24.9709C67.336 25.1869 67.186 25.3719 66.976 25.4229L64.781 26.2699L67.875 25.5329C68.139 25.4919 68.385 25.6759 68.42 25.9409C68.453 26.1859 68.293 26.4149 68.052 26.4689C68.051 26.4669 64.559 27.5099 63.412 27.7709Z" fill="#E5BD9F"/>
<path d="M70.623 31.006L69.269 31.126C68.9 31.153 68.625 31.477 68.658 31.846C68.688 32.173 68.953 32.429 69.281 32.447L70.637 32.559C71.121 32.586 71.511 32.1689 71.452 31.6879C71.402 31.2759 71.037 30.976 70.623 31.006Z" fill="#FDCFAD"/>
<path d="M40.4288 33.9105C40.4288 33.9105 46.1518 32.6725 60.6318 28.0635C61.6508 27.7395 60.5209 24.0355 59.2599 24.3225C54.7759 25.3405 45.7479 25.7645 37.7169 28.0935C36.2039 28.5315 40.4288 33.9105 40.4288 33.9105Z" fill="#FDCFAD"/>
<path d="M65.4159 28.1449C62.2809 28.8569 60.1479 27.8939 60.1479 27.8939L59.3359 24.3169C60.2249 24.1149 61.4369 22.1589 63.3529 21.7239L64.1209 21.5499L67.4409 20.7959L67.4659 20.9069C67.5709 21.3719 67.3109 21.8409 66.8609 21.9969L65.3709 22.4279L64.4819 22.9169C64.4819 22.9169 65.7719 22.9139 66.2729 22.8449L68.084 22.3589C68.326 22.2989 68.5739 22.4309 68.6609 22.6639C68.7589 22.9289 68.6139 23.2209 68.3439 23.3029L66.7199 23.9469L68.963 23.4489C69.241 23.3959 69.5099 23.5729 69.5729 23.8489C69.6349 24.1219 69.4719 24.3949 69.2029 24.4709L66.9959 25.3029L68.7839 24.8479C69.0859 24.7969 69.3579 25.0359 69.3469 25.3419C69.3389 25.5579 69.1889 25.7429 68.9789 25.7939L66.7839 26.6409L69.8779 25.9039C70.1419 25.8629 70.3879 26.0479 70.4229 26.3119C70.4559 26.5569 70.2959 26.7859 70.0549 26.8399C70.0549 26.8419 66.5629 27.8849 65.4159 28.1449Z" fill="#FDCFAD"/>
<path d="M7.23403 17.7712L10.465 17.1992C10.465 17.1992 14.241 21.1232 16.745 23.8562C19.249 26.5892 21.877 31.5802 22.172 38.8282C22.436 45.2992 26.452 49.4892 26.452 49.4892L15.453 54.5802C15.453 54.5802 8.32803 47.6622 6.95803 43.5472C6.95803 43.5472 3.26603 40.2502 4.38503 37.1262C5.15103 34.9882 7.38302 29.3992 8.61602 25.6982C8.79302 25.1672 7.45003 22.1562 5.71203 20.8712L7.23403 17.7712Z" fill="#FDCFAD"/>
<path d="M19.6849 10.0797C21.8369 11.6177 26.0849 8.53674 23.8339 4.70974C21.9549 1.51374 17.4499 2.79074 17.1929 5.77474C17.0249 7.71674 19.0679 9.63874 19.6849 10.0797Z" fill="#7F562D"/>
<path d="M18.569 10.5494L19.686 10.0794C19.686 10.0794 20.096 6.99841 17.194 5.77441L16.335 6.41841L18.569 10.5494Z" fill="#F05587"/>
<path d="M4.37608 9.22521C3.41208 7.38721 3.82508 6.19121 6.10408 4.64921C8.24208 3.20221 15.8221 2.68722 18.3911 8.57922C20.8361 14.1872 16.5461 19.2652 12.6151 20.2452C10.4101 20.7952 9.50908 18.4032 9.50908 18.4032C9.50908 18.4032 5.50408 11.3752 4.37608 9.22521Z" fill="#7F562D"/>
<path d="M5.53088 6.78711C5.53088 6.78711 4.64587 6.99712 4.12387 8.03412C3.86487 8.54812 3.79188 8.73411 3.50488 9.36111C2.96188 10.5461 3.48787 11.6401 2.41187 12.4001C1.33587 13.1601 0.339875 13.3821 0.339875 13.3821C0.339875 13.3821 0.0818704 13.6831 0.34787 14.1451C0.61387 14.6081 1.56087 14.7671 1.61087 15.0001C1.66087 15.2331 1.14688 15.9261 1.14688 15.9261C1.14688 15.9261 0.863875 16.3561 1.33987 16.8751C0.851875 16.9861 0.758885 17.5171 1.09988 17.8781C1.43988 18.2391 1.25988 18.6041 0.883881 19.1411C0.507881 19.6781 0.433878 20.4711 2.22388 20.7431C4.01388 21.0151 7.26287 21.4261 10.2609 18.7311C10.2609 18.7311 12.0159 18.9441 13.0389 16.3451C14.0619 13.7461 11.4539 13.5771 11.0509 14.8861C10.5869 16.3941 9.22687 16.8151 9.22687 16.8151C9.22687 16.8151 9.52786 15.8381 10.1659 13.7651C10.1659 13.7651 5.73588 10.2491 5.53088 6.78711Z" fill="#FDCFAD"/>
<path d="M26.451 49.4898C26.451 49.4898 22.435 45.2998 22.172 38.8288C21.876 31.5808 19.248 26.5898 16.745 23.8568C13.989 23.4468 11.957 25.9258 10.623 29.5588C9.28901 33.1918 5.93801 33.0148 5.93801 33.0148C5.28601 34.7238 4.70503 36.2328 4.38503 37.1268C3.26603 40.2508 6.95803 43.5478 6.95803 43.5478C8.32803 47.6628 17.602 59.2708 24.161 63.0208L30.49 49.1668L26.451 49.4898Z" fill="#F05587"/>
<path d="M77.5051 58.1933C73.8071 60.9793 57.4281 67.5583 45.5931 67.5583C39.7551 67.5583 36.7111 67.2333 31.4151 65.7913C28.9141 65.1093 26.0841 63.9093 24.1611 63.0193L30.4901 49.1653C37.6211 45.5143 43.0121 49.7373 43.0121 49.7373C43.0121 49.7373 62.6991 52.2403 69.9841 48.8303L77.2971 49.1233L77.5051 58.1933Z" fill="#4C4854"/>
<path d="M61.7489 21.2155C59.7729 20.7285 57.2479 19.1295 59.3439 14.4685C60.2829 12.3335 57.9059 10.9755 58.1869 7.60049C58.3219 5.94849 58.5789 5.0145 58.5789 5.0145C55.8609 2.1965 58.8099 0.777484 58.8159 0.771484C62.0809 6.94548 63.7959 7.25548 67.7159 18.9305C67.7159 18.9305 63.7379 20.4535 61.7489 21.2155Z" fill="#FDCFAD"/>
<path d="M68.886 51.6317C68.886 51.6317 65.414 46.1407 64.978 41.9117C63.868 35.6367 64.589 28.7296 61.749 21.2156C63.738 20.4536 65.727 19.6926 67.715 18.9316C71.381 28.2656 78.062 41.5907 78.4 55.6277C78.419 56.4167 78.347 57.5996 77.504 58.1946L68.886 51.6317Z" fill="#4C4854"/>
<path d="M67.8258 20.0807L66.4888 21.0357C66.1208 21.2897 66.0328 21.7957 66.2938 22.1597C66.5248 22.4827 66.9578 22.5867 67.3108 22.4047L68.7918 21.6897C69.3118 21.4217 69.4628 20.7487 69.1068 20.2837C68.8018 19.8847 68.2378 19.7957 67.8258 20.0807Z" fill="#FDCFAD"/>
<path d="M68.9366 21.528L67.3216 22.413C66.9306 22.63 66.7946 23.126 67.0186 23.513C67.2176 23.857 67.6386 24.002 68.0076 23.855L69.7436 23.222C70.2866 23.005 70.5026 22.35 70.1936 21.853C69.9276 21.427 69.3756 21.284 68.9366 21.528Z" fill="#FDCFAD"/>
<path d="M69.8236 23.0526L68.3846 23.6776C67.9906 23.8416 67.8076 24.2975 67.9776 24.6885C68.1296 25.0365 68.5126 25.2195 68.8786 25.1195L70.4046 24.7476C70.9436 24.6006 71.2196 24.0016 70.9796 23.4966C70.7746 23.0636 70.2656 22.8686 69.8236 23.0526Z" fill="#FDCFAD"/>
<path d="M70.5007 24.6189L69.2067 25.0359C68.8527 25.1439 68.6567 25.5209 68.7707 25.8729C68.8717 26.1859 69.1877 26.3759 69.5117 26.3209L70.8588 26.1299C71.3358 26.0489 71.6247 25.5559 71.4607 25.0999C71.3207 24.7099 70.8977 24.4979 70.5007 24.6189Z" fill="#FDCFAD"/>
<path d="M37.6058 27.9931L16.6798 25.8261C14.7778 25.6081 12.9208 26.8741 12.6628 28.7721C12.3898 30.7801 13.8728 32.5671 15.8618 32.7011L37.0358 33.9901C38.0818 34.0601 40.0418 34.1551 40.9978 33.7401C42.3778 33.1391 43.6338 31.6741 42.4608 29.3201C41.0298 28.5351 39.4368 28.1391 37.8098 28.0131C37.7418 28.0081 37.6738 28.0011 37.6058 27.9931Z" fill="#FDCFAD"/>
</svg>
