<svg width="185" height="102" viewBox="0 0 185 102" fill="none" xmlns="http://www.w3.org/2000/svg">
<path d="M127.911 18.1814L102.314 8.08734C102.249 8.06134 102.063 7.96835 102.126 7.99835C102.314 8.08735 96.172 4.99037 90.225 8.68737C89.893 8.89337 89.74 9.04736 89.74 9.04736L85.627 21.9853C85.355 22.8463 85.815 23.7663 86.667 24.0663C88.231 24.6173 89.894 25.2074 91.82 25.4844C101.455 26.8704 113.518 27.0324 119.946 27.0394H127.541C128.525 27.0394 129.297 26.1944 129.207 25.2144L128.815 20.9194C128.794 20.6944 128.82 20.4674 128.889 20.2524C129.161 19.4124 128.733 18.5054 127.911 18.1814Z" fill="#433F4B"/>
<path d="M160.847 20.6507C162.151 18.9907 164.997 17.2257 169 21.0197C170.818 22.7427 173.301 21.1237 176.659 22.8497C178.297 23.6907 179.87 24.8787 179.87 24.8787C184.023 23.7297 184.023 27.0397 184.023 27.0397H160.847V20.6507Z" fill="#FDCFAD"/>
<path d="M128.01 18.1182L126.943 26.9372C127.596 27.0002 128.253 27.0412 128.912 27.0412H160.847V20.6522C147.891 20.6512 141.325 13.8762 128.01 18.1182Z" fill="#433F4B"/>
<path d="M94.919 90.1016L93.596 93.0626L87.293 96.8176L81.959 98.3495H79.367C79.367 98.3495 78.896 101.178 81.252 101.178C82.548 101.178 82.371 100.825 82.371 100.825C82.371 100.825 84.805 101.178 86.623 101.178C88.44 101.178 91.858 100.471 93.861 100.471C95.864 100.471 95.023 101.178 97.203 101.178C99.383 101.178 100.267 99.4106 100.149 97.7016C100.031 95.9926 99.104 93.0626 99.104 93.0626L94.919 90.1016Z" fill="#FDCFAD"/>
<path d="M100.913 58.1787L101.764 60.0377C105.844 71.8247 99.4043 82.0337 99.2473 93.4457H92.8603L89.7393 9.04571C89.7393 9.04571 90.9293 8.47468 92.0963 8.34668C100.064 7.47368 107.012 13.8537 107.069 21.8697C107.099 26.1477 106.977 30.5627 106.482 33.3137L100.913 58.1787Z" fill="#4C4854"/>
<path d="M38.374 11.2933L59.412 11.1772C61.326 11.1462 63.051 12.5872 63.122 14.5002C63.198 16.5252 61.548 18.1593 59.555 18.0983L38.356 17.3162C37.308 17.2842 35.196 17.1792 34.286 16.6722C32.971 15.9402 32.015 14.3672 33.413 12.1392C34.913 11.4972 36.538 11.2592 38.169 11.2922C38.238 11.2942 38.306 11.2943 38.374 11.2933Z" fill="#E5BD9F"/>
<path d="M35.4144 17.0339C35.4144 17.0339 27.2264 17.4469 12.2844 14.6869C11.2334 14.4929 11.8904 10.6769 13.1774 10.8029C17.7534 11.2509 26.7634 10.5419 35.0234 11.8469C36.5784 12.0929 35.4144 17.0339 35.4144 17.0339Z" fill="#E5BD9F"/>
<path d="M7.54714 15.3671C10.7471 15.6811 12.7431 14.4581 12.7431 14.4581L13.1011 10.8081C12.1941 10.7191 10.7471 8.9301 8.79115 8.7381L8.00715 8.66113L4.61814 8.3291L4.60714 8.44312C4.56014 8.91712 4.87814 9.3501 5.34414 9.4491L6.87714 9.69012L7.82015 10.0641C7.82015 10.0641 6.54014 10.2231 6.03414 10.2171L2.18215 9.76611C1.93415 9.73711 1.70514 9.89911 1.64814 10.1411C1.58414 10.4161 1.76514 10.6881 2.04314 10.7351L5.72915 11.3661L1.44715 10.9571C1.16515 10.9401 0.920144 11.1491 0.892144 11.4301C0.865144 11.7081 1.06015 11.9591 1.33715 12.0001L5.62515 12.7451L1.80015 12.3221C1.49415 12.3101 1.25414 12.5811 1.30314 12.8831C1.33814 13.0961 1.51015 13.2611 1.72515 13.2851L6.00315 14.0461L2.84115 13.7021C2.57415 13.6951 2.35314 13.9081 2.35114 14.1761C2.34914 14.4231 2.53614 14.6301 2.78214 14.6541C2.78214 14.6541 6.37614 15.2521 7.54714 15.3671Z" fill="#E5BD9F"/>
<path d="M47.4043 17.2249L48.1213 14.0239C48.1213 14.0239 52.9443 11.0829 56.4313 9.8259C59.9183 8.5689 65.5373 8.06794 72.3383 10.5899C78.4113 12.8409 83.8253 13.7569 83.8253 13.7569L84.2833 22.8619C84.2833 22.8619 74.8993 25.7999 70.5743 25.4779C70.5743 25.4779 66.3623 28.5829 63.9113 26.3469C62.2333 24.8159 57.9373 20.6019 54.9973 18.0379C54.5763 17.6699 52.3853 18.3409 50.5293 19.4479L47.4043 17.2249Z" fill="#FDCFAD"/>
<path d="M40.9374 4.96209C42.5944 2.90109 39.7594 -1.51488 35.8114 0.515125C32.5144 2.21012 33.5333 6.7801 36.4973 7.2061C38.4283 7.4841 40.4624 5.55409 40.9374 4.96209Z" fill="#7F562D"/>
<path d="M41.3445 6.10403L40.9385 4.962C40.9385 4.962 37.8855 4.37802 36.4995 7.20602L37.0935 8.1L41.3445 6.10403Z" fill="#F05587"/>
<path d="M39.2164 20.1994C37.3274 21.0574 36.1564 20.5775 34.7454 18.2155C33.4224 15.9985 33.3374 8.40144 39.3654 6.17044C45.1034 4.04744 49.9294 8.61845 50.6854 12.5995C51.1094 14.8325 48.6704 15.5954 48.6704 15.5954C48.6704 15.5954 41.4274 19.1954 39.2164 20.1994Z" fill="#7F562D"/>
<path d="M36.8472 18.9067C36.8472 18.9067 37.0072 19.8027 38.0122 20.3827C38.5112 20.6707 38.6922 20.7537 39.3022 21.0757C40.4552 21.6847 41.5762 21.2217 42.2742 22.3387C42.9722 23.4557 43.1372 24.4627 43.1372 24.4627C43.1372 24.4627 43.4232 24.7367 43.8992 24.4977C44.3762 24.2587 44.5892 23.3227 44.8242 23.2857C45.0602 23.2487 45.7222 23.8007 45.7222 23.8007C45.7222 23.8007 46.1352 24.1077 46.6812 23.6617C46.7642 24.1557 47.2892 24.2777 47.6692 23.9587C48.0492 23.6397 48.4022 23.8406 48.9172 24.2456C49.4322 24.6516 50.2202 24.7707 50.5922 22.9987C50.9642 21.2267 51.5592 18.0067 49.0392 14.8607C49.0392 14.8607 49.3512 13.1207 46.8152 11.9527C44.2792 10.7847 43.9622 13.3787 45.2462 13.8547C46.7252 14.4037 47.0682 15.7857 47.0682 15.7857C47.0682 15.7857 46.1092 15.4297 44.0762 14.6757C44.0782 14.6757 40.3152 18.8987 36.8472 18.9067Z" fill="#FDCFAD"/>
<path d="M83.8261 13.7561C83.8261 13.7561 78.4121 12.8402 72.3391 10.5892C65.5371 8.06815 59.9191 8.56918 56.4321 9.82518C54.9911 12.2102 56.4951 15.0412 59.3331 17.6722C62.1711 20.3032 60.7161 23.3272 60.7161 23.3272C62.0421 24.5882 63.2101 25.7051 63.9111 26.3451C66.3621 28.5821 70.5741 25.4762 70.5741 25.4762C74.8991 25.7982 81.6291 25.4862 90.3791 25.4862L89.7391 9.04619L83.8261 13.7561Z" fill="#F05587"/>
<path d="M38.4492 10.5316L59.4872 10.4155C61.4012 10.3845 63.1262 11.8255 63.1972 13.7385C63.2732 15.7635 61.6232 17.3976 59.6302 17.3366L38.4312 16.5546C37.3832 16.5226 35.2711 16.4175 34.3611 15.9105C33.0461 15.1785 32.0902 13.6056 33.4882 11.3776C34.9882 10.7356 36.6132 10.4976 38.2452 10.5306C38.3132 10.5326 38.3812 10.5326 38.4492 10.5316Z" fill="#FDCFAD"/>
<path d="M35.4891 16.2712C35.4891 16.2712 27.3011 16.6842 12.3591 13.9242C11.3081 13.7302 11.9651 9.91416 13.2521 10.0402C17.8281 10.4882 26.8381 9.77917 35.0981 11.0842C36.6531 11.3312 35.4891 16.2712 35.4891 16.2712Z" fill="#FDCFAD"/>
<path d="M7.62233 14.6044C10.8223 14.9184 12.8183 13.6954 12.8183 13.6954L13.1763 10.0454C12.2693 9.95641 10.8223 8.1674 8.86633 7.9754L8.08233 7.89844L4.69433 7.56641L4.68333 7.68042C4.63733 8.15442 4.95433 8.5874 5.42033 8.6864L6.95334 8.92743L7.89633 9.30145C7.89633 9.30145 6.61633 9.46041 6.11033 9.45441L2.25833 9.00342C2.01033 8.97442 1.78133 9.13642 1.72433 9.37842C1.66033 9.65342 1.84133 9.92541 2.11833 9.97241L5.80433 10.6035L1.52234 10.1944C1.24034 10.1774 0.995328 10.3864 0.967328 10.6674C0.940328 10.9454 1.13634 11.1964 1.41234 11.2374L5.70033 11.9824L1.87433 11.5594C1.56833 11.5474 1.32833 11.8184 1.37733 12.1204C1.41233 12.3334 1.58433 12.4984 1.79933 12.5234L6.07733 13.2844L2.91533 12.9404C2.64833 12.9334 2.42734 13.1464 2.42534 13.4144C2.42334 13.6614 2.61034 13.8685 2.85634 13.8925C2.85634 13.8925 6.45133 14.4894 7.62233 14.6044Z" fill="#FDCFAD"/>
</svg>
