<svg width="97" height="83" viewBox="0 0 97 83" fill="none" xmlns="http://www.w3.org/2000/svg">
<path d="M54.303 57.6416C54.303 57.6416 46.097 50.9986 31.266 56.2666C21.62 59.6936 4.92104 67.7736 2.26804 71.2756C-0.28196 74.6426 0.793037 78.3736 4.77404 79.7856C8.41604 81.0776 10.676 82.1456 20.272 82.1456C44.545 82.1456 35.961 82.1456 35.961 82.1456L36.169 76.9866L16.039 72.9556L35.413 72.1406C42.304 71.8506 48.572 67.9386 51.714 61.7986C51.752 61.7246 51.79 61.6506 51.827 61.5756L54.303 57.6416Z" fill="#433F4B"/>
<path d="M14.79 73.2237L20.272 82.1457H40.711V75.7566C29.297 75.7566 26.519 68.9817 14.79 73.2237Z" fill="#433F4B"/>
<path d="M89.9912 13.0786L90.8592 14.7536L94.1532 18.9576C94.1532 18.9576 93.3332 20.2526 92.0922 19.2566C90.8522 18.2606 91.0382 18.4106 90.0052 17.5806C89.3072 17.0206 88.0332 15.5846 87.2252 14.6676C86.8772 14.2726 86.4362 13.9676 85.9592 13.7436C83.4172 12.5456 81.6572 10.3646 81.6572 10.3646C81.8332 9.59562 83.2982 8.19059 84.4882 7.47559C87.9412 9.23659 88.9562 11.0806 89.9912 13.0786Z" fill="#E5BD9F"/>
<path d="M65.4552 8.78954L52.3442 25.2425C51.1672 26.7525 48.9632 27.1906 47.4282 26.0466C45.8042 24.8356 45.5672 22.5245 46.8642 21.0115L60.7752 4.99651C61.4572 4.20051 62.8642 2.62256 63.8312 2.23156C65.2262 1.66656 67.0512 1.90953 67.9082 4.39653C67.4662 5.96753 66.6332 7.38152 65.5832 8.63152C65.5402 8.68252 65.4972 8.73554 65.4552 8.78954Z" fill="#E5BD9F"/>
<path d="M62.4872 3.33671C63.3652 2.21471 64.3082 1.90172 65.7322 1.93272C68.4222 1.99172 76.0002 2.95271 84.9612 7.72471C85.9042 8.22771 84.1262 11.6667 82.9372 11.1577C78.7102 9.34869 69.1492 10.2737 60.9072 6.7147L62.0312 4.10472C62.1502 3.83072 62.3032 3.57271 62.4872 3.33671Z" fill="#E5BD9F"/>
<path d="M51.4281 11.7256L54.2671 13.3696C54.2671 13.3696 54.6271 18.8036 54.7811 22.5066C54.9351 26.2096 53.7291 31.7206 49.2861 37.4546C45.3191 42.5736 45.6911 48.3656 45.6911 48.3656L33.9991 45.1736C33.9991 45.1736 33.0071 35.2916 34.6111 31.2616C34.6111 31.2616 33.9111 26.3606 36.7801 24.6926C38.7431 23.5506 44.0511 20.7146 47.3781 18.6786C47.8551 18.3866 48.7681 15.2186 48.2671 13.1156L51.4281 11.7256Z" fill="#FDCFAD"/>
<path d="M65.906 13.8647C66.561 16.4267 71.795 16.8077 72.539 12.4317C73.16 8.77668 68.893 6.85065 66.774 8.96665C65.394 10.3447 65.717 13.1297 65.906 13.8647Z" fill="#7F562D"/>
<path d="M64.749 13.5052L65.906 13.8652C65.906 13.8652 68.205 11.7732 66.774 8.96722L65.702 8.90625L64.749 13.5052Z" fill="#F05587"/>
<path d="M54.7479 3.34773C55.1949 1.32173 56.2809 0.672742 59.0179 0.961742C61.5849 1.23274 67.7149 5.72174 65.8829 11.8837C64.1399 17.7477 57.5869 18.8677 53.9489 17.0847C51.9079 16.0847 52.7599 13.6757 52.7599 13.6757C52.7599 13.6757 54.2249 5.71873 54.7479 3.34773Z" fill="#7F562D"/>
<path d="M57.2021 2.22721C57.2021 2.22721 56.3901 1.81821 55.3221 2.27421C54.7931 2.50021 54.6181 2.59523 53.9931 2.89023C52.8141 3.44723 52.5121 4.62223 51.1991 4.51023C49.8871 4.39823 48.9821 3.92624 48.9821 3.92624C48.9821 3.92624 48.5911 3.99023 48.4971 4.51523C48.4031 5.04023 49.0241 5.77219 48.9121 5.98319C48.8001 6.19319 47.9611 6.39225 47.9611 6.39225C47.9611 6.39225 47.4671 6.53822 47.4971 7.24222C47.0521 7.01222 46.6391 7.35922 46.6671 7.85422C46.6951 8.34922 46.3221 8.51225 45.6881 8.68125C45.0541 8.85025 44.4871 9.4092 45.6811 10.7692C46.8751 12.1302 49.0951 14.5382 53.1241 14.4082C53.1241 14.4082 54.3291 15.7022 56.7851 14.3732C59.2411 13.0442 57.3561 11.2352 56.2041 11.9772C54.8781 12.8312 53.5661 12.2772 53.5661 12.2772C53.5661 12.2772 54.4261 11.7232 56.2491 10.5492C56.2491 10.5492 55.1281 5.00621 57.2021 2.22721Z" fill="#FDCFAD"/>
<path d="M45.6901 48.3646C45.6901 48.3646 45.3181 42.5726 49.2861 37.4536C53.7301 31.7196 54.9351 26.2096 54.7811 22.5066C52.9381 20.4176 49.7861 21.0036 46.4251 22.9236C43.0641 24.8426 40.6161 22.5476 40.6161 22.5476C39.0161 23.4346 37.6001 24.2146 36.7791 24.6916C33.9101 26.3596 34.6101 31.2606 34.6101 31.2606C33.0071 35.2906 32.6211 50.1426 35.2211 57.2366L48.9871 50.7196L45.6901 48.3646Z" fill="#F05587"/>
<path d="M91.9043 14.8286L92.7723 16.5046L96.0663 20.7086C96.0663 20.7086 95.2463 22.0036 94.0053 21.0076C92.7643 20.0116 92.9513 20.1615 91.9173 19.3315C91.2193 18.7715 89.9453 17.3356 89.1373 16.4186C88.7893 16.0236 88.3483 15.7186 87.8713 15.4946C85.3293 14.2966 83.5693 12.1155 83.5693 12.1155C83.7453 11.3465 85.2103 9.94156 86.4003 9.22656C89.8533 10.9866 90.8693 12.8306 91.9043 14.8286Z" fill="#FDCFAD"/>
<path d="M67.3673 10.5395L54.2563 26.9925C53.0793 28.5025 50.8753 28.9406 49.3403 27.7966C47.7163 26.5856 47.4793 24.2745 48.7763 22.7615L62.6873 6.74651C63.3693 5.95051 64.7763 4.37256 65.7433 3.98156C67.1393 3.41656 68.9633 3.65953 69.8203 6.14653C69.3793 7.71753 68.5453 9.13152 67.4953 10.3815C67.4523 10.4325 67.4093 10.4855 67.3673 10.5395Z" fill="#FDCFAD"/>
<path d="M64.3993 5.08671C65.2773 3.96471 66.2203 3.65172 67.6443 3.68272C70.3343 3.74172 77.9123 4.70271 86.8733 9.47471C87.8173 9.97671 86.0383 13.4167 84.8493 12.9077C80.6223 11.0987 71.0613 12.0237 62.8193 8.4647L63.9433 5.85472C64.0623 5.58072 64.2153 5.32271 64.3993 5.08671Z" fill="#FDCFAD"/>
<path d="M80.1212 82.1137C70.9162 82.4917 62.3302 79.4587 53.8952 75.7537C48.5502 73.4067 42.1042 68.5457 38.9832 64.0297C37.5092 61.8967 36.1192 59.1558 35.2212 57.2368L48.9872 50.7197C56.7932 52.5217 58.1962 59.2247 58.1962 59.2247L59.4392 60.2197C64.0432 63.9047 77.6522 69.7527 84.9242 70.9257L88.1602 78.4237C88.1602 78.4237 86.9322 81.8347 80.1212 82.1137Z" fill="#4C4854"/>
<path d="M89.2362 40.2098C87.7072 38.8678 86.2022 36.2848 90.2102 33.1138C92.0272 31.6518 90.5442 29.3508 92.3482 26.4858C93.2292 25.0818 93.8872 24.3718 93.8872 24.3718C92.7742 20.6178 96.0452 20.7178 96.0532 20.7148C96.1062 27.6988 97.4852 28.7639 95.5852 40.9319C95.5852 40.9319 91.3522 40.4508 89.2362 40.2098Z" fill="#FDCFAD"/>
<path d="M81.5563 70.493C81.5563 70.493 81.0053 64.02 82.5663 60.066C84.4723 53.986 88.2943 48.188 89.2363 40.21C91.3523 40.451 93.4683 40.691 95.5843 40.932C94.5373 50.906 94.3273 65.8099 88.1603 78.424C87.8133 79.132 86.8193 79.939 86.1983 80.318L81.5563 70.493Z" fill="#4C4854"/>
<path d="M40.71 75.7571C42.014 74.0971 44.86 72.3322 48.863 76.1262C50.681 77.8492 53.164 76.2302 56.522 77.9562C58.16 78.7972 59.733 79.9852 59.733 79.9852C63.887 78.8362 63.8869 82.1462 63.8869 82.1462H40.71V75.7571Z" fill="#FDCFAD"/>
</svg>
