<svg width="128" height="76" viewBox="0 0 128 76" fill="none" xmlns="http://www.w3.org/2000/svg">
<path d="M121.273 59.1607C119.746 58.3847 117.93 57.7617 117.93 57.7617L112.893 60.4467L114.755 63.1027L114.741 70.0797C114.615 70.9567 114.082 71.7217 113.303 72.1447L113.118 72.2448L110.54 72.5178C110.54 72.5178 110.369 75.3797 112.713 75.1317C113.081 75.0927 113.327 75.0378 113.49 74.9788C114.007 74.7928 114.537 74.6497 115.086 74.6217C115.634 74.5947 116.316 74.5477 117.056 74.4697C117.702 74.4007 118.765 73.9387 119.002 71.4757C119.673 69.9487 119.584 67.7847 120.245 66.6797C121.274 64.9607 121.489 64.9207 122.334 63.6397C123.533 61.8187 122.8 59.9367 121.273 59.1607Z" fill="#E5BD9F"/>
<path d="M96.1988 33.0345L97.9618 33.6595C108.337 38.5965 110.836 50.1005 118.373 57.9145L114.754 63.1025L89.2588 39.9775L60.2988 8.14549C60.2988 8.14549 61.3978 6.88149 62.0248 5.93449C66.3088 -0.537508 74.8208 -1.36353 80.2168 4.00047C83.0968 6.86247 96.1988 33.0345 96.1988 33.0345Z" fill="#433F4B"/>
<path d="M7.92004 69.8192L6.19503 70.5842L0.995017 71.8042C0.995017 71.8042 0.825007 73.3283 2.41601 73.3273C4.00701 73.3263 3.76701 73.3262 5.09301 73.3252C5.98901 73.3242 7.88703 72.9992 9.09103 72.7892C9.56703 72.7062 10.055 72.7102 10.524 72.8292C11.542 73.0882 12.566 73.1682 13.455 73.1662C15.364 73.1622 17.088 71.8482 17.414 69.9672C17.48 69.5842 17.476 69.2142 17.355 68.8892H17.119C13.325 68.1032 9.97804 68.9072 7.92004 69.8192Z" fill="#E5BD9F"/>
<path d="M32.41 55.7852C32.41 55.7852 27.415 62.2852 15.623 71.8702C14.794 72.5442 12.315 69.5703 13.246 68.6713C16.555 65.4783 21.858 58.1602 28.208 52.7192C29.404 51.6952 32.41 55.7852 32.41 55.7852Z" fill="#E5BD9F"/>
<path d="M28.4179 51.1354L38.9179 32.9044C39.8559 31.2354 41.9689 30.4724 43.6579 31.3744C45.4449 32.3294 46.0259 34.5774 44.9689 36.2684L33.6129 54.1854C33.0579 55.0744 31.9029 56.8453 31.0059 57.3763C29.7109 58.1433 27.8709 58.1764 26.6509 55.8464C26.8519 54.2264 27.4649 52.7033 28.3159 51.3113C28.3509 51.2543 28.3849 51.1954 28.4179 51.1354Z" fill="#E5BD9F"/>
<path d="M125.575 59.1607C124.048 58.3847 122.232 57.7617 122.232 57.7617L117.195 60.4467L119.057 63.1027L119.043 70.0797C118.917 70.9567 118.384 71.7217 117.605 72.1447L117.42 72.2448L114.842 72.5178C114.842 72.5178 114.671 75.3797 117.015 75.1317C117.383 75.0927 117.629 75.0378 117.792 74.9788C118.309 74.7928 118.839 74.6497 119.388 74.6217C119.936 74.5947 120.618 74.5477 121.358 74.4697C122.004 74.4007 123.067 73.9387 123.304 71.4757C123.975 69.9487 123.886 67.7847 124.547 66.6797C125.576 64.9607 125.791 64.9207 126.636 63.6397C127.834 61.8187 127.101 59.9367 125.575 59.1607Z" fill="#FDCFAD"/>
<path d="M98.195 33.0345L100.142 33.6595C111.596 38.5965 114.355 50.1005 122.675 57.9145L119.045 63.0915L90.534 39.9775L59.395 8.14549C59.395 8.14549 59.776 6.88149 60.469 5.93449C65.199 -0.537508 74.596 -1.36353 80.552 4.00047C83.73 6.86247 98.195 33.0345 98.195 33.0345Z" fill="#4C4854"/>
<path d="M36.7569 44.7953L34.877 42.1063C34.877 42.1063 35.9579 36.5623 37.3829 33.1403C38.8069 29.7183 42.2269 25.2323 48.6759 21.9113C54.4339 18.9463 57.7799 14.1123 57.7799 14.1123L65.7929 21.3703C65.7929 21.3703 61.6329 30.2803 58.4779 33.2563C58.4779 33.2563 57.9299 38.4603 54.6249 38.7613C52.3629 38.9673 46.3539 39.2973 42.4779 39.7383C41.9219 39.8013 40.94 41.8713 40.506 43.9883L36.7569 44.7953Z" fill="#FDCFAD"/>
<path d="M23.3422 41.2998C22.9382 38.6858 17.7652 37.8009 16.6012 42.0849C15.6292 45.6629 19.6902 47.9919 22.0042 46.0909C23.5112 44.8529 23.4582 42.0488 23.3422 41.2998Z" fill="#7F562D"/>
<path d="M24.459 41.7698L23.342 41.2998C23.342 41.2998 20.852 43.1598 22.005 46.0908L23.066 46.2548L24.459 41.7698Z" fill="#F05587"/>
<path d="M33.4304 52.8472C32.7894 54.8213 31.6454 55.3623 28.9504 54.8093C26.4214 54.2913 20.7554 49.2303 23.1734 43.2743C25.4754 37.6063 32.1063 37.1253 35.5543 39.2523C37.4893 40.4453 36.4074 42.7613 36.4074 42.7613C36.4074 42.7613 34.1804 50.5373 33.4304 52.8472Z" fill="#7F562D"/>
<path d="M30.8794 53.7241C30.8794 53.7241 31.6484 54.2102 32.7544 53.8592C33.3034 53.6852 33.4864 53.6072 34.1364 53.3742C35.3634 52.9342 35.7784 51.7931 37.0734 52.0321C38.3694 52.2701 39.2234 52.8272 39.2234 52.8272C39.2234 52.8272 39.6184 52.8012 39.7634 52.2882C39.9084 51.7742 39.3604 50.9861 39.4924 50.7871C39.6244 50.5881 40.4784 50.4721 40.4784 50.4721C40.4784 50.4721 40.9844 50.3741 41.0224 49.6701C41.4434 49.9421 41.8874 49.6371 41.9084 49.1411C41.9294 48.6451 42.3154 48.5202 42.9624 48.4132C43.6094 48.3062 44.2284 47.8052 43.1714 46.3352C42.1144 44.8652 40.1384 42.2541 36.1154 41.9931C36.1154 41.9931 35.0404 40.5892 32.4684 41.6742C29.8954 42.7592 31.5964 44.7421 32.8144 44.1151C34.2174 43.3931 35.4684 44.0722 35.4684 44.0722C35.4684 44.0722 34.5594 44.5401 32.6314 45.5321C32.6314 45.5321 33.2124 51.1581 30.8794 53.7241Z" fill="#FDCFAD"/>
<path d="M57.7813 14.1135C57.7813 14.1135 54.4353 18.9475 48.6773 21.9125C42.2283 25.2335 38.8093 29.7205 37.3843 33.1415C38.1733 35.8135 41.2773 36.6126 45.1343 36.2916C48.9913 35.9706 50.2423 39.0845 50.2423 39.0845C52.0673 38.9565 53.6803 38.8476 54.6253 38.7606C57.9303 38.4596 58.4783 33.2556 58.4783 33.2556C61.6333 30.2796 64.8953 26.2506 70.7973 19.7896L59.4043 8.14355L57.7813 14.1135Z" fill="#F05587"/>
<path d="M30.911 51.2315L39.439 31.9995C40.196 30.2405 42.218 29.2605 43.992 29.9805C45.87 30.7425 46.683 32.9175 45.81 34.7095L36.397 53.7195C35.938 54.6615 34.975 56.5445 34.139 57.1665C32.931 58.0655 31.105 58.2915 29.647 56.1025C29.677 54.4705 30.127 52.8915 30.827 51.4175C30.856 51.3555 30.884 51.2935 30.911 51.2315Z" fill="#FDCFAD"/>
<path d="M35.3679 55.4366C35.3679 55.4366 31.0829 62.4256 20.3629 73.1946C19.6089 73.9526 16.8318 71.2547 17.6628 70.2637C20.6188 66.7417 25.1239 58.9066 30.8679 52.8296C31.9489 51.6846 35.3679 55.4366 35.3679 55.4366Z" fill="#FDCFAD"/>
<path d="M11.5689 71.6382L9.84392 72.4032L4.64394 73.6232C4.64394 73.6232 4.47393 75.1472 6.06493 75.1452C7.65593 75.1442 7.41594 75.1442 8.74194 75.1432C9.63794 75.1422 11.5359 74.8172 12.7399 74.6072C13.2159 74.5242 13.7039 74.5282 14.1719 74.6482C15.1899 74.9072 16.2139 74.9872 17.1029 74.9852C19.0119 74.9812 20.7359 73.6672 21.0619 71.7872C21.1279 71.4042 21.1239 71.0342 21.0029 70.7092H20.7669C16.9739 69.9222 13.6259 70.7262 11.5689 71.6382Z" fill="#FDCFAD"/>
</svg>
