<svg width="149" height="94" viewBox="0 0 149 94" fill="none" xmlns="http://www.w3.org/2000/svg">
<path d="M35.1393 82.1025L33.8163 85.0635L27.5133 88.8185L22.1793 90.3505H19.5873C19.5873 90.3505 19.1163 93.1785 21.4723 93.1785C22.7683 93.1785 22.5913 92.8256 22.5913 92.8256C22.5913 92.8256 25.0253 93.1785 26.8433 93.1785C28.6603 93.1785 32.0783 92.4716 34.0813 92.4716C36.0843 92.4716 35.2432 93.1785 37.4233 93.1785C39.6033 93.1785 40.4873 91.4116 40.3693 89.7026C40.2513 87.9936 39.3243 85.0635 39.3243 85.0635L35.1393 82.1025Z" fill="#FDCFAD"/>
<path d="M39.5464 85.8087C40.3574 74.7737 43.6364 65.8647 42.1554 58.0607L45.3344 60.0217C54.3554 65.5867 64.6113 70.8417 75.1913 71.4897V61.8947L67.1083 52.8317C65.9713 53.9407 50.2044 46.7377 39.0624 45.7077C36.0234 45.4267 32.6313 47.4167 32.6313 51.9137V85.8097H39.5464V85.8087Z" fill="#433F4B"/>
<path d="M38.0722 28.3574L58.9981 26.1904C60.9001 25.9724 62.7572 27.2384 63.0152 29.1364C63.2882 31.1444 61.8051 32.9314 59.8161 33.0654L38.6422 34.3554C37.5962 34.4254 35.4842 34.5274 34.5282 34.1114C33.1482 33.5104 32.0431 32.0384 33.2171 29.6854C34.6481 28.9004 36.2411 28.5044 37.8681 28.3784C37.9361 28.3724 38.0042 28.3654 38.0722 28.3574Z" fill="#E5BD9F"/>
<path d="M35.6851 34.3597C35.6851 34.3597 27.577 35.5697 12.436 34.2807C11.371 34.1897 11.652 30.3286 12.946 30.3286C17.544 30.3286 26.4421 28.7437 34.7891 29.2367C36.3621 29.3287 35.6851 34.3597 35.6851 34.3597Z" fill="#E5BD9F"/>
<path d="M7.78925 35.4183C11.0042 35.4183 12.8712 34.0073 12.8712 34.0073V30.3392C11.9592 30.3392 10.3453 28.6992 8.37927 28.6992H7.59125H4.18625V28.8132C4.18625 29.2892 4.54425 29.6902 5.01825 29.7422L6.56726 29.8322L7.54224 30.1122C7.54224 30.1122 6.28424 30.3953 5.78024 30.4393L1.90225 30.3663C1.65325 30.3613 1.44026 30.5452 1.40726 30.7922C1.37026 31.0722 1.57625 31.3242 1.85825 31.3452L5.58826 31.6132L1.28723 31.6243C1.00523 31.6343 0.78125 31.8662 0.78125 32.1492C0.78125 32.4292 1.00024 32.6592 1.28024 32.6732L5.62024 32.9962L1.77225 32.9482C1.46725 32.9652 1.25424 33.2593 1.33224 33.5543C1.38724 33.7633 1.57523 33.9103 1.79123 33.9133L6.12323 34.2532L2.94223 34.2192C2.67523 34.2382 2.47625 34.4722 2.50125 34.7382C2.52325 34.9842 2.73026 35.1722 2.97626 35.1722C2.97726 35.1742 6.61225 35.4183 7.78925 35.4183Z" fill="#E5BD9F"/>
<path d="M58.5255 15.6689L61.7924 15.968C61.7924 15.968 65.3305 20.372 67.0255 23.668C68.7205 26.964 69.9414 32.471 68.3164 39.541C66.8664 45.853 69.6364 50.9529 69.6364 50.9529L57.6844 52.9669C57.6844 52.9669 53.5624 44.0399 53.3244 39.7089C53.3244 39.7089 49.7024 35.932 51.6044 33.213C52.9064 31.352 56.5324 26.549 58.6964 23.304C59.0064 22.839 58.0604 20.7529 56.7224 19.0549L58.5255 15.6689Z" fill="#FDCFAD"/>
<path d="M69.8524 7.67732C72.1104 9.05532 76.1244 5.67531 73.6024 2.02131C71.4964 -1.02969 67.0964 0.569306 67.0554 3.56331C67.0284 5.51331 69.2054 7.28232 69.8524 7.67732Z" fill="#7F562D"/>
<path d="M68.7726 8.22748L69.8526 7.67749C69.8526 7.67749 70.0386 4.57448 67.0556 3.56348L66.2456 4.26752L68.7726 8.22748Z" fill="#F05587"/>
<path d="M54.5216 7.9325C53.4276 6.1695 53.7527 4.94647 55.9137 3.24347C57.9417 1.64547 65.4637 0.583478 68.4527 6.27448C71.2967 11.6905 67.3856 17.0665 63.5356 18.3285C61.3756 19.0365 60.3047 16.7165 60.3047 16.7165C60.3047 16.7165 55.8016 9.9955 54.5216 7.9325Z" fill="#7F562D"/>
<path d="M55.4975 5.41699C55.4975 5.41699 54.6305 5.69102 54.1845 6.76202C53.9635 7.29402 53.9045 7.484 53.6635 8.13C53.2075 9.351 53.8115 10.404 52.7935 11.24C51.7755 12.076 50.7984 12.369 50.7984 12.369C50.7984 12.369 50.5635 12.688 50.8615 13.13C51.1605 13.572 52.1165 13.663 52.1825 13.891C52.2495 14.12 51.7874 14.848 51.7874 14.848C51.7874 14.848 51.5354 15.297 52.0484 15.781C51.5694 15.927 51.5154 16.463 51.8814 16.799C52.2474 17.135 52.0935 17.511 51.7575 18.074C51.4215 18.637 51.4044 19.433 53.2094 19.574C55.0144 19.715 58.2844 19.891 61.0794 16.986C61.0794 16.986 62.8455 17.071 63.6775 14.406C64.5085 11.74 61.8964 11.76 61.5894 13.095C61.2354 14.632 59.9095 15.15 59.9095 15.15C59.9095 15.15 60.1385 14.154 60.6245 12.041C60.6245 12.041 55.9525 8.85499 55.4975 5.41699Z" fill="#FDCFAD"/>
<path d="M92.097 83.2544L85.5571 63.3214C84.4371 59.5644 82.375 52.6523 74.063 52.6523L63.207 62.3334C63.207 62.3334 76.8481 84.8274 84.0881 90.8024C85.9501 92.3384 88.2871 93.1783 90.7001 93.1783H124.934V85.7874C111.978 85.7874 105.412 79.0124 92.097 83.2544Z" fill="#4C4854"/>
<path d="M69.6353 50.9531C69.6353 50.9531 66.8653 45.8531 68.3153 39.5411C69.9393 32.4711 68.7193 26.9641 67.0243 23.6681C64.4743 22.5461 61.8604 24.4021 59.6164 27.5561C57.3724 30.7101 54.1863 29.6551 54.1863 29.6551C53.1063 31.1321 52.1493 32.4351 51.6043 33.2121C49.7013 35.9311 53.3243 39.7081 53.3243 39.7081C53.5623 44.0391 57.8673 56.9871 63.2073 62.3321L74.0633 52.6511L69.6353 50.9531Z" fill="#F05587"/>
<path d="M124.935 85.7871C126.238 84.1271 129.085 83.3641 133.088 87.1581C134.906 88.8811 137.389 87.2621 140.747 88.9881C142.385 89.8291 143.958 91.0171 143.958 91.0171C148.112 89.8681 148.112 93.1781 148.112 93.1781H124.936L124.935 85.7871Z" fill="#FDCFAD"/>
<path d="M86.911 27.5918L65.985 25.4248C64.083 25.2068 62.226 26.4727 61.968 28.3707C61.695 30.3787 63.178 32.1658 65.167 32.2998L86.341 33.5888C87.387 33.6588 89.499 33.7607 90.455 33.3447C91.835 32.7437 92.94 31.2718 91.766 28.9188C90.335 28.1338 88.742 27.7378 87.115 27.6118C87.047 27.6058 86.979 27.5998 86.911 27.5918Z" fill="#FDCFAD"/>
<path d="M89.2969 33.5941C89.2969 33.5941 97.4049 34.804 112.546 33.515C113.611 33.424 113.329 29.5631 112.036 29.5631C107.438 29.5631 98.5399 27.978 90.1929 28.471C88.6209 28.563 89.2969 33.5941 89.2969 33.5941Z" fill="#FDCFAD"/>
<path d="M117.194 34.6526C113.979 34.6526 112.112 33.2406 112.112 33.2406V29.5726C113.023 29.5726 114.638 27.9336 116.603 27.9336H117.391H120.796V28.0476C120.796 28.5236 120.438 28.9246 119.964 28.9766L118.415 29.0676L117.44 29.3476C117.44 29.3476 118.698 29.6306 119.202 29.6746L123.08 29.6016C123.329 29.5966 123.542 29.7806 123.575 30.0276C123.612 30.3076 123.406 30.5606 123.124 30.5806L119.394 30.8486L123.695 30.8596C123.977 30.8696 124.201 31.1016 124.201 31.3846C124.201 31.6646 123.982 31.8946 123.702 31.9086L119.362 32.2316L123.211 32.1836C123.516 32.2006 123.729 32.4946 123.651 32.7896C123.596 32.9986 123.408 33.1456 123.192 33.1486L118.86 33.4886L122.041 33.4546C122.308 33.4736 122.507 33.7076 122.482 33.9736C122.46 34.2196 122.253 34.4076 122.006 34.4076C122.006 34.4076 118.37 34.6526 117.194 34.6526Z" fill="#FDCFAD"/>
</svg>
