<svg width="112" height="81" viewBox="0 0 112 81" fill="none" xmlns="http://www.w3.org/2000/svg">
<path d="M94.3965 59.7766L82.4165 44.5307C81.3115 43.0657 81.3825 40.8536 82.7305 39.6366C84.1575 38.3476 86.2765 38.6337 87.3595 40.2157L98.7785 56.1316C99.3475 56.9626 100.465 58.6636 100.612 59.6776C100.824 61.1416 100.223 62.8376 97.8155 63.1076C96.5005 62.3346 95.4095 61.2206 94.5115 59.9356C94.4745 59.8816 94.4355 59.8286 94.3965 59.7766Z" fill="#E5BD9F"/>
<path d="M100.026 61.9682C100.026 61.9682 99.0316 66.0722 88.6636 76.1502C87.9426 76.8512 84.7656 74.0041 85.6976 73.2121C89.0106 70.3961 91.5796 62.5411 96.8736 58.0081C98.0016 57.0431 100.026 61.9682 100.026 61.9682Z" fill="#E5BD9F"/>
<path d="M82.7836 74.0889L81.1916 74.8399L76.3935 76.0379C76.3935 76.0379 76.2366 77.5339 77.7046 77.5329C79.1726 77.5319 78.9515 77.5319 80.1745 77.5309C81.0015 77.5299 82.7526 77.2109 83.8636 77.0049C84.3036 76.9229 84.7525 76.9279 85.1855 77.0449C86.1245 77.2989 87.0696 77.3779 87.8896 77.3759C89.6506 77.3719 90.5806 76.5889 90.5806 74.7139C90.5806 73.8569 89.8325 72.4619 89.0135 72.3779C89.0135 72.3779 85.4586 72.7949 82.7836 74.0889Z" fill="#E5BD9F"/>
<path d="M17.1539 21.1296C15.0589 21.3816 11.7969 20.6166 11.6499 15.1036C11.5829 12.6006 8.68289 11.9886 7.52789 8.39459C6.96489 6.64159 6.69286 4.68964 6.69286 4.68964C2.94386 2.56464 5.28387 0.224609 5.28387 0.224609L20.9419 16.1136L17.1539 21.1296Z" fill="#E5BD9F"/>
<path d="M90.8045 30.2451L93.1375 32.5361C93.1375 32.5361 93.0785 38.1591 92.2985 41.7681C91.5185 45.3761 88.9715 50.3891 83.2375 54.8111C78.1175 58.7591 75.7055 64.0991 75.7055 64.0991L66.5205 58.4501C66.5205 58.4501 68.9945 48.9731 71.5555 45.4871C71.5555 45.4871 71.1525 40.2931 74.3445 39.3981C76.5295 38.7861 82.3725 37.3711 86.0995 36.2361C86.6335 36.0731 87.2245 33.8691 87.2675 31.7181L90.8045 30.2451Z" fill="#FDCFAD"/>
<path d="M104.616 31.2301C105.486 33.7151 110.727 33.6421 111.095 29.2381C111.402 25.5591 106.991 24.0171 105.062 26.2981C103.807 27.7831 104.366 30.5181 104.616 31.2301Z" fill="#7F562D"/>
<path d="M103.434 30.9728L104.616 31.2299C104.616 31.2299 106.726 28.9569 105.063 26.2969L103.991 26.3289L103.434 30.9728Z" fill="#F05587"/>
<path d="M92.6157 21.759C92.8877 19.711 93.9137 18.973 96.6617 19.025C99.2397 19.073 105.722 22.998 104.424 29.267C103.188 35.233 96.7617 36.908 92.9887 35.452C90.8727 34.636 91.5157 32.173 91.5157 32.173C91.5157 32.173 92.2977 24.156 92.6157 21.759Z" fill="#7F562D"/>
<path d="M94.9637 20.4366C94.9637 20.4366 94.1207 20.1006 93.0967 20.6446C92.5887 20.9146 92.4227 21.0236 91.8267 21.3696C90.7007 22.0236 90.4997 23.2146 89.1837 23.2166C87.8677 23.2186 86.9277 22.8286 86.9277 22.8286C86.9277 22.8286 86.5447 22.9256 86.4947 23.4546C86.4457 23.9836 87.1257 24.6556 87.0327 24.8746C86.9397 25.0926 86.1207 25.3626 86.1207 25.3626C86.1207 25.3626 85.6417 25.5496 85.7307 26.2456C85.2687 26.0556 84.8867 26.4356 84.9567 26.9246C85.0267 27.4136 84.6687 27.6066 84.0527 27.8286C83.4367 28.0506 82.9187 28.6536 84.2237 29.9006C85.5277 31.1476 87.9417 33.3446 91.9407 32.8696C91.9407 32.8696 93.2507 34.0496 95.5817 32.5196C97.9127 30.9906 95.8827 29.3586 94.7997 30.1926C93.5527 31.1536 92.1997 30.7166 92.1997 30.7166C92.1997 30.7166 93.0077 30.0936 94.7227 28.7726C94.7227 28.7726 93.1357 23.3726 94.9637 20.4366Z" fill="#FDCFAD"/>
<path d="M75.7036 64.0962C75.7036 64.0962 78.1157 58.7562 83.2357 54.8082C88.9697 50.3862 91.5166 45.3732 92.2966 41.7652C91.0386 39.2932 87.8436 39.0742 84.1136 40.0892C80.3826 41.1032 78.5906 38.2822 78.5906 38.2822C76.8206 38.7392 75.2566 39.1392 74.3436 39.3952C71.1516 40.2902 71.5546 45.4842 71.5546 45.4842C68.9936 48.9702 66.5186 53.5062 61.8896 60.9022L74.4006 72.8932L75.7036 64.0962Z" fill="#F05587"/>
<path d="M99.1409 62.1463L86.1699 46.6913C84.9729 45.2063 85.0499 42.9643 86.5099 41.7303C88.0549 40.4243 90.3489 40.7143 91.5219 42.3163L103.886 58.4504C104.502 59.2934 105.713 61.0173 105.872 62.0453C106.102 63.5293 105.451 65.2483 102.844 65.5223C101.421 64.7393 100.239 63.6094 99.2659 62.3074C99.2249 62.2523 99.1829 62.1993 99.1409 62.1463Z" fill="#FDCFAD"/>
<path d="M105.235 64.3678C105.235 64.3678 101.151 70.7619 88.5372 79.1579C87.6502 79.7489 85.4602 76.5679 86.4692 75.7649C90.0562 72.9109 95.0051 65.1519 101.824 60.3529C103.108 59.4499 105.235 64.3678 105.235 64.3678Z" fill="#FDCFAD"/>
<path d="M83.3129 76.654L81.5899 77.415L76.3959 78.63C76.3959 78.63 76.2259 80.147 77.8149 80.145C79.4039 80.144 79.1649 80.144 80.4889 80.143C81.3849 80.142 83.2799 79.819 84.4829 79.609C84.9589 79.526 85.4459 79.531 85.9139 79.649C86.9309 79.906 87.9539 79.986 88.8419 79.984C90.7489 79.98 91.7559 79.186 91.7559 77.286C91.7559 76.417 90.9459 75.004 90.0589 74.917C90.0589 74.917 86.2089 75.343 83.3129 76.654Z" fill="#FDCFAD"/>
<path d="M38.4978 46.7743L36.7558 46.0913C26.5488 40.8163 24.4288 29.2353 17.1538 21.1793L20.9408 16.1133L45.6618 40.0643L73.5598 72.8303C73.5598 72.8303 72.4198 74.0573 71.7618 74.9843C67.2668 81.3123 58.7328 81.8583 53.5168 76.3193C50.7328 73.3623 38.4978 46.7743 38.4978 46.7743Z" fill="#433F4B"/>
<path d="M36.4737 46.8566L34.5507 46.1705C23.2757 40.8825 20.8977 29.3466 12.8467 21.2996L16.6407 16.2686L44.3517 40.2006L74.4007 72.8926C74.4007 72.8926 73.9787 74.1376 73.2557 75.0576C68.3217 81.3416 58.9117 81.8546 53.1407 76.3226C50.0597 73.3696 36.4737 46.8566 36.4737 46.8566Z" fill="#4C4854"/>
<path d="M12.8677 21.2771C10.7727 21.5291 7.51076 20.7641 7.36376 15.2511C7.29676 12.7481 4.39675 12.1361 3.24175 8.54211C2.67875 6.78911 2.40673 4.83612 2.40673 4.83612C-1.34227 2.71112 0.997735 0.371094 0.997735 0.371094L16.6398 16.2691L12.8677 21.2771Z" fill="#FDCFAD"/>
</svg>
