<svg width="127" height="114" viewBox="0 0 127 114" fill="none" xmlns="http://www.w3.org/2000/svg">
<path d="M53.9388 89.4815C53.9388 89.4815 45.7328 82.8385 30.9018 88.1065C21.2558 91.5335 4.55678 99.6134 1.90378 103.116C-0.646222 106.483 0.42879 110.214 4.40979 111.626C8.05179 112.918 10.3118 113.986 19.9078 113.986C44.1808 113.986 35.5968 113.986 35.5968 113.986L35.8048 108.826L15.6748 104.795L35.0488 103.98C41.9398 103.69 48.2078 99.7785 51.3498 93.6385C51.3878 93.5645 51.4258 93.4904 51.4628 93.4154L53.9388 89.4815Z" fill="#433F4B"/>
<path d="M14.4258 105.063L19.9078 113.986H40.3468V107.597C28.9328 107.596 26.1548 100.821 14.4258 105.063Z" fill="#433F4B"/>
<path d="M40.3467 107.596C41.6497 105.936 44.4967 104.171 48.4997 107.965C50.3177 109.688 52.8007 108.069 56.1587 109.795C57.7967 110.637 59.3697 111.824 59.3697 111.824C63.5237 110.675 63.5237 113.985 63.5237 113.985H40.3477V107.596H40.3467Z" fill="#FDCFAD"/>
<path d="M33.9227 37.3983L36.0897 58.3243C36.3077 60.2263 35.0417 62.0833 33.1437 62.3413C31.1357 62.6143 29.3487 61.1313 29.2147 59.1423L27.9257 37.9683C27.8557 36.9223 27.7537 34.8103 28.1697 33.8543C28.7707 32.4743 30.2427 31.3693 32.5957 32.5433C33.3807 33.9743 33.7767 35.5673 33.9027 37.1943C33.9077 37.2623 33.9147 37.3303 33.9227 37.3983Z" fill="#E5BD9F"/>
<path d="M27.9209 35.0117C27.9209 35.0117 26.7109 26.9037 27.9999 11.7627C28.0909 10.6977 31.9519 10.9787 31.9519 12.2727C31.9519 16.8707 33.5369 25.7687 33.0439 34.1157C32.9519 35.6887 27.9209 35.0117 27.9209 35.0117Z" fill="#E5BD9F"/>
<path d="M26.8618 7.11542C26.8618 10.3304 28.2728 12.1974 28.2728 12.1974H31.9408C31.9408 11.2864 33.5798 9.67142 33.5798 7.70543V6.91742V3.51242H33.4658C32.9898 3.51242 32.5888 3.87043 32.5368 4.34443L32.4468 5.89342L32.1668 6.86842C32.1668 6.86842 31.8838 5.61043 31.8398 5.10643L31.9128 1.22842C31.9178 0.979424 31.7348 0.766425 31.4868 0.733425C31.2068 0.696425 30.9538 0.902422 30.9338 1.18442L30.6658 4.91442L30.6548 0.613422C30.6448 0.331422 30.4128 0.107422 30.1298 0.107422C29.8498 0.107422 29.6198 0.326422 29.6058 0.606422L29.2828 4.94642L29.3308 1.09842C29.3128 0.793423 29.0198 0.580424 28.7248 0.658424C28.5158 0.713424 28.3688 0.901424 28.3658 1.11742L28.0258 5.44942L28.0598 2.26942C28.0408 2.00242 27.8068 1.80342 27.5408 1.82842C27.2948 1.85042 27.1068 2.05742 27.1068 2.30342C27.1068 2.30342 26.8618 5.93942 26.8618 7.11542Z" fill="#E5BD9F"/>
<path d="M27.7578 44.7041L31.0248 45.0031C31.0248 45.0031 34.5628 49.4071 36.2578 52.7031C37.9528 55.9991 39.1729 61.5071 37.5489 68.5761C36.0989 74.8881 38.8688 79.9881 38.8688 79.9881L26.9168 82.0021C26.9168 82.0021 22.7949 73.0751 22.5569 68.7441C22.5569 68.7441 18.9348 64.9671 20.8368 62.2481C22.1388 60.3871 25.7648 55.5841 27.9288 52.3391C28.2388 51.8741 27.2928 49.7881 25.9548 48.0901L27.7578 44.7041Z" fill="#FDCFAD"/>
<path d="M39.0858 36.7125C41.3438 38.0905 45.3578 34.7105 42.8358 31.0565C40.7298 28.0055 36.3298 29.6045 36.2888 32.5985C36.2618 34.5485 38.4378 36.3175 39.0858 36.7125Z" fill="#7F562D"/>
<path d="M38.0055 37.2626L39.0855 36.7126C39.0855 36.7126 39.2715 33.6096 36.2885 32.5996L35.4785 33.3036L38.0055 37.2626Z" fill="#F05587"/>
<path d="M23.7546 36.9676C22.6606 35.2046 22.9856 33.9816 25.1466 32.2786C27.1746 30.6806 34.6976 29.6186 37.6856 35.3096C40.5306 40.7256 36.6186 46.1006 32.7686 47.3636C30.6086 48.0716 29.5375 45.7516 29.5375 45.7516C29.5375 45.7516 25.0346 39.0306 23.7546 36.9676Z" fill="#7F562D"/>
<path d="M24.7306 34.4521C24.7306 34.4521 23.8627 34.7261 23.4177 35.7971C23.1967 36.3291 23.1376 36.5191 22.8956 37.1651C22.4396 38.3861 23.0437 39.4391 22.0257 40.2751C21.0077 41.1111 20.0307 41.4041 20.0307 41.4041C20.0307 41.4041 19.7957 41.7231 20.0947 42.1651C20.3937 42.6071 21.3486 42.6981 21.4156 42.9261C21.4826 43.1551 21.0206 43.8831 21.0206 43.8831C21.0206 43.8831 20.7687 44.3321 21.2817 44.8161C20.8027 44.9621 20.7486 45.4981 21.1146 45.8341C21.4806 46.1701 21.3266 46.5461 20.9906 47.1091C20.6546 47.6721 20.6376 48.4691 22.4426 48.6091C24.2476 48.7501 27.5176 48.9261 30.3126 46.0211C30.3126 46.0211 32.0787 46.1061 32.9107 43.4411C33.7427 40.7761 31.1296 40.7951 30.8226 42.1301C30.4686 43.6671 29.1427 44.1861 29.1427 44.1861C29.1427 44.1861 29.3717 43.1901 29.8587 41.0761C29.8587 41.0761 25.1846 37.8901 24.7306 34.4521Z" fill="#FDCFAD"/>
<path d="M70.3489 104.273L54.7909 85.6869C54.7909 85.6869 51.2619 79.8189 43.2969 80.6849L32.4409 91.3679C33.9209 92.8859 36.1359 95.0169 38.2289 96.5459C46.0899 102.287 55.8759 107.755 61.5499 110.775C64.5379 112.365 67.8659 113.195 71.2509 113.195H103.186V106.806C90.2299 106.806 83.6639 100.031 70.3489 104.273Z" fill="#4C4854"/>
<path d="M38.8688 79.9893C38.8688 79.9893 36.0988 74.8893 37.5488 68.5773C39.1728 61.5073 37.9528 56.0003 36.2578 52.7043C33.7078 51.5823 31.0938 53.4383 28.8498 56.5923C26.6058 59.7463 23.4198 58.6913 23.4198 58.6913C22.3398 60.1683 21.3828 61.4713 20.8388 62.2493C18.9358 64.9683 22.5578 68.7453 22.5578 68.7453C22.7958 73.0763 27.1008 86.0243 32.4408 91.3703L43.2968 80.6873L38.8688 79.9893Z" fill="#F05587"/>
<path d="M103.186 106.806C104.489 105.146 107.336 103.381 111.339 107.175C113.157 108.898 115.64 107.279 118.998 109.005C120.636 109.847 122.209 111.034 122.209 111.034C126.363 109.885 126.363 113.195 126.363 113.195H103.187V106.806H103.186Z" fill="#FDCFAD"/>
<path d="M34.6888 37.3983L36.8558 58.3243C37.0738 60.2263 35.8078 62.0833 33.9098 62.3413C31.9018 62.6143 30.1148 61.1313 29.9808 59.1423L28.6918 37.9683C28.6218 36.9223 28.5198 34.8103 28.9358 33.8543C29.5368 32.4743 31.0088 31.3693 33.3618 32.5433C34.1468 33.9743 34.5428 35.5673 34.6688 37.1943C34.6748 37.2623 34.6808 37.3303 34.6888 37.3983Z" fill="#FDCFAD"/>
<path d="M28.687 35.0117C28.687 35.0117 27.477 26.9037 28.766 11.7627C28.857 10.6977 32.718 10.9787 32.718 12.2727C32.718 16.8707 34.303 25.7687 33.81 34.1157C33.718 35.6887 28.687 35.0117 28.687 35.0117Z" fill="#FDCFAD"/>
<path d="M27.6279 7.11542C27.6279 10.3304 29.0399 12.1974 29.0399 12.1974H32.7079C32.7079 11.2864 34.3469 9.67142 34.3469 7.70543V6.91742V3.51242H34.2329C33.7569 3.51242 33.3559 3.87043 33.3039 4.34443L33.213 5.89342L32.933 6.86842C32.933 6.86842 32.6499 5.61043 32.6059 5.10643L32.6789 1.22842C32.6839 0.979424 32.4999 0.766425 32.2529 0.733425C31.9729 0.696425 31.72 0.902422 31.7 1.18442L31.4319 4.91442L31.4209 0.613422C31.4109 0.331422 31.1789 0.107422 30.8959 0.107422C30.6159 0.107422 30.3859 0.326422 30.3719 0.606422L30.049 4.94642L30.0969 1.09842C30.0789 0.793423 29.7859 0.580424 29.4909 0.658424C29.2819 0.713424 29.1349 0.901424 29.1319 1.11742L28.7919 5.44942L28.8259 2.26942C28.8069 2.00242 28.5729 1.80342 28.3069 1.82842C28.0609 1.85042 27.8729 2.05742 27.8729 2.30342C27.8729 2.30342 27.6279 5.93942 27.6279 7.11542Z" fill="#FDCFAD"/>
</svg>
