<svg width="89" height="114" viewBox="0 0 89 114" fill="none" xmlns="http://www.w3.org/2000/svg">
<path d="M54.094 89.4815C54.094 89.4815 45.888 82.8385 31.057 88.1065C21.411 91.5335 4.71206 99.6134 2.05906 103.116C-0.490939 106.483 0.584042 110.214 4.56504 111.626C8.20704 112.918 10.467 113.986 20.063 113.986C44.336 113.986 35.7521 113.986 35.7521 113.986L35.9601 108.826L15.8301 104.795L35.204 103.98C42.095 103.69 48.363 99.7785 51.505 93.6385C51.543 93.5645 51.581 93.4904 51.618 93.4154L54.094 89.4815Z" fill="#433F4B"/>
<path d="M14.5811 105.063L20.063 113.986H40.5021V107.597C29.0891 107.596 26.3111 100.821 14.5811 105.063Z" fill="#433F4B"/>
<path d="M40.502 107.596C41.806 105.936 44.652 104.171 48.655 107.965C50.473 109.688 52.956 108.069 56.314 109.795C57.952 110.637 59.525 111.824 59.525 111.824C63.679 110.675 63.679 113.985 63.679 113.985H40.5029L40.502 107.596Z" fill="#FDCFAD"/>
<path d="M51.8558 37.3983L54.0228 58.3243C54.2408 60.2263 52.9748 62.0833 51.0768 62.3413C49.0688 62.6143 47.2818 61.1313 47.1478 59.1423L45.8588 37.9683C45.7888 36.9223 45.6868 34.8103 46.1028 33.8543C46.7038 32.4743 48.1758 31.3693 50.5288 32.5433C51.3138 33.9743 51.7098 35.5673 51.8358 37.1943C51.8418 37.2623 51.8478 37.3303 51.8558 37.3983Z" fill="#E5BD9F"/>
<path d="M45.854 35.0117C45.854 35.0117 44.644 26.9037 45.933 11.7627C46.024 10.6977 49.885 10.9787 49.885 12.2727C49.885 16.8707 51.47 25.7687 50.977 34.1157C50.885 35.6887 45.854 35.0117 45.854 35.0117Z" fill="#E5BD9F"/>
<path d="M44.7949 7.11542C44.7949 10.3304 46.2059 12.1974 46.2059 12.1974H49.874C49.874 11.2864 51.5129 9.67142 51.5129 7.70543V6.91742V3.51242H51.3989C50.9229 3.51242 50.5219 3.87043 50.4699 4.34443L50.379 5.89342L50.0989 6.86842C50.0989 6.86842 49.8159 5.61043 49.7719 5.10643L49.8449 1.22842C49.8499 0.979424 49.6669 0.766425 49.4189 0.733425C49.1389 0.696425 48.887 0.902422 48.866 1.18442L48.598 4.91442L48.5869 0.613422C48.5769 0.331422 48.345 0.107422 48.062 0.107422C47.782 0.107422 47.552 0.326422 47.538 0.606422L47.215 4.94642L47.2629 1.09842C47.2459 0.793423 46.9519 0.580424 46.6569 0.658424C46.4479 0.713424 46.3009 0.901424 46.2979 1.11742L45.9579 5.44942L45.9919 2.26942C45.9729 2.00242 45.739 1.80342 45.473 1.82842C45.227 1.85042 45.0389 2.05742 45.0389 2.30342C45.0389 2.30342 44.7949 5.93942 44.7949 7.11542Z" fill="#E5BD9F"/>
<path d="M55.955 45.2998L58.709 47.0828C58.709 47.0828 58.798 52.5278 58.767 56.2338C58.736 59.9398 57.258 65.3838 52.534 70.8888C48.316 75.8038 48.4 81.6068 48.4 81.6068L36.881 77.8358C36.881 77.8358 36.383 67.9168 38.185 63.9718C38.185 63.9718 37.73 59.0418 40.678 57.5188C42.696 56.4758 48.138 53.9078 51.563 52.0398C52.054 51.7718 53.124 48.6538 52.728 46.5288L55.955 45.2998Z" fill="#FDCFAD"/>
<path d="M70.3093 48.1564C70.8363 50.7484 76.0443 51.3894 77.0053 47.0554C77.8083 43.4364 73.6413 41.3004 71.4193 43.3074C69.9733 44.6144 70.1573 47.4134 70.3093 48.1564Z" fill="#7F562D"/>
<path d="M69.1709 47.7394L70.3089 48.1564C70.3089 48.1564 72.7089 46.1814 71.4199 43.3074L70.3529 43.1934L69.1709 47.7394Z" fill="#F05587"/>
<path d="M59.6881 37.0965C60.2351 35.0945 61.3521 34.5005 64.0711 34.9255C66.6221 35.3245 72.5201 40.1135 70.3841 46.1755C68.3511 51.9455 61.7512 52.7375 58.2062 50.7755C56.2172 49.6745 57.1881 47.3105 57.1881 47.3105C57.1881 47.3105 59.0481 39.4385 59.6881 37.0965Z" fill="#7F562D"/>
<path d="M62.1961 36.101C62.1961 36.101 61.4051 35.652 60.3161 36.054C59.7761 36.254 59.5961 36.34 58.9581 36.603C57.7531 37.1 57.3921 38.259 56.0871 38.082C54.7821 37.905 53.9021 37.389 53.9021 37.389C53.9021 37.389 53.5091 37.433 53.3881 37.953C53.2671 38.473 53.8521 39.235 53.7291 39.439C53.6071 39.644 52.7591 39.8 52.7591 39.8C52.7591 39.8 52.2591 39.921 52.2531 40.626C51.8201 40.374 51.3901 40.7 51.3931 41.196C51.3961 41.692 51.0151 41.836 50.3741 41.973C49.7331 42.11 49.1381 42.64 50.2631 44.058C51.3881 45.477 53.4851 47.992 57.5151 48.063C57.5151 48.063 58.6541 49.415 61.1731 48.21C63.6921 47.005 61.8991 45.105 60.7121 45.788C59.3451 46.575 58.0631 45.956 58.0631 45.956C58.0631 45.956 58.9491 45.446 60.8281 44.364C60.8301 44.366 59.9861 38.773 62.1961 36.101Z" fill="#FDCFAD"/>
<path d="M48.4 81.6072C48.4 81.6072 48.317 75.8042 52.534 70.8892C57.258 65.3842 58.736 59.9402 58.767 56.2342C57.03 54.0562 53.853 54.4842 50.401 56.2342C46.949 57.9842 44.617 55.5702 44.617 55.5702C42.975 56.3762 41.521 57.0852 40.678 57.5202C37.73 59.0432 38.185 63.9732 38.185 63.9732C36.383 67.9182 35.258 82.7332 37.502 89.9472L51.576 84.1232L48.4 81.6072Z" fill="#F05587"/>
<path d="M52.6219 37.3983L54.7889 58.3243C55.0069 60.2263 53.7409 62.0833 51.8429 62.3413C49.8349 62.6143 48.0479 61.1313 47.9139 59.1423L46.6249 37.9683C46.5549 36.9223 46.4529 34.8103 46.8689 33.8543C47.4699 32.4743 48.9419 31.3693 51.2949 32.5433C52.0799 33.9743 52.4759 35.5673 52.6019 37.1943C52.6079 37.2623 52.6149 37.3303 52.6219 37.3983Z" fill="#FDCFAD"/>
<path d="M46.6198 35.0117C46.6198 35.0117 45.4098 26.9037 46.6998 11.7627C46.7908 10.6977 50.6518 10.9787 50.6518 12.2727C50.6518 16.8707 52.2368 25.7687 51.7438 34.1157C51.6508 35.6887 46.6198 35.0117 46.6198 35.0117Z" fill="#FDCFAD"/>
<path d="M45.562 7.11542C45.562 10.3304 46.973 12.1974 46.973 12.1974H50.641C50.641 11.2864 52.28 9.67142 52.28 7.70543V6.91742V3.51242H52.166C51.69 3.51242 51.289 3.87043 51.237 4.34443L51.147 5.89342L50.866 6.86842C50.866 6.86842 50.583 5.61043 50.539 5.10643L50.612 1.22842C50.617 0.979424 50.433 0.766425 50.186 0.733425C49.906 0.696425 49.653 0.902422 49.633 1.18442L49.365 4.91442L49.354 0.613422C49.344 0.331422 49.112 0.107422 48.829 0.107422C48.549 0.107422 48.319 0.326422 48.305 0.606422L47.982 4.94642L48.03 1.09842C48.012 0.793423 47.719 0.580424 47.424 0.658424C47.215 0.713424 47.068 0.901424 47.065 1.11742L46.725 5.44942L46.759 2.26942C46.74 2.00242 46.506 1.80342 46.24 1.82842C45.994 1.85042 45.806 2.05742 45.806 2.30342C45.806 2.30342 45.562 5.93942 45.562 7.11542Z" fill="#FDCFAD"/>
<path d="M67.4612 75.5694C65.4492 75.2674 62.7872 73.9074 64.4432 69.0734C65.1812 66.8604 62.6892 65.7274 62.6572 62.3424C62.6392 60.6854 62.9172 58.8974 62.9172 58.8974C59.9502 56.3414 62.7562 54.6564 62.7612 54.6504C66.5832 60.4964 70.0622 66.5354 73.1912 72.7454C71.2812 73.6854 69.3712 74.6274 67.4612 75.5694Z" fill="#FDCFAD"/>
<path d="M73.191 72.7432C71.281 73.6852 69.371 74.6272 67.461 75.5682C70.982 82.7882 71.031 88.7392 72.715 94.8842C73.539 99.0542 76.321 103.665 76.321 103.665C70.939 101.255 65.956 98.0392 61.541 94.1302L60.349 93.0742C60.349 93.0742 59.282 86.3092 51.575 84.1212L37.501 89.9452C38.303 91.9072 39.555 94.7142 40.92 96.9172C43.812 101.582 48.893 105.129 54.115 107.74C62.355 111.86 71.5 113.844 80.713 113.844H84.145C86.517 113.844 88.358 111.773 88.082 109.417C86.451 95.4722 77.703 81.6992 73.191 72.7432Z" fill="#4C4854"/>
</svg>
