<svg width="54" height="78" viewBox="0 0 54 78" fill="none" xmlns="http://www.w3.org/2000/svg">
<path d="M6.69996 73.2223C5.84696 71.4213 8.20196 70.4464 9.45596 70.6974C10.71 70.9474 10.714 69.3514 13.706 69.4354C16.699 69.5194 17.65 70.1034 19.371 69.4304C21.627 68.5474 23.363 68.4274 24.092 70.2904C24.787 72.0674 23.158 73.7004 19.03 75.3164C14.864 76.9464 13.062 77.3004 11.862 76.7084C11.17 76.3664 10.369 74.2534 10.369 74.2534L7.85397 73.8024C7.85397 73.8024 7.01496 73.8863 6.69996 73.2223Z" fill="#FDCFAD"/>
<path d="M9.02303 74.693C9.68503 74.434 10.282 73.7791 10.106 73.3291C9.93003 72.8791 9.04703 72.8031 8.38503 73.0621C7.72403 73.3211 7.53404 73.8161 7.71004 74.2671C7.88604 74.7181 8.36203 74.952 9.02303 74.693Z" fill="#FDCFAD"/>
<path d="M9.97386 75.8137C10.6029 75.5677 11.1719 74.9447 11.0039 74.5157C10.8359 74.0877 9.99586 74.0157 9.36686 74.2617C8.73786 74.5077 8.55687 74.9787 8.72487 75.4077C8.89287 75.8367 9.34486 76.0607 9.97386 75.8137Z" fill="#FDCFAD"/>
<path d="M10.9779 76.7335C11.5609 76.5055 12.0859 75.9285 11.9309 75.5325C11.7759 75.1355 10.9979 75.0695 10.4159 75.2975C9.83294 75.5255 9.66694 75.9615 9.82194 76.3585C9.97694 76.7555 10.3959 76.9615 10.9779 76.7335Z" fill="#FDCFAD"/>
<path d="M11.959 77.4672C12.52 77.2472 13.027 76.6922 12.878 76.3092C12.728 75.9272 11.979 75.8632 11.418 76.0822C10.857 76.3022 10.696 76.7222 10.845 77.1042C10.994 77.4862 11.398 77.6872 11.959 77.4672Z" fill="#FDCFAD"/>
<path d="M25.7574 39.0651L38.3254 27.2531C39.5884 26.0661 41.6224 25.9811 42.8354 27.2191C44.1204 28.5291 44.0104 30.6291 42.6384 31.8031L29.4154 43.1111C28.1594 44.1851 26.6904 44.9841 25.1054 45.4531L12.5984 49.3601L7.94238 46.3261L24.1184 40.0931C24.7264 39.8601 25.2834 39.5111 25.7574 39.0651Z" fill="#E5BD9F"/>
<path d="M40.697 17.8936L43.869 18.7316C43.869 18.7316 46.626 23.6625 47.749 27.1945C48.873 30.7265 49.161 36.3596 46.385 43.0616C43.906 49.0446 45.79 54.5335 45.79 54.5335H33.67C33.67 54.5335 31.089 45.0455 31.574 40.7355C31.574 40.7355 28.63 36.4086 30.958 34.0446C32.551 32.4256 36.924 28.2916 39.598 25.4516C39.981 25.0446 39.394 22.8295 38.358 20.9335L40.697 17.8936Z" fill="#FDCFAD"/>
<path d="M50.2074 7.71057C52.7164 8.54657 55.8704 4.35256 52.5934 1.35756C49.8574 -1.14344 45.9274 1.40157 46.5594 4.32857C46.9704 6.23457 49.4884 7.47057 50.2074 7.71057Z" fill="#7F562D"/>
<path d="M49.2792 8.48715L50.2082 7.70915C50.2082 7.70915 49.6932 4.64415 46.5602 4.32715L45.9282 5.19516L49.2792 8.48715Z" fill="#F05587"/>
<path d="M35.3241 11.3969C33.8621 9.92389 33.9051 8.6589 35.6291 6.5149C37.2471 4.5029 44.3401 1.78089 48.5291 6.65589C52.5161 11.2969 49.9091 17.4119 46.4401 19.5059C44.4941 20.6799 42.9301 18.6599 42.9301 18.6599C42.9301 18.6599 37.0341 13.1209 35.3241 11.3969Z" fill="#7F562D"/>
<path d="M35.7112 8.72656C35.7112 8.72656 34.9272 9.18757 34.7332 10.3326C34.6372 10.9006 34.6222 11.0986 34.5322 11.7836C34.3622 13.0766 35.1862 13.9666 34.3822 15.0096C33.5772 16.0526 32.6912 16.5576 32.6912 16.5576C32.6912 16.5576 32.5332 16.9206 32.9242 17.2846C33.3142 17.6486 34.2662 17.5226 34.3822 17.7306C34.4982 17.9386 34.2112 18.7516 34.2112 18.7516C34.2112 18.7516 34.0662 19.2456 34.6752 19.6026C34.2412 19.8526 34.3092 20.3866 34.7402 20.6326C35.1722 20.8776 35.1062 21.2786 34.9052 21.9036C34.7042 22.5276 34.8662 23.3076 36.6572 23.0406C38.4482 22.7736 41.6742 22.2106 43.7462 18.7536C43.7462 18.7536 45.4862 18.4406 45.6992 15.6566C45.9112 12.8726 43.3702 13.4776 43.3702 14.8476C43.3702 16.4256 42.1942 17.2276 42.1942 17.2276C42.1942 17.2276 42.1942 16.2056 42.1942 14.0366C42.1932 14.0336 36.9252 11.9756 35.7112 8.72656Z" fill="#FDCFAD"/>
<path d="M36.3932 71.8666C27.9813 70.5836 7.40425 59.9766 7.40425 59.9766C1.16025 57.2606 3.21424 47.3416 11.3492 49.3726L33.7253 54.5706C36.5093 54.9946 46.7622 73.4476 36.3932 71.8666Z" fill="#433F4B"/>
<path d="M45.7914 54.5332C45.7914 54.5332 48.5554 58.5662 49.1904 63.8782C49.8254 69.1902 47.3964 75.3392 36.9074 75.3392C28.3984 75.3392 6.45738 67.9542 6.45738 67.9542C-0.124617 66.2102 0.411386 56.0952 8.75939 56.8762L31.6634 58.6422C34.4784 58.6422 33.6714 54.5332 33.6714 54.5332H45.7914Z" fill="#4C4854"/>
<path d="M30.958 34.0434C31.624 33.3664 32.785 32.2414 34.095 30.9644C34.095 30.9644 37.061 32.5334 39.798 29.7964C42.535 27.0594 45.42 25.6634 47.749 27.1934C48.873 30.7254 49.161 36.3584 46.385 43.0604C43.906 49.0434 45.79 54.5324 45.79 54.5324H33.67C33.67 54.5324 31.089 45.0444 31.574 40.7344C31.574 40.7344 28.63 36.4084 30.958 34.0434Z" fill="#F05587"/>
<path d="M29.2934 44.7815L41.5554 30.2075C42.7884 28.7425 45.0074 28.3875 46.4974 29.5885C48.0744 30.8595 48.2254 33.1775 46.8724 34.6415L33.8274 48.7475C32.5874 50.0875 31.0804 51.1525 29.4024 51.8715L14.3224 58.2185L10.6924 55.0415L27.6294 46.1215C28.2654 45.7865 28.8304 45.3315 29.2934 44.7815Z" fill="#FDCFAD"/>
<path d="M1.48535 53.743L2.55936 55.933L3.02835 56.901C3.15235 57.158 3.31835 57.392 3.51935 57.594L4.03535 58.113C4.25135 58.33 4.54135 58.457 4.84735 58.467L5.20935 58.805C5.44935 59.029 5.76535 59.152 6.09335 59.149L8.26535 59.13C8.87835 59.125 9.48935 59.069 10.0923 58.963L14.3233 58.22L13.4953 54.545L11.6933 53.181C11.1793 52.792 10.5933 52.508 9.96935 52.347L7.45235 51.696C7.31335 51.66 7.17135 51.635 7.02835 51.621L4.93935 51.417C4.93935 51.417 4.92135 51.8 5.09735 52.208C4.98135 52.07 4.82636 51.945 4.61736 51.847L4.23335 53.265C4.21435 53.337 4.20435 53.412 4.20535 53.486L4.22935 55.237C4.04735 55.108 3.83835 55.022 3.61435 54.988L3.59135 54.961L3.12836 54.186C2.82836 53.685 2.21234 53.469 1.66534 53.676L1.48535 53.743ZM5.42136 54.615L5.38036 54.254C5.34736 53.961 5.34935 53.666 5.38535 53.374C5.41235 53.151 5.41435 52.845 5.29935 52.551C5.53635 52.858 5.92735 53.12 6.57835 53.168C6.88835 53.191 7.19536 53.239 7.48836 53.343L7.98434 53.519C8.51534 53.708 8.79535 54.289 8.61235 54.822C8.43035 55.349 7.91734 55.687 7.36134 55.645C6.96534 55.615 6.57936 55.507 6.22536 55.325L5.74135 55.077C5.56335 54.986 5.44336 54.813 5.42136 54.615Z" fill="#FDCFAD"/>
<path d="M0.88916 44.0042L1.70815 46.1652L2.06415 47.1202C2.15815 47.3732 2.29416 47.6092 2.46616 47.8172L2.90616 48.3522C3.09016 48.5762 3.35315 48.7212 3.64015 48.7582L3.95116 49.1092C4.15716 49.3412 4.44415 49.4852 4.75415 49.5112L6.80415 49.6852C7.38215 49.7342 7.96416 49.7362 8.54216 49.6892L12.5982 49.3622L12.1422 45.8232L10.5641 44.3772C10.1141 43.9642 9.58615 43.6452 9.01215 43.4382L6.69615 42.6022C6.56815 42.5552 6.43615 42.5192 6.30215 42.4942L4.35016 42.1172C4.35016 42.1172 4.29915 42.4762 4.43015 42.8772C4.33315 42.7372 4.19816 42.6052 4.00916 42.4942L3.52216 43.7972C3.49716 43.8632 3.48215 43.9332 3.47615 44.0032L3.34415 45.6572C3.18415 45.5192 2.99415 45.4192 2.78615 45.3682L2.76616 45.3412L2.39815 44.5692C2.15915 44.0692 1.59716 43.8122 1.06316 43.9582L0.88916 44.0042ZM4.52415 45.1742L4.51715 44.8302C4.51115 44.5512 4.54016 44.2732 4.60016 44.0002C4.64516 43.7932 4.67416 43.5042 4.59116 43.2162C4.78816 43.5272 5.13315 43.8082 5.74315 43.9112C6.03315 43.9602 6.31916 44.0322 6.58516 44.1562L7.03716 44.3662C7.52116 44.5912 7.73416 45.1642 7.51416 45.6502C7.29616 46.1312 6.78215 46.4042 6.26115 46.3162C5.89015 46.2532 5.53615 46.1162 5.21815 45.9142L4.78316 45.6372C4.62516 45.5372 4.52815 45.3632 4.52415 45.1742Z" fill="#E5BD9F"/>
</svg>
