<svg width="53" height="78" viewBox="0 0 53 78" fill="none" xmlns="http://www.w3.org/2000/svg">
<path d="M19.7561 22.7375C19.7561 21.5615 20.0001 17.9255 20.0001 17.9255C20.0001 17.6785 20.188 17.4725 20.434 17.4495C20.7 17.4255 20.9341 17.6245 20.9531 17.8915L20.9191 21.0715L21.2591 16.7395C21.2631 16.5235 21.409 16.3365 21.619 16.2805C21.915 16.2025 22.2081 16.4145 22.2251 16.7205L22.1771 20.5685L22.5001 16.2285C22.5141 15.9495 22.744 15.7295 23.024 15.7295C23.307 15.7295 23.5381 15.9535 23.5491 16.2355L23.5601 20.5365L23.8281 16.8065C23.8481 16.5255 24.1011 16.3195 24.3811 16.3555C24.6281 16.3885 24.8111 16.6015 24.8071 16.8505L24.7341 20.7275C24.7781 21.2315 25.0611 22.4895 25.0611 22.4895L25.3411 21.5135L25.4311 19.9645C25.4841 19.4915 25.884 19.1325 26.36 19.1325H26.4741V22.5375V23.3255C26.4741 25.0835 25.1701 26.5575 24.8941 27.5015C24.8941 27.5015 24.2571 39.4875 23.3361 45.4515L22.1271 45.7795C21.0051 46.1175 20.453 45.5975 20.188 44.9325C19.606 43.4725 19.4071 41.8965 19.6121 40.3385C19.8921 38.2135 20.3871 31.8295 21.1551 27.7995C21.0881 27.7095 19.7561 25.8705 19.7561 22.7375Z" fill="#E5BD9F"/>
<path d="M23.9949 39.0576L36.5209 27.2856C37.7609 26.1196 39.7549 25.9666 40.9869 27.1406C42.3539 28.4436 42.2689 30.6056 40.8689 31.8026L27.6459 43.1106C26.3899 44.1846 24.9209 44.9836 23.3359 45.4526L22.3389 40.0976C22.9529 39.8626 23.5159 39.5086 23.9949 39.0576Z" fill="#E5BD9F"/>
<path d="M4.93 73.2223C4.077 71.4213 6.43101 70.4464 7.68601 70.6974C8.94101 70.9484 8.94401 69.3514 11.936 69.4354C14.928 69.5194 15.88 70.1034 17.601 69.4304C19.857 68.5474 21.593 68.4274 22.322 70.2904C23.017 72.0674 21.388 73.7004 17.26 75.3164C13.094 76.9464 11.292 77.3004 10.092 76.7084C9.4 76.3664 8.59901 74.2534 8.59901 74.2534L6.08401 73.8024C6.08401 73.8024 5.245 73.8863 4.93 73.2223Z" fill="#FDCFAD"/>
<path d="M7.25412 74.693C7.91612 74.434 8.51313 73.7791 8.33713 73.3291C8.16113 72.8791 7.27812 72.8031 6.61612 73.0621C5.95412 73.3211 5.76512 73.8161 5.94112 74.2671C6.11712 74.7171 6.59212 74.952 7.25412 74.693Z" fill="#FDCFAD"/>
<path d="M8.20384 75.8137C8.83284 75.5677 9.40184 74.9447 9.23384 74.5157C9.06584 74.0877 8.22585 74.0157 7.59685 74.2617C6.96785 74.5077 6.78685 74.9787 6.95485 75.4077C7.12285 75.8367 7.57484 76.0607 8.20384 75.8137Z" fill="#FDCFAD"/>
<path d="M9.2089 76.7333C9.7919 76.5053 10.3169 75.9283 10.1619 75.5323C10.0069 75.1363 9.22891 75.0693 8.64691 75.2973C8.06391 75.5253 7.8979 75.9613 8.0529 76.3583C8.2079 76.7543 8.6259 76.9613 9.2089 76.7333Z" fill="#FDCFAD"/>
<path d="M10.19 77.4672C10.751 77.2472 11.258 76.6922 11.109 76.3092C10.959 75.9272 10.21 75.8632 9.64896 76.0822C9.08796 76.3022 8.92696 76.7222 9.07596 77.1042C9.22496 77.4872 9.62796 77.6872 10.19 77.4672Z" fill="#FDCFAD"/>
<path d="M38.928 17.8936L42.1 18.7316C42.1 18.7316 44.857 23.6625 45.98 27.1945C47.104 30.7265 47.392 36.3596 44.616 43.0616C42.137 49.0446 44.021 54.5335 44.021 54.5335H31.901C31.901 54.5335 29.32 45.0455 29.805 40.7355C29.805 40.7355 26.861 36.4086 29.189 34.0446C30.782 32.4256 35.155 28.2916 37.829 25.4516C38.212 25.0446 37.625 22.8295 36.588 20.9335L38.928 17.8936Z" fill="#FDCFAD"/>
<path d="M48.4379 7.71057C50.9469 8.54657 54.1009 4.35256 50.8239 1.35756C48.0879 -1.14344 44.1579 1.40157 44.7899 4.32857C45.2009 6.23457 47.7179 7.47057 48.4379 7.71057Z" fill="#7F562D"/>
<path d="M47.5087 8.48715L48.4377 7.70915C48.4377 7.70915 47.9227 4.64415 44.7897 4.32715L44.1577 5.19516L47.5087 8.48715Z" fill="#F05587"/>
<path d="M33.5536 11.3969C32.0916 9.92389 32.1346 8.6589 33.8586 6.5149C35.4766 4.5029 42.5696 1.78089 46.7586 6.65589C50.7456 11.2969 48.1386 17.4119 44.6696 19.5059C42.7236 20.6799 41.1596 18.6599 41.1596 18.6599C41.1596 18.6599 35.2646 13.1209 33.5536 11.3969Z" fill="#7F562D"/>
<path d="M33.9408 8.72656C33.9408 8.72656 33.1568 9.18757 32.9628 10.3326C32.8668 10.9006 32.8518 11.0986 32.7618 11.7836C32.5918 13.0766 33.4158 13.9666 32.6108 15.0096C31.8058 16.0526 30.9198 16.5576 30.9198 16.5576C30.9198 16.5576 30.7618 16.9206 31.1518 17.2846C31.5418 17.6486 32.4938 17.5226 32.6098 17.7306C32.7258 17.9386 32.4388 18.7516 32.4388 18.7516C32.4388 18.7516 32.2938 19.2456 32.9028 19.6026C32.4688 19.8526 32.5368 20.3866 32.9678 20.6326C33.3998 20.8776 33.3338 21.2786 33.1328 21.9036C32.9318 22.5276 33.0938 23.3076 34.8848 23.0406C36.6758 22.7736 39.9018 22.2106 41.9738 18.7536C41.9738 18.7536 43.7138 18.4406 43.9268 15.6566C44.1388 12.8726 41.5978 13.4776 41.5978 14.8476C41.5978 16.4256 40.4218 17.2276 40.4218 17.2276C40.4218 17.2276 40.4218 16.2056 40.4218 14.0366C40.4228 14.0336 35.1548 11.9756 33.9408 8.72656Z" fill="#FDCFAD"/>
<path d="M34.6237 71.8666C26.2117 70.5836 5.63471 59.9766 5.63471 59.9766C-0.609285 57.2606 1.44472 47.3416 9.57972 49.3726L31.9557 54.5706C34.7387 54.9946 44.9927 73.4476 34.6237 71.8666Z" fill="#433F4B"/>
<path d="M44.0209 54.5332C44.0209 54.5332 46.7849 58.5662 47.4199 63.8782C48.0549 69.1902 45.6269 75.3392 35.1369 75.3392C26.6279 75.3392 4.68688 67.9542 4.68688 67.9542C-1.89512 66.2102 -1.35912 56.0952 6.98888 56.8762L29.8929 58.6422C32.7079 58.6422 31.9009 54.5332 31.9009 54.5332H44.0209Z" fill="#4C4854"/>
<path d="M29.189 34.0434C29.855 33.3664 31.016 32.2414 32.326 30.9644C32.326 30.9644 35.292 32.5334 38.029 29.7964C40.766 27.0594 43.651 25.6634 45.98 27.1934C47.104 30.7254 47.392 36.3584 44.616 43.0604C42.137 49.0434 44.021 54.5324 44.021 54.5324H31.901C31.901 54.5324 29.32 45.0444 29.805 40.7344C29.805 40.7344 26.861 36.4084 29.189 34.0434Z" fill="#F05587"/>
<path d="M27.5227 44.7815L39.7847 30.2075C41.0177 28.7425 43.2367 28.3875 44.7267 29.5885C46.3047 30.8595 46.4547 33.1775 45.1017 34.6415L32.0567 48.7475C31.3457 49.5165 29.8797 51.0415 28.8997 51.3955C27.4837 51.9075 25.6697 51.5965 24.9067 49.0795L25.8587 46.1215C26.4947 45.7865 27.0597 45.3315 27.5227 44.7815Z" fill="#FDCFAD"/>
<path d="M24.9059 49.0807C24.9059 49.0807 21.8379 36.4717 21.8379 25.2717C21.8379 24.2027 25.3959 24.2007 25.3959 25.4947C25.3959 30.0927 29.9939 39.9927 29.5009 48.3397C29.4089 49.9107 24.9059 49.0807 24.9059 49.0807Z" fill="#FDCFAD"/>
<path d="M20.4951 22.7365C20.4951 25.9515 21.9061 27.8185 21.9061 27.8185H25.5741C25.5741 26.9065 27.2131 25.2925 27.2131 23.3265V22.5385V19.1335H27.1001C26.6241 19.1335 26.2231 19.4915 26.1711 19.9655L26.0801 21.5145L25.8001 22.4905C25.8001 22.4905 25.5171 21.2325 25.4731 20.7285L25.5461 16.8505C25.5511 16.6015 25.3671 16.3885 25.1201 16.3555C24.8401 16.3185 24.5871 16.5245 24.5671 16.8065L24.2991 20.5365L24.2881 16.2355C24.2781 15.9535 24.0461 15.7295 23.7631 15.7295C23.4831 15.7295 23.2531 15.9485 23.2391 16.2285L22.9161 20.5685L22.9641 16.7195C22.9461 16.4145 22.6531 16.2015 22.3581 16.2795C22.1491 16.3345 22.0021 16.5225 21.9991 16.7385L21.6591 21.0705L21.6931 17.8905C21.6741 17.6235 21.4401 17.4245 21.1741 17.4495C20.9281 17.4715 20.7401 17.6785 20.7401 17.9245C20.7401 17.9245 20.4951 21.5605 20.4951 22.7365Z" fill="#FDCFAD"/>
</svg>
