<svg width="53" height="104" viewBox="0 0 53 104" fill="none" xmlns="http://www.w3.org/2000/svg">
<path d="M43.017 38.2772L45.1839 59.2032C45.4019 61.1052 44.136 62.9622 42.238 63.2202C40.23 63.4932 38.4429 62.0102 38.3089 60.0212L37.0199 38.8472C36.9499 37.8012 36.848 35.6892 37.264 34.7332C37.865 33.3532 39.337 32.2482 41.69 33.4222C42.475 34.8532 42.871 36.4462 42.997 38.0732C43.002 38.1412 43.009 38.2092 43.017 38.2772Z" fill="#E5BD9F"/>
<path d="M37.0142 35.8916C37.0142 35.8916 35.8041 27.7836 37.0931 12.6426C37.1841 11.5776 41.0452 11.8586 41.0452 13.1526C41.0452 17.7506 42.6301 26.6486 42.1371 34.9956C42.0461 36.5676 37.0142 35.8916 37.0142 35.8916Z" fill="#E5BD9F"/>
<path d="M35.9561 7.99434C35.9561 11.2093 37.3671 13.0763 37.3671 13.0763H41.0351C41.0351 12.1653 42.6741 10.5503 42.6741 8.58434V7.79634V4.39134H42.5601C42.0841 4.39134 41.6831 4.74934 41.6311 5.22334L41.5401 6.77234L41.2601 7.74733C41.2601 7.74733 40.9771 6.48934 40.9331 5.98534L41.0061 2.10733C41.0111 1.85833 40.828 1.64534 40.58 1.61234C40.3 1.57534 40.0471 1.78134 40.0271 2.06334L39.7591 5.79333L39.748 1.49234C39.738 1.21034 39.5061 0.986328 39.2231 0.986328C38.9431 0.986328 38.7131 1.20534 38.6991 1.48534L38.3761 5.82533L38.4241 1.97734C38.4071 1.67234 38.1131 1.45934 37.8181 1.53734C37.6091 1.59234 37.4621 1.78034 37.4591 1.99634L37.119 6.32834L37.1531 3.14833C37.1341 2.88133 36.9001 2.68234 36.6341 2.70734C36.3881 2.72934 36.2001 2.93633 36.2001 3.18333C36.2001 3.18333 35.9561 6.81834 35.9561 7.99434Z" fill="#E5BD9F"/>
<path d="M5.57893 99.2223C4.72593 97.4213 7.07991 96.4464 8.33491 96.6974C9.58891 96.9474 9.59291 95.3514 12.5849 95.4354C15.5779 95.5194 16.5289 96.1034 18.2499 95.4304C20.5059 94.5474 22.2419 94.4274 22.9709 96.2904C23.6659 98.0674 22.0369 99.7004 17.9089 101.316C13.7429 102.946 11.9409 103.3 10.7409 102.708C10.0489 102.366 9.2479 100.253 9.2479 100.253L6.73292 99.8024C6.73292 99.8024 5.89293 99.8863 5.57893 99.2223Z" fill="#FDCFAD"/>
<path d="M7.90196 100.693C8.56396 100.434 9.16094 99.7791 8.98494 99.3291C8.80894 98.8791 7.92596 98.8031 7.26396 99.0621C6.60296 99.3211 6.41294 99.8161 6.58894 100.267C6.76494 100.718 7.24096 100.952 7.90196 100.693Z" fill="#FDCFAD"/>
<path d="M8.85277 101.814C9.48177 101.568 10.0508 100.945 9.88276 100.516C9.71476 100.088 8.87477 100.016 8.24577 100.262C7.61677 100.508 7.43577 100.979 7.60377 101.408C7.77077 101.837 8.22277 102.061 8.85277 101.814Z" fill="#FDCFAD"/>
<path d="M9.85672 102.734C10.4387 102.506 10.9647 101.929 10.8097 101.533C10.6547 101.136 9.87674 101.07 9.29474 101.298C8.71274 101.526 8.54572 101.962 8.70072 102.359C8.85572 102.755 9.27472 102.962 9.85672 102.734Z" fill="#FDCFAD"/>
<path d="M10.8379 103.467C11.3989 103.247 11.9059 102.692 11.7569 102.309C11.6069 101.927 10.8579 101.863 10.2969 102.082C9.73591 102.302 9.57491 102.722 9.72391 103.104C9.87291 103.487 10.2769 103.687 10.8379 103.467Z" fill="#FDCFAD"/>
<path d="M39.5759 43.8936L42.7479 44.7316C42.7479 44.7316 45.5049 49.6625 46.6289 53.1945C47.7529 56.7265 48.0409 62.3596 45.2649 69.0616C42.7859 75.0446 44.6699 80.5335 44.6699 80.5335H32.5499C32.5499 80.5335 29.9689 71.0455 30.4539 66.7355C30.4539 66.7355 27.5099 62.4086 29.8379 60.0446C31.4309 58.4256 35.8039 54.2916 38.4779 51.4516C38.8609 51.0446 38.2739 48.8295 37.2369 46.9335L39.5759 43.8936Z" fill="#FDCFAD"/>
<path d="M49.0858 33.7106C51.5948 34.5466 54.7488 30.3526 51.4718 27.3576C48.7358 24.8566 44.8058 27.4016 45.4378 30.3286C45.8488 32.2346 48.3658 33.4706 49.0858 33.7106Z" fill="#7F562D"/>
<path d="M48.1567 34.4872L49.0857 33.7092C49.0857 33.7092 48.5717 30.6441 45.4377 30.3271L44.8057 31.1952L48.1567 34.4872Z" fill="#F05587"/>
<path d="M34.2026 37.3969C32.7406 35.9239 32.7836 34.6589 34.5076 32.5149C36.1256 30.5029 43.2185 27.7809 47.4075 32.6559C51.3945 37.2969 48.7876 43.4119 45.3186 45.5059C43.3726 46.6799 41.8085 44.6599 41.8085 44.6599C41.8085 44.6599 35.9126 39.1209 34.2026 37.3969Z" fill="#7F562D"/>
<path d="M34.5897 34.7266C34.5897 34.7266 33.8057 35.1876 33.6117 36.3326C33.5157 36.9006 33.5007 37.0986 33.4107 37.7836C33.2407 39.0766 34.0647 39.9666 33.2607 41.0096C32.4557 42.0526 31.5697 42.5576 31.5697 42.5576C31.5697 42.5576 31.4117 42.9206 31.8017 43.2846C32.1917 43.6486 33.1437 43.5226 33.2597 43.7306C33.3757 43.9386 33.0887 44.7516 33.0887 44.7516C33.0887 44.7516 32.9437 45.2456 33.5527 45.6026C33.1187 45.8526 33.1867 46.3866 33.6177 46.6326C34.0497 46.8776 33.9837 47.2786 33.7827 47.9036C33.5817 48.5276 33.7437 49.3076 35.5347 49.0406C37.3257 48.7736 40.5517 48.2106 42.6237 44.7536C42.6237 44.7536 44.3637 44.4406 44.5767 41.6566C44.7887 38.8726 42.2477 39.4776 42.2477 40.8476C42.2477 42.4256 41.0717 43.2276 41.0717 43.2276C41.0717 43.2276 41.0717 42.2056 41.0717 40.0366C41.0717 40.0336 35.8037 37.9756 34.5897 34.7266Z" fill="#FDCFAD"/>
<path d="M35.2717 97.8666C26.8597 96.5836 6.28266 85.9766 6.28266 85.9766C0.0386641 83.2606 2.09267 73.3416 10.2277 75.3726L32.6037 80.5706C35.3877 80.9946 45.6407 99.4476 35.2717 97.8666Z" fill="#433F4B"/>
<path d="M44.6688 80.5332C44.6688 80.5332 47.4328 84.5662 48.0678 89.8782C48.7028 95.1902 46.2738 101.339 35.7848 101.339C27.2758 101.339 5.33482 93.9542 5.33482 93.9542C-1.24718 92.2102 -0.711173 82.0952 7.63683 82.8762L30.5408 84.6422C33.3568 84.6422 32.5488 80.5332 32.5488 80.5332H44.6688Z" fill="#4C4854"/>
<path d="M29.8369 60.0434C30.5029 59.3664 31.6639 58.2414 32.9739 56.9644C32.9739 56.9644 35.9399 58.5334 38.6769 55.7964C41.4139 53.0594 44.2989 51.6634 46.6279 53.1934C47.7519 56.7254 48.0399 62.3584 45.2639 69.0604C42.7849 75.0434 44.6689 80.5324 44.6689 80.5324H32.5489C32.5489 80.5324 29.9679 71.0444 30.4529 66.7344C30.4529 66.7344 27.5089 62.4084 29.8369 60.0434Z" fill="#F05587"/>
<path d="M37.7808 35.8916C37.7808 35.8916 36.5707 27.7836 37.8597 12.6426C37.9507 11.5776 41.8118 11.8586 41.8118 13.1526C41.8118 17.7506 43.3967 26.6486 42.9037 34.9956C42.8117 36.5676 37.7808 35.8916 37.7808 35.8916Z" fill="#FDCFAD"/>
<path d="M36.7217 7.99434C36.7217 11.2093 38.1327 13.0763 38.1327 13.0763H41.8007C41.8007 12.1653 43.4397 10.5503 43.4397 8.58434V7.79634V4.39134H43.3257C42.8497 4.39134 42.4487 4.74934 42.3967 5.22334L42.3057 6.77234L42.0257 7.74733C42.0257 7.74733 41.7427 6.48934 41.6987 5.98534L41.7717 2.10733C41.7767 1.85833 41.5927 1.64534 41.3457 1.61234C41.0657 1.57534 40.8127 1.78134 40.7927 2.06334L40.5247 5.79333L40.5137 1.49234C40.5037 1.21034 40.2717 0.986328 39.9887 0.986328C39.7087 0.986328 39.4787 1.20534 39.4647 1.48534L39.1417 5.82533L39.1897 1.97734C39.1717 1.67234 38.8787 1.45934 38.5837 1.53734C38.3747 1.59234 38.2277 1.78034 38.2247 1.99634L37.8847 6.32834L37.9187 3.14833C37.8997 2.88133 37.6657 2.68234 37.3997 2.70734C37.1537 2.72934 36.9657 2.93633 36.9657 3.18333C36.9657 3.18333 36.7217 6.81834 36.7217 7.99434Z" fill="#FDCFAD"/>
<path d="M43.7826 38.2772L45.9496 59.2032C46.1676 61.1052 44.9016 62.9622 43.0036 63.2202C40.9956 63.4932 39.2086 62.0102 39.0746 60.0212L37.7856 38.8472C37.7156 37.8012 37.6136 35.6892 38.0296 34.7332C38.6306 33.3532 40.1026 32.2482 42.4556 33.4222C43.2406 34.8532 43.6366 36.4462 43.7626 38.0732C43.7686 38.1412 43.7746 38.2092 43.7826 38.2772Z" fill="#FDCFAD"/>
</svg>
