<svg width="85" height="119" viewBox="0 0 85 119" fill="none" xmlns="http://www.w3.org/2000/svg">
<path d="M29.3323 92.3758C29.3323 92.3758 28.3513 99.5678 31.0333 114.525C31.2223 115.577 35.0413 114.94 34.9213 113.652C34.4963 109.074 35.7783 101.061 34.5163 92.7949C34.2793 91.2379 29.3323 92.3758 29.3323 92.3758Z" fill="#E5BD9F"/>
<path d="M34.1282 113.301L40.3212 116.041L45.5222 117.257C45.5222 117.257 45.6932 118.781 44.1032 118.781C42.5132 118.781 40.8522 118.781 39.5262 118.781C38.6442 118.781 38.6392 118.468 37.4852 118.259C36.8552 118.145 36.2222 118.246 35.5972 118.385C31.5442 119.283 29.8352 116.985 31.1612 113.391L34.1282 113.301Z" fill="#E5BD9F"/>
<path d="M35.2181 90.1151L37.3851 69.1891C37.6031 67.2871 36.3371 65.4301 34.4391 65.1721C32.4311 64.8991 30.6441 66.3821 30.5101 68.3711L29.2211 89.5451C29.1511 90.5911 29.0491 92.7031 29.4651 93.6591C30.0661 95.0391 31.5381 96.1441 33.8911 94.9701C34.6761 93.5391 35.0721 91.9461 35.1981 90.3191C35.2041 90.2511 35.2111 90.1831 35.2181 90.1151Z" fill="#E5BD9F"/>
<path d="M45.1251 37.3469C45.1251 37.3469 35.1811 40.8959 22.9341 31.0109C14.9681 24.5809 1.89012 11.4239 0.548119 7.23991C-0.74188 3.21791 1.50911 0.0539065 5.73211 0.0409065C9.59611 0.0289065 12.0821 -0.230097 21.1371 2.9499C44.0391 10.9939 35.9401 8.14891 35.9401 8.14891L34.4271 13.0859L14.0991 10.2189L32.1081 17.4079C38.5141 19.9649 43.1311 25.7329 44.0611 32.5669C44.0721 32.6489 44.0831 32.7319 44.0941 32.8149L45.1251 37.3469Z" fill="#433F4B"/>
<path d="M13.0083 9.55219L21.1373 2.9502L40.4213 9.72318L38.3043 15.7512C27.5353 11.9692 22.6693 17.4412 13.0083 9.55219Z" fill="#433F4B"/>
<path d="M38.3042 15.7507C38.9842 17.7487 41.0842 20.3577 46.1182 18.1047C48.4042 17.0817 50.2102 19.4317 53.9512 18.9167C55.7752 18.6657 57.6532 18.0657 57.6532 18.0657C61.1912 20.5257 62.2882 17.4027 62.2882 17.4027L40.4212 9.72266L38.3042 15.7507Z" fill="#FDCFAD"/>
<path d="M32.2393 79.6498L35.4283 78.8799C35.4283 78.8799 37.3163 73.7719 38.5153 70.2649C39.7143 66.7579 40.1233 61.1319 37.4913 54.3719C35.1413 48.3369 37.1423 42.8899 37.1423 42.8899L25.0253 42.6309C25.0253 42.6309 21.2683 51.8239 21.6613 56.1429C21.6613 56.1429 19.5983 60.6429 21.8753 63.0579C23.4333 64.7099 27.7173 68.9369 30.3293 71.8339C30.7043 72.2489 30.6793 75.5459 29.6023 77.4199L32.2393 79.6498Z" fill="#FDCFAD"/>
<path d="M46.7295 81.7098C48.0855 79.4388 53.2115 80.5598 52.6825 84.9678C52.2405 88.6488 47.6015 89.2827 46.1705 86.6527C45.2385 84.9397 46.3405 82.3608 46.7295 81.7098Z" fill="#7F562D"/>
<path d="M45.5175 81.726L46.7295 81.71C46.7295 81.71 48.3395 84.369 46.1705 86.653L45.1255 86.407L45.5175 81.726Z" fill="#F05587"/>
<path d="M33.0432 88.6261C32.8962 90.6961 33.7532 91.6271 36.4592 92.1271C38.9982 92.5961 46.1492 90.0321 46.1432 83.6041C46.1372 77.4861 40.1722 74.5521 36.1772 75.2281C33.9362 75.6071 34.0692 78.1601 34.0692 78.1601C34.0692 78.1601 33.2162 86.2041 33.0432 88.6261Z" fill="#7F562D"/>
<path d="M35.0793 90.3974C35.0793 90.3974 34.1843 90.5594 33.2903 89.8184C32.8473 89.4514 32.7063 89.3104 32.1913 88.8504C31.2193 87.9814 31.2633 86.7694 29.9723 86.5034C28.6823 86.2384 27.6813 86.4334 27.6813 86.4334C27.6813 86.4334 27.3243 86.2614 27.3833 85.7304C27.4423 85.2004 28.2453 84.6744 28.1983 84.4414C28.1513 84.2074 27.4023 83.7784 27.4023 83.7784C27.4023 83.7784 26.9703 83.4984 27.1993 82.8314C26.7073 82.9254 26.4093 82.4764 26.5773 82.0084C26.7443 81.5414 26.4333 81.2794 25.8733 80.9384C25.3133 80.5964 24.9283 79.8994 26.4593 78.9344C27.9913 77.9694 30.8023 76.2904 34.6293 77.5584C34.6293 77.5584 36.1523 76.6604 38.1303 78.6314C40.1073 80.6034 37.7863 81.8024 36.8933 80.7644C35.8643 79.5684 34.4493 79.7284 34.4493 79.7284C34.4493 79.7284 35.1163 80.5034 36.5313 82.1464C36.5293 82.1464 33.8793 87.1434 35.0793 90.3974Z" fill="#FDCFAD"/>
<path d="M37.1433 42.8892C37.1433 42.8892 35.1423 48.3372 37.4923 54.3722C40.1243 61.1322 39.7153 66.7582 38.5163 70.2652C36.1553 71.7452 33.3003 70.2872 30.6233 67.4932C27.9453 64.6982 24.9463 66.2032 24.9463 66.2032C23.6643 64.8982 22.5273 63.7482 21.8763 63.0572C19.5993 60.6432 21.6623 56.1432 21.6623 56.1432C21.2693 51.8242 25.1173 37.4732 29.6253 31.4102L40.9743 41.5681L37.1433 42.8892Z" fill="#F05587"/>
<path d="M53.126 54.9026C51.127 54.5206 48.165 54.9216 48.126 60.0316C48.089 62.3636 45.362 62.6076 44.21 65.7906C43.644 67.3486 43.313 69.1276 43.313 69.1276C39.667 70.5566 41.756 73.0756 41.759 73.0836C47.302 68.8336 52.586 64.2896 57.596 59.4676C56.106 57.9456 54.616 56.4236 53.126 54.9026Z" fill="#FDCFAD"/>
<path d="M57.5961 59.4668C56.1061 57.9458 54.6161 56.4238 53.1261 54.9028C58.8411 49.2578 60.8591 43.6598 64.4841 38.4198C66.6441 34.7578 70.7961 31.3298 70.7961 31.3298C64.9201 31.8208 59.152 33.2028 53.692 35.4288L52.2171 36.0298C52.2171 36.0298 48.969 42.0588 40.972 41.5698L29.623 31.4118C31.03 29.8258 33.1411 27.5928 35.1601 25.9668C39.4351 22.5238 45.4041 20.8608 51.1961 20.1278C60.3361 18.9708 69.6211 20.1298 78.3141 23.1828L81.5521 24.3198C83.7901 25.1058 84.841 27.6698 83.8 29.8008C77.6381 42.4158 64.8211 52.5118 57.5961 59.4668Z" fill="#4C4854"/>
<path d="M35.9852 90.1151L38.1523 69.1891C38.3703 67.2871 37.1042 65.4301 35.2062 65.1721C33.1982 64.8991 31.4113 66.3821 31.2773 68.3711L29.9872 89.5451C29.9172 90.5911 29.8152 92.7031 30.2312 93.6591C30.8322 95.0391 32.3043 96.1441 34.6573 94.9701C35.4423 93.5391 35.8382 91.9461 35.9642 90.3191C35.9702 90.2511 35.9772 90.1831 35.9852 90.1151Z" fill="#FDCFAD"/>
<path d="M30.0994 92.3758C30.0994 92.3758 29.1184 99.5678 31.8004 114.525C31.9894 115.577 35.8084 114.94 35.6884 113.652C35.2634 109.074 36.5454 101.061 35.2844 92.7949C35.0464 91.2379 30.0994 92.3758 30.0994 92.3758Z" fill="#FDCFAD"/>
<path d="M34.8953 113.301L41.0883 116.041L46.2893 117.257C46.2893 117.257 46.4603 118.781 44.8703 118.781C43.2803 118.781 42.6213 118.781 41.2953 118.781C40.4133 118.781 39.4063 118.468 38.2523 118.259C37.6223 118.145 36.9893 118.246 36.3643 118.385C32.3113 119.283 30.6023 116.985 31.9283 113.391L34.8953 113.301Z" fill="#FDCFAD"/>
</svg>
