<svg width="127" height="122" viewBox="0 0 127 122" fill="none" xmlns="http://www.w3.org/2000/svg">
<path d="M34.7107 95.3758C34.7107 95.3758 33.7297 102.568 36.4117 117.525C36.6007 118.577 40.4197 117.94 40.2997 116.652C39.8747 112.074 41.1568 104.061 39.8948 95.7949C39.6568 94.2379 34.7107 95.3758 34.7107 95.3758Z" fill="#E5BD9F"/>
<path d="M39.5067 116.301L45.6997 119.041L50.9007 120.257C50.9007 120.257 51.0717 121.781 49.4817 121.781C47.8917 121.781 46.2297 121.781 44.9047 121.781C44.0227 121.781 44.0177 121.468 42.8637 121.259C42.2337 121.145 41.6007 121.246 40.9757 121.385C36.9227 122.283 35.2136 119.985 36.5396 116.391L39.5067 116.301Z" fill="#E5BD9F"/>
<path d="M40.5965 93.1151L42.7635 72.1891C42.9815 70.2871 41.7155 68.4301 39.8185 68.1721C37.8105 67.8991 36.0235 69.3821 35.8895 71.3711L34.6005 92.5451C34.5305 93.5911 34.4285 95.7031 34.8445 96.6591C35.4455 98.0391 36.9175 99.1441 39.2705 97.9701C40.0555 96.5391 40.4515 94.9461 40.5775 93.3191C40.5825 93.2511 40.5885 93.1831 40.5965 93.1151Z" fill="#E5BD9F"/>
<path d="M56.4829 26.3469C56.4829 26.3469 50.6669 35.1589 34.9379 34.6179C24.7069 34.2659 6.34693 31.6079 2.75993 29.0709C-0.688071 26.6319 -0.790078 22.75 2.57792 20.201C5.65992 17.869 7.4909 16.1679 16.6389 13.2689C39.7779 5.93595 31.5949 8.52896 31.5949 8.52896L33.3519 13.3839L15.3809 23.3079L34.0959 18.2319C40.7529 16.4259 47.9089 18.2619 52.7599 23.1659C52.8179 23.2249 52.8769 23.2849 52.9349 23.3449L56.4829 26.3469Z" fill="#433F4B"/>
<path d="M14.1089 23.4308L16.6389 13.2688L36.1229 7.09375L38.0529 13.1838C27.1729 16.6328 26.5719 23.9308 14.1089 23.4308Z" fill="#433F4B"/>
<path d="M38.053 13.1848C39.797 14.3738 43.044 15.1958 45.714 10.3698C46.926 8.17878 49.782 8.9708 52.462 6.3118C53.769 5.0148 54.91 3.4068 54.91 3.4068C59.217 3.2468 58.217 0.0917969 58.217 0.0917969L36.124 7.09378L38.053 13.1848Z" fill="#FDCFAD"/>
<path d="M37.6182 82.6498L40.8072 81.8799C40.8072 81.8799 42.6952 76.7719 43.8942 73.2649C45.0932 69.7579 45.5022 64.1319 42.8702 57.3719C40.5202 51.3369 42.5212 45.8899 42.5212 45.8899L30.4042 45.6309C30.4042 45.6309 26.6472 54.8239 27.0402 59.1429C27.0402 59.1429 24.9772 63.6429 27.2542 66.0579C28.8122 67.7099 33.0962 71.9369 35.7082 74.8339C36.0822 75.2489 36.0582 78.5459 34.9812 80.4199L37.6182 82.6498Z" fill="#FDCFAD"/>
<path d="M52.1074 84.7098C53.4634 82.4388 58.5894 83.5598 58.0604 87.9678C57.6184 91.6488 52.9794 92.2827 51.5484 89.6527C50.6164 87.9397 51.7184 85.3608 52.1074 84.7098Z" fill="#7F562D"/>
<path d="M50.8954 84.726L52.1074 84.71C52.1074 84.71 53.7174 87.369 51.5484 89.653L50.5034 89.407L50.8954 84.726Z" fill="#F05587"/>
<path d="M38.4221 91.6261C38.2751 93.6961 39.1321 94.6271 41.8381 95.1271C44.3771 95.5961 51.5281 93.0321 51.5221 86.6041C51.5161 80.4861 45.5511 77.5521 41.5561 78.2281C39.3151 78.6071 39.4481 81.1601 39.4481 81.1601C39.4481 81.1601 38.5941 89.2041 38.4221 91.6261Z" fill="#7F562D"/>
<path d="M40.4573 93.3974C40.4573 93.3974 39.5623 93.5594 38.6683 92.8184C38.2243 92.4514 38.0843 92.3104 37.5693 91.8504C36.5973 90.9814 36.6413 89.7694 35.3503 89.5034C34.0603 89.2384 33.0593 89.4334 33.0593 89.4334C33.0593 89.4334 32.7023 89.2614 32.7613 88.7304C32.8193 88.2004 33.6233 87.6744 33.5763 87.4414C33.5293 87.2074 32.7803 86.7784 32.7803 86.7784C32.7803 86.7784 32.3483 86.4984 32.5773 85.8314C32.0853 85.9254 31.7883 85.4764 31.9553 85.0084C32.1223 84.5414 31.8113 84.2794 31.2513 83.9384C30.6913 83.5964 30.3063 82.8994 31.8373 81.9344C33.3693 80.9694 36.1803 79.2904 40.0073 80.5584C40.0073 80.5584 41.5303 79.6604 43.5083 81.6314C45.4853 83.6034 43.1643 84.8024 42.2713 83.7644C41.2423 82.5684 39.8273 82.7284 39.8273 82.7284C39.8273 82.7284 40.4943 83.5034 41.9093 85.1464C41.9093 85.1464 39.2583 90.1434 40.4573 93.3974Z" fill="#FDCFAD"/>
<path d="M42.5212 45.8892C42.5212 45.8892 40.5202 51.3372 42.8702 57.3722C45.5032 64.1322 45.0932 69.7582 43.8942 73.2652C41.5332 74.7452 38.6782 73.2872 36.0012 70.4932C33.3232 67.6982 30.3242 69.2032 30.3242 69.2032C29.0422 67.8982 27.9052 66.7482 27.2542 66.0572C24.9772 63.6432 27.0402 59.1432 27.0402 59.1432C26.6472 54.8242 30.4952 40.4732 35.0032 34.4102L46.3522 44.5681L42.5212 45.8892Z" fill="#F05587"/>
<path d="M41.3725 93.153L43.5436 72.196C43.7616 70.291 42.4936 68.431 40.5926 68.173C38.5816 67.9 36.7906 69.385 36.6576 71.377L35.3656 92.582C35.2956 93.629 35.1936 95.745 35.6106 96.703C36.2126 98.086 37.6865 99.192 40.0445 98.016C40.8315 96.583 41.2276 94.987 41.3536 93.357C41.3586 93.289 41.3645 93.221 41.3725 93.153Z" fill="#FDCFAD"/>
<path d="M35.4767 95.4182C35.4767 95.4182 34.4938 102.622 37.1808 117.603C37.3698 118.657 41.1947 118.019 41.0757 116.729C40.6507 112.143 41.9338 104.117 40.6708 95.8372C40.4318 94.2772 35.4767 95.4182 35.4767 95.4182Z" fill="#FDCFAD"/>
<path d="M40.2729 116.301L46.4658 119.041L51.6668 120.257C51.6668 120.257 51.8378 121.781 50.2478 121.781C48.6578 121.781 47.9988 121.781 46.6728 121.781C45.7908 121.781 44.7839 121.468 43.6299 121.259C42.9999 121.145 42.3669 121.246 41.7419 121.385C37.6879 122.283 35.9799 119.985 37.3059 116.391L40.2729 116.301Z" fill="#FDCFAD"/>
<path d="M71.356 17.7039L57.861 37.8379C57.861 37.8379 54.362 44.5859 46.35 44.5709L35.001 34.4099C36.311 32.7439 38.319 30.5438 40.238 28.8008C47.713 22.0128 57.278 15.2959 62.494 11.7819C64.934 10.1379 67.735 9.11686 70.661 8.80386L103.058 5.33984L103.737 11.6928C90.855 13.0708 85.046 20.5059 71.356 17.7039Z" fill="#4C4854"/>
<path d="M103.738 11.6939C105.211 13.2059 108.229 14.6589 111.806 10.4609C113.43 8.55494 116.071 9.89993 119.227 7.82693C120.766 6.81593 122.204 5.46796 122.204 5.46796C126.456 6.16896 126.104 2.87695 126.104 2.87695L103.059 5.34094L103.738 11.6939Z" fill="#FDCFAD"/>
</svg>
