<svg width="111" height="82" viewBox="0 0 111 82" fill="none" xmlns="http://www.w3.org/2000/svg">
<path d="M54.097 71.1632L36.5341 57.0562C36.5341 57.0562 34.411 52.2752 26.446 53.1422L27.1531 55.4762L14.1841 61.2662C15.6641 62.7842 17.879 64.9152 19.972 66.4432C31.792 75.0762 53.9781 80.0862 53.9781 80.0862H86.933V73.6972C73.978 73.6972 67.412 66.9212 54.097 71.1632Z" fill="#433F4B"/>
<path d="M86.9341 73.6976C88.2371 72.0376 91.084 70.2726 95.087 74.0666C96.905 75.7896 99.388 74.1706 102.746 75.8966C104.384 76.7386 105.957 77.9256 105.957 77.9256C110.111 76.7766 110.111 80.0866 110.111 80.0866H86.9351L86.9341 73.6976Z" fill="#E5BD9F"/>
<path d="M16.5621 53.8007C16.5621 53.8007 17.5431 61.9947 14.8611 76.9517C14.6721 78.0037 10.8531 77.3667 10.9731 76.0787C11.3981 71.5007 10.1161 62.4857 11.3781 54.2197C11.6151 52.6627 16.5621 53.8007 16.5621 53.8007Z" fill="#E5BD9F"/>
<path d="M10.9719 50.8739L10.5619 29.8289C10.5209 27.9149 11.9529 26.1829 13.8659 26.1019C15.8899 26.0159 17.5329 27.6569 17.4829 29.6499L16.9959 50.8609C16.9699 51.9089 16.7109 55.7949 16.7109 55.7949C15.9849 57.1139 11.1279 56.1219 11.1279 56.1219C11.1279 56.1219 10.9739 50.9419 10.9719 50.8739Z" fill="#E5BD9F"/>
<path d="M11.766 75.7275L5.57305 78.4676L0.372057 79.6836C0.372057 79.6836 0.201063 81.2076 1.79106 81.2076C3.38106 81.2076 5.04203 81.2076 6.36803 81.2076C7.25003 81.2076 7.25504 80.8945 8.40904 80.6855C9.03904 80.5715 9.67204 80.6726 10.297 80.8116C14.35 81.7096 16.059 79.4115 14.733 75.8175L11.766 75.7275Z" fill="#E5BD9F"/>
<path d="M9.50251 16.0732L12.7695 16.3722C12.7695 16.3722 16.3075 20.7763 18.0025 24.0723C19.6975 27.3682 20.9185 32.8753 19.2935 39.9453C17.8435 46.2573 20.6135 51.3572 20.6135 51.3572L8.6615 53.3712C8.6615 53.3712 4.53952 44.4443 4.30152 40.1133C4.30152 40.1133 0.679463 36.3362 2.58246 33.6172C3.88446 31.7562 7.5105 26.9532 9.6745 23.7072C9.9845 23.2422 9.03851 21.1562 7.70051 19.4582L9.50251 16.0732Z" fill="#FDCFAD"/>
<path d="M20.8304 8.0816C23.0884 9.4596 27.1024 6.07961 24.5804 2.42561C22.4744 -0.625389 18.0745 0.973603 18.0335 3.9676C18.0065 5.9176 20.1824 7.6866 20.8304 8.0816Z" fill="#7F562D"/>
<path d="M19.7501 8.63174L20.8301 8.08174C20.8301 8.08174 21.0161 4.97875 18.0331 3.96875L17.2231 4.67274L19.7501 8.63174Z" fill="#F05587"/>
<path d="M5.4992 8.33677C4.4052 6.57377 4.73017 5.35078 6.89117 3.64778C8.91917 2.04978 16.4412 0.987766 19.4302 6.67877C22.2742 12.0948 18.3632 17.4708 14.5132 18.7328C12.3532 19.4408 11.2822 17.1208 11.2822 17.1208C11.2822 17.1208 6.7792 10.3998 5.4992 8.33677Z" fill="#7F562D"/>
<path d="M6.47526 5.82129C6.47526 5.82129 5.60827 6.09529 5.16227 7.16629C4.94127 7.69829 4.8823 7.88829 4.6403 8.53429C4.1843 9.75529 4.7883 10.8083 3.7703 11.6443C2.7523 12.4803 1.77531 12.7733 1.77531 12.7733C1.77531 12.7733 1.54027 13.0923 1.83927 13.5343C2.13827 13.9763 3.09326 14.0673 3.16026 14.2953C3.22726 14.5243 2.7653 15.2523 2.7653 15.2523C2.7653 15.2523 2.51328 15.7013 3.02628 16.1853C2.54728 16.3313 2.49329 16.8673 2.85929 17.2033C3.22529 17.5393 3.07127 17.9153 2.73527 18.4783C2.39927 19.0413 2.38229 19.8373 4.18729 19.9793C5.99229 20.1203 9.26229 20.2963 12.0573 17.3913C12.0573 17.3913 13.8233 17.4763 14.6553 14.8113C15.4863 12.1453 12.8743 12.1653 12.5673 13.5003C12.2133 15.0383 10.8873 15.5553 10.8873 15.5553C10.8873 15.5553 11.1163 14.5593 11.6033 12.4463C11.6033 12.4463 6.92926 9.25929 6.47526 5.82129Z" fill="#FDCFAD"/>
<path d="M54.097 72.6362L36.5341 57.0572C36.5341 57.0572 33.005 50.1862 25.04 51.0532L14.1841 62.7382C15.6641 64.2552 17.879 66.3862 19.972 67.9152C31.792 76.5482 53.9781 81.5582 53.9781 81.5582H86.933V75.1692C73.978 75.1692 67.412 68.3942 54.097 72.6362Z" fill="#4C4854"/>
<path d="M20.6129 51.3584C20.6129 51.3584 17.843 46.2584 19.293 39.9464C20.917 32.8764 19.697 27.3694 18.002 24.0734C15.451 22.9514 12.8379 24.8074 10.5939 27.9614C8.34994 31.1154 5.16395 30.0604 5.16395 30.0604C4.08395 31.5374 3.12696 32.8404 2.58296 33.6174C0.679958 36.3364 4.30195 40.1134 4.30195 40.1134C4.53995 44.4444 8.84595 57.3924 14.1849 62.7384L25.041 51.0534C23.719 50.9564 22.2469 51.0304 20.6129 51.3584Z" fill="#F05587"/>
<path d="M17.8026 53.8007C17.8026 53.8007 18.7836 61.9947 16.1016 76.9517C15.9126 78.0037 12.0936 77.3667 12.2136 76.0787C12.6386 71.5007 11.3566 62.4857 12.6176 54.2197C12.8556 52.6627 17.8026 53.8007 17.8026 53.8007Z" fill="#FDCFAD"/>
<path d="M12.2127 50.8739L11.8026 29.8289C11.7616 27.9149 13.1936 26.1829 15.1066 26.1019C17.1306 26.0159 18.7736 27.6569 18.7236 29.6499L18.2376 50.8609C18.2116 51.9089 17.9526 55.7949 17.9526 55.7949C17.2266 57.1139 12.3696 56.1219 12.3696 56.1219C12.3696 56.1219 12.2137 50.9419 12.2127 50.8739Z" fill="#FDCFAD"/>
<path d="M13.0058 75.7275L6.81279 78.4676L1.6118 79.6836C1.6118 79.6836 1.44081 81.2076 3.03081 81.2076C4.62081 81.2076 6.28177 81.2076 7.60777 81.2076C8.48977 81.2076 8.49479 80.8945 9.64879 80.6855C10.2788 80.5715 10.9118 80.6726 11.5368 80.8116C15.5908 81.7096 17.2988 79.4115 15.9728 75.8175L13.0058 75.7275Z" fill="#FDCFAD"/>
<path d="M86.9341 75.1693C88.2371 73.5093 91.084 71.7443 95.087 75.5383C96.905 77.2613 99.388 75.6423 102.746 77.3683C104.384 78.2093 105.957 79.3973 105.957 79.3973C110.111 78.2483 110.111 81.5583 110.111 81.5583H86.9351L86.9341 75.1693Z" fill="#FDCFAD"/>
</svg>
