<svg width="319" height="316" viewBox="0 0 319 316" fill="none" xmlns="http://www.w3.org/2000/svg">
<g clip-path="url(#clip0_16_2)">
<path d="M118.783 76.4319C149.097 69.0945 102.339 -0.0211498 161.231 0.0107532C220.123 0.0413536 177.81 69.7615 203.514 77.2375C179.064 89.1424 136.623 86.6003 118.783 76.4319Z" fill="black"/>
<path d="M161.711 3.45815C149.862 3.62681 137.625 8.44247 134.747 17.6651C130.249 35.5383 138.212 56.7145 147.961 69.59C148.3 87.9465 129.482 95.6868 117.604 100.081C100.023 107.632 96.3678 115.614 96.1755 134.143C96.057 145.587 88.7693 165.318 86.1064 175.035C80.945 193.867 74.4527 193.214 65.0424 209.086C51.3078 232.253 46.6575 252.323 29.4795 270.143C26.0678 268.578 23.9512 270.117 21.1758 272.055C16.877 274.932 13.6112 278.18 9.88325 281.65C8.78042 282.527 7.38156 282.867 5.99725 282.857C6.33433 284.34 6.73225 284.883 7.78296 284.518C10.9735 283.351 14.723 279.757 15.8187 280.363C15.3225 287.142 5.36982 296.639 1.08382 304.546C-0.939383 308.313 0.16116 308.882 1.98816 308.02C-0.303754 311.466 1.55696 312.383 3.81307 309.06C3.75565 311.027 4.41445 311.237 5.99739 309.443C10.0088 304.437 14.1931 299.143 18.4974 294.488C14.9705 300.287 7.99939 308.64 9.56882 309.443C12.0929 309.802 14.9468 303.908 16.7294 301.555C22.1971 293.845 27.1905 289.315 31.89 282.025L34.5685 275.378C53.1462 257.473 72.7571 238.248 85.46 218.883C95.6988 203.277 98.8034 195.381 103.089 180.124C107.234 165.369 113.904 139.958 122.067 126.665C143.612 134.664 174.547 135.136 195.281 121.68C206.165 134.697 212.659 164.042 217.006 180.719C220.679 194.814 226.033 203.73 233.533 216.363C248.656 241.835 265.753 257.039 284.567 274.549C285.269 278.467 287.535 282.471 289.346 285.409C296.123 293.722 299.583 298.021 306.295 306.534C307.392 308.036 308.178 308.459 309.566 309.748C311.686 307.534 302.938 298.909 300.638 294.488C305.412 299.417 309.561 304.032 314.032 309.443C315.221 310.836 317.158 310.06 316.126 308.097C318.141 311.203 319.083 307.978 317.498 305.691C319.018 306.8 319.412 305.795 318.495 303.626C316.532 300.031 314.561 296.671 312.246 293.656C309.035 289.283 301.603 281.663 303.318 280.363C304.526 279.339 307.446 282.37 309.566 283.686C312.032 285.111 313.609 284.378 314.032 282.857C312.806 282.806 311.315 282.426 309.798 281.179C306.123 277.63 302.598 275.538 298.852 272.055C295.866 269.808 293.818 269.351 290.372 269.979C272.364 253.165 265.268 225.322 253.612 207.595C243.966 192.924 241.118 193.424 234.83 177.377C230.868 167.267 224.227 145.091 223.92 134.138C223.356 114.064 218.252 104.915 199.23 99.2572C181.593 94.3232 174.476 85.255 172.066 69.8346C185.58 55.8547 189.111 33.2657 186.352 16.9952C185.017 7.75948 173.559 3.28428 161.709 3.45283L161.711 3.45815Z" fill="#E5A094"/>
<path d="M117.671 97.0785C115.131 97.3156 112.936 98.5574 111.231 100.204C119.602 114.553 122.819 123.326 123.523 133.21C119.023 147.345 116.619 168.022 130.283 168.322C131.43 196.423 130.679 217.801 114.748 245.971C86.0308 253.132 58.7022 264.466 32.6108 277.625C31.1488 282.091 23.4979 289.697 16.7134 298.891C29.9988 326.856 124.751 295.583 164.862 289.235C201.162 291.962 301.028 337.121 306.248 303.756C300.185 296.405 294.662 289.065 289.333 282.599C263.436 265.858 233.87 255.295 204.393 245.389C189.171 216.158 176.833 204.79 185.332 168C201.67 166.546 197.137 145.894 193.415 132.928C193.267 121.539 197.663 112.698 204.751 98.4915C203.166 97.2728 201.247 96.3428 198.635 96.425C194.878 113.904 173.493 122.042 156.089 121.932C138.686 121.822 126.603 113.829 117.671 97.0785Z" fill="#E9835B"/>
<path d="M189.908 276.015C196.985 271.319 204.191 265.443 212.228 265.215C215.501 265.492 218.775 265.769 222.048 266.046C226.161 265.804 229.686 264.621 232.762 263.98C236.504 263.567 239.681 265.322 239.904 268.538C232.076 270.261 226.859 271.78 219.37 273.522C216.878 274.208 214.99 275.323 213.12 276.845C204.672 276.923 198.648 276.743 189.908 276.015Z" fill="#E5A094"/>
<path d="M119.483 259.819C115.107 257.095 102.296 266.729 92.5958 268.534C89.3438 269.012 86.3209 266.811 82.7752 266.873C78.3355 267.046 74.6981 269.395 71.1692 271.857C66.3063 271.331 61.4669 272.497 61.3486 276.011C63.4359 278.13 67.5963 276.559 72.8669 276.938C85.3149 277.586 94.7458 281.068 105.813 282.479C116.879 283.891 129.08 282.343 140.807 285.98H141.7C143.446 281.62 143.924 278.431 143.485 273.519C120.416 271.06 126.72 266.314 119.483 259.819Z" fill="#E5A094"/>
<path d="M141.594 285.905C154.622 286.088 167.872 285.974 180.554 288.428C199.397 292.483 213.583 295.805 231.437 300.504C243.667 303.573 250.651 305.3 259.641 307.911C271.973 311.452 276.222 312.037 288.946 312.215C294.397 312.33 297.565 311.658 301.848 311.757C298.151 314.109 293.136 315.283 288.689 315.845C278.635 316.397 267.421 314.229 257.612 312.407C250.954 311.494 240.645 308.25 230.353 305.406C215.084 301.18 195.667 295.47 176.082 290.878C163.732 288.425 146.519 286.799 141.59 285.905H141.594Z" fill="#333E4C"/>
<path d="M143.48 273.569C157.581 275.497 168.457 276.839 181.874 276.839C185.568 276.853 187.439 276.26 189.909 276.007C192.884 275.731 195.107 275.093 198.837 275.178C212.735 275.385 222.703 275.978 236.334 277.669C251.624 279.902 264.415 281.394 279.188 285.977C265.251 283.72 251.242 281.939 237.228 280.163C224.115 278.445 210.282 279.567 198.84 279.33C191.507 279.062 184.94 278.847 176.52 278.501C165.389 277.908 153.797 276.528 143.483 273.569H143.48Z" fill="#333E4C"/>
<path d="M49.8542 305.632C59.8477 305.454 71.8231 303.758 81.76 302.691C93.992 301.246 107.488 298.437 120.331 296.316C136.887 293.629 146.565 292.071 159.68 289.948C147.479 292.768 132.902 295.939 120.7 298.708C107.839 301.35 99.3877 303.371 82.1142 306.633C71.8888 308.422 60.3877 310.041 49.74 310.064C39.2125 310.036 22.4217 309.942 17.1714 299.469C26.9137 306.318 38.7431 305.574 49.8542 305.632Z" fill="#333E4C"/>
<path d="M169.526 36.8877C160.426 41.8375 164.522 48.9928 165.651 57.4471C165.665 44.5492 164.393 43.9654 169.526 36.8877Z" fill="#CD986B"/>
<path d="M155.171 62.3756C157.494 61.9394 158.856 60.8972 161.035 62.2621C164.322 60.844 164.753 62.0236 167.813 62.7173C161.663 66.179 160.399 66.5786 155.171 62.3756Z" fill="#C44B38"/>
<path d="M137.789 48.5118C133.569 26.6637 139.931 19.2646 161.205 19.6661C182.479 20.066 187.894 38.3182 183.452 48.1874C198.915 30.1321 193.003 0.218476 160.967 0.00312982C128.929 -0.211232 127.964 28.9073 137.789 48.5118Z" fill="black"/>
<path d="M141.894 39.0977C146.407 41.782 149.205 42.2332 155.501 41.8706C148.997 44.5355 144.289 43.3782 141.894 39.0977Z" fill="black"/>
<path d="M159.78 56.6144C159.781 56.68 159.757 56.745 159.709 56.8056C159.662 56.8663 159.593 56.9215 159.505 56.968C159.417 57.0144 159.312 57.0513 159.197 57.0765C159.082 57.1017 158.959 57.1146 158.834 57.1146C158.709 57.1146 158.586 57.1017 158.471 57.0765C158.356 57.0513 158.251 57.0144 158.163 56.968C158.075 56.9215 158.006 56.8663 157.959 56.8056C157.911 56.745 157.888 56.68 157.888 56.6144C157.888 56.5489 157.911 56.4839 157.959 56.4232C158.006 56.3626 158.075 56.3074 158.163 56.2609C158.251 56.2144 158.356 56.1776 158.471 56.1524C158.586 56.1272 158.709 56.1143 158.834 56.1143C158.959 56.1143 159.082 56.1272 159.197 56.1524C159.312 56.1776 159.417 56.2144 159.505 56.2609C159.593 56.3074 159.662 56.3626 159.709 56.4232C159.757 56.4839 159.781 56.5489 159.78 56.6144Z" fill="#CD986B"/>
<path d="M164.137 56.6144C164.137 56.68 164.113 56.745 164.066 56.8056C164.019 56.8663 163.949 56.9215 163.862 56.968C163.774 57.0144 163.669 57.0513 163.554 57.0765C163.439 57.1017 163.316 57.1146 163.191 57.1146C163.066 57.1146 162.943 57.1017 162.828 57.0765C162.713 57.0513 162.608 57.0144 162.52 56.968C162.432 56.9215 162.363 56.8663 162.316 56.8056C162.268 56.745 162.244 56.68 162.245 56.6144C162.244 56.5489 162.268 56.4839 162.316 56.4232C162.363 56.3626 162.432 56.3074 162.52 56.2609C162.608 56.2144 162.713 56.1776 162.828 56.1524C162.943 56.1272 163.066 56.1143 163.191 56.1143C163.316 56.1143 163.439 56.1272 163.554 56.1524C163.669 56.1776 163.774 56.2144 163.862 56.2609C163.949 56.3074 164.019 56.3626 164.066 56.4232C164.113 56.4839 164.137 56.5489 164.137 56.6144Z" fill="#CD986B"/>
<path d="M180.537 39.0977C176.025 41.782 173.226 42.2332 166.93 41.8706C173.435 44.5355 178.143 43.3782 180.537 39.0977Z" fill="black"/>
<path d="M148.969 67.547C155.535 76.6345 158.35 76.2467 160.605 76.3208C162.861 76.3951 168.44 75.5219 170.829 67.7344C161.893 74.798 155.328 71.4953 148.969 67.547Z" fill="#CD986B"/>
<path d="M130.017 168.316C136.14 170.419 141.012 169.264 144.283 163.936C139.799 166.655 135.072 168.25 130.017 168.316Z" fill="#333E4C"/>
<path d="M185.297 168.116C178.207 170.246 174.058 168.018 172.101 162.541C175.466 165.192 178.781 167.88 185.297 168.116Z" fill="#333E4C"/>
<path d="M115 246.101C119.863 247.24 123.728 249.866 127.184 253.101C125.038 248.317 121.645 245.128 115 246.101Z" fill="#333E4C"/>
<path d="M204.423 245.508C199.455 245.346 195.759 247.907 193.616 253.79C197.123 250.134 200.639 246.829 204.423 245.508Z" fill="#333E4C"/>
</g>
<defs>
<clipPath id="clip0_16_2">
<rect width="319" height="316" fill="white"/>
</clipPath>
</defs>
</svg>
